<svg width="40" height="40" fill="none" xmlns="http://www.w3.org/2000/svg"><path d="M32.145 8.92c-.001-.017-.004-.033-.007-.05l-.01-.07-.016-.063-.014-.057c-.006-.02-.014-.04-.021-.059l-.02-.055a1.622 1.622 0 00-.026-.054c-.009-.02-.017-.039-.027-.057l-.029-.05a1.288 1.288 0 00-.034-.055c-.013-.02-.028-.038-.042-.057a.809.809 0 00-.114-.133l-.001-.001-.026-.023a.896.896 0 00-.065-.058l-.046-.034a.64.64 0 00-.052-.039l-.054-.032c-.018-.01-.034-.021-.052-.03-.019-.011-.037-.019-.056-.028l-.055-.025a.793.793 0 00-.055-.02 1.48 1.48 0 00-.117-.035.431.431 0 00-.062-.015l-.063-.01-.058-.008a1.468 1.468 0 00-.084-.004l-.037-.001h-15.07a1.25 1.25 0 100 2.5h12.067A8684.578 8684.578 0 018.215 30.063a1.25 1.25 0 001.767 1.769 8663.466 8663.466 0 0019.67-19.752v12.038a1.25 1.25 0 102.5 0V9.043c0-.04-.003-.082-.007-.123z" fill="#000"/></svg>