<svg width="40" height="40" fill="none" xmlns="http://www.w3.org/2000/svg"><path d="M2.148 30.623a4.027 4.027 0 004.023 4.023h1.93v1.956a1.25 1.25 0 102.5 0v-1.956h1.93a4 4 0 002.846-1.179 3.998 3.998 0 001.177-2.844 4.027 4.027 0 00-4.023-4.022h-1.93V3.398a1.25 1.25 0 10-2.5 0v23.203h-1.93a3.993 3.993 0 00-2.844 1.178 3.995 3.995 0 00-1.179 2.844zm2.947-1.077c.287-.287.67-.445 1.076-.445h6.36A1.524 1.524 0 0113.61 31.7a1.517 1.517 0 01-1.078.446h-6.36a1.524 1.524 0 01-1.076-2.6zm22.108-17.952A4.027 4.027 0 0023.18 7.57h-1.93V3.398a1.25 1.25 0 10-2.5 0v4.173h-1.93a3.993 3.993 0 00-2.844 1.178 3.997 3.997 0 00-1.18 2.845 4.027 4.027 0 004.024 4.022h1.93v20.986a1.25 1.25 0 102.5 0V15.616h1.93a3.993 3.993 0 002.844-1.178 3.995 3.995 0 001.18-2.844zm-2.946 1.077c-.288.288-.67.445-1.077.445h-6.36a1.524 1.524 0 01-1.077-2.6c.287-.287.67-.445 1.077-.445h6.36a1.524 1.524 0 011.077 2.6zM33.83 26.6h-1.931V3.399a1.25 1.25 0 10-2.5 0v23.203h-1.93a4 4 0 00-2.845 1.178 3.998 3.998 0 00-1.178 2.844 4.027 4.027 0 004.023 4.022h1.93v1.956a1.25 1.25 0 102.5 0v-1.956h1.93a3.993 3.993 0 002.844-1.178 3.997 3.997 0 001.179-2.844 4.027 4.027 0 00-4.023-4.022zm1.076 5.1c-.288.288-.67.446-1.077.446h-6.36a1.524 1.524 0 01-1.077-2.6 1.517 1.517 0 011.077-.445h6.36a1.524 1.524 0 011.077 2.6z" fill="#000"/></svg>