<svg width="40" height="40" fill="none" xmlns="http://www.w3.org/2000/svg"><path d="M20 2.148a17.733 17.733 0 00-12.623 5.23A17.733 17.733 0 002.148 20a17.73 17.73 0 005.23 12.623A17.733 17.733 0 0020 37.852a17.73 17.73 0 0012.623-5.23A17.734 17.734 0 0037.852 20a17.73 17.73 0 00-5.23-12.623A17.733 17.733 0 0020 2.148zm0 33.204c-8.465 0-15.352-6.887-15.352-15.352S11.535 4.648 20 4.648 35.352 11.535 35.352 20 28.465 35.352 20 35.352z" fill="#000"/><path d="M27.164 10.297a4.659 4.659 0 00-3.315 1.372l-6.653 6.654-1.046-1.046a4.658 4.658 0 00-3.315-1.374c-1.252 0-2.43.488-3.315 1.373a4.657 4.657 0 00-1.372 3.315c0 1.253.488 2.43 1.372 3.314l4.467 4.467a4.509 4.509 0 003.21 1.329 4.51 4.51 0 003.209-1.33l10.073-10.073a4.657 4.657 0 001.372-3.314c0-1.254-.488-2.43-1.372-3.315a4.657 4.657 0 00-3.315-1.372zm1.547 6.234L18.638 26.605a2.025 2.025 0 01-1.441.597 2.025 2.025 0 01-1.441-.597l-4.467-4.467a2.172 2.172 0 01-.639-1.547c0-.585.227-1.134.64-1.547.413-.413.962-.64 1.547-.64.584 0 1.133.227 1.547.64l1.93 1.93a1.25 1.25 0 001.768 0l7.537-7.537c.413-.413.962-.64 1.547-.64.584 0 1.133.227 1.546.64.413.413.64.962.64 1.547s-.229 1.135-.641 1.547z" fill="#000"/></svg>