<svg width="40" height="40" fill="none" xmlns="http://www.w3.org/2000/svg"><path d="M20.565 2.148a17.733 17.733 0 00-12.622 5.23A17.733 17.733 0 002.713 20c0 4.768 1.858 9.252 5.23 12.623a17.735 17.735 0 0012.622 5.229 17.73 17.73 0 0012.623-5.23A17.734 17.734 0 0038.417 20c0-4.768-1.857-9.252-5.229-12.623a17.735 17.735 0 00-12.623-5.229zm0 33.204c-8.464 0-15.351-6.887-15.351-15.352S12.1 4.648 20.565 4.648 35.917 11.535 35.917 20 29.03 35.352 20.565 35.352z" fill="#000"/><path d="M30.993 14.26a4.659 4.659 0 00-1.373-3.315 4.657 4.657 0 00-3.315-1.373 4.659 4.659 0 00-3.314 1.373l-2.426 2.426-2.426-2.426a4.693 4.693 0 00-6.629 0 4.693 4.693 0 000 6.629L13.936 20l-2.426 2.426a4.693 4.693 0 000 6.63 4.693 4.693 0 006.63 0l2.425-2.427 2.426 2.426a4.657 4.657 0 003.314 1.373 4.659 4.659 0 003.315-1.373 4.657 4.657 0 001.373-3.315 4.658 4.658 0 00-1.373-3.315L27.195 20l2.425-2.425a4.657 4.657 0 001.373-3.315zm-3.14 1.547l-3.31 3.309a1.25 1.25 0 000 1.768l3.31 3.31c.413.413.64.962.64 1.546 0 .585-.227 1.134-.64 1.547-.414.413-.963.64-1.548.64a2.173 2.173 0 01-1.546-.64l-3.31-3.31a1.247 1.247 0 00-1.767 0l-3.31 3.31a2.19 2.19 0 01-3.093 0 2.19 2.19 0 010-3.094l3.31-3.309a1.25 1.25 0 000-1.768l-3.31-3.31a2.19 2.19 0 010-3.093 2.19 2.19 0 013.094 0l3.309 3.31a1.25 1.25 0 001.768 0l3.31-3.31c.413-.413.962-.64 1.546-.64.585 0 1.134.227 1.547.64.413.413.64.962.64 1.547 0 .584-.227 1.133-.64 1.547z" fill="#000"/></svg>