<svg width="40" height="40" fill="none" xmlns="http://www.w3.org/2000/svg"><path d="M31.19 37.852a1.248 1.248 0 001.25-1.25V3.398c0-.69-.56-1.25-1.25-1.25H8.81c-.69 0-1.25.56-1.25 1.25v33.204a1.249 1.249 0 001.919 1.056L20 31.006l10.522 6.653c.204.128.436.193.668.193zm-1.25-3.52l-9.272-5.863a1.25 1.25 0 00-1.336 0l-9.272 5.863V4.648h19.881v29.684z" fill="#000"/><path d="M17.202 21.863a1.247 1.247 0 001.767 0l7.51-7.51a1.25 1.25 0 10-1.768-1.768l-6.625 6.626-2.796-2.796a1.25 1.25 0 00-1.768 1.768l3.68 3.68z" fill="#000"/></svg>