<svg width="40" height="40" fill="none" xmlns="http://www.w3.org/2000/svg"><path d="M9.706 24.375a.105.105 0 01-.106.039l-4.02-.927a2.314 2.314 0 00-1.763.297 2.319 2.319 0 00-1.077 1.713c-.08.71.163 1.406.668 1.91l9.183 9.184a2.315 2.315 0 001.91.668 2.32 2.32 0 001.714-1.077 2.316 2.316 0 00.297-1.763l-.927-4.02a.103.103 0 01.04-.105l4.1-3.09a.366.366 0 01.477.034l7.397 7.398c.502.502 1.171.78 1.881.78s1.38-.277 1.882-.78l1.246-1.246a2.651 2.651 0 00.572-2.909l-4.537-10.843a.821.821 0 01.25-.96l5.962-4.674a6.315 6.315 0 00.57-9.43 6.31 6.31 0 00-9.43.57l-4.673 5.963a.82.82 0 01-.96.25L9.519 6.817a2.65 2.65 0 00-2.908.574L5.365 8.637a2.664 2.664 0 000 3.764l7.397 7.397a.367.367 0 01.034.478l-3.09 4.099zm4.824-6.346l-7.397-7.397a.161.161 0 010-.227l1.246-1.247a.16.16 0 01.176-.034l10.843 4.538a3.326 3.326 0 003.892-1.014l4.673-5.963a3.812 3.812 0 115.35 5.35l-5.962 4.674a3.327 3.327 0 00-1.014 3.892l4.537 10.843a.16.16 0 01-.034.175l-1.246 1.246a.161.161 0 01-.228 0l-7.397-7.397a2.877 2.877 0 00-3.75-.263l-4.1 3.09a2.606 2.606 0 00-.97 2.664l.794 3.447-8.352-8.35 3.447.794c1 .23 2.047-.15 2.665-.97l3.09-4.101a2.877 2.877 0 00-.263-3.75z" fill="#000"/></svg>