<svg width="40" height="40" fill="none" xmlns="http://www.w3.org/2000/svg"><path d="M37.498 36.18V23.485c0-.69-.56-1.25-1.25-1.25H23.551c-.69 0-1.25.56-1.25 1.25v12.697c0 .69.56 1.25 1.25 1.25h12.696a1.25 1.25 0 001.251-1.25zm-2.5-1.25H24.801V24.735h10.196v10.197h.001zm-5.38-16.596a1.25 1.25 0 000-1.25l-8.221-14.24a1.25 1.25 0 00-2.166 0l-8.221 14.24a1.249 1.249 0 001.083 1.875h16.443c.446 0 .859-.239 1.082-.625zm-15.36-1.875l6.056-10.491 6.056 10.49H14.257zm4.154 13.371c0-4.386-3.568-7.955-7.955-7.955-4.387 0-7.956 3.569-7.956 7.956 0 4.386 3.57 7.954 7.956 7.954 4.387 0 7.955-3.569 7.955-7.954zm-13.41 0a5.462 5.462 0 015.455-5.455 5.461 5.461 0 015.455 5.456 5.461 5.461 0 01-5.455 5.455A5.462 5.462 0 015 29.83z" fill="#000"/></svg>