<svg width="40" height="40" fill="none" xmlns="http://www.w3.org/2000/svg"><path d="M6.3 34.985h30.302c.69 0 1.25-.56 1.25-1.25v-18.36c0-.69-.56-1.25-1.25-1.25H27.61c-.094 0-.184.01-.272.03l-7.515-7.81a3.71 3.71 0 00-2.853-1.33h-.566a3.731 3.731 0 00-3.727 3.728v5.383H6.3a4.157 4.157 0 00-4.153 4.152v12.556A4.157 4.157 0 006.3 34.985zm22.56-18.36h6.492v15.86H28.86v-15.86zM4.648 18.277c0-.91.742-1.652 1.653-1.652h7.626c.691 0 1.25-.56 1.25-1.25V8.742a1.23 1.23 0 011.228-1.227h.566c.37 0 .716.165.95.452.023.027.045.053.07.078l8.37 8.698v15.741H6.3a1.655 1.655 0 01-1.653-1.652V18.277z" fill="#000"/></svg>