<svg width="40" height="40" fill="none" xmlns="http://www.w3.org/2000/svg"><path d="M15.635 29.122c2.123 0 4.215-.503 6.096-1.456l8.957 8.956a4.167 4.167 0 002.967 1.23 4.17 4.17 0 002.968-1.229 4.202 4.202 0 000-5.935l-6.219-6.218a.032.032 0 01-.005-.006.026.026 0 00-.005-.005l-2.728-2.728a13.494 13.494 0 001.456-6.097c0-7.436-6.05-13.486-13.487-13.486C8.2 2.148 2.15 8.198 2.15 15.634c0 7.437 6.05 13.488 13.486 13.488zm8.284-2.845l.196-.158.128-.104.212-.181.105-.09c.086-.077.171-.155.256-.234l.051-.047c.206-.193.405-.392.598-.597l.019-.02c.089-.096.177-.192.263-.29l.054-.062c.073-.085.147-.17.219-.256l.069-.085c.064-.08.13-.16.192-.24.005-.006.01-.011.014-.018l1.453 1.453-2.399 2.399-1.453-1.453.023-.017zm10.937 8.578c-.32.32-.746.497-1.2.497-.453 0-.88-.177-1.2-.497l-5.339-5.34 2.399-2.399 5.34 5.34a1.7 1.7 0 010 2.4zM15.635 4.648c6.058 0 10.986 4.929 10.986 10.986a10.987 10.987 0 01-1.751 5.953 11.094 11.094 0 01-3.742 3.565 10.985 10.985 0 01-5.493 1.47c-6.058 0-10.986-4.929-10.986-10.987S9.577 4.648 15.635 4.648z" fill="#000"/><path d="M15.635 23.723a8.06 8.06 0 002.42-.369c.035-.01.069-.022.102-.033l.133-.044.062-.023.17-.061.031-.013a9.14 9.14 0 00.198-.079l.005-.002a8.087 8.087 0 004.247-4.123c.014-.03.026-.061.04-.093a7.194 7.194 0 00.311-.828c.245-.78.37-1.595.37-2.421 0-4.46-3.63-8.09-8.09-8.09s-8.088 3.63-8.088 8.09 3.628 8.089 8.089 8.089zm0-13.677a5.596 5.596 0 015.159 7.742 5.585 5.585 0 01-5.16 3.434 5.596 5.596 0 01-5.588-5.589 5.594 5.594 0 015.589-5.587z" fill="#000"/></svg>