<svg width="40" height="40" fill="none" xmlns="http://www.w3.org/2000/svg"><path d="M5.756 36.882a3.612 3.612 0 003.608-3.607v-8.716a3.612 3.612 0 00-3.608-3.608 3.612 3.612 0 00-3.608 3.608v8.716a3.612 3.612 0 003.608 3.607zM4.648 24.56a1.109 1.109 0 012.216 0v8.716a1.109 1.109 0 01-2.216 0V24.56zm6.996-5.347v14.061a3.612 3.612 0 003.607 3.608 3.612 3.612 0 003.608-3.608v-14.06a3.612 3.612 0 00-3.608-3.608 3.612 3.612 0 00-3.607 3.607zm4.716 0v14.061a1.109 1.109 0 01-2.216 0v-14.06a1.109 1.109 0 012.216 0zm8.387-9.397a3.612 3.612 0 00-3.607 3.608v19.85a3.612 3.612 0 003.607 3.607 3.612 3.612 0 003.608-3.608V13.425a3.611 3.611 0 00-3.608-3.609zm1.11 23.458a1.109 1.109 0 01-2.217 0V13.425a1.109 1.109 0 012.216 0v19.85zm4.778-26.551v26.552a3.612 3.612 0 003.608 3.607 3.612 3.612 0 003.608-3.607V6.723a3.612 3.612 0 00-3.608-3.608 3.612 3.612 0 00-3.608 3.608zm4.717 0v26.552a1.109 1.109 0 01-2.216 0V6.723a1.109 1.109 0 012.216 0z" fill="#000"/></svg>