<svg width="40" height="40" fill="none" xmlns="http://www.w3.org/2000/svg"><path d="M10.356 4.266C8.832 5.69 7.993 7.639 7.993 9.756c0 2.086.795 4.287 2.181 6.038 1.545 1.951 3.564 3.026 5.687 3.026s4.142-1.075 5.687-3.026c1.386-1.752 2.18-3.953 2.18-6.038 0-2.117-.838-4.066-2.362-5.49-1.462-1.366-3.417-2.118-5.504-2.118-2.088 0-4.045.753-5.506 2.118zm10.871 5.49c0 2.974-2.394 6.564-5.367 6.564s-5.367-3.59-5.367-6.564c0-1.416.558-2.718 1.57-3.664.997-.931 2.346-1.444 3.797-1.444 1.452 0 2.8.513 3.797 1.444 1.012.946 1.57 2.248 1.57 3.664zm7.935 12.476c-.874 0-1.72.14-2.528.419a9.673 9.673 0 00-.841-.85 11.167 11.167 0 00-2.259-1.557 13.148 13.148 0 00-1.313-.599 1.249 1.249 0 00-1.103.094c-1.627.983-3.445 1.502-5.259 1.502-1.813 0-3.63-.52-5.258-1.502a1.25 1.25 0 00-1.103-.094c-.457.179-.898.38-1.312.599-1.914 1.005-3.424 2.462-4.253 4.102-.811 1.604-1.072 3.526-.796 5.876.301 2.575.7 4.767 1.22 6.702a1.25 1.25 0 001.206.927h20.593c.311 0 .6-.115.822-.31.705.206 1.435.31 2.184.31 4.306 0 7.81-3.504 7.81-7.81 0-4.305-3.504-7.81-7.81-7.81zM6.538 35.352c-.376-1.59-.679-3.374-.918-5.42-.22-1.874-.047-3.29.544-4.458.596-1.18 1.727-2.252 3.185-3.018a9.81 9.81 0 01.522-.255c1.871 1.009 3.928 1.54 5.988 1.54 2.059 0 4.116-.53 5.987-1.54.18.082.355.168.523.257a8.65 8.65 0 011.988 1.422l-.042.034-.07.056-.129.106a4.746 4.746 0 00-.203.177l-.05.045-.182.171-.026.027-.148.15-.055.058c-.04.042-.078.083-.115.125-.02.022-.04.043-.058.065a5.696 5.696 0 00-.11.128l-.052.062a8.54 8.54 0 00-.127.16l-.027.034c-.05.066-.1.132-.148.2a.585.585 0 00-.034.048c-.037.051-.072.103-.107.154l-.045.069-.091.141-.045.072-.09.151-.037.063a7.523 7.523 0 00-.335.663l-.034.078c-.023.051-.044.103-.065.155l-.031.077-.067.173-.021.06a6.428 6.428 0 00-.081.236l-.012.037a8.544 8.544 0 00-.06.2l-.023.078c-.014.055-.03.11-.043.164l-.021.087-.039.165-.018.081a8.087 8.087 0 00-.039.201l-.008.046a8.555 8.555 0 00-.04.25l-.008.066-.023.184-.008.09c-.006.055-.01.112-.015.167l-.006.092a5.991 5.991 0 00-.01.177c0 .027-.002.054-.003.08a7.79 7.79 0 001.405 4.732l.055.078a6.252 6.252 0 00.199.264c.05.064.101.126.153.189l.048.057a7.529 7.529 0 00.218.246H6.538v.002zm22.624 0a5.26 5.26 0 01-2.299-.522 5.341 5.341 0 01-2.998-5.165 5.281 5.281 0 012.927-4.376 5.248 5.248 0 012.37-.557 5.316 5.316 0 015.31 5.31 5.316 5.316 0 01-5.31 5.31z" fill="#000"/><path d="M31.188 28.791h-.776v-.775a1.25 1.25 0 10-2.5 0v.775h-.776a1.25 1.25 0 100 2.5h.776v.776a1.25 1.25 0 102.5 0v-.776h.776a1.25 1.25 0 100-2.5z" fill="#000"/></svg>