<svg width="40" height="40" fill="none" xmlns="http://www.w3.org/2000/svg"><path d="M4.904 7.808c-1.129 1.399-1.652 3.574-1.332 5.542l.005.032a62.837 62.837 0 008.176 21.207c.944 1.586 2.606 2.793 4.34 3.15.37.077.737.115 1.095.115a4.798 4.798 0 002.887-.954l3.637-2.783a.862.862 0 00.052-.042c1.348-1.151 1.585-3.223.535-4.634a46.216 46.216 0 01-2.145-3.385l-.025-.042c-.86-1.378-2.805-2.295-4.456-1.386l-1.335.69a56.05 56.05 0 01-3.137-8.136l1.47-.389a.948.948 0 00.063-.018c1.689-.543 2.705-2.36 2.278-4.06a46.136 46.136 0 01-.688-3.998c-.266-1.607-1.71-3.207-3.583-3.004l-4.527.376c-1.316.074-2.46.668-3.31 1.72zm3.5.774l4.562-.38c.014 0 .028-.002.042-.004.372-.044.763.457.847.908a48.607 48.607 0 00.73 4.21c.11.417-.172.92-.593 1.071l-2.666.705a1.249 1.249 0 00-.885 1.542 58.787 58.787 0 004.22 10.944 1.248 1.248 0 001.69.547l2.486-1.285a.54.54 0 00.036-.02c.328-.184.877.122 1.124.501a48.42 48.42 0 002.292 3.607c.265.349.202.927-.129 1.229l-3.591 2.747c-.569.41-1.232.54-1.973.387-1.053-.217-2.112-.996-2.698-1.984l-.01-.015a60.334 60.334 0 01-7.852-20.357c-.2-1.256.134-2.715.812-3.556.407-.503.902-.762 1.515-.794a.592.592 0 00.04-.003zm16.108 15.386a1.25 1.25 0 001.702-.478 8.402 8.402 0 00.517-7.158 8.415 8.415 0 00-5.942-5.17 1.25 1.25 0 10-.569 2.434 5.918 5.918 0 013.814 8.67 1.25 1.25 0 00.478 1.702zm9.735 4.045a17.591 17.591 0 001.087-14.998A17.64 17.64 0 0022.88 2.182a1.25 1.25 0 10-.568 2.434 15.142 15.142 0 0110.69 9.298 15.098 15.098 0 01-.933 12.873 1.25 1.25 0 002.178 1.226z" fill="#000"/></svg>