<svg width="40" height="40" fill="none" xmlns="http://www.w3.org/2000/svg"><path d="M6.022 22.884a5.166 5.166 0 00-1.195 3.796 5.164 5.164 0 001.84 3.53l8.766 7.346c.225.188.509.292.803.292h17.708c.69 0 1.25-.56 1.25-1.25V24.209a5.295 5.295 0 00-5.29-5.289h-5.422V13.2c0-2.867-2.333-5.2-5.2-5.2a5.206 5.206 0 00-5.2 5.2v9.655l-.735-.616a5.205 5.205 0 00-7.325.645zm1.915 1.606a2.703 2.703 0 013.803-.335l2.789 2.336a1.252 1.252 0 002.052-.957V13.2c0-1.49 1.211-2.7 2.7-2.7 1.49 0 2.7 1.21 2.7 2.7v6.97c0 .69.56 1.25 1.25 1.25h6.673a2.793 2.793 0 012.789 2.79v11.138H16.69l-8.418-7.054a2.681 2.681 0 01-.955-1.833 2.683 2.683 0 01.62-1.971z" fill="#000"/><path d="M28.291 17.119a1.25 1.25 0 001.558-.835c.31-1.025.467-2.093.467-3.173 0-6.045-4.918-10.963-10.963-10.963-6.044 0-10.962 4.918-10.962 10.963 0 1.29.222 2.553.66 3.755a1.25 1.25 0 002.349-.856 8.428 8.428 0 01-.51-2.9c0-4.665 3.797-8.462 8.463-8.462 4.666 0 8.463 3.797 8.463 8.463 0 .835-.121 1.66-.36 2.45a1.25 1.25 0 00.835 1.558z" fill="#000"/></svg>