<svg width="40" height="40" fill="none" xmlns="http://www.w3.org/2000/svg"><path d="M21.477 3.734c-7.625 0-14.04 5.274-15.793 12.364l-1.091-1.925a1.25 1.25 0 10-2.175 1.233l2.942 5.19v.002l.012.02c.015.027.03.052.047.077l.003.003.01.014.056.075.009.011v.001c.002.002.004.003.005.006a1.18 1.18 0 00.099.104l.059.053.012.01a1.674 1.674 0 00.091.067l.04.026.023.013a.825.825 0 00.055.03l.046.023.026.012.029.013.078.03.01.002.004.002.037.01c.022.008.046.013.07.019l.017.004.017.004a1.312 1.312 0 00.113.018l.018.001a1.136 1.136 0 00.214.002l.016-.002h.003c.005 0 .01 0 .015-.002l.065-.008a.343.343 0 00.048-.009l.015-.003c.032-.007.064-.015.095-.024l.023-.007c.009-.002.017-.006.025-.009l.033-.011a.78.78 0 00.04-.015l.023-.01.03-.014.044-.022.03-.016c.022-.012.043-.026.064-.039l.035-.022.013-.01a.72.72 0 00.04-.029l.013-.01.027-.02v-.001l4.613-3.823a1.25 1.25 0 00-1.595-1.925l-2.253 1.867c1.342-6.193 6.864-10.849 13.454-10.849 7.592 0 13.768 6.176 13.768 13.767 0 7.592-6.176 13.768-13.768 13.768a1.25 1.25 0 100 2.5c8.97 0 16.268-7.298 16.268-16.268S30.447 3.734 21.477 3.734z" fill="#000"/><path d="M21.477 11.531c-.69 0-1.25.56-1.25 1.25V20c0 .69.56 1.25 1.25 1.25h5.927a1.25 1.25 0 100-2.5h-4.677v-5.968c0-.69-.56-1.25-1.25-1.25z" fill="#000"/></svg>