<svg width="40" height="40" fill="none" xmlns="http://www.w3.org/2000/svg"><path d="M36.959 15.032l-16.37-8.744a1.249 1.249 0 00-1.178 0L3.04 15.032a1.25 1.25 0 00.052 2.232l3.731 1.775v10.73c0 1.457 1.457 2.51 4.453 3.224 2.344.558 5.442.866 8.722.866 3.28 0 6.378-.307 8.722-.866 2.997-.713 4.453-1.768 4.453-3.224V19.04l1.49-.71v4.838a1.25 1.25 0 102.5 0v-6.07a1.251 1.251 0 00-.205-2.065zm-6.284 14.554c-.256.221-1.147.707-3.223 1.125-2.068.416-4.715.646-7.452.646s-5.384-.23-7.452-.646c-2.075-.418-2.968-.905-3.223-1.125v-9.359l10.138 4.824a1.251 1.251 0 001.074 0l10.138-4.824v9.359zm.72-12.47l-.007.003L20 22.538 8.612 17.119a.01.01 0 01-.007-.003l-2.2-1.046L20 8.808l13.595 7.262-2.2 1.046z" fill="#000"/></svg>