<svg width="40" height="40" fill="none" xmlns="http://www.w3.org/2000/svg"><path d="M6.255 31.852a5.684 5.684 0 004.083.727c1.114 3.072 4.06 5.273 7.512 5.273h4.3c3.452 0 6.399-2.201 7.513-5.273a5.687 5.687 0 004.084-.727 5.66 5.66 0 002.721-4.858 5.653 5.653 0 00-2.125-4.438v-6.065c0-3.83-1.491-7.432-4.198-10.139A14.317 14.317 0 0020 2.148 14.322 14.322 0 008.237 8.282a14.262 14.262 0 00-2.58 8.209v6.064a5.651 5.651 0 00-2.125 4.439 5.662 5.662 0 002.723 4.858zm2.972-1.663c-.59 0-1.166-.162-1.667-.469a3.175 3.175 0 01-1.528-2.726c0-1.12.571-2.14 1.528-2.726a3.19 3.19 0 012.302-.405v6c0 .088.001.175.005.261a3.22 3.22 0 01-.64.065zm18.412-13.083a9.018 9.018 0 01-4.297-.793l.004-.007.024-.036.09-.141.042-.065.026-.041.027-.046c.024-.04.05-.08.073-.12l.02-.036c.02-.032.038-.065.057-.097l.023-.04.021-.039c.015-.025.03-.051.043-.077l.075-.136.024-.044.02-.038.003-.006.067-.128.046-.093.063-.126.045-.094.06-.129.01-.018.012-.029.02-.046c.021-.044.04-.09.06-.135l.038-.088.02-.045.015-.039.03-.072.028-.068.051-.132.02-.053.016-.04a8.835 8.835 0 00.083-.229c.005-.014.01-.026.013-.04l.017-.048.048-.144.03-.093.016-.049c.003-.008.005-.018.009-.026a71.838 71.838 0 00.095-.32l.006-.025.014-.053.038-.142.024-.095c.004-.016.009-.033.012-.05l.006-.024.018-.077.02-.086.03-.133.012-.062.01-.043.047-.241.005-.03.01-.055.026-.157.013-.082.007-.048.007-.047.009-.066.012-.092c.006-.05.013-.101.018-.153l.002-.015.003-.025.006-.055.015-.152.009-.095.005-.056a7.588 7.588 0 012.43 5.587v.618h-.002zm-4.913-7.754l.01.191.006.105A9.09 9.09 0 0122.687 11a9.022 9.022 0 01-2.659 5.421 9.032 9.032 0 01-6.632 2.568l-.103-.005a10.018 10.018 0 01-.215-.011l-.12-.01a7.924 7.924 0 01-.197-.018l-.123-.015a8.22 8.22 0 01-.196-.025l-.08-.012V16.49c0-3.136 1.966-6 4.89-7.13a7.627 7.627 0 012.749-.508 7.609 7.609 0 012.725.5zm-.576 26h-4.3a5.495 5.495 0 01-5.488-5.489v-8.446c.046.006.092.01.138.014l.15.016.213.017.14.01c.08.005.158.008.237.011l.118.006a11.493 11.493 0 003.115-.33 11.546 11.546 0 005.223-2.874 11.499 11.499 0 005.943 1.323v9.928h-4.042a3.814 3.814 0 00-3.596-2.558 3.812 3.812 0 00-3.808 3.808c0 2.1 1.708 3.807 3.808 3.807a3.814 3.814 0 003.596-2.557h3.592a5.497 5.497 0 01-5.039 3.314zm-.842-4.565A1.31 1.31 0 0120 32.094a1.31 1.31 0 01-1.308-1.307A1.31 1.31 0 0120 29.479a1.31 1.31 0 011.308 1.308zm11.131-1.067a3.19 3.19 0 01-2.306.404 7.29 7.29 0 00.005-.26v-6a3.184 3.184 0 012.302.405 3.175 3.175 0 011.527 2.725c0 1.12-.57 2.14-1.528 2.726zM10.287 9.715A11.83 11.83 0 0120 4.648a11.819 11.819 0 018.376 3.471 11.762 11.762 0 013.466 8.372v4.911a5.69 5.69 0 00-1.704-.066V16.49c0-2.707-1.055-5.253-2.97-7.168A10.107 10.107 0 0020 6.353a10.118 10.118 0 00-8.316 4.338 10.075 10.075 0 00-1.821 5.801v4.845a5.714 5.714 0 00-1.705.066v-4.91c0-2.441.736-4.785 2.129-6.778z" fill="#000"/><path d="M16.38 24.985a1.19 1.19 0 00.227-.093 1.254 1.254 0 00.565-.625 1.263 1.263 0 00.096-.478 1.072 1.072 0 00-.025-.244 1.226 1.226 0 00-.259-.548 1.132 1.132 0 00-.273-.247 1.254 1.254 0 00-.57-.204 1.177 1.177 0 00-.486.048 1.195 1.195 0 00-.331.156 1.274 1.274 0 00-.345.346 1.116 1.116 0 00-.115.215 1.17 1.17 0 00-.071.235 1.054 1.054 0 00-.025.243 1.32 1.32 0 00.054.363 1.233 1.233 0 00.157.331 1.287 1.287 0 00.155.19 1.159 1.159 0 00.19.155 1.286 1.286 0 00.45.187 1.232 1.232 0 00.607-.03zm6.377-.951a1.255 1.255 0 00.433.722 1.165 1.165 0 00.204.136 1.199 1.199 0 00.226.093 1.056 1.056 0 00.24.048 1.076 1.076 0 00.246 0 1.232 1.232 0 00.57-.205 1.292 1.292 0 00.273-.246 1.287 1.287 0 00.278-.67 1.318 1.318 0 00-.049-.485 1.196 1.196 0 00-.156-.331 1.136 1.136 0 00-.155-.19 1.14 1.14 0 00-.19-.156 1.436 1.436 0 00-.216-.115 1.266 1.266 0 00-.723-.072 1.566 1.566 0 00-.233.072 1.27 1.27 0 00-.748.91 1.262 1.262 0 000 .489z" fill="#000"/></svg>