<svg width="40" height="40" fill="none" xmlns="http://www.w3.org/2000/svg"><path d="M13.636 6.39c0-.69-.56-1.25-1.25-1.25H6.394c-.691 0-1.25.56-1.25 1.25v5.992c0 .69.559 1.25 1.25 1.25h5.991c.69 0 1.25-.56 1.25-1.25V6.391zm-2.5 4.742H7.644V7.641h3.491v3.491zm2.5 5.868c0-.69-.56-1.25-1.25-1.25H6.394c-.691 0-1.25.56-1.25 1.25v5.991c0 .691.559 1.25 1.25 1.25h5.991c.69 0 1.25-.559 1.25-1.25V17zm-2.5 4.742H7.644v-3.491h3.491v3.491zm4.618 1.249c0 .691.56 1.25 1.25 1.25h5.992c.69 0 1.25-.559 1.25-1.25V17c0-.69-.56-1.25-1.25-1.25h-5.992c-.69 0-1.25.56-1.25 1.25v5.991zm2.5-4.742h3.492v3.492h-3.492v-3.492zm-5.868 8.111H6.394a1.25 1.25 0 00-1.25 1.25v5.99c0 .691.559 1.25 1.25 1.25h5.991c.69 0 1.25-.559 1.25-1.25v-5.99c0-.69-.56-1.25-1.25-1.25zm-1.25 5.99H7.644v-3.49h3.491v3.49zm4.618 1.25c0 .691.56 1.25 1.25 1.25h5.992c.69 0 1.25-.559 1.25-1.25v-5.99c0-.691-.56-1.25-1.25-1.25h-5.992c-.69 0-1.25.559-1.25 1.25v5.99zm2.5-4.74h3.492v3.49h-3.492v-3.49zm8.11 4.74c0 .691.56 1.25 1.25 1.25h5.991c.69 0 1.25-.559 1.25-1.25v-5.99c0-.691-.56-1.25-1.25-1.25h-5.991c-.69 0-1.25.559-1.25 1.25v5.99zm2.5-4.74h3.491v3.49h-3.491v-3.49z" fill="#000"/></svg>