<svg width="151" height="143" fill="none" xmlns="http://www.w3.org/2000/svg"><path d="M15.303 143V0L101 11.306v120.388L15.303 143z" fill="#F6F6F6"/><path d="M15.303 143V0L0 7.639v128.639L15.303 143z" fill="#EDEDED"/><g clip-path="url(#clip0_772_64)"><path d="M103.909 83.196h13.116V80.26h-8.697c1.192-4.868 8.487-5.942 8.487-11.382 0-2.935-1.964-5.083-6.032-5.083-2.595 0-4.77.787-6.313 1.575l.912 2.72c1.403-.644 2.946-1.288 4.84-1.288 1.543 0 2.946.644 2.946 2.434.07 4.009-8.487 4.295-9.259 13.96zm39.349-4.081c-3.998 0-7.294-3.365-7.294-7.445s3.296-7.445 7.294-7.445c3.998 0 7.295 3.364 7.295 7.445 0 4.08-3.297 7.445-7.295 7.445zm0-13.53c-3.296 0-5.961 2.72-5.961 6.085 0 3.365 2.665 6.085 5.961 6.085 3.297 0 5.962-2.72 5.962-6.085 0-3.365-2.665-6.085-5.962-6.085z" fill="#00629A"/><path d="M147.397 71.67h-3.647v-3.723h-.982v4.725h4.629V71.67z" fill="#00629A"/><path d="M29.001 61.147h6.313c4.629 0 6.733 2.72 6.733 5.583 0 1.933-.912 3.651-2.595 4.582v.072c2.525.644 4.068 2.72 4.068 5.297 0 3.437-2.525 6.515-7.575 6.515H29v-22.05zm5.822 9.235c2.174 0 3.366-1.218 3.366-2.936 0-1.646-1.052-2.935-3.366-2.935h-1.824v5.87h1.824zm.63 9.52c2.596 0 4.069-1.001 4.069-3.22 0-1.862-1.403-3.007-3.577-3.007h-2.946v6.228h2.455zm11.012-17.466c0-1.36 1.052-2.434 2.385-2.434 1.332 0 2.454 1.002 2.454 2.434 0 1.289-1.052 2.362-2.454 2.362-1.403 0-2.385-1.002-2.385-2.362zm.42 4.94h3.928v15.82h-3.927v-15.82zm9.189 11.954v-8.805H53.27v-3.15h2.805v-3.651l3.928-1.146v4.797h4.7l-.983 3.15h-3.717v7.803c0 1.503.491 2.004 1.543 2.004.912 0 1.754-.358 2.385-.787l1.192 2.72c-1.122.788-3.016 1.217-4.559 1.217-2.806.072-4.489-1.503-4.489-4.152zm11.153-11.954h3.297l.42 1.79c1.404-1.432 2.666-2.148 4.28-2.148.7 0 1.542.214 2.174.644l-1.403 3.365a3.282 3.282 0 00-1.754-.502c-1.052 0-1.893.43-3.156 1.575v11.168h-3.928V67.376h.07zm11.713-4.942c0-1.36 1.052-2.434 2.385-2.434 1.332 0 2.384 1.074 2.384 2.434 0 1.289-1.052 2.362-2.455 2.362-1.402 0-2.314-1.002-2.314-2.362zm.42 4.94h3.929v15.82H79.36v-15.82zm11.855 7.876l-5.612-7.875h4.069l3.647 5.154 3.717-5.154h4.068l-5.681 7.875 5.751 7.946h-4.068L93.39 77.9l-3.79 5.296h-4.068l5.682-7.946z" fill="#3FC0F0"/><path d="M129.23 75.679V63.795h-2.455l-9.329 12.385v2.362h8.417v4.725h3.367v-4.725h2.805V75.68h-2.805zm-3.367-2.792v2.72h-2.244c-.702 0-1.964.072-2.385.072l4.769-6.587c0 .573-.14 2.291-.14 3.795z" fill="#00629A"/></g><defs><clipPath id="clip0_772_64"><path fill="#fff" transform="translate(29 60)" d="M0 0h121.553v23.484H0z"/></clipPath></defs></svg>