<svg width="155" height="63" fill="none" xmlns="http://www.w3.org/2000/svg"><path d="M31.16 0C13.942 0 0 13.942 0 31.16c0 17.217 13.942 31.16 31.16 31.16 17.217 0 31.16-13.943 31.16-31.16C62.32 13.942 48.377 0 31.16 0zm1.372 41.34c-5.533 0-10.047-4.47-10.047-10.048 0-5.576 4.514-10.003 10.047-10.003s10.047 4.47 10.047 10.048c0 5.577-4.514 10.003-10.047 10.003z" fill="url(#paint0_linear_1019_114)"/><path class="letter" d="M134.552 20.892c-1.328 0-2.435 1.018-2.435 2.39a2.428 2.428 0 002.435 2.434h14.65a5.67 5.67 0 013.939 1.593 5.045 5.045 0 011.151 1.594c.354.752.531 1.549.531 2.434 0 3.098-2.522 5.665-5.665 5.665h-24.476l1.637-1.637c1.063-1.062 2.346-1.638 3.851-1.638h14.96c1.328 0 2.435-1.018 2.435-2.39a2.456 2.456 0 00-2.435-2.434h-14.65a5.666 5.666 0 01-3.939-1.594 5.045 5.045 0 01-1.151-1.593 5.6 5.6 0 01-.531-2.434c0-3.099 2.523-5.666 5.665-5.666H155l-1.637 1.638c-1.062 1.062-2.346 1.637-3.851 1.637h-14.96zM69.534 36.958V17.616h7.303v13.987l16.996-13.987h6.197l-11.331 9.34.398.353c3.94 3.32 7.613 6.374 11.552 9.693h-6.064c-2.39 0-4.426-.752-6.24-2.345l-1.24-1.063-3.142-2.7-7.082 5.799-.354.31h-6.993v-.045z" fill="#fff"/><path class="letter" d="M125.747 27.31c-1.018-1.019-2.435-1.594-3.94-1.594h-14.65a2.456 2.456 0 01-2.434-2.434c0-1.328 1.106-2.39 2.434-2.39h14.96c1.505 0 2.789-.576 3.851-1.638l1.638-1.638h-24.477c-3.098 0-5.665 2.523-5.665 5.666a5.6 5.6 0 00.531 2.434c.31.62.664 1.15 1.15 1.593 1.019 1.018 2.435 1.594 3.94 1.594h14.65a2.456 2.456 0 012.435 2.434c0 1.328-1.107 2.39-2.435 2.39h-14.96c-1.416 0-2.655.531-3.674 1.46l1.727 1.461.442.354h20.537c3.099 0 5.666-2.522 5.666-5.665 0-.885-.177-1.682-.531-2.434a6.825 6.825 0 00-1.195-1.594zM70.774 43.464l2.921 2.7h-.974l-2.567-2.346v2.346h-.752v-5.4h.752v2.346l2.567-2.346h.974l-2.921 2.7zm5.133-1.151c.53 0 .973.133 1.328.398.31.266.486.62.486 1.107v2.39h-.708v-.398c-.31.354-.752.53-1.328.53-.442 0-.84-.088-1.106-.31a1.176 1.176 0 01-.443-.929c0-.442.133-.752.443-.93.31-.176.708-.309 1.195-.309h1.195c0-.575-.354-.84-1.107-.84-.22 0-.442.043-.663.132a.869.869 0 00-.399.398h-.797c.089-.398.31-.664.664-.885.399-.221.797-.354 1.24-.354zm1.106 2.39v-.266h-1.195c-.62 0-.93.222-.93.62s.31.62.886.62c.398 0 .664-.089.885-.266.221-.221.354-.442.354-.708zm4.957 1.506h-3.319v-.62l2.39-2.523h-2.39v-.62h3.276v.62l-2.39 2.523h2.434v.62zm.578-1.373h.796c.133.221.355.443.62.575.266.133.576.222.93.222.398 0 .752-.089 1.018-.266.265-.177.398-.398.398-.664 0-.265-.088-.442-.266-.575-.177-.133-.486-.221-.885-.266l-.93-.088c-.53-.044-.884-.221-1.15-.487-.266-.266-.354-.575-.354-1.018 0-.487.177-.885.575-1.195.399-.31.886-.443 1.55-.443.62 0 1.106.133 1.504.443.399.31.664.62.797 1.018h-.797c-.088-.221-.31-.398-.575-.575a2.057 2.057 0 00-.93-.222c-.398 0-.752.089-.973.266-.222.177-.354.398-.354.664 0 .487.354.752 1.018.84l1.018.09c.486.044.885.22 1.195.486.265.266.442.62.442 1.018 0 .443-.177.841-.575 1.15-.398.31-.93.488-1.594.488-.663 0-1.195-.133-1.549-.443-.53-.265-.796-.62-.93-1.018zm5.754-3.452h.708v1.018h1.195v.62H89.01v1.77c0 .266.044.443.177.576.088.133.265.177.531.177h.531v.62h-.575c-.443 0-.753-.09-.974-.31-.221-.222-.354-.487-.354-.886v-1.947h-.708v-.62h.708v-1.018h-.044zm2.965 1.062h.708v.531c.265-.398.708-.575 1.328-.575h.22v.664h-.22c-.399 0-.753.133-.974.354-.221.221-.354.575-.354.974v1.814h-.708v-3.762zm4.781-.133c.575 0 1.018.177 1.416.575.399.399.576.841.576 1.417 0 .575-.177 1.062-.576 1.416-.398.398-.84.576-1.416.576s-1.018-.178-1.416-.576c-.355-.398-.576-.84-.576-1.416s.177-1.063.576-1.417c.398-.398.84-.575 1.416-.575zm-.885 2.965c.221.266.53.399.93.399.353 0 .663-.133.929-.398a1.457 1.457 0 000-1.903c-.222-.266-.532-.4-.93-.4s-.664.134-.93.4a1.458 1.458 0 00-.353.973c-.045.354.088.664.354.93zm5.001.886l-1.682-3.718h.797l1.284 2.833 1.283-2.833h.753l-1.771 3.984c-.265.575-.442.974-.575 1.106-.177.222-.443.354-.797.354h-.531v-.62h.221c.222 0 .399-.044.487-.132.089-.089.222-.31.354-.575l.177-.399zm2.699-1.328h.797c.133.221.354.443.62.575.265.133.575.222.929.222.398 0 .753-.089 1.018-.266.266-.177.398-.398.398-.664 0-.265-.088-.442-.265-.575-.177-.133-.487-.221-.885-.266l-.93-.088c-.531-.044-.885-.221-1.151-.487-.265-.266-.354-.575-.354-1.018 0-.487.177-.885.576-1.195.398-.31.885-.443 1.549-.443.619 0 1.106.133 1.505.443.398.31.664.62.796 1.018h-.796c-.089-.221-.31-.398-.576-.575a2.054 2.054 0 00-.929-.222c-.399 0-.753.089-.974.266-.221.177-.354.398-.354.664 0 .487.354.752 1.018.84l1.018.09a2.09 2.09 0 011.195.486c.266.266.443.62.443 1.018 0 .443-.177.841-.576 1.15-.398.31-.929.488-1.593.488-.664 0-1.195-.133-1.549-.443a2.043 2.043 0 01-.93-1.018zm7.303.797c.486 0 .796-.178 1.018-.487h.752c-.133.354-.354.664-.664.84-.31.222-.664.31-1.106.31-.576 0-1.018-.177-1.417-.575-.354-.398-.575-.84-.575-1.416s.177-1.063.531-1.417c.354-.398.841-.575 1.372-.575.531 0 .974.177 1.328.575.354.355.531.841.531 1.373v.31h-3.054c.044.31.177.575.398.752.31.221.576.31.886.31zm-.045-2.656c-.31 0-.575.088-.796.266a1.044 1.044 0 00-.399.708h2.302a1.201 1.201 0 00-.354-.709c-.177-.177-.443-.265-.753-.265zm2.921-.531h.709v.531c.265-.398.708-.575 1.327-.575h.222v.664h-.222c-.398 0-.752.133-.973.354-.222.221-.354.575-.354.974v1.814h-.709v-3.762zm7.04 0L118.4 46.21h-.708l-1.682-3.763h.796l1.284 2.833 1.284-2.833h.708zm.708-.885v-.84h.841v.84h-.841zm.044.885h.708v3.763h-.708v-3.763zm5.534 1.062h-.752c-.222-.354-.531-.53-1.018-.53-.354 0-.664.132-.886.398a1.46 1.46 0 00-.354.973c0 .399.133.709.354.974.222.266.532.398.886.398.442 0 .796-.177 1.018-.53h.752a1.886 1.886 0 01-.664.884c-.31.222-.664.31-1.106.31-.576 0-1.018-.177-1.417-.575-.398-.398-.575-.841-.575-1.416 0-.576.177-1.063.575-1.417.399-.398.841-.575 1.417-.575.398 0 .796.088 1.106.31.31.132.531.442.664.796zm2.741 2.125c.487 0 .797-.178 1.018-.487h.753c-.133.354-.354.664-.664.84-.31.222-.664.31-1.107.31-.575 0-1.018-.177-1.416-.575-.398-.398-.575-.84-.575-1.416s.177-1.063.531-1.417c.354-.398.841-.575 1.372-.575.531 0 .974.177 1.328.575.354.355.531.841.531 1.373v.31h-3.054c.044.31.177.575.398.752.31.221.576.31.885.31zm-.044-2.656c-.31 0-.575.088-.797.266a1.043 1.043 0 00-.398.708h2.302a1.207 1.207 0 00-.354-.709c-.177-.177-.443-.265-.753-.265z" fill="#fff"/><path d="M42.401 11.242c-10.976 0-19.917 8.896-19.917 19.917v.089c.088-5.533 4.559-9.96 10.047-9.96 5.533 0 10.047 4.471 10.047 10.048s-4.47 10.047-10.047 10.047c-5.355 0-9.693-4.16-10.003-9.427.399 10.622 9.162 19.165 19.873 19.165 10.977 0 19.918-8.897 19.918-19.918 0-11.02-8.897-19.961-19.918-19.961z" fill="url(#paint1_linear_1019_114)"/><defs><linearGradient id="paint0_linear_1019_114" x1="62.321" y1="31.155" x2="-.002" y2="31.155" gradientUnits="userSpaceOnUse"><stop offset=".1" stop-color="#72C9FA"/><stop offset=".258" stop-color="#55A5F8"/><stop offset=".583" stop-color="#357DF7"/><stop offset=".841" stop-color="#2165F5"/><stop offset="1" stop-color="#1A5CF5"/></linearGradient><linearGradient id="paint1_linear_1019_114" x1="22.52" y1="31.155" x2="62.321" y2="31.155" gradientUnits="userSpaceOnUse"><stop offset=".1" stop-color="#72C9FA"/><stop offset=".258" stop-color="#55A5F8"/><stop offset=".583" stop-color="#357DF7"/><stop offset=".841" stop-color="#2165F5"/><stop offset="1" stop-color="#1A5CF5"/></linearGradient></defs></svg>