<svg width="200" height="40" fill="none" xmlns="http://www.w3.org/2000/svg"><path class="logo__letter" d="M63.984 28.957v-8.852h-10.76v8.852h-2.216V9.647h2.216v8.57h10.76v-8.57H66.2v19.31h-2.216zm25.903-9.629c0 1.44-.27 2.762-.813 3.99-.541 1.227-1.28 2.289-2.216 3.162a10.198 10.198 0 01-3.25 2.078 10.214 10.214 0 01-3.866.731c-1.354 0-2.634-.26-3.84-.731a9.742 9.742 0 01-3.177-2.078c-.911-.873-1.625-1.935-2.142-3.163a10.15 10.15 0 01-.788-3.989c0-1.464.27-2.81.837-4.037.566-1.227 1.28-2.266 2.216-3.139a10.363 10.363 0 013.226-2.077 10.358 10.358 0 013.89-.756c1.354 0 2.635.26 3.841.756a9.743 9.743 0 013.176 2.077c.912.873 1.626 1.936 2.143 3.14a10.75 10.75 0 01.763 4.036zm-2.388 0a8.963 8.963 0 00-.567-3.187 7.898 7.898 0 00-1.576-2.573 7.637 7.637 0 00-2.437-1.723c-.936-.425-1.97-.637-3.078-.637a7.58 7.58 0 00-3.102.637 7.287 7.287 0 00-2.438 1.723 7.5 7.5 0 00-1.576 2.573 9.06 9.06 0 00-.566 3.187c0 1.133.197 2.195.566 3.187.37.991.911 1.84 1.576 2.573a7.637 7.637 0 002.438 1.723c.935.401 1.97.614 3.102.614a7.76 7.76 0 003.078-.614 7.637 7.637 0 002.437-1.723 7.898 7.898 0 001.576-2.573 9.05 9.05 0 00.567-3.187zm16.055 4.414c0 .78-.148 1.534-.468 2.195a5.703 5.703 0 01-1.281 1.747c-.566.52-1.206.897-1.97 1.18a6.95 6.95 0 01-2.437.425c-1.157 0-2.216-.165-3.127-.472-.936-.307-1.822-.755-2.709-1.322l1.084-1.84a11.16 11.16 0 002.413 1.25c.837.307 1.65.449 2.438.449.64 0 1.206-.095 1.674-.26a3.44 3.44 0 001.182-.755c.295-.307.541-.685.689-1.086a3.67 3.67 0 00.246-1.275c0-.425-.049-.802-.172-1.157a3.313 3.313 0 00-.591-1.015c-.271-.306-.69-.637-1.206-.944-.517-.307-1.207-.637-2.02-.991a18.313 18.313 0 01-2.216-1.11c-.615-.377-1.108-.778-1.477-1.227a4.148 4.148 0 01-.812-1.37 4.754 4.754 0 01.172-3.587 4.992 4.992 0 011.256-1.676c.541-.496 1.206-.873 1.97-1.157.763-.283 1.6-.425 2.511-.425.862 0 1.674.118 2.438.378a7.863 7.863 0 012.019.944l-.985 1.794a6.287 6.287 0 00-1.699-.85 6.118 6.118 0 00-1.945-.33 5.28 5.28 0 00-1.675.26 3.15 3.15 0 00-1.206.708c-.32.283-.542.637-.714 1.038a3.152 3.152 0 00-.246 1.252c0 .66.246 1.274.788 1.84.517.567 1.403 1.11 2.659 1.653 1.034.449 1.896.897 2.61 1.298.689.425 1.255.85 1.674 1.275.419.448.689.92.862 1.416.197.52.271 1.11.271 1.747zm10.907-12.206v17.42h-2.216v-17.42h-6.747V9.648h15.66v1.888h-6.697zm9.355 17.421V9.647h11.795v1.89h-9.603v6.68h8.642v1.888h-8.642v6.963h9.603v1.889h-11.795zm26.323.005l-5.368-7.625c-.222 0-.443.024-.665.024-.221 0-.443.024-.689.024-.32 0-.714 0-1.157-.024-.419 0-.813-.024-1.133-.024v7.625h-2.191V9.818a73.649 73.649 0 012.265-.236 37.993 37.993 0 012.388-.094c1.305 0 2.438.141 3.398.448.985.283 1.773.685 2.438 1.204a5.311 5.311 0 011.452 1.841c.321.708.468 1.487.468 2.313 0 1.346-.369 2.526-1.132 3.47-.739.968-1.847 1.676-3.275 2.101l5.86 8.073h-2.659v.024zm-1.157-13.526c0-.566-.124-1.086-.321-1.582a3.534 3.534 0 00-.96-1.274c-.418-.354-.96-.637-1.576-.85a6.973 6.973 0 00-2.191-.33c-.493 0-.96.023-1.477.047-.518.023-.936.07-1.305.189v7.837c.32.047.738.07 1.181.094a23.2 23.2 0 001.256.024c1.896 0 3.25-.378 4.112-1.134.862-.731 1.281-1.746 1.281-3.02zm6.155 11.659c0-.59.197-1.063.615-1.487a2.135 2.135 0 011.502-.614c.616 0 1.108.189 1.551.614.419.4.616.897.616 1.487 0 .566-.222 1.062-.616 1.487-.418.401-.935.59-1.551.59a2.112 2.112 0 01-1.502-.59 2.042 2.042 0 01-.615-1.487zm19.255 1.862l-7.411-9.041v9.04h-4.678V9.649h4.678v8.403l7.067-8.403h5.54l-8.273 9.182 8.716 10.127h-5.639zm15.043-4.084h9.652v4.084h-17.088l-.147-.472 9.972-14.73h-9.258V9.648h16.718l.148.495-9.997 14.73z" fill="#fff"/><path d="M16.43 11.104c-3.136-3.276-5.89-1.997-8.11.24L6.484 13.34 3.96 15.976c-5.279 5.512-5.279 14.459 0 19.89 4.132 4.314 10.176 5.193 15.226 2.796-1.377-.719-2.755-1.597-3.902-2.796l-2.602-2.715c-1.606-.24-2.907-.8-4.055-1.998-2.754-2.875-2.754-7.508 0-10.384l8.493-8.946-.689-.72z" fill="#2378BE"/><path d="M8.55 20.61c-2.754 2.875-2.754 7.588 0 10.463 1.224 1.279 2.678 1.918 4.208 2.077l-1.76-1.837c-2.142-2.237-3.213-5.192-.153-8.467l8.416-8.787-2.218-2.317L8.55 20.61z" fill="#524C9B"/><path d="M19.184 38.662c-1.377-.719-2.754-1.598-3.902-2.796l-2.525-2.636-1.76-1.837c-2.142-2.237-3.29-5.192-.229-8.468l.612-.639 8.493 8.787c2.754 2.876 7.191 2.876 9.946 0 1.224-1.278 1.836-2.796 1.989-4.393l2.525-2.636c1.148-1.198 2.066-2.556 2.678-4.074 2.295 5.192 1.377 11.583-2.678 15.896-5.28 5.512-13.772 5.512-19.051 0" fill="#6FB630"/><path d="M11.38 22.287l2.22-2.317v.08l8.34 8.707c3.136 3.275 5.89 2.077 8.11-.16l1.759-1.917c-.153 1.598-.842 3.275-1.99 4.473a6.9 6.9 0 01-10.022 0l-8.416-8.866z" fill="#27867F"/><path d="M29.742 19.331l-8.416 8.787.536.56c3.137 3.274 5.815 2.316 8.187-.08l1.76-1.918 2.524-2.636c5.28-5.512 5.203-14.458-.076-19.89A13.091 13.091 0 0024.769.08c-1.912 0-3.978.4-5.738 1.278a13.908 13.908 0 013.902 2.876l2.525 2.636c1.53.16 3.06.879 4.208 2.077 2.754 2.955 2.83 7.509.076 10.384z" fill="#F3930D"/><path d="M29.82 19.251l-8.492 8.867L19.11 25.8l8.416-8.786c3.137-3.276 1.99-6.151-.153-8.388l-1.76-1.837c1.53.16 3.061.878 4.209 2.077 2.754 2.875 2.754 7.508 0 10.384z" fill="#FDCF18"/><path d="M26.912 17.654L24.77 19.89l-8.263-8.707c-3.137-3.275-5.892-2.077-8.11.16l-1.76 1.837-.076.08c.153-1.598.841-3.195 1.989-4.393a6.9 6.9 0 0110.023 0l8.339 8.787z" fill="#911E74"/><path d="M27.37 8.627L25.612 6.79l-2.448-2.556C20.485 1.438 17.043 0 13.599 0c-3.443 0-6.886 1.358-9.563 4.074C-.02 8.467-1.014 14.698 1.28 19.89a15.36 15.36 0 012.755-3.994L6.56 13.26c.153-1.598.842-3.195 1.99-4.393a6.9 6.9 0 0110.022 0l8.34 8.787.688-.64c3.06-3.275 1.913-6.23-.23-8.387z" fill="#E51F2C"/></svg>