<svg width="38" height="45" fill="none" xmlns="http://www.w3.org/2000/svg"><path d="M36 25.92V7.031l-8.815-.63C23.178 5.549 21.651 4.3 19 1.995c-2.625 2.356-4.26 3.55-8.815 4.408L2 7.032V25.92c.718 3.642 1.597 5.608 5.037 8.815L19 42.92l12.593-8.185.096-.12c2.401-2.963 3.776-4.661 4.311-8.695z" fill="#1AAAA1" fill-opacity=".87" stroke="#0A4399" stroke-width="2.519"/><path d="M28.154 21.308l-3.823 3.219c.37-1.71.75-2.678 1.811-4.426-.457-2.039-.962-3.108-1.81-5.03l-.805 3.22c-.534.5-.9.537-1.61.401-.707-.115-1.103-.159-1.81-1.005-.234-.61-.365-1.099-.604-2.012-.233-.66-.245-1.128-.201-2.012l1.61-3.823-5.231 3.018c-.663.831-1.025 1.33-1.61 2.414-.707 1.28-.958 2.033-1.207 3.42l.603 5.835-3.62-4.829v5.03c.21 1.256.421 1.96 1.005 3.219.698 1.074 1.174 1.61 2.213 2.414 1.068.948 1.745 1.254 3.018 1.61 1.42.42 2.247.54 3.822.402 1.627-.424 2.338-.803 3.42-1.61 1.338-.907 2.011-1.508 3.018-2.816l1.81-6.64z" fill="#A30008" stroke="#FFF500" stroke-width=".805"/></svg>