<svg width="40" height="41" fill="none" xmlns="http://www.w3.org/2000/svg"><path d="M35 21.704l-1-9.334L38 4 26.74 5.63C23.44 4.927 22.185 3.898 20 2c-2.162 1.94-3.509 2.923-7.26 3.63L2 4l4 8.37-1 9.334c.591 3 2.316 4.618 5.148 7.259L20 39l10.37-10.037c2.027-2.502 4.184-3.893 4.63-7.26z" fill="#5809BD" stroke="#00ACE2" stroke-width="2.074"/><path fill="#FFA340" stroke="#000" stroke-width=".277" d="M13.687 20.865h12.769v1.922H13.687z"/><path d="M11.82 15.98c.492 1.931.91 2.962 1.951 4.693l12.68.002c1.099-1.783 1.533-2.836 1.576-4.934l-.78 1.174-.398.586-.399.544h-.98c-.426-.02-.663-.04-1.046-.362-1.054-1.216-1.297-1.923-1.719-3.185-.6 1.35-.96 2.089-1.814 3.237l-.409.384-.52.007c-.367-.046-.567-.086-.837-.365-1.157-1.13-1.53-1.795-2.13-2.99-.657 1.455-.958 2.315-2.123 3.43-.26.295-.41.392-.686.473l-.399-.22-.238-.293-.242-.314s-.839-1.225-1.488-1.867z" fill="#EAFD3F" stroke="#131113" stroke-width=".357"/><path d="M12.364 15.376c0 .32-.284.59-.647.59-.363 0-.648-.27-.648-.59 0-.321.285-.59.648-.59.363 0 .647.269.647.59zm5.257-1.173c0 .32-.284.59-.648.59-.363 0-.647-.27-.647-.59 0-.32.284-.59.647-.59.364 0 .648.27.648.59zm5.734-.293c0 .32-.284.59-.647.59-.363 0-.648-.27-.648-.59 0-.321.285-.59.648-.59.363 0 .648.269.648.59zm5.575 1.026c0 .32-.284.59-.647.59-.363 0-.648-.27-.648-.59 0-.32.285-.59.648-.59.363 0 .648.27.648.59z" fill="#58026D" stroke="#000" stroke-width=".139"/></svg>