<svg width="40" height="50" fill="none" xmlns="http://www.w3.org/2000/svg"><path d="M17.584 27.417h4.833V15.333h-4.834v12.084zM20 34.667c.685 0 1.26-.232 1.723-.696.463-.463.694-1.036.694-1.721s-.231-1.259-.694-1.723c-.464-.462-1.038-.694-1.723-.694s-1.258.232-1.72.694c-.465.464-.697 1.038-.697 1.723s.233 1.258.697 1.72c.462.465 1.035.697 1.72.697zM.667 41.917v-4.834H5.5V20.167c0-3.343 1.007-6.314 3.021-8.913 2.014-2.597 4.632-4.298 7.854-5.104V.833h7.25V6.15c3.222.806 5.84 2.507 7.854 5.104 2.014 2.599 3.021 5.57 3.021 8.913v16.916h4.834v4.834H.666zM20 49.167c-1.329 0-2.466-.473-3.412-1.419-.948-.947-1.421-2.085-1.421-3.415h9.667c0 1.33-.473 2.468-1.42 3.415-.946.946-2.085 1.419-3.414 1.419z" fill="#A56E71"/></svg>