<svg width="38" height="43" fill="none" xmlns="http://www.w3.org/2000/svg"><path d="M36.684 24.664V6.77l-8.992-.596c-4.088-.808-5.645-1.992-8.35-4.175-2.678 2.231-4.346 3.362-8.992 4.175L2 6.77v17.893c.733 3.45 1.63 5.312 5.138 8.35l12.204 7.753 12.846-7.753.098-.113c2.45-2.808 3.853-4.417 4.398-8.237z" fill="#271A3D" stroke="#131313" stroke-width="2.386"/><path d="M19.342 6.955l2.781 8.559h9l-7.281 5.29 2.781 8.56-7.281-5.29-7.28 5.29 2.78-8.56-7.28-5.29h8.999l2.781-8.56z" fill="#930077"/></svg>