<svg width="22" height="20" fill="none" xmlns="http://www.w3.org/2000/svg"><g clip-path="url(#clip0_65_147)" stroke="#090404" stroke-width="1.01" stroke-linecap="round" stroke-linejoin="round"><path d="M10.654 12.202c1.449 0 2.624-1.046 2.624-2.336 0-1.29-1.175-2.335-2.624-2.335-1.45 0-2.624 1.046-2.624 2.335 0 1.29 1.175 2.336 2.624 2.336z"/><path d="M17.126 12.201a1.156 1.156 0 00-.1.748c.052.253.187.486.389.67l.052.046c.163.144.292.316.38.505a1.41 1.41 0 010 1.192 1.55 1.55 0 01-.38.506c-.162.144-.355.26-.568.338a1.937 1.937 0 01-1.34 0 1.776 1.776 0 01-.567-.338l-.053-.047c-.206-.18-.467-.3-.751-.346a1.607 1.607 0 00-.84.09c-.259.098-.48.262-.635.47a1.186 1.186 0 00-.24.704v.133c0 .413-.184.809-.512 1.1a1.865 1.865 0 01-1.237.457c-.464 0-.909-.164-1.237-.456a1.475 1.475 0 01-.512-1.101v-.07a1.194 1.194 0 00-.27-.717 1.437 1.437 0 00-.675-.459 1.607 1.607 0 00-.84-.088 1.511 1.511 0 00-.752.345l-.052.047c-.163.145-.355.26-.568.338a1.94 1.94 0 01-1.34 0 1.777 1.777 0 01-.567-.338 1.559 1.559 0 01-.38-.505 1.41 1.41 0 010-1.193c.088-.189.217-.36.38-.505l.052-.047c.202-.183.337-.416.389-.668a1.156 1.156 0 00-.1-.748 1.333 1.333 0 00-.53-.565 1.573 1.573 0 00-.79-.214h-.15c-.463 0-.908-.164-1.236-.456a1.475 1.475 0 01-.513-1.1c0-.413.185-.81.513-1.101a1.865 1.865 0 011.237-.456h.078c.29-.006.57-.09.806-.24.236-.15.415-.359.515-.6.116-.236.151-.496.1-.749a1.242 1.242 0 00-.389-.669l-.052-.046a1.558 1.558 0 01-.38-.505 1.41 1.41 0 010-1.193c.088-.189.217-.36.38-.505.162-.145.355-.26.568-.338a1.938 1.938 0 011.34 0c.212.078.405.193.567.338l.052.047c.207.18.468.3.752.345a1.6 1.6 0 00.84-.089h.07c.259-.098.48-.262.635-.47.155-.21.239-.454.24-.705v-.132c0-.413.184-.81.512-1.101a1.865 1.865 0 011.237-.456c.464 0 .909.164 1.237.456.328.292.512.688.512 1.1v.07c.001.251.085.496.24.705.155.209.376.373.635.471a1.6 1.6 0 00.84.089c.284-.046.545-.166.752-.346l.052-.046c.162-.145.355-.26.568-.338a1.938 1.938 0 011.34 0c.212.078.405.193.567.338.163.144.292.316.38.505a1.409 1.409 0 010 1.192c-.088.19-.217.36-.38.505l-.052.047a1.242 1.242 0 00-.389.67c-.051.252-.017.512.1.747v.062c.11.23.295.427.53.565.234.138.51.213.79.214h.15c.463 0 .908.164 1.236.456.328.291.512.687.512 1.1 0 .413-.184.81-.512 1.101a1.864 1.864 0 01-1.237.456h-.078a1.573 1.573 0 00-.791.214 1.334 1.334 0 00-.53.564v0z"/></g><defs><clipPath id="clip0_65_147"><path fill="#fff" transform="translate(.159 .526)" d="M0 0h20.99v18.681H0z"/></clipPath></defs></svg>