<svg width="33" height="43" fill="none" xmlns="http://www.w3.org/2000/svg"><path d="M29.19 28.707V14.729l-6.419-.466c-2.918-.631-4.03-1.556-5.96-3.261-1.912 1.743-3.104 2.626-6.42 3.261l-5.961.466v13.978c.523 2.695 1.163 4.15 3.668 6.523l8.712 6.057 9.17-6.057.071-.088c1.749-2.194 2.75-3.45 3.14-6.435z" fill="#FF7431" stroke="#07080A" stroke-width="1.864"/><path d="M11.096 14.872l1.07 3.343h3.459l-2.799 2.067 1.069 3.343-2.799-2.066-2.799 2.066 1.069-3.343-2.799-2.066h3.46l1.069-3.344zm11.428 0l1.07 3.343h3.459l-2.799 2.067 1.069 3.343-2.799-2.066-2.799 2.066 1.07-3.343-2.8-2.066h3.46l1.07-3.344zm0 9.678l1.07 3.343h3.459l-2.799 2.066 1.069 3.343-2.799-2.066-2.799 2.066 1.07-3.343-2.8-2.066h3.46l1.07-3.344zm-11.428 0l1.07 3.343h3.459l-2.799 2.066 1.069 3.343-2.799-2.066-2.799 2.066 1.069-3.343-2.799-2.066h3.46l1.069-3.344z" fill="#930077"/><path d="M16.81 18.743l1.07 3.343h3.459l-2.799 2.067 1.069 3.343-2.799-2.066-2.799 2.066 1.07-3.343-2.8-2.067h3.46l1.07-3.343zm-11.428 0l1.07 3.343H9.91l-2.8 2.067 1.07 3.343-2.799-2.066-2.799 2.066 1.069-3.343-2.799-2.067h3.46l1.069-3.343zm20.952 0l1.069 3.343h3.46l-2.8 2.067 1.07 3.343-2.8-2.066-2.798 2.066 1.069-3.343-2.8-2.067h3.46l1.07-3.343z" fill="#930077"/><path d="M16.81 11.002l1.07 3.343h3.459L18.54 16.41l1.069 3.343-2.799-2.066-2.799 2.067 1.07-3.344-2.8-2.066h3.46L16.81 11zm0 17.418l1.07 3.343h3.459L18.54 33.83l1.069 3.343-2.799-2.066-2.799 2.066 1.07-3.343-2.8-2.066h3.46l1.07-3.344z" fill="#930077"/><path d="M4.572 6.274v7.55" stroke="#000" stroke-width=".581"/><path d="M0 7.436l4.857 2.011V5.424L0 7.436z" fill="#FF0707"/><rect width="6.287" height="1.742" rx=".581" transform="matrix(-1 0 0 1 7.619 12.663)" fill="#000"/><path d="M28.427 6.357v7.55" stroke="#000" stroke-width=".581"/><path d="M33 7.518L28.143 9.53V5.507L33 7.518z" fill="#FF0707"/><rect x="25.381" y="12.745" width="6.287" height="1.742" rx=".581" fill="#000"/><path d="M14.305 8.728l-.502.593m.011-7.107l.47.619m4.586 5.891l.503.592m-.023-7.107l-.47.62m-6.856 2.946h.641M16.5 1.004v.866m.007 7.802l.001.866m3.62-4.77h.641" stroke="#000" stroke-width="1.3" stroke-linecap="round"/><ellipse rx="3.467" ry="3.412" transform="matrix(.00085 1 -1 .00088 16.504 5.77)" fill="#141414" stroke="#000" stroke-width=".867"/><path d="M20.765 1.433l-8.522 8.676m8.53-.008l-8.538-8.66" stroke="#FF0707" stroke-width=".347" stroke-linecap="round"/></svg>