<svg width="27" height="24" fill="none" xmlns="http://www.w3.org/2000/svg"><path d="M20.198 14.582l-.462-4.259h3.746l1.852-5.752-5 3.087c-1.525-.321-6.057-5.308-7.066-6.174-.999.885-5.197 5.851-6.93 6.174L1.257 4.57l1.576 5.752H6.8l-.462 4.259c.274 1.369 1.07 2.107 2.379 3.312l4.551 4.58 4.79-4.58c.937-1.141 1.934-1.776 2.14-3.312z" fill="#656565" fill-opacity=".87" stroke="#000" stroke-opacity=".78" stroke-width=".864"/><path d="M10.797 10.256l2.764-2.495 2.71 2.492.472 3.491-3.529 1.271-3.225-1.267.808-3.492z" fill="#7B5F4A" stroke="#000" stroke-width=".153"/></svg>