<svg width="36" height="32" fill="none" xmlns="http://www.w3.org/2000/svg"><path d="M17.438 11h-1.125a.6.6 0 00-.398.146.474.474 0 00-.165.354v9c0 .133.06.26.165.354a.6.6 0 00.398.146h1.125a3 3 0 001.988-.732c.528-.47.824-1.105.824-1.768v-5c0-.663-.296-1.299-.824-1.768A3 3 0 0017.438 11zm1.687 7.5c0 .398-.178.78-.494 1.06a1.8 1.8 0 01-1.194.44h-.562v-8h.563a1.8 1.8 0 011.193.44c.316.28.494.662.494 1.06v5zM12.938 11h-2.25a.6.6 0 00-.398.146.474.474 0 00-.165.354v9c0 .133.06.26.165.354a.6.6 0 00.398.146.6.6 0 00.397-.146.474.474 0 00.165-.354V17h1.688a1.8 1.8 0 001.193-.44 1.42 1.42 0 00.494-1.06v-3c0-.398-.178-.78-.494-1.06a1.8 1.8 0 00-1.194-.44zm.562 4.5c0 .133-.06.26-.165.354a.6.6 0 01-.398.146H11.25v-4h1.688a.6.6 0 01.397.146.474.474 0 01.165.354v3zM25.313 12a.6.6 0 00.397-.146.474.474 0 00.165-.354c0-.133-.06-.26-.165-.354a.6.6 0 00-.398-.146h-3.375a.6.6 0 00-.397.146.474.474 0 00-.165.354v9c0 .133.06.26.165.354a.6.6 0 00.398.146.6.6 0 00.397-.146.474.474 0 00.165-.354V16h2.813a.6.6 0 00.397-.146.474.474 0 00.165-.354c0-.133-.06-.26-.165-.354a.6.6 0 00-.398-.146H22.5v-3h2.813z" fill="#0053AA"/><path d="M26.438 2h-13.5a.517.517 0 00-.214 0 .41.41 0 00-.18.11l-5.625 5a.367.367 0 00-.169.2.366.366 0 000 .19v20c0 .663.296 1.3.824 1.768A3 3 0 009.563 30h16.875a3 3 0 001.988-.732c.528-.469.824-1.105.824-1.768v-23c0-.663-.296-1.299-.824-1.767A3 3 0 0026.438 2zM12.375 3.71V5.5c0 .398-.178.78-.494 1.061a1.8 1.8 0 01-1.193.44H8.674l3.701-3.29zm15.75 23.79c0 .398-.178.78-.494 1.061a1.8 1.8 0 01-1.193.44H9.563a1.8 1.8 0 01-1.194-.44 1.42 1.42 0 01-.494-1.06V8h2.813c.369 0 .735-.065 1.076-.19a2.87 2.87 0 00.912-.543 2.51 2.51 0 00.61-.81A2.26 2.26 0 0013.5 5.5V3h12.938a1.8 1.8 0 011.193.44c.316.281.494.663.494 1.06v23z" fill="#0053AA"/></svg>