<svg width="40" height="40" fill="none" xmlns="http://www.w3.org/2000/svg"><path d="M20 2.395A17.49 17.49 0 007.552 7.55a17.49 17.49 0 00-5.156 12.448 17.49 17.49 0 005.156 12.449A17.49 17.49 0 0020 37.604a17.49 17.49 0 0012.449-5.156 17.49 17.49 0 005.156-12.449 17.49 17.49 0 00-5.156-12.448A17.49 17.49 0 0020 2.395zm0 32.709c-8.329 0-15.104-6.776-15.104-15.105S11.67 4.895 20 4.895c8.33 0 15.105 6.775 15.105 15.104 0 8.33-6.776 15.105-15.105 15.105z" fill="#000"/><path d="M20 23.389a9.676 9.676 0 00-8.863 5.795 1.25 1.25 0 102.29 1.002 7.176 7.176 0 0113.146 0 1.25 1.25 0 102.29-1.002A9.678 9.678 0 0020 23.389zm-3.529-5.585a1.247 1.247 0 001.767 0 1.25 1.25 0 000-1.768l-5.818-5.818a1.25 1.25 0 10-1.768 1.768l5.82 5.818zm-5.28 1.295a1.403 1.403 0 00.226.093 1.06 1.06 0 00.24.048 1.294 1.294 0 00.367-.018 1.445 1.445 0 00.345-.123 1.468 1.468 0 00.204-.136 1.33 1.33 0 00.174-.174 1.531 1.531 0 00.135-.204 1.18 1.18 0 00.123-.344 1.294 1.294 0 00.025-.245 1.294 1.294 0 00-.096-.478 1.08 1.08 0 00-.052-.11 1.087 1.087 0 00-.135-.204 1.34 1.34 0 00-.175-.174 1.295 1.295 0 00-.43-.229 1.253 1.253 0 00-1.402.502 1.13 1.13 0 00-.114.215 1.194 1.194 0 00-.09.356 1.293 1.293 0 00.09.6 1.458 1.458 0 00.114.216c.023.034.048.067.073.1.027.03.054.062.083.09a1.33 1.33 0 00.295.219zm16.388-8.881l-5.818 5.818a1.25 1.25 0 001.767 1.768l5.818-5.818a1.25 1.25 0 00-1.767-1.768zm1.866 7.535a1.204 1.204 0 00-.123-.345 1.13 1.13 0 00-.135-.204 1.314 1.314 0 00-.273-.247 1.319 1.319 0 00-.571-.205 1.177 1.177 0 00-.486.049 1.19 1.19 0 00-.226.093 1.507 1.507 0 00-.204.136 1.159 1.159 0 00-.173.174 1.153 1.153 0 00-.188.314 1.194 1.194 0 00-.09.356 1.294 1.294 0 000 .246 1.294 1.294 0 00.205.57 1.29 1.29 0 00.246.273 1.295 1.295 0 00.43.229 1.056 1.056 0 00.24.048 1.294 1.294 0 00.367-.018 1.433 1.433 0 00.345-.123 1.47 1.47 0 00.204-.136 1.33 1.33 0 00.173-.174 1.319 1.319 0 00.188-.315 1.26 1.26 0 00.09-.6 1.265 1.265 0 00-.018-.121z" fill="#000"/></svg>