<svg width="40" height="40" fill="none" xmlns="http://www.w3.org/2000/svg"><path d="M20 36.018c8.833 0 16.019-7.186 16.019-16.019C36.019 11.166 28.833 3.98 20 3.98 11.167 3.98 3.981 11.166 3.981 20c0 8.832 7.186 16.018 16.019 16.018zM20 6.48c7.455 0 13.519 6.065 13.519 13.52 0 7.453-6.064 13.518-13.519 13.518S6.481 27.454 6.481 19.999C6.481 12.545 12.545 6.48 20 6.48z" fill="#000"/><path d="M20 21.248h8.421a1.25 1.25 0 100-2.5H21.25v-7.115a1.25 1.25 0 10-2.5 0v8.365c0 .691.56 1.25 1.25 1.25z" fill="#000"/></svg>