<svg width="40" height="40" fill="none" xmlns="http://www.w3.org/2000/svg"><path d="M6.3 5.015h30.302c.69 0 1.25.56 1.25 1.25v18.36c0 .69-.56 1.25-1.25 1.25H27.61a1.24 1.24 0 01-.272-.03l-7.515 7.81a3.71 3.71 0 01-2.853 1.33h-.566a3.731 3.731 0 01-3.727-3.728v-5.383H6.3a4.157 4.157 0 01-4.153-4.152V9.166A4.157 4.157 0 016.3 5.015zm22.56 18.36h6.492V7.515H28.86v15.86zM4.648 21.723c0 .91.742 1.652 1.653 1.652h7.626c.691 0 1.25.56 1.25 1.25v6.633a1.23 1.23 0 001.228 1.227h.566c.37 0 .716-.165.95-.452.023-.027.045-.053.07-.078l8.37-8.698V7.516H6.3c-.911 0-1.653.741-1.653 1.652v12.555z" fill="#000"/></svg>