<svg width="40" height="40" fill="none" xmlns="http://www.w3.org/2000/svg"><path d="M20 2.396a17.49 17.49 0 0112.448 5.156 17.49 17.49 0 015.157 12.449 17.49 17.49 0 01-5.157 12.448A17.49 17.49 0 0120 37.606a17.49 17.49 0 01-12.448-5.157 17.49 17.49 0 01-5.157-12.448A17.49 17.49 0 017.552 7.552 17.49 17.49 0 0120 2.396zm0 32.71c8.329 0 15.105-6.776 15.105-15.105 0-8.33-6.776-15.105-15.105-15.105S4.895 11.672 4.895 20.001 11.671 35.105 20 35.105z" fill="#000"/><path d="M20 7.415a3.679 3.679 0 013.674 3.674v8.788A3.679 3.679 0 0120 23.55a3.679 3.679 0 01-3.674-3.674v-8.788A3.679 3.679 0 0120 7.415zm-1.174 12.462a1.175 1.175 0 002.348 0v-8.788a1.175 1.175 0 00-2.348 0v8.788zM20 25.26a3.669 3.669 0 013.665 3.664A3.67 3.67 0 0120 32.59a3.669 3.669 0 01-3.665-3.665A3.67 3.67 0 0120 25.259zm0 4.83c.642 0 1.165-.523 1.165-1.165S20.642 27.76 20 27.76s-1.165.523-1.165 1.165.523 1.165 1.165 1.165z" fill="#000"/></svg>