<svg width="40" height="40" fill="none" xmlns="http://www.w3.org/2000/svg"><path d="M37.108 32.332V19.256c0-4.57-1.78-8.866-5.011-12.097A16.998 16.998 0 0020 2.149a17 17 0 00-12.097 5.01 16.996 16.996 0 00-5.01 12.097v13.077c0 .175.035.341.1.493.522 2.855 3.026 5.026 6.029 5.026a6.135 6.135 0 006.129-6.129c0-3.38-2.75-6.128-6.13-6.128H5.393v-6.338c0-8.055 6.553-14.609 14.608-14.609s14.608 6.554 14.608 14.608v6.338h-3.63a6.136 6.136 0 00-6.128 6.129c0 3.38 2.75 6.129 6.129 6.129 3.003 0 5.507-2.172 6.028-5.027.064-.15.1-.318.1-.493zM9.022 28.093c2 0 3.629 1.628 3.629 3.629 0 2-1.628 3.629-3.63 3.629a3.633 3.633 0 01-3.628-3.63v-3.628h3.629zm21.956 7.259c-2 0-3.629-1.629-3.629-3.63 0-2 1.628-3.628 3.63-3.628h3.628v3.629c0 2-1.627 3.629-3.629 3.629z" fill="#000"/></svg>