<svg width="40" height="40" fill="none" xmlns="http://www.w3.org/2000/svg"><path d="M4.395 13.11h7.422c.69 0 1.25-.558 1.25-1.25V6.22c0-.69-.56-1.25-1.25-1.25H4.395c-.691 0-1.25.56-1.25 1.25v5.642c0 .69.559 1.25 1.25 1.25zm1.25-5.641h4.922v3.142H5.645V7.469zm31.21-1.25c0-.69-.559-1.25-1.25-1.25h-18.48c-.69 0-1.25.56-1.25 1.25v5.642c0 .69.56 1.25 1.25 1.25h18.48c.691 0 1.25-.56 1.25-1.25V6.219zm-2.5 4.392h-15.98V7.469h15.98v3.142zM3.145 22.82c0 .69.559 1.25 1.25 1.25h7.422c.69 0 1.25-.56 1.25-1.25v-5.642c0-.69-.56-1.25-1.25-1.25H4.395c-.691 0-1.25.56-1.25 1.25v5.642zm2.5-4.392h4.922v3.142H5.645v-3.142zm31.21-1.25c0-.69-.559-1.25-1.25-1.25h-18.48c-.69 0-1.25.56-1.25 1.25v5.642c0 .69.56 1.25 1.25 1.25h18.48c.691 0 1.25-.56 1.25-1.25v-5.642zm-2.5 4.392h-15.98v-3.142h15.98v3.142zM3.145 33.779c0 .69.559 1.25 1.25 1.25h7.422c.69 0 1.25-.56 1.25-1.25v-5.642c0-.69-.56-1.25-1.25-1.25H4.395c-.691 0-1.25.56-1.25 1.25v5.642zm2.5-4.392h4.922v3.142H5.645v-3.142zm29.96 5.642c.691 0 1.25-.56 1.25-1.25v-5.642c0-.69-.559-1.25-1.25-1.25h-18.48c-.69 0-1.25.56-1.25 1.25v5.642c0 .69.56 1.25 1.25 1.25h18.48zm-17.23-5.642h15.98v3.142h-15.98v-3.142z" fill="#000"/></svg>