<svg width="40" height="40" fill="none" xmlns="http://www.w3.org/2000/svg"><path d="M36.156 2.588a3.19 3.19 0 00-3.286.172l-14.104 9.513v-1.947a1.25 1.25 0 00-1.25-1.25H3.398c-.69 0-1.25.559-1.25 1.25v14.117c0 .691.56 1.25 1.25 1.25H6.01l6.055 11.433c.216.409.641.664 1.104.664h7.032a1.25 1.25 0 001.104-1.835L15.87 25.694h1.646c.691 0 1.25-.56 1.25-1.25v-1.948l14.104 9.513a3.193 3.193 0 004.982-2.648V5.409c0-1.183-.65-2.265-1.696-2.82zM13.922 35.29l-5.083-9.596h4.202l5.083 9.596h-4.202zm2.344-12.096H4.648V11.575h11.618v11.619zm19.086 6.167a.68.68 0 01-.37.614.68.68 0 01-.714-.038L18.766 19.48v-4.192L34.268 4.833a.678.678 0 01.715-.037.68.68 0 01.369.614v23.95z" fill="#000"/></svg>