<svg width="40" height="40" fill="none" xmlns="http://www.w3.org/2000/svg"><path d="M3.333 33.067a4.79 4.79 0 004.785 4.785h23.764a4.79 4.79 0 004.785-4.785v-17.83a4.79 4.79 0 00-4.785-4.785h-8.864L24.8 8.67a3.425 3.425 0 004.866-3.1 3.425 3.425 0 00-3.421-3.422 3.425 3.425 0 00-3.169 4.71l-2.829 2.829-2.829-2.83c.163-.397.253-.832.253-1.287a3.425 3.425 0 00-3.422-3.422 3.425 3.425 0 00-3.42 3.422 3.425 3.425 0 003.42 3.42 3.4 3.4 0 001.445-.32l1.782 1.782H8.118a4.79 4.79 0 00-4.785 4.785v17.83zM26.243 4.65a.922.922 0 010 1.842.922.922 0 010-1.842zm-12.913.92a.922.922 0 011.842 0 .922.922 0 01-1.842 0zm-7.497 9.667a2.288 2.288 0 012.285-2.285h23.764a2.288 2.288 0 012.285 2.285v17.83a2.288 2.288 0 01-2.285 2.285H8.118a2.288 2.288 0 01-2.285-2.285v-17.83z" fill="#000"/><path d="M10.388 33.642h12.703a2.798 2.798 0 002.794-2.795v-13.39a2.798 2.798 0 00-2.794-2.795H10.388a2.798 2.798 0 00-2.794 2.795v13.39a2.798 2.798 0 002.794 2.795zm-.294-16.185c0-.162.132-.294.294-.294h12.703c.162 0 .294.132.294.294v13.391a.295.295 0 01-.294.295H10.388a.295.295 0 01-.294-.295v-13.39zm19.971 6.09a3.472 3.472 0 003.468-3.469 3.471 3.471 0 00-3.468-3.467 3.471 3.471 0 00-3.468 3.467 3.472 3.472 0 003.468 3.469zm0-4.436a.97.97 0 01.968.967.97.97 0 01-.968.969.969.969 0 010-1.935zm0 12.582a3.472 3.472 0 003.468-3.467 3.472 3.472 0 00-3.468-3.468 3.472 3.472 0 00-3.468 3.468 3.472 3.472 0 003.468 3.467zm0-4.435a.969.969 0 11-.968.968.97.97 0 01.968-.968z" fill="#000"/></svg>