<svg width="23" height="23" fill="none" xmlns="http://www.w3.org/2000/svg"><path d="M11.456.173c-.815 0-1.669.077-2.406.27v10.864c0 1.349 1.125 2.428 2.445 2.428 1.32 0 2.446-1.118 2.446-2.428 0-1.271-1.01-2.35-2.252-2.427V6.954c2.33.077 4.193 2.003 4.193 4.353 0 2.39-1.941 4.354-4.387 4.354-2.406 0-4.386-1.965-4.386-4.354V1.021c-.272.154-.544.23-.815.385v9.901c0 2.851 2.329 5.202 5.162 5.202 2.834 0 5.163-2.35 5.163-5.202 0-2.812-2.213-5.085-5.046-5.2V4.18c3.843.077 6.987 3.275 6.987 7.127 0 3.892-3.183 7.128-7.142 7.128-3.96 0-7.104-3.236-7.104-7.128V2.716C1.83 4.796.238 7.878.238 11.307c0 6.165 5.008 11.173 11.18 11.173s11.179-5.008 11.179-11.173c0-6.164-4.93-11.134-11.14-11.134z" fill="#fff"/></svg>