<svg width="31" height="19" fill="none" xmlns="http://www.w3.org/2000/svg"><path d="M26.828 8.999c1.464-8.9-9.786-11.173-12.868-4.43-3.968-2.197-8.322.693-8.514 4.314-6.319-.077-6.434 9.401-.193 9.401H25.75c5.548.154 6.395-7.667 1.078-9.285zm-11.75 7.32h-6.55c.385-4.7 4.623-4.854 4.623-6.82 0-.885-.693-1.194-1.425-1.194-.964 0-1.734.309-2.39.655l-.461-1.348a7.03 7.03 0 013.12-.732c2.042 0 3.006 1.002 3.006 2.427 0 2.659-3.622 3.198-4.2 5.548h4.277v1.464zm7.397-2.311h-1.387v2.311H19.43v-2.311h-4.12v-1.156l4.623-5.972h1.194v5.74h1.387v1.388h-.038z" fill="#fff"/><path d="M18.275 12.62h1.117v-1.348c0-.732.077-1.58.077-1.85l-2.35 3.199c.231.038.848 0 1.156 0z" fill="#fff"/></svg>