<svg width="159" height="45" fill="none" xmlns="http://www.w3.org/2000/svg"><path d="M154.449 45H4.551C2.06 45 0 42.997 0 40.492V4.508C0 2.003 2.022 0 4.55 0h149.9c2.489 0 4.55 2.003 4.55 4.508v35.984c0 2.505-2.023 4.508-4.551 4.508z" fill="#0AADF3"/><path d="M20.304 11.173c-.809 0-1.656.077-2.388.27v10.864a2.442 2.442 0 002.427 2.428c1.31 0 2.427-1.118 2.427-2.428 0-1.271-1.002-2.35-2.235-2.427v-1.926c2.312.077 4.162 2.003 4.162 4.353a4.35 4.35 0 01-4.354 4.354c-2.389 0-4.354-1.965-4.354-4.354V12.021c-.27.154-.54.23-.809.385v9.901c0 2.851 2.312 5.202 5.124 5.202 2.813 0 5.125-2.35 5.125-5.202a5.19 5.19 0 00-5.01-5.2V15.18c3.815.077 6.936 3.274 6.936 7.127 0 3.892-3.16 7.128-7.09 7.128-3.929 0-7.05-3.236-7.05-7.128v-8.591c-2.466 2.08-4.045 5.162-4.045 8.591 0 6.165 4.97 11.173 11.096 11.173s11.096-5.008 11.096-11.173c0-6.164-4.893-11.134-11.058-11.134zm27.624 7.05h-1.04v2.158h-1.04v-5.124h1.04v2.157h1.079l1.618-2.157h1.117l-1.926 2.466 2.003 2.658h-1.194l-1.657-2.158zm7.128-2.735c.346.154.655.347.847.616.193.27.309.617.309.964 0 .385-.116.693-.309.963-.192.27-.462.5-.847.616-.347.154-.77.231-1.272.231h-1.271v1.465h-1.04v-5.086h2.311a3.4 3.4 0 011.272.231zm-.308 2.35c.23-.193.346-.424.346-.77 0-.347-.115-.578-.346-.77-.232-.194-.578-.27-1.04-.27h-1.234v2.08h1.233c.463 0 .81-.077 1.04-.27zm7.127-2.581l-2.428 4.122c-.23.347-.462.655-.77.81a1.744 1.744 0 01-.963.269c-.27 0-.54-.038-.848-.154l.27-.732c.23.077.385.077.54.077.346 0 .616-.154.847-.462l.077-.116-2.235-3.814h1.117l1.657 3.005 1.695-3.005h1.04zm5.702 0v5.124h-1.04v-4.315h-2.928v4.315h-1.04v-5.124h5.008zm6.588 0v5.124h-1.04v-2.196h-2.928v2.196h-1.04v-5.124h1.04v2.119h2.928v-2.12h1.04zm5.741 2.157c.346.27.539.694.539 1.233 0 .578-.193 1.002-.578 1.31-.385.308-.963.462-1.657.462h-2.427v-5.162h1.04v1.734h1.58c.616 0 1.156.154 1.503.423zm-.848 2.004c.231-.154.347-.424.347-.732 0-.617-.424-.925-1.272-.925h-1.348v1.927h1.348c.386-.039.732-.116.925-.27zm2.196-4.161h1.04v5.124h-1.04v-5.124zm6.859 4.315v.809h-4.238v-5.124h4.122v.809h-3.082v1.348h2.736v.77h-2.736v1.426h3.198v-.038zm7.897-1.387c.192.231.27.462.27.809 0 .462-.193.81-.54 1.04-.347.231-.886.386-1.58.386h-2.658v-5.163h2.504c.617 0 1.118.115 1.464.347.347.23.54.539.54.963 0 .27-.077.5-.232.693a1.533 1.533 0 01-.616.463c.385.077.655.23.848.462zm-3.506-.732h1.387c.346 0 .578-.077.77-.193.193-.115.27-.308.27-.54 0-.23-.077-.423-.27-.538-.192-.116-.424-.193-.77-.193h-1.387v1.464zm2.735 1.425c0-.5-.385-.732-1.117-.732h-1.618v1.503h1.618c.732 0 1.117-.231 1.117-.77zm7.244-3.621v5.124h-1.04v-2.196h-2.928v2.196h-1.04v-5.124h1.04v2.119h2.928v-2.12h1.04zm5.818 4.315v.809h-4.239v-5.124h4.123v.809h-3.082v1.348h2.735v.77h-2.735v1.426h3.198v-.038zm6.741 0v1.888h-.963v-1.08h-4.315v1.079h-.963v-1.888h.231c.347 0 .616-.27.732-.732.154-.462.231-1.117.27-1.965l.077-1.618h4.122v4.315h.809zm-4.276-.925c-.077.424-.231.77-.424.963h2.851v-3.506h-2.196l-.039.925a15.496 15.496 0 01-.192 1.618zm8.823-3.159c.347.154.655.347.848.616.192.27.308.617.308.964 0 .385-.116.693-.308.963-.193.27-.463.5-.848.616-.347.154-.771.231-1.271.231h-1.272v1.465h-1.04v-5.086h2.312c.5 0 .924.077 1.271.231zm-.27 2.35c.231-.193.347-.424.347-.77 0-.347-.116-.578-.347-.77-.231-.194-.578-.27-1.04-.27h-1.233v2.08h1.233c.462 0 .809-.077 1.04-.27zm6.628 1.734v.809h-4.238v-5.124h4.122v.809h-3.082v1.348h2.736v.77h-2.736v1.426h3.198v-.038zm6.163-4.315v5.124h-1.04v-2.196h-2.928v2.196h-1.04v-5.124h1.04v2.119h2.928v-2.12h1.04zm1.579 0h1.041v3.621l3.005-3.621h.963v5.124h-1.04v-3.622l-3.044 3.622h-.925v-5.124zm10.904 0v5.124h-1.04v-1.425h-1.503l-1.04 1.425h-1.117l1.194-1.58a1.681 1.681 0 01-.886-.616c-.193-.27-.308-.616-.308-1.04 0-.386.115-.732.308-1.002.192-.27.462-.5.809-.655.347-.154.77-.231 1.233-.231h2.35zm-3.275 1.079c-.231.192-.347.462-.347.809 0 .346.116.578.347.77.231.193.539.27.963.27h1.31v-2.12h-1.271c-.463 0-.771.078-1.002.27zm-95.47 7.782h4.392v.77h-3.352v1.272h1.657c.693 0 1.194.116 1.54.385.347.27.54.617.54 1.118 0 .5-.193.886-.578 1.155-.385.27-.924.424-1.656.424h-2.543v-5.124zm2.465 4.392c.386 0 .694-.077.925-.23a.749.749 0 00.308-.617c0-.54-.423-.81-1.233-.81H46.85v1.657h1.464zm3.429-4.392h1.04v3.622l3.044-3.622h.963v5.124h-1.04v-3.621l-3.005 3.621h-.963v-5.124h-.039zm10.712.809h-1.85v4.315h-1.04v-4.315h-1.85v-.809h4.778v.81h-.038zm4.469-.577c.347.153.655.346.847.616.193.27.309.616.309.963 0 .385-.116.693-.308.963-.193.27-.463.501-.848.617-.347.154-.77.23-1.272.23h-1.27v1.465H63.34v-5.086h2.311c.501 0 .925.077 1.272.231zm-.27 2.35c.231-.193.347-.424.347-.771 0-.347-.116-.578-.347-.77-.231-.193-.578-.27-1.04-.27H64.38v2.08h1.233c.462 0 .809-.077 1.04-.27zm2.388-2.582h1.04v3.622l3.044-3.622h.963v5.124h-1.04v-3.621l-3.005 3.621h-.964v-5.124h-.038zm8.708 2.967h-1.04v2.157h-1.041v-5.124h1.04v2.158h1.079l1.618-2.158h1.117l-1.926 2.466 2.004 2.658h-1.233l-1.618-2.157zm4.584 1.887a2.82 2.82 0 01-1.079-.924c-.27-.385-.385-.848-.385-1.349 0-.5.116-.963.385-1.348.27-.385.617-.732 1.08-.925.462-.192.962-.346 1.54-.346.463 0 .886.077 1.272.23.385.155.693.347.963.656l-.694.578c-.423-.386-.924-.617-1.502-.617-.385 0-.732.077-1.04.231-.309.154-.54.386-.733.655-.154.27-.27.578-.27.925 0 .347.078.655.27.925.155.27.424.5.733.654.308.155.654.232 1.04.232.578 0 1.079-.193 1.502-.617l.694.578c-.27.27-.578.501-.963.655-.386.154-.81.231-1.272.231-.578-.077-1.117-.192-1.54-.424zm8.323-.539v.81h-4.161v-.656l2.234-1.926c.27-.231.424-.424.501-.578.077-.154.116-.308.116-.5 0-.232-.077-.425-.27-.54-.192-.116-.424-.193-.77-.193-.578 0-1.002.193-1.31.54l-.732-.501c.23-.27.5-.463.886-.617.385-.154.77-.231 1.233-.231.616 0 1.117.116 1.464.385.347.27.54.617.54 1.08 0 .269-.078.538-.194.77-.115.23-.385.539-.732.847l-1.502 1.31h2.697zm5.508-.346h-1.002v1.155H94.16v-1.155h-3.082v-.655l2.774-3.314h1.117l-2.62 3.16h1.85v-1.04h.963v1.04h1.002v.809z" fill="#fff"/></svg>