<svg width="159" height="45" fill="none" xmlns="http://www.w3.org/2000/svg"><path d="M154.449 45H4.551C2.06 45 0 42.997 0 40.492V4.508C0 2.003 2.022 0 4.55 0h149.9c2.489 0 4.55 2.003 4.55 4.508v35.984c0 2.505-2.023 4.508-4.551 4.508z" fill="#FF40B6"/><path d="M20.304 11.173c-.809 0-1.656.077-2.388.27v10.864a2.442 2.442 0 002.427 2.428c1.31 0 2.427-1.118 2.427-2.428 0-1.271-1.002-2.35-2.235-2.427v-1.926c2.312.077 4.162 2.003 4.162 4.353a4.35 4.35 0 01-4.354 4.354c-2.389 0-4.354-1.965-4.354-4.354V12.021c-.27.154-.54.23-.809.385v9.901c0 2.851 2.312 5.202 5.124 5.202 2.813 0 5.125-2.35 5.125-5.202a5.19 5.19 0 00-5.01-5.2V15.18c3.815.077 6.936 3.274 6.936 7.127 0 3.892-3.16 7.128-7.09 7.128-3.929 0-7.05-3.236-7.05-7.128v-8.591c-2.466 2.08-4.045 5.162-4.045 8.591 0 6.165 4.97 11.173 11.096 11.173s11.096-5.008 11.096-11.173c0-6.164-4.893-11.134-11.058-11.134zm25.544 4.084h1.04v3.621l3.005-3.621h.963v5.124h-1.04v-3.622l-3.005 3.622h-.963v-5.124zm11.596 0v5.124h-1.04v-2.196h-2.928v2.196h-1.04v-5.124h1.04v2.119h2.928v-2.12h1.04zm5.664.809h-1.85v4.315h-1.04v-4.315H58.37v-.81h4.778v.81h-.039zm5.124 3.506v.809h-4.238v-5.124h4.123v.809h-3.083v1.348h2.736v.77h-2.736v1.426h3.198v-.038zm4.777-4.084c.347.154.655.347.847.616.193.27.309.617.309.964 0 .385-.116.693-.309.963-.192.27-.462.5-.847.616-.347.154-.77.231-1.272.231h-1.271v1.465h-1.04v-5.086h2.311c.463 0 .887.077 1.272.231zm-.308 2.35c.23-.193.346-.424.346-.77 0-.347-.115-.578-.346-.77-.232-.194-.578-.27-1.04-.27h-1.234v2.08h1.233c.463 0 .81-.077 1.04-.27zm7.397-2.581v5.124h-1.04v-2.196H76.13v2.196h-1.04v-5.124h1.04v2.119h2.928v-2.12h1.04zm5.818 4.315v.809h-4.238v-5.124H85.8v.809h-3.082v1.348h2.735v.77h-2.735v1.426h3.198v-.038zm5.241-3.506h-1.85v4.315h-1.04v-4.315h-1.849v-.81h4.777v.81h-.038zm.499 1.349h2.196v.77h-2.196v-.77zm8.708 2.966v-3.39l-1.85 2.812h-.462l-1.85-2.774v3.352h-1v-5.124h.847l2.234 3.39 2.196-3.39h.848v5.124h-.963zm6.28-1.194h-2.813l-.539 1.194h-1.079l2.543-5.124h1.04l2.543 5.124h-1.079l-.616-1.194zm-.347-.732l-1.079-2.235-1.04 2.235h2.119zm6.705-2.389h-2.774v4.315h-1.04v-5.124h3.814v.809zm3.544 3.121h-2.813l-.539 1.194h-1.079l2.543-5.124h1.04l2.543 5.124h-1.079l-.616-1.194zm-.347-.732l-1.079-2.235-1.04 2.235h2.119zm6.589-.27c.192.231.269.462.269.77 0 .309-.115.578-.346.81-.231.23-.501.385-.886.539a4.086 4.086 0 01-1.195.193c-.385 0-.77-.039-1.117-.154-.347-.116-.732-.232-1.04-.424l.346-.694c.232.154.501.27.809.347.309.077.617.116.887.116.423 0 .77-.078 1.04-.232.27-.154.424-.346.424-.616 0-.231-.116-.385-.309-.501-.192-.116-.5-.193-.847-.193h-1.31v-.732h1.233c.308 0 .539-.077.732-.192a.503.503 0 00.269-.463.58.58 0 00-.346-.539c-.231-.116-.54-.193-.925-.193-.27 0-.501.039-.77.116-.27.077-.54.154-.771.308l-.347-.77a3.77 3.77 0 01.925-.309c.308-.077.655-.115.963-.115.424 0 .809.077 1.156.193.347.115.616.27.848.5.192.232.308.463.308.77 0 .27-.077.463-.231.656a1.193 1.193 0 01-.617.424c.424 0 .655.154.848.385zm1.502-2.928h1.041v3.621l3.005-3.621h.963v5.124h-1.04v-3.622l-3.044 3.622h-.963v-5.124h.038zm11.596 0v5.124h-1.041v-2.196h-2.928v2.196h-1.04v-5.124h1.04v2.119h2.928v-2.12h1.041zM49.277 27.046H47.85v1.272h-.847v-1.272h-1.426v-.732h1.426v-1.271h.847v1.271h1.426v.732zm4.546 1.927a2.82 2.82 0 01-1.078-.925c-.27-.385-.386-.848-.386-1.348 0-.501.116-.964.386-1.349s.616-.732 1.078-.925a3.36 3.36 0 011.541-.346c.463 0 .887.077 1.272.23.385.155.693.348.963.656l-.693.578c-.424-.386-.925-.617-1.503-.617-.385 0-.732.077-1.04.231a2 2 0 00-.732.655c-.154.27-.27.578-.27.925 0 .347.077.655.27.925.154.27.424.5.732.655.308.154.655.23 1.04.23.578 0 1.079-.192 1.503-.616l.693.578c-.27.27-.578.501-.963.655a3.4 3.4 0 01-1.272.231c-.539-.077-1.078-.192-1.54-.423zm8.475.269l-1.156-1.502H59.64v1.502H58.6v-5.124h2.311c.501 0 .925.077 1.272.231.346.154.655.347.847.617a1.718 1.718 0 010 1.965c-.192.27-.5.5-.886.616l1.31 1.695h-1.156zm-.385-4.045c-.231-.193-.578-.27-1.04-.27H59.64v2.042h1.233c.462 0 .809-.077 1.04-.27.231-.192.347-.423.347-.77 0-.347-.116-.578-.347-.732zm7.744 4.045v-3.39l-1.85 2.812h-.462l-1.85-2.774v3.352h-1v-5.124h.847l2.234 3.39 2.196-3.39h.848v5.124h-.963z" fill="#fff"/></svg>