<svg width="159" height="45" fill="none" xmlns="http://www.w3.org/2000/svg"><path d="M154.449 45H4.551C2.06 45 0 42.997 0 40.492V4.508C0 2.003 2.022 0 4.55 0h149.9c2.489 0 4.55 2.003 4.55 4.508v35.984c0 2.505-2.023 4.508-4.551 4.508z" fill="#F7D428"/><path d="M20.456 11.173c-.815 0-1.669.077-2.406.27v10.864c0 1.349 1.125 2.428 2.445 2.428 1.32 0 2.446-1.118 2.446-2.428 0-1.271-1.01-2.35-2.252-2.427v-1.926c2.33.077 4.193 2.003 4.193 4.353 0 2.39-1.941 4.354-4.387 4.354-2.406 0-4.386-1.965-4.386-4.354V12.021c-.272.154-.544.23-.815.385v9.901c0 2.851 2.329 5.202 5.162 5.202 2.834 0 5.163-2.35 5.163-5.202 0-2.812-2.212-5.085-5.046-5.2V15.18c3.843.077 6.987 3.275 6.987 7.127 0 3.892-3.183 7.128-7.142 7.128-3.96 0-7.104-3.236-7.104-7.128v-8.591c-2.484 2.08-4.076 5.162-4.076 8.591 0 6.165 5.008 11.173 11.18 11.173s11.179-5.008 11.179-11.173c0-6.164-4.93-11.134-11.14-11.134zm25.931 7.551h1.32v4.585l3.842-4.585h1.242v6.473h-1.32v-4.585l-3.842 4.585h-1.242v-6.473zm14.79 0v6.473h-1.32v-2.774h-3.688v2.774h-1.32v-6.473h1.32v2.659h3.688v-2.659h1.32zm7.218 1.041h-2.407v5.47h-1.32v-5.47h-2.367v-1.002h6.055v1.002h.04zm6.522 4.43v1.002h-5.356v-6.473h5.24v1.002h-3.882v1.695h3.455v1.002h-3.455v1.772h3.998zm6.328-4.43h-3.572v5.47h-1.32v-6.51h4.853l.038 1.04zm5.706-.771c.466.193.816.462 1.049.81.233.346.349.77.349 1.232 0 .462-.117.886-.35 1.233-.232.347-.582.616-1.047.809-.466.193-1.01.27-1.63.27H83.69v1.849h-1.32v-6.473h2.95c.621 0 1.165.116 1.63.27zM86.563 22c.31-.231.466-.54.466-.963 0-.424-.155-.732-.466-.963-.31-.231-.737-.347-1.32-.347h-1.552v2.581h1.553c.582 0 1.048-.115 1.32-.308zm7.452 1.694h-3.571l-.699 1.503h-1.358l3.222-6.473h1.32l3.221 6.473h-1.397l-.738-1.503zm-.427-.924l-1.358-2.813-1.359 2.813h2.717zm10.948 1.425v2.427h-1.242v-1.425h-6.095v-6.473h1.32v5.471h3.61v-5.47h1.32v5.47h1.087zm1.241-5.471h1.32v4.585l3.843-4.585h1.242v6.473h-1.32v-4.585l-3.843 4.585h-1.242v-6.473zm9.742 6.126a3.152 3.152 0 01-1.358-1.194c-.349-.501-.505-1.079-.505-1.695 0-.617.156-1.195.505-1.696.349-.5.776-.886 1.358-1.194a4.62 4.62 0 011.941-.424c.583 0 1.126.077 1.592.27a3.83 3.83 0 011.242.809l-.854.732a2.65 2.65 0 00-1.902-.77 2.89 2.89 0 00-1.32.308c-.388.192-.699.462-.893.809-.233.346-.31.732-.31 1.156 0 .423.116.847.31 1.155.233.347.505.617.893.81.388.192.815.308 1.32.308.776 0 1.397-.27 1.902-.77l.854.731a3.465 3.465 0 01-1.242.81c-.505.192-1.009.269-1.63.269a3.633 3.633 0 01-1.903-.424zm10.209 0a3.152 3.152 0 01-1.358-1.194c-.35-.501-.505-1.079-.505-1.695 0-.617.155-1.195.505-1.696.349-.5.776-.886 1.358-1.194a4.62 4.62 0 011.941-.424c.583 0 1.126.077 1.592.27a3.83 3.83 0 011.242.809l-.854.732a2.65 2.65 0 00-1.902-.77 2.89 2.89 0 00-1.32.308c-.388.192-.699.462-.893.809-.233.346-.31.732-.31 1.156 0 .423.116.847.31 1.155.233.347.505.617.893.81.388.192.815.308 1.32.308.776 0 1.397-.27 1.902-.77l.854.731a3.465 3.465 0 01-1.242.81c-.505.192-1.009.269-1.631.269a3.632 3.632 0 01-1.902-.424zm10.791-6.126v6.473h-1.32v-5.47h-1.513v-1.003h2.833zm3.301 6.126a3.152 3.152 0 01-1.358-1.194c-.35-.501-.505-1.079-.505-1.695 0-.617.155-1.195.505-1.696.349-.5.776-.886 1.358-1.194a4.617 4.617 0 011.941-.424c.582 0 1.126.077 1.592.27.465.192.892.462 1.242.809l-.854.732a2.65 2.65 0 00-1.902-.77 2.89 2.89 0 00-1.32.308c-.388.192-.699.462-.893.809-.233.346-.31.732-.31 1.156 0 .423.116.847.31 1.155.233.347.505.617.893.81.388.192.815.308 1.32.308.776 0 1.397-.27 1.902-.77l.854.731c-.35.347-.738.617-1.242.81-.505.192-1.01.269-1.631.269a3.63 3.63 0 01-1.902-.424z" fill="#fff"/></svg>