<svg width="78" height="76" fill="none" xmlns="http://www.w3.org/2000/svg"><path d="M30.527 59.428l-6.19 3.944v-6.268a3.426 3.426 0 00-3.427-3.427h-7.773l3.49-6.405a3.426 3.426 0 00-1.28-4.599l-7.434-4.34 7.433-4.342a3.427 3.427 0 001.164-4.797l-3.945-6.207h7.304a3.426 3.426 0 003.416-3.164l.616-8.025 5.661 3.4a3.427 3.427 0 004.573-.974l4.262-6.096 3.532 5.894a3.426 3.426 0 004.473 1.303l7.54-3.774v8.01a3.426 3.426 0 003.426 3.426H64.1l-3.49 6.406a3.426 3.426 0 001.28 4.598l7.434 4.341-7.433 4.341a3.427 3.427 0 00-1.164 4.797l3.945 6.207H57.37a3.426 3.426 0 00-3.415 3.142l-.585 7.025-5.694-3.42a3.426 3.426 0 00-4.656 1.099l-4.042 6.358-3.543-7.094a3.426 3.426 0 00-4.907-1.359z" fill="#FF9801" stroke="#F44335" stroke-width="6.853" stroke-linecap="round" stroke-linejoin="round"/><path d="M32.352 62.318l6.234 12.514 7.273-11.471 10.39 6.257 1.038-12.514h13.507L63.52 45.632l12.468-7.3-12.468-7.3 6.234-11.471H57.287V6.004L44.82 12.26 38.586 1.832l-7.273 10.429-10.39-6.257-1.038 13.557H6.378l7.273 11.471-12.468 7.3 12.468 7.3-6.234 11.472h13.507v12.514l11.428-7.3z" stroke="#000" stroke-width="2.088" stroke-linecap="round" stroke-linejoin="round"/><path d="M18.846 26.86c7.427-.577 8.445-3.224 8.311-9.385 7.01 3.17 9.001 1.603 11.429-3.128 3.433 5.933 5.834 7.07 11.428 3.128.566 7.214 2.737 8.804 8.312 9.386M19.885 49.804c7.427.578 7.406 2.182 7.272 8.343 7.01-3.17 9.001-1.604 11.429 3.128 3.433-5.933 6.873-6.028 12.468-2.086.565-7.213 2.736-8.803 8.311-9.385" stroke="#000" stroke-width="2.088" stroke-linecap="round" stroke-linejoin="round"/></svg>