<svg width="64" height="70" fill="none" xmlns="http://www.w3.org/2000/svg"><path fill-rule="evenodd" clip-rule="evenodd" d="M42.66.875c0-.483-.416-.875-.93-.875H17.29c-.515 0-.93.392-.93.875v12.591H1.612c-.514 0-.93.392-.93.875 0 .484.416.875.93.875h14.746v47.172h-5.4c-.513 0-.93.391-.93.875v5.862c0 .483.417.875.93.875h37.099c.513 0 .93-.392.93-.875v-5.862c0-.484-.417-.875-.93-.875H42.66V15.216h14.746c.514 0 .93-.391.93-.875 0-.483-.416-.875-.93-.875H42.66V.875zM40.8 15.216H18.22v7.504H40.8v-7.504zm0 9.254v26.556H18.22V24.47H40.8zM18.22 52.776H40.8v10.486c0 .484.416.876.93.876h5.398v4.112H11.889v-4.112h5.4c.514 0 .93-.392.93-.876V52.776zm22.58-39.31H18.22V1.75H40.8v11.716z" fill="#47D0F0"/><path fill-rule="evenodd" clip-rule="evenodd" d="M41.006 20.387a.84.84 0 00.14 1.23l13.628 10.355H41.73c-.514 0-.93.392-.93.875 0 .484.416.875.93.875h9.506l5.958 9.23a.826.826 0 00-.037.247v7.37h-7.779V43.2c0-.483-.416-.875-.93-.875H41.73c-.514 0-.93.392-.93.875s.416.875.93.875h5.788v7.37c0 .484.417.876.93.876h3.743v6.31H41.73c-.514 0-.93.392-.93.875s.416.875.93.875h11.39c.514 0 .93-.392.93-.875V52.32h4.037c.514 0 .93-.392.93-.875v-8.246a.828.828 0 00-.047-.275.829.829 0 00-.088-.729l-5.47-8.473h3.994a.929.929 0 00.877-.583.844.844 0 00-.293-.972l-15.676-11.91a.97.97 0 00-1.308.13zm-22.993 0a.97.97 0 00-1.308-.13L1.028 32.166a.843.843 0 00-.292.972c.131.35.483.583.877.583h3.994L.135 42.195a.828.828 0 00-.088.729.827.827 0 00-.047.275v8.246c0 .483.416.875.93.875h4.036v7.185c0 .483.417.875.93.875H17.29c.514 0 .93-.392.93-.875s-.416-.875-.93-.875H6.826v-6.31h3.745c.513 0 .93-.392.93-.875v-7.371h5.788c.514 0 .93-.392.93-.875s-.416-.875-.93-.875h-6.718c-.514 0-.93.392-.93.875v7.37H1.86V43.2a.828.828 0 00-.038-.247l5.96-9.23h9.506c.514 0 .93-.391.93-.875 0-.483-.416-.875-.93-.875H4.245l13.628-10.354a.84.84 0 00.14-1.23zm24.398 7.65a.972.972 0 00-1.315-.044L27.76 39.668l-9.785-10.067a.971.971 0 00-1.314-.056.839.839 0 00-.058 1.236l10.418 10.72a.956.956 0 00.649.283.96.96 0 00.67-.234l14.023-12.276a.839.839 0 00.048-1.236zm-9.855 19.171c0-.483-.416-.875-.93-.875h-4.479c-.513 0-.93.392-.93.875s.417.875.93.875h4.48c.513 0 .93-.392.93-.875zm-2.695 3.819c-.514 0-.93.391-.93.874v17.224c0 .483.416.875.93.875s.93-.392.93-.875V51.901c0-.483-.416-.875-.93-.875z" fill="#47D0F0"/><path d="M31.96 19.838c-.771 0-1.396-.588-1.396-1.313 0-.724.625-1.312 1.395-1.312s1.395.588 1.395 1.313c0 .724-.624 1.312-1.395 1.312zm-9.282 0c-.77 0-1.395-.588-1.395-1.313 0-.724.624-1.312 1.395-1.312.77 0 1.395.588 1.395 1.313 0 .724-.625 1.312-1.395 1.312z" fill="#47D0F0"/><path fill-rule="evenodd" clip-rule="evenodd" d="M64 9.013c0-.484-.416-.875-.93-.875h-5.664c-.513 0-.93.391-.93.875v5.328c0 .484.417.875.93.875h5.664c.514 0 .93-.391.93-.875V9.013zm-1.86.875v3.578h-3.804V9.888h3.804z" fill="#47D0F0"/><path fill-rule="evenodd" clip-rule="evenodd" d="M58.336 3.685c0-.483-.416-.875-.93-.875h-5.664c-.513 0-.93.392-.93.875v5.33c0 .482.417.874.93.874h5.664c.514 0 .93-.392.93-.875V3.685zm-1.86.875v3.58h-3.804V4.56h3.804z" fill="#47D0F0"/></svg>