<svg width="25" height="40" fill="none" xmlns="http://www.w3.org/2000/svg"><g clip-path="url(#clip0_121_132)"><path d="M.68 11.593v16.362c0 .15.003.302.008.45 1.585-.013 2.865-3.773 2.865-8.408.003-4.64-1.286-8.404-2.873-8.404zM21.206 20c0 4.635 1.283 8.394 2.865 8.407.006-.15.008-.299.008-.45V11.594c-1.584 0-2.873 3.764-2.873 8.407z" fill="#fff"/><path d="M24.082 11.593v-1.387c0-5.447-4.415-9.862-9.862-9.862h-3.678C5.095.344.68 4.759.68 10.206v1.387c1.587 0 2.876 3.764 2.876 8.407 0 4.635-1.283 8.394-2.865 8.407a11.663 11.663 0 003.418 7.823 11.67 11.67 0 008.275 3.426c6.312 0 11.455-4.997 11.693-11.251-1.585-.013-2.865-3.773-2.865-8.408-.006-4.64 1.283-8.404 2.87-8.404zm-9.595.732a2.105 2.105 0 01-2.106 2.106 2.105 2.105 0 01-2.106-2.106V6.323c0-.582.236-1.109.617-1.487a2.1 2.1 0 011.489-.616 2.099 2.099 0 012.103 2.103v6.002h.003z" fill="#fff"/><path d="M12.5 18.9v-4.2l1.5-.525.5-2.625V5.775l-2.5-2.1V0h1.5L19 1.575l4.5 4.2.5 5.775-1 1.05-1.5 3.675L21 21l-4.5-.525-4-1.575z" fill="#FF6969"/><path d="M10.275 6.323v6.005a2.106 2.106 0 004.212 0V6.323a2.1 2.1 0 00-.617-1.49 2.106 2.106 0 00-3.595 1.49z" fill="#fff"/><path d="M14.22.344h-3.678C5.095.344.68 4.759.68 10.207v17.75a11.663 11.663 0 003.426 8.273 11.666 11.666 0 008.275 3.426c6.312 0 11.455-4.997 11.693-11.251.005-.15.008-.3.008-.45V10.204c0-5.445-4.415-9.86-9.862-9.86v0zm.267 11.982a2.106 2.106 0 01-4.212 0V6.322a2.106 2.106 0 014.212 0v6.002zm-2.106 5.981V14.43" stroke="#231F20" stroke-miterlimit="10" stroke-linecap="round" stroke-linejoin="round"/><path d="M12.5 18.5l.2.1a18 18 0 008.05 1.9H21" stroke="#231F20" stroke-linecap="round"/><path d="M12.381 4.217V.34m2.106 5.983v6.005a2.106 2.106 0 01-4.212 0V6.323a2.106 2.106 0 014.212 0zM3.556 20c0 4.635-1.283 8.394-2.865 8.407-.006-.15-.008-.299-.008-.45V11.594c1.584 0 2.873 3.764 2.873 8.407v0zm20.526-8.407v16.362c0 .15-.003.302-.008.45-1.585-.014-2.865-3.773-2.865-8.408-.003-4.64 1.286-8.404 2.873-8.404z" stroke="#231F20" stroke-miterlimit="10" stroke-linecap="round" stroke-linejoin="round"/></g><defs><clipPath id="clip0_121_132"><path fill="#fff" d="M0 0h24.762v40H0z"/></clipPath></defs></svg>