<svg width="109" height="106" fill="none" xmlns="http://www.w3.org/2000/svg"><rect width="58.895" height="58.925" rx="10" transform="rotate(-15.008 108.742 -34.202) skewX(-.017)" fill="#40BFEF"/><g filter="url(#filter0_bd_497_2887)"><rect x="37.674" y="34.815" width="58.892" height="58.927" rx="10" fill="#fff" fill-opacity=".7" shape-rendering="crispEdges"/></g><path d="M79.504 60.344l-.142-.403c-.15-.43-.324-.851-.52-1.262l-.182-.385.236-.353.752-1.127s0 0 0 0c.255-.386.37-.848.324-1.309l.746-.074-.746.074a2.012 2.012 0 00-.574-1.219s0 0 0 0l-2.293-2.292s0 0 0 0a2.007 2.007 0 00-2.523-.25l-1.127.752-.354.236-.384-.183a12.983 12.983 0 00-1.262-.52l-.403-.141-.083-.42-.267-1.333h0a2 2 0 00-1.96-1.608s0 0 0 0H65.5c-.462 0-.91.16-1.266.453l-.476-.58.476.58a2 2 0 00-.694 1.153s0 0 0 0 0 0 0 0l-.266 1.336-.084.419-.403.141c-.429.151-.85.325-1.261.52l-.385.183-.354-.236-1.126-.753s0 0 0 0a2.007 2.007 0 00-2.524.25h-.001l-2.29 2.294h-.002a2.01 2.01 0 00-.25 2.526l.001.001.752 1.127.236.353-.183.385c-.195.411-.368.832-.52 1.262l-.141.403-.419.084-1.333.267h0a1.998 1.998 0 00-1.607 1.96s0 0 0 0v3.246c0 .462.16.91.453 1.268l-.577.473.577-.473c.292.358.7.602 1.152.693l26.52-7.518zm0 0l.419.084 1.334.266s0 0 0 0 0 0 0 0a1.998 1.998 0 011.606 1.962V65.9s0 0 0 0a2.001 2.001 0 01-1.607 1.961h0l-1.334.267-.418.084-.142.403c-.15.43-.324.85-.52 1.262l-.182.384.236.354.752 1.127s0 0 0 0a2.011 2.011 0 01-.25 2.526s0 0 0 0l-2.291 2.294s0 0 0 0a2.008 2.008 0 01-2.526.25l-1.126-.752-.354-.236-.384.182c-.411.196-.832.37-1.262.52l-.403.142-.083.419-.267 1.335 8.802-18.079zm-25.185 7.785l-1.334-.267 17.717 10.561a2.001 2.001 0 01-1.96 1.607H65.5s0 0 0 0a1.997 1.997 0 01-1.96-1.608h0l-.266-1.334-.084-.419-.403-.142c-.429-.15-.85-.324-1.261-.52l-.385-.182-.354.236-1.125.752h-.001a2.01 2.01 0 01-2.523-.25h-.001l-2.292-2.292s0 0 0 0a2.012 2.012 0 01-.25-2.527v-.001l.752-1.127.236-.354-.183-.384a12.994 12.994 0 01-.52-1.262l-.141-.403-.42-.084z" stroke="#000" stroke-width="1.5"/><path d="M67.121 56.028a8.252 8.252 0 00-5.828 2.419 8.262 8.262 0 00-2.418 5.831m8.246 8.251a8.252 8.252 0 005.829-2.419 8.261 8.261 0 002.417-5.832" stroke="#000" stroke-width="1.5" stroke-linecap="round"/><defs><filter id="filter0_bd_497_2887" x="32.674" y="29.815" width="70.893" height="70.927" filterUnits="userSpaceOnUse" color-interpolation-filters="sRGB"><feFlood flood-opacity="0" result="BackgroundImageFix"/><feGaussianBlur in="BackgroundImageFix" stdDeviation="2.5"/><feComposite in2="SourceAlpha" operator="in" result="effect1_backgroundBlur_497_2887"/><feColorMatrix in="SourceAlpha" values="0 0 0 0 0 0 0 0 0 0 0 0 0 0 0 0 0 0 127 0" result="hardAlpha"/><feOffset dx="2" dy="2"/><feGaussianBlur stdDeviation="2.5"/><feComposite in2="hardAlpha" operator="out"/><feColorMatrix values="0 0 0 0 0 0 0 0 0 0 0 0 0 0 0 0 0 0 0.1 0"/><feBlend in2="effect1_backgroundBlur_497_2887" result="effect2_dropShadow_497_2887"/><feBlend in="SourceGraphic" in2="effect2_dropShadow_497_2887" result="shape"/></filter></defs></svg>