<svg width="139" height="106" fill="none" xmlns="http://www.w3.org/2000/svg"><path d="M81.572 35.427c-.059-.22-.08-.45-.14-.67-3.19-11.918-15.259-19.018-26.962-15.879-8.444 2.265-14.352 9.235-15.816 17.41a11.22 11.22 0 00-5.227.125c-5.403 1.449-8.834 6.673-8.291 12.148-5.886 3.976-8.856 11.435-6.898 18.751 2.464 9.205 11.806 14.698 20.86 12.289l50.679-13.595c8.269-2.257 13.123-10.89 10.871-19.306-2.24-8.44-10.792-13.476-19.076-11.273z" fill="#40BFEE"/><g filter="url(#filter0_bd_497_2851)"><path d="M107.88 65.503c0-.228.038-.456.038-.683 0-12.34-9.822-22.324-21.939-22.324-8.741 0-16.25 5.201-19.777 12.718a11.223 11.223 0 00-5.082-1.234c-5.593 0-10.258 4.158-11.15 9.587-6.712 2.316-11.51 8.75-11.51 16.325 0 9.53 7.605 17.255 16.972 17.274h52.467c8.571-.038 15.492-7.118 15.492-15.831.019-8.732-6.94-15.813-15.511-15.832z" fill="#fff" fill-opacity=".7" shape-rendering="crispEdges"/></g><path d="M72.29 63.842c.232.134.417.339.527.585l2.491 5.82s0 0 0 0a1.227 1.227 0 01-.108 1.163h0l-.004.006-2.06 3.155a.75.75 0 00-.044.74 10.244 10.244 0 004.711 4.69.75.75 0 00.744-.05l3.114-2.074.003-.002a1.183 1.183 0 011.147-.1v.001l.012.005 5.813 2.482a1.273 1.273 0 01.746 1.297 6.232 6.232 0 01-2.06 3.86 6.217 6.217 0 01-4.093 1.552c-9.434 0-17.111-7.686-17.112-17.132a6.233 6.233 0 011.55-4.1 6.218 6.218 0 013.855-2.06 1.27 1.27 0 01.767.162z" stroke="#000" stroke-width="1.5" stroke-linejoin="round"/><path d="M81.365 67.362a5.213 5.213 0 013.964 1.603 5.398 5.398 0 011.511 3.977m-5.378-8.695a8.395 8.395 0 016.096 2.561c1.594 1.651 2.434 3.86 2.351 6.186" stroke="#000" stroke-width="1.5" stroke-linecap="round" stroke-linejoin="round"/><path d="M92.978 73.045c.141-3.158-.993-6.118-3.191-8.394s-5.115-3.51-8.273-3.476" stroke="#000" stroke-width="1.5" stroke-linecap="round" stroke-linejoin="round"/><defs><filter id="filter0_bd_497_2851" x="33.461" y="37.496" width="96.93" height="66.67" filterUnits="userSpaceOnUse" color-interpolation-filters="sRGB"><feFlood flood-opacity="0" result="BackgroundImageFix"/><feGaussianBlur in="BackgroundImageFix" stdDeviation="2.5"/><feComposite in2="SourceAlpha" operator="in" result="effect1_backgroundBlur_497_2851"/><feColorMatrix in="SourceAlpha" values="0 0 0 0 0 0 0 0 0 0 0 0 0 0 0 0 0 0 127 0" result="hardAlpha"/><feOffset dx="2" dy="2"/><feGaussianBlur stdDeviation="2.5"/><feComposite in2="hardAlpha" operator="out"/><feColorMatrix values="0 0 0 0 0 0 0 0 0 0 0 0 0 0 0 0 0 0 0.1 0"/><feBlend in2="effect1_backgroundBlur_497_2851" result="effect2_dropShadow_497_2851"/><feBlend in="SourceGraphic" in2="effect2_dropShadow_497_2851" result="shape"/></filter></defs></svg>