<svg width="120" height="106" fill="none" xmlns="http://www.w3.org/2000/svg"><path d="M14.485 41.62c-1.793-6.69 2.192-13.566 8.9-15.358l47.981-12.814c6.71-1.792 13.601 2.18 15.395 8.87l8.604 32.105c1.793 6.69-2.191 13.567-8.9 15.359L38.484 82.596c-6.709 1.791-13.6-2.18-15.394-8.87L14.485 41.62z" fill="#3FC0F0"/><g filter="url(#filter0_bd_497_2869)"><path d="M33.41 50.434c.002-6.925 5.634-12.541 12.58-12.544l49.673-.019c6.946-.002 12.574 5.61 12.571 12.535l-.012 33.23c-.003 6.925-5.636 12.542-12.58 12.544l-49.674.02c-6.946.002-12.574-5.61-12.571-12.536l.012-33.23z" fill="#fff" fill-opacity=".7" shape-rendering="crispEdges"/></g><path d="M56.045 57.718l-3.93 3.764a.63.63 0 01-.872 0l-2.357-2.256m44.729-4.42H73.707m19.908 8.127H73.707m19.908 8.128H73.707m19.908 8.128H73.707" stroke="#000" stroke-width="1.5" stroke-linecap="round" stroke-linejoin="round"/><path d="M59.961 59.688c0 4.122-3.353 7.467-7.494 7.467s-7.494-3.345-7.494-7.467c0-4.121 3.353-7.467 7.494-7.467s7.494 3.346 7.494 7.467z" stroke="#000" stroke-width="1.5"/><defs><filter id="filter0_bd_497_2869" x="28.396" y="32.871" width="86.838" height="70.328" filterUnits="userSpaceOnUse" color-interpolation-filters="sRGB"><feFlood flood-opacity="0" result="BackgroundImageFix"/><feGaussianBlur in="BackgroundImageFix" stdDeviation="2.5"/><feComposite in2="SourceAlpha" operator="in" result="effect1_backgroundBlur_497_2869"/><feColorMatrix in="SourceAlpha" values="0 0 0 0 0 0 0 0 0 0 0 0 0 0 0 0 0 0 127 0" result="hardAlpha"/><feOffset dx="2" dy="2"/><feGaussianBlur stdDeviation="2.5"/><feComposite in2="hardAlpha" operator="out"/><feColorMatrix values="0 0 0 0 0 0 0 0 0 0 0 0 0 0 0 0 0 0 0.1 0"/><feBlend in2="effect1_backgroundBlur_497_2869" result="effect2_dropShadow_497_2869"/><feBlend in="SourceGraphic" in2="effect2_dropShadow_497_2869" result="shape"/></filter></defs></svg>