<svg width="108" height="90" fill="none" xmlns="http://www.w3.org/2000/svg"><path d="M48.71 1.594a3.56 3.56 0 00-4.872 1.209L29.935 25.988H9.629a8.355 8.355 0 00-6.935 3.556 10.916 10.916 0 00-1.21 9.815l13.657 44.025A10.133 10.133 0 0024.67 90h58.676a10.135 10.135 0 009.566-6.615l13.656-44.202a10.914 10.914 0 00-1.245-9.637 8.356 8.356 0 00-6.934-3.556H78.085L64.18 2.838a3.558 3.558 0 00-5.084-1.715 3.558 3.558 0 00-.997 5.271L69.761 25.99H38.255l11.7-19.523a3.556 3.556 0 00-1.245-4.873zM74.03 33.1l5.37 8.926a3.559 3.559 0 005.084 1.715 3.557 3.557 0 00.998-5.27l-3.023-5.37h16.075c.462-.061.922.128 1.209.497a4.055 4.055 0 010 3.556L86.016 81.288a3.202 3.202 0 01-2.773 1.6H24.67a3.2 3.2 0 01-2.667-1.6L8.277 37.086a4.053 4.053 0 010-3.556c.329-.394.856-.56 1.352-.427h15.93L22.396 38.4a3.555 3.555 0 006.081 3.556l5.512-8.855h40.043z" fill="#636B77"/><path d="M32.672 68.788h42.674a3.556 3.556 0 100-7.113H32.672a3.556 3.556 0 100 7.113zm0-14.225h42.674a3.556 3.556 0 100-7.112H32.672a3.556 3.556 0 100 7.112z" fill="#636B77"/></svg>