<svg width="101" height="90" fill="none" xmlns="http://www.w3.org/2000/svg"><path d="M88.43.696a3.349 3.349 0 00-2.337.977l-5.72 5.721H8.097c-4.271 0-7.814 3.543-7.814 7.813v49.115c0 4.27 3.543 7.813 7.814 7.813h23.44v5.616l-3.872 5.547h-1.709a3.356 3.356 0 00-3.524 3.523 3.355 3.355 0 003.524 3.174h42.417a3.35 3.35 0 100-6.697h-1.71l-3.87-5.547v-5.616h23.44c4.27 0 7.813-3.542 7.813-7.813V21.068l5.722-5.72a3.349 3.349 0 000-4.745l-8.93-8.93A3.349 3.349 0 0088.43.696zm.035 8.093l4.186 4.186-21.5 21.5-4.186-4.186 21.5-21.5zM8.096 14.091h65.579L55.942 31.824a3.349 3.349 0 00-.976 2.372v8.93a3.35 3.35 0 003.348 3.348h8.93a3.348 3.348 0 002.373-.976l17.732-17.733v25.399H6.98V15.208c0-.677.44-1.117 1.116-1.117zm54.125 20.942l4.186 4.186-.558.558h-4.186v-4.186l.558-.558zM6.98 59.86h80.369v4.46c0 .678-.44 1.118-1.117 1.118H8.096c-.676 0-1.116-.44-1.116-1.117V59.86zm31.255 12.274h17.86v6.698a3.35 3.35 0 00.593 1.919l1.778 2.546H35.863l1.779-2.546c.39-.564.596-1.234.592-1.919v-6.698z" fill="#636B77"/></svg>