<svg width="100" height="91" fill="none" xmlns="http://www.w3.org/2000/svg"><path d="M99.402 51.575c-.098-2.958-1.3-5.92-3.443-8.027h.01l-.164-.149c-.096-.09-.194-.178-.293-.265l-.022-.02c-1.114-1.014-2.429-1.837-3.853-2.28v-2.402c0-7.802-6.326-14.126-14.126-14.126H69.73c.19-1.147.369-2.319.369-3.581C70.098 9.61 61.08.489 49.862.489a20.181 20.181 0 00-20.235 20.236c0 1.248.088 2.416.348 3.58H22.11c-7.8 0-14.125 6.326-14.125 14.127v2.406c-1.328.443-2.638 1.264-3.748 2.274-2.438 2.12-3.812 5.296-3.812 8.47v19.469c0 5.21 4.252 9.569 9.57 9.569h2.235v2.96c0 3.659 3.01 6.67 6.67 6.67h5.28c3.66 0 6.67-3.011 6.67-6.67v-2.96h38.23v2.96c0 3.659 3.01 6.67 6.67 6.67h5.177c3.66 0 6.67-3.011 6.67-6.67v-2.96h2.236c5.21 0 9.57-4.252 9.57-9.57V51.584h0v-.008zM13.868 38.328v-.25h-.098a8.322 8.322 0 018.34-8.095h9.79c3.378 6.529 10.152 10.976 17.962 10.976 7.81 0 14.584-4.445 17.963-10.873h9.79a8.323 8.323 0 018.344 8.345v1.962c-5.508.94-9.63 5.865-9.63 11.707v3.789H23.5v-3.79c0-5.843-4.223-10.765-9.63-11.706v-2.065zm73.3 7.498h.003c1.681-.198 3.267.394 4.461 1.489a5.873 5.873 0 011.887 4.268v19.571c0 2.041-1.653 3.789-3.79 3.789H9.996c-2.041 0-3.789-1.653-3.789-3.789V51.583a5.87 5.87 0 011.887-4.268c1.092-.993 2.378-1.487 3.87-1.487h.608c2.857.302 5.147 2.976 5.147 6.066v4.867c0 2.52 2.08 4.6 4.6 4.6h55.09c2.519 0 4.599-2.08 4.599-4.6v-4.867c0-3.196 2.294-5.771 5.16-6.068zM49.862 6.27c7.939 0 14.454 6.515 14.454 14.454 0 7.94-6.515 14.455-14.454 14.455-7.94 0-14.455-6.516-14.455-14.455S41.924 6.27 49.863 6.27zM24.967 83.58a.9.9 0 01-.89.89h-5.28a.9.9 0 01-.89-.89v-2.96h7.06v2.96zm56.85 0a.9.9 0 01-.89.89h-5.28a.9.9 0 01-.89-.89v-2.96h7.06v2.96z" fill="#636B77" stroke="#636B77" stroke-width=".5"/><path d="M41.607 19.201a2.875 2.875 0 000 4.082h0l4.04 4.038s0 0 0 0c.574.573 1.263.799 2.04.799.801 0 1.476-.344 2.02-.78l.011-.009.01-.01 8.077-8.077a2.875 2.875 0 000-4.081 2.875 2.875 0 00-4.081 0L47.687 21.2l-1.998-2a2.874 2.874 0 00-4.082 0zm0 0l.177.177m-.177-.177l.177.177m0 0a2.625 2.625 0 000 3.728v-3.728z" fill="#636B77" stroke="#636B77" stroke-width=".5"/></svg>