<svg width="182" height="142" fill="none" xmlns="http://www.w3.org/2000/svg"><path d="M148.017 74.712c0-.485.08-.969.08-1.453 0-26.221-20.943-47.44-46.778-47.44-18.638 0-34.649 11.053-42.169 27.028-3.275-1.654-6.954-2.622-10.835-2.622-11.927 0-21.873 8.834-23.774 20.372C10.23 75.518 0 89.194 0 105.29c0 20.251 16.213 36.67 36.185 36.71h111.872c18.275-.081 33.032-15.128 33.032-33.644.04-18.557-14.798-33.604-33.072-33.644z" fill="#F6F6F6"/><g clip-path="url(#clip0_669_877)"><path d="M104.677 112.049h13.116v-2.935h-8.697c1.192-4.868 8.487-5.942 8.487-11.383 0-2.935-1.964-5.083-6.032-5.083-2.595 0-4.77.788-6.313 1.575l.912 2.72c1.403-.644 2.946-1.288 4.84-1.288 1.543 0 2.946.644 2.946 2.434.07 4.009-8.487 4.296-9.259 13.96zm39.35-4.08c-3.998 0-7.295-3.365-7.295-7.446 0-4.08 3.297-7.445 7.295-7.445 3.998 0 7.294 3.365 7.294 7.445 0 4.081-3.296 7.446-7.294 7.446zm0-13.53c-3.297 0-5.962 2.72-5.962 6.084 0 3.365 2.665 6.085 5.962 6.085 3.296 0 5.961-2.72 5.961-6.085 0-3.364-2.665-6.085-5.961-6.085z" fill="#00629A"/><path d="M148.165 100.523h-3.647v-3.722h-.982v4.725h4.629v-1.003z" fill="#00629A"/><path d="M29.769 89.999h6.313c4.629 0 6.733 2.72 6.733 5.584 0 1.933-.912 3.651-2.595 4.582v.071c2.525.645 4.068 2.721 4.068 5.298 0 3.436-2.525 6.514-7.575 6.514h-6.944V89.999zm5.822 9.235c2.174 0 3.366-1.217 3.366-2.935 0-1.647-1.052-2.935-3.366-2.935h-1.824v5.87h1.824zm.63 9.521c2.596 0 4.07-1.002 4.07-3.221 0-1.861-1.404-3.007-3.578-3.007h-2.946v6.228h2.455zm11.012-17.467c0-1.36 1.052-2.433 2.384-2.433 1.333 0 2.455 1.002 2.455 2.433 0 1.29-1.052 2.363-2.455 2.363-1.402 0-2.384-1.002-2.384-2.362zm.42 4.94h3.928v15.821h-3.928v-15.82zm9.189 11.955v-8.805h-2.805v-3.15h2.805v-3.65l3.928-1.146v4.796h4.7l-.983 3.15H60.77v7.803c0 1.504.491 2.005 1.543 2.005.912 0 1.754-.358 2.385-.788l1.192 2.721c-1.122.787-3.016 1.217-4.559 1.217-2.805.071-4.489-1.504-4.489-4.153zm11.154-11.955h3.296l.421 1.79c1.403-1.432 2.665-2.148 4.279-2.148.701 0 1.543.215 2.174.644l-1.403 3.365a3.283 3.283 0 00-1.753-.501c-1.052 0-1.894.43-3.157 1.575v11.168h-3.927V96.228h.07zm11.712-4.941c0-1.36 1.052-2.434 2.385-2.434 1.332 0 2.385 1.074 2.385 2.434 0 1.29-1.053 2.363-2.455 2.363-1.403 0-2.315-1.002-2.315-2.363zm.42 4.94h3.929v15.821h-3.928v-15.82zm11.855 7.876l-5.611-7.874h4.068l3.647 5.154 3.718-5.154h4.068l-5.682 7.874 5.752 7.947h-4.068l-3.718-5.298-3.787 5.298H86.3l5.682-7.947z" fill="#3FC0F0"/><path d="M129.998 104.532V92.648h-2.455l-9.329 12.385v2.363h8.417v4.725h3.367v-4.725h2.805v-2.864h-2.805zm-3.367-2.792v2.721h-2.245c-.701 0-1.963.071-2.384.071l4.769-6.586c0 .573-.14 2.291-.14 3.794z" fill="#00629A"/></g><path d="M21.1 36.753c0-.07.012-.14.012-.21 0-3.788-2.985-6.853-6.668-6.853-2.657 0-4.94 1.597-6.012 3.904a3.385 3.385 0 00-1.544-.378c-1.7 0-3.119 1.276-3.39 2.942C1.459 36.87 0 38.845 0 41.17c0 2.925 2.311 5.296 5.159 5.302h15.948c2.605-.011 4.709-2.185 4.709-4.86.005-2.68-2.11-4.853-4.715-4.86zm152.885-24.801c0-.119.02-.237.02-.355 0-6.41-5.076-11.597-11.337-11.597-4.517 0-8.397 2.702-10.22 6.607a5.772 5.772 0 00-2.626-.641c-2.89 0-5.3 2.16-5.761 4.98-3.469 1.203-5.947 4.546-5.947 8.48 0 4.95 3.929 8.964 8.769 8.974h27.112c4.429-.02 8.005-3.698 8.005-8.224.01-4.536-3.586-8.214-8.015-8.224z" fill="#EDEDED"/><defs><clipPath id="clip0_669_877"><path fill="#fff" transform="translate(29.768 88.853)" d="M0 0h121.553v23.484H0z"/></clipPath></defs></svg>