<svg width="104" height="620" fill="none" xmlns="http://www.w3.org/2000/svg"><path d="M28.273 639.729V669l-26-5.283v-92.239l26 5.283v29.271l73.454 14.707v33.697l-73.454-14.707zm-26-77.003v-33.697l99.454 19.99v33.697l-99.454-19.99zM34.95 426.423c8.81 0 16.53 2.38 23.16 7.139 6.535 4.664 11.413 11.28 14.633 19.847l28.984-16.706v34.983l-25.006 14.135v8.282l25.006 4.997v33.697l-99.454-19.99v-44.834c0-13.136 2.89-23.321 8.667-30.556 5.683-7.329 13.687-10.994 24.01-10.994zm3.269 34.125c-6.725 0-10.088 4.189-10.088 12.565v11.28l23.3 4.712v-13.85c0-4.664-1.136-8.281-3.41-10.851-2.367-2.571-5.635-3.856-9.802-3.856zm-10.656-82.117l11.65 2.284v-42.264l24.153 4.855v42.407l13.071 2.57v-50.117l25.29 5.14v83.1l-99.454-19.99v-81.244l25.29 5.14v48.119zM2.273 265.938c0-13.327 2.89-23.655 8.667-30.984 5.778-7.33 13.876-10.995 24.295-10.995 8.335 0 15.676 2.094 22.022 6.283 6.346 4.093 11.271 9.995 14.776 17.705 3.504 7.615 5.257 16.468 5.257 26.558v17.277l24.437 4.855v33.697l-99.454-19.99v-44.406zm49.159 6.854c0-4.665-1.137-8.282-3.41-10.852-2.368-2.57-5.636-3.855-9.803-3.855-6.725 0-10.088 4.188-10.088 12.565v11.28l23.3 4.712v-13.85zM34.95 119.242c8.81 0 16.53 2.379 23.16 7.139 6.535 4.664 11.413 11.28 14.633 19.847l28.984-16.706v34.982L76.721 178.64v8.281l25.006 4.998v33.697l-99.454-19.99v-44.834c0-13.136 2.89-23.322 8.667-30.556 5.683-7.33 13.687-10.994 24.01-10.994zm3.269 34.125c-6.725 0-10.088 4.188-10.088 12.565v11.28l23.3 4.712v-13.85c0-4.664-1.136-8.282-3.41-10.852-2.367-2.57-5.635-3.855-9.802-3.855zM104 62.968c0 10.185-1.847 19.133-5.541 26.843-3.789 7.615-9.046 13.517-15.77 17.705-6.725 4.094-14.445 6.14-23.159 6.14-11.556 0-21.832-2.665-30.83-7.996-9.093-5.426-16.15-12.898-21.17-22.417C2.51 73.63 0 62.777 0 50.688c0-10.185 1.894-19.085 5.683-26.7 3.694-7.71 8.903-13.612 15.628-17.706C28.036 2.094 35.757 0 44.47 0c11.556 0 21.88 2.713 30.973 8.139 8.998 5.33 16.007 12.803 21.027 22.417 5.02 9.519 7.53 20.323 7.53 32.412zm-27.137-2.856c0-5.33-1.373-9.947-4.12-13.85-2.747-3.998-6.44-7.044-11.082-9.138-4.641-2.094-9.708-3.141-15.202-3.141-5.873 0-10.561 1.76-14.066 5.283-3.504 3.426-5.256 8.186-5.256 14.278 0 5.33 1.373 9.995 4.12 13.993 2.747 3.903 6.44 6.901 11.082 8.995 4.641 2.094 9.708 3.142 15.202 3.142 5.873 0 10.561-1.714 14.066-5.14 3.504-3.523 5.256-8.33 5.256-14.422z" fill="#F8F8F8"/></svg>