<svg width="22" height="22" fill="none" xmlns="http://www.w3.org/2000/svg"><mask id="a" maskUnits="userSpaceOnUse" x="-3.497" y="-3.177" width="28.284" height="28.284" fill="#000"><path fill="#fff" d="M-3.497-3.177h28.284v28.284H-3.497z"/><path fill-rule="evenodd" clip-rule="evenodd" d="M17.092 13.108l2.121-2.142c2.334-2.357 2.334-6.212 0-8.569a5.976 5.976 0 00-8.485 0L8.607 4.54c-.425.429-.425 1 0 1.428.424.429.99.429 1.414 0l2.121-2.142a3.984 3.984 0 015.657 0c1.556 1.571 1.556 4.142 0 5.713l-2.121 2.142c-.425.428-.425 1 0 1.428.424.428.99.428 1.414 0zm-6.364 6.426l2.121-2.142c.425-.429.425-1 0-1.428-.424-.429-.99-.429-1.414 0l-2.121 2.142a3.984 3.984 0 01-5.657 0c-1.556-1.571-1.556-4.142 0-5.712l2.121-2.142c.424-.429.424-1 0-1.428-.424-.429-.99-.429-1.414 0l-2.121 2.142c-2.334 2.356-2.334 6.212 0 8.568a5.977 5.977 0 008.485 0zm-2.121-4.998l5.657-5.712c.424-.429.424-1 0-1.428-.425-.429-.99-.429-1.415 0l-5.657 5.712c-.424.428-.424 1 0 1.428.425.428.99.428 1.415 0z"/></mask><path fill-rule="evenodd" clip-rule="evenodd" d="M17.092 13.108l2.121-2.142c2.334-2.357 2.334-6.212 0-8.569a5.976 5.976 0 00-8.485 0L8.607 4.54c-.425.429-.425 1 0 1.428.424.429.99.429 1.414 0l2.121-2.142a3.984 3.984 0 015.657 0c1.556 1.571 1.556 4.142 0 5.713l-2.121 2.142c-.425.428-.425 1 0 1.428.424.428.99.428 1.414 0zm-6.364 6.426l2.121-2.142c.425-.429.425-1 0-1.428-.424-.429-.99-.429-1.414 0l-2.121 2.142a3.984 3.984 0 01-5.657 0c-1.556-1.571-1.556-4.142 0-5.712l2.121-2.142c.424-.429.424-1 0-1.428-.424-.429-.99-.429-1.414 0l-2.121 2.142c-2.334 2.356-2.334 6.212 0 8.568a5.977 5.977 0 008.485 0zm-2.121-4.998l5.657-5.712c.424-.429.424-1 0-1.428-.425-.429-.99-.429-1.415 0l-5.657 5.712c-.424.428-.424 1 0 1.428.425.428.99.428 1.415 0z" fill="#FEE101"/><path d="M19.213 10.966l.213.21-.213-.21zm-2.121 2.142l-.213-.211.213.21zm2.121-10.71l-.213.21.213-.21zm-8.485 0l-.213-.212.213.211zm-2.121 2.14l-.214-.21.214.21zm0 1.428l-.214.212.214-.212zm1.414 0l.213.212-.213-.212zm2.121-2.142l-.213-.21.213.21zm5.657 0l-.213.212.213-.212zm0 5.713l-.213-.212.213.212zm-2.121 2.142l.213.21-.213-.21zm0 1.428l-.213.21.213-.21zm-2.829 4.284l.213.21-.213-.21zm-2.121 2.142l-.213-.211.213.21zm2.121-3.57l.213-.211-.213.21zm-1.414 0l.213.21-.213-.21zm-2.121 2.142l-.213-.211.213.21zm-5.657 0l.213-.211-.213.21zm0-5.712l.213.21-.213-.21zm2.121-2.142l-.213-.212.213.212zm0-1.428l.213-.212-.213.212zm-1.414 0l.213.21-.213-.21zm-2.121 2.142l-.213-.211.213.21zm0 8.568l.213-.211-.213.21zm12.02-10.71l-.213-.212.213.212zm-5.656 5.712l.213.21-.213-.21zm5.657-7.14l-.214.21.213-.21zm-1.415 0l-.213-.212.213.212zm-5.657 5.712l.214.21-.214-.21zm0 1.428l.214-.211-.214.21zM19 10.755l-2.121 2.142.426.422 2.121-2.142-.426-.422zm0-8.147c2.218 2.24 2.218 5.907 0 8.146l.426.423c2.45-2.473 2.45-6.518 0-8.99l-.426.42zm-8.059 0a5.676 5.676 0 018.06 0l.425-.422a6.276 6.276 0 00-8.911 0l.426.422zM8.82 4.751l2.121-2.143-.426-.422-2.122 2.142.427.423zm0 1.005c-.164-.165-.232-.342-.232-.503 0-.16.068-.337.232-.502l-.427-.423c-.26.263-.405.586-.405.925 0 .34.145.663.405.926l.427-.423zm.988 0c-.164.166-.338.233-.494.233-.156 0-.33-.067-.494-.233l-.427.423c.26.262.582.41.92.41.34 0 .661-.148.921-.41l-.426-.423zm2.121-2.142L9.808 5.756l.426.423 2.121-2.142-.426-.423zm6.083 0a4.284 4.284 0 00-6.083 0l.426.423a3.684 3.684 0 015.23 0l.427-.423zm0 6.135c1.672-1.688 1.672-4.447 0-6.135l-.426.423c1.44 1.453 1.44 3.836 0 5.29l.426.422zm-2.121 2.142l2.121-2.142-.426-.423-2.121 2.143.426.422zm0 1.006c-.164-.166-.232-.343-.232-.503 0-.161.068-.338.232-.503l-.426-.422c-.26.262-.405.586-.405.925 0 .339.144.662.405.925l.426-.422zm.988 0c-.164.165-.338.232-.494.232-.156 0-.33-.067-.494-.232l-.426.422c.26.262.581.41.92.41.339 0 .66-.148.92-.41l-.426-.422zm-4.243 4.284l-2.121 2.142.426.422 2.121-2.142-.426-.422zm0-1.006c.164.166.232.342.232.503 0 .16-.068.337-.232.503l.427.422c.26-.263.404-.586.404-.925 0-.34-.144-.663-.405-.925l-.426.422zm-.988 0c.164-.166.338-.232.494-.232.156 0 .33.066.494.232l.427-.422c-.26-.263-.582-.41-.92-.41-.34 0-.661.147-.921.41l.426.422zm-2.121 2.142l2.121-2.142-.426-.422L9.1 17.895l.426.422zm-6.083 0a4.284 4.284 0 006.083 0l-.426-.422a3.684 3.684 0 01-5.23 0l-.427.422zm0-6.134c-1.672 1.687-1.672 4.446 0 6.134l.426-.422c-1.44-1.454-1.44-3.836 0-5.29l-.426-.422zm2.121-2.143l-2.121 2.143.426.422 2.121-2.142-.426-.422zm0-1.005c.164.165.231.342.231.503 0 .16-.067.337-.23.502l.425.423c.26-.263.405-.586.405-.925 0-.34-.144-.663-.405-.926l-.426.423zm-.988 0c.164-.166.338-.233.494-.233.156 0 .33.067.494.233l.426-.423c-.26-.262-.581-.41-.92-.41-.339 0-.66.148-.92.41l.426.423zm-2.121 2.142l2.121-2.142-.426-.423-2.121 2.143.426.422zm0 8.146c-2.218-2.24-2.218-5.907 0-8.146l-.426-.422c-2.45 2.473-2.45 6.517 0 8.99l.426-.422zm8.059 0a5.676 5.676 0 01-8.06 0l-.425.422a6.276 6.276 0 008.911 0l-.426-.422zm3.535-10.71l-5.657 5.712.427.422 5.657-5.712-.427-.423zm0-1.006c.164.165.232.342.232.503 0 .16-.068.337-.232.502l.427.423c.26-.263.405-.586.405-.925 0-.34-.145-.663-.405-.926l-.427.423zm-.988 0c.165-.166.338-.233.494-.233.157 0 .33.067.494.233l.427-.423c-.26-.262-.582-.41-.92-.41-.34 0-.66.148-.92.41l.425.423zm-5.656 5.712l5.656-5.712-.426-.423-5.657 5.713.427.422zm0 1.006c-.165-.166-.232-.343-.232-.503 0-.16.067-.337.232-.503l-.427-.422c-.26.262-.405.585-.405.925 0 .339.145.662.405.925l.427-.422zm.987 0c-.164.165-.337.232-.493.232-.157 0-.33-.067-.494-.232l-.427.422c.26.262.582.41.92.41.34 0 .66-.148.92-.41l-.426-.422z" fill="#FEE101" mask="url(#a)"/></svg>