<svg width="30" height="30" fill="none" xmlns="http://www.w3.org/2000/svg"><g clip-path="url(#clip0_567_1454)"><path d="M30 0H0v30h30V0z" fill="url(#paint0_linear_567_1454)"/><path d="M19.299 11.652a.97.97 0 100-1.942.97.97 0 000 1.941z" fill="#fff"/><path fill-rule="evenodd" clip-rule="evenodd" d="M6.82 12.056a5.493 5.493 0 015.493-5.493h5.37a5.493 5.493 0 015.493 5.493v5.889a5.493 5.493 0 01-5.493 5.493h-5.37a5.493 5.493 0 01-5.493-5.493v-5.89zm5.493-4.175a4.175 4.175 0 00-4.174 4.175v5.889a4.175 4.175 0 004.175 4.174h5.37a4.175 4.175 0 004.174-4.174v-5.89a4.175 4.175 0 00-4.175-4.174h-5.37z" fill="#fff"/><path fill-rule="evenodd" clip-rule="evenodd" d="M14.997 12.102a2.898 2.898 0 100 5.796 2.898 2.898 0 000-5.796zM10.781 15a4.216 4.216 0 118.433 0 4.216 4.216 0 01-8.433 0z" fill="#fff"/></g><defs><linearGradient id="paint0_linear_567_1454" x1="25.245" y1="32.745" x2="4.755" y2="-2.745" gradientUnits="userSpaceOnUse"><stop stop-color="#20254C"/><stop offset=".057" stop-color="#29254D"/><stop offset=".15" stop-color="#41234F"/><stop offset=".268" stop-color="#692152"/><stop offset=".404" stop-color="#A01F57"/><stop offset=".533" stop-color="#DA1C5C"/><stop offset=".592" stop-color="#DC255A"/><stop offset=".689" stop-color="#E13D56"/><stop offset=".811" stop-color="#EA654E"/><stop offset=".952" stop-color="#F69C44"/><stop offset="1" stop-color="#FBB040"/></linearGradient><clipPath id="clip0_567_1454"><rect width="30" height="30" rx="15" fill="#fff"/></clipPath></defs></svg>