<svg width="30" height="30" fill="none" xmlns="http://www.w3.org/2000/svg"><g clip-path="url(#clip0_567_1461)"><path d="M15 0C6.716 0 0 6.716 0 15c0 8.284 6.716 15 15 15 8.284 0 15-6.716 15-15 0-8.284-6.716-15-15-15zm8.061 20.692c-.64.4-3.24.52-3.87.062-.346-.25-.662-.564-.962-.863-.21-.21-.448-.31-.628-.538-.148-.185-.249-.404-.404-.587-.261-.308-.664-.57-.982-.194-.48.565.075 1.675-.564 2.097-.215.142-.431.183-.7.163l-.593.027c-.349.006-.901.01-1.298-.062-.443-.08-.808-.322-1.209-.499-.76-.337-1.483-.796-2.034-1.432-1.499-1.732-3.512-4.114-4.294-6.291-.161-.448-.586-1.334-.183-1.718.548-.398 3.237-.51 3.656.105.17.25.278.617.399.9.15.354.23.687.465 1 .208.277.361.556.522.86.18.342.35.67.57.984.149.214.542.64.79.67.608.078.57-1.397.525-1.757a6.956 6.956 0 01-.043-1.067c.01-.3.037-.723-.141-.968-.29-.4-.936-.101-.986-.638.107-.153.084-.288.796-.522a2.955 2.955 0 011.293-.15c.754.061 1.553-.143 2.281.102.696.234.588 1.222.565 1.814-.032.808.002 1.597 0 2.418-.001.373-.016.737.44.706.426-.028.47-.387.674-.684.283-.413.543-.832.832-1.244.389-.557.506-1.182.873-1.753.13-.203.244-.637.445-.799.153-.122.443-.058.628-.058h.44c.336 0 .68-.003 1.025.01.498.017 1.055-.098 1.549-.028 2.13.3-2.677 4.854-2.427 5.667.173.562 1.27 1.19 1.665 1.65.526.612 2.143 1.83.886 2.617z" fill="#4C75A3"/></g><defs><clipPath id="clip0_567_1461"><path fill="#fff" d="M0 0h30v30H0z"/></clipPath></defs></svg>