<svg width="40" height="40" fill="none" xmlns="http://www.w3.org/2000/svg"><path d="M34.448 8.371H5.552c-1.694 0-3.143 1.357-3.372 3.157-.02.162-.032.33-.032.5v15.944c0 2.017 1.528 3.658 3.404 3.658h28.896c1.876 0 3.404-1.64 3.404-3.658V12.029c0-2.017-1.528-3.658-3.404-3.658zm.904 19.602c0 .627-.414 1.158-.904 1.158H5.552c-.49 0-.904-.531-.904-1.158V12.029c0-.062.004-.12.011-.174l.002-.01c.07-.555.453-.973.891-.973h28.896c.49 0 .904.53.904 1.158v15.943z" fill="#000"/><path d="M33.294 16.064c-.996-.544-1.835-1.45-2.362-2.553a1.25 1.25 0 00-1.127-.71h-19.61c-.48 0-.92.276-1.127.71-.527 1.102-1.366 2.009-2.363 2.553-.4.22-.65.64-.65 1.097v5.681c0 .457.25.878.651 1.097.423.23.817.524 1.171.873a5.953 5.953 0 011.192 1.68c.208.435.646.71 1.127.71h19.61c.48 0 .919-.276 1.127-.71a5.956 5.956 0 011.192-1.68 5.261 5.261 0 011.17-.873 1.25 1.25 0 00.652-1.097v-5.681a1.253 1.253 0 00-.653-1.097zm-1.849 6.08c-.38.262-.74.558-1.075.887a8.344 8.344 0 00-1.312 1.672H10.94a8.336 8.336 0 00-1.311-1.672 7.845 7.845 0 00-1.076-.886v-4.287A8.257 8.257 0 0010.94 15.3h18.119a8.266 8.266 0 002.386 2.557v4.287z" fill="#000"/><path d="M20 16.031c-2.046 0-3.71 1.782-3.71 3.971 0 2.19 1.664 3.971 3.71 3.971 2.046 0 3.71-1.78 3.71-3.97 0-2.19-1.664-3.972-3.71-3.972zm0 5.181c-.667 0-1.21-.543-1.21-1.21 0-.667.543-1.21 1.21-1.21a1.211 1.211 0 010 2.42z" fill="#000"/></svg>