<svg width="36" height="43" fill="none" xmlns="http://www.w3.org/2000/svg"><path d="M14.271.167c.863 0 1.563.7 1.563 1.562v5.209a1.563 1.563 0 01-3.125 0V1.729c0-.863.7-1.562 1.563-1.562zM4.313 4.27c.61-.61 1.6-.61 2.21 0l3.646 3.645a1.562 1.562 0 01-2.21 2.21L4.312 6.48c-.61-.61-.61-1.6 0-2.21zm19.918 0c.61.61.61 1.599 0 2.21l-3.645 3.645a1.562 1.562 0 11-2.21-2.21l3.646-3.646c.61-.61 1.6-.61 2.21 0zM.21 14.228c0-.863.7-1.562 1.562-1.562H6.98a1.563 1.563 0 010 3.125H1.77c-.862 0-1.562-.7-1.562-1.563zm12.5 1.536c0-2.348 2.754-3.614 4.536-2.087l17.627 15.11c1.896 1.625.817 4.732-1.678 4.832l-8 .32a3.179 3.179 0 00-2.242 1.056l-5.447 6.088c-1.682 1.88-4.796.69-4.796-1.832V15.765z" fill="#000"/></svg>