<svg width="8" height="9" fill="none" xmlns="http://www.w3.org/2000/svg"><path d="M1.712 4.534c-.505 0-.914-.185-1.227-.555-.306-.377-.459-.867-.459-1.472 0-.604.153-1.091.459-1.461C.798.669 1.207.48 1.712.48c.497 0 .903.185 1.216.555.313.37.469.86.469 1.472s-.156 1.102-.47 1.472c-.312.37-.718.555-1.215.555zm4.522-4h.63L1.765 8h-.63l5.1-7.466zm-4.522 3.52a.993.993 0 00.832-.406c.213-.277.32-.657.32-1.14 0-.484-.107-.861-.32-1.132A.984.984 0 001.712.96a.994.994 0 00-.843.416c-.206.278-.31.655-.31 1.131 0 .477.104.853.31 1.13a.994.994 0 00.843.417zm4.576 4c-.498 0-.903-.185-1.216-.555-.313-.377-.47-.867-.47-1.472 0-.604.157-1.091.47-1.461A1.507 1.507 0 016.288 4c.505 0 .91.189 1.216.566.313.37.469.857.469 1.461 0 .605-.156 1.095-.47 1.472-.305.37-.71.555-1.215.555zm0-.48a.994.994 0 00.842-.416c.207-.278.31-.654.31-1.13 0-.477-.103-.854-.31-1.132a.994.994 0 00-.842-.416c-.349 0-.63.14-.843.416-.206.27-.31.648-.31 1.131 0 .484.104.864.31 1.141.213.27.494.406.843.406z" fill="#000"/></svg>