<svg width="55" height="51" fill="none" xmlns="http://www.w3.org/2000/svg"><path d="M33.086 27.71l2.32 7.65c.172.68 1.117.85 1.547.255l1.203-1.53 2.75 2.04c.344.255.946.17 1.203-.17l2.407-3.145c.258-.34.172-.935-.172-1.19l-2.75-2.04 1.203-1.53a.849.849 0 00-.687-1.36l-8.079-.084c-.688 0-1.117.594-.945 1.104zm7.219.68l-.688.85c-.258.34-.172.935.172 1.19l2.75 2.04-1.375 1.785-2.75-1.955c-.172-.085-.344-.17-.516-.17h-.086c-.257 0-.43.17-.6.34l-.689.85-1.46-4.93h5.242z" fill="#212244"/><path d="M54.14 42.755h-.859V3.23c0-1.785-1.46-3.23-3.265-3.23H4.984C3.18 0 1.72 1.445 1.72 3.23v39.525H.86c-.515 0-.859.34-.859.85C0 47.685 3.266 51 7.305 51h40.39C51.82 51 55 47.6 55 43.605c0-.51-.344-.85-.86-.85zM3.438 3.23c0-.85.687-1.53 1.547-1.53h45.031c.86 0 1.547.68 1.547 1.53v39.525h-17.36c-.515 0-.859.34-.859.85v2.125H21.657v-2.125c0-.51-.344-.85-.86-.85H3.44L3.437 3.23zM47.695 49.3H7.305a5.547 5.547 0 01-5.5-4.845h18.132v2.125c0 .51.344.85.86.85h13.405c.516 0 .86-.34.86-.85v-2.125h18.132a5.545 5.545 0 01-5.499 4.845z" fill="#212244"/><path d="M49.243 39.27v-34c0-.51-.344-.85-.86-.85H6.617c-.515 0-.86.34-.86.85v34c0 .51.345.85.86.85h41.765c.43 0 .86-.425.86-.85zm-1.72-.85H7.477V6.12h40.046v32.3z" fill="#212244"/><path d="M11.914 19.125h9.742c.516 0 .86-.34.86-.85v-9.01c0-.51-.344-.85-.86-.85h-9.742c-.515 0-.86.34-.86.85v9.01c0 .51.345.85.86.85zm.86-9.01h8.023v7.31h-8.024v-7.31zm-.86 13.09h31.82c.516 0 .86-.34.86-.85s-.344-.85-.86-.85h-31.82c-.515 0-.86.34-.86.85s.345.85.86.85zm0 4.845h16.617c.516 0 .86-.34.86-.85s-.344-.85-.86-.85H11.914c-.515 0-.86.34-.86.85s.345.85.86.85zm0 4.93h16.617c.516 0 .86-.34.86-.85s-.344-.85-.86-.85H11.914c-.515 0-.86.34-.86.85s.345.85.86.85zm15.648-19.549h16.14c.516 0 .86-.34.86-.85s-.344-.85-.86-.85h-16.14c-.515 0-.86.34-.86.85s.43.85.86.85zm0 4.929h16.14c.516 0 .86-.34.86-.85s-.344-.85-.86-.85h-16.14c-.515 0-.86.34-.86.85s.43.85.86.85z" fill="#212244"/></svg>