<svg width="56" height="54" fill="none" xmlns="http://www.w3.org/2000/svg"><path d="M35.395 10.2a1.096 1.096 0 100-2.192H20.463a1.096 1.096 0 100 2.193h14.932z" fill="#212244"/><path d="M55.406 17.053a1.096 1.096 0 00-.981-.158l-7.522 2.42v-6.309l1.334-.463a3.375 3.375 0 002.265-3.186V7.41a3.376 3.376 0 00-3.372-3.372h-8.225v-.131A3.911 3.911 0 0035 0H20.86a3.911 3.911 0 00-3.907 3.907v.131H10.74a1.096 1.096 0 100 2.193h36.39c.651 0 1.18.53 1.18 1.18v1.947c0 .502-.318.95-.792 1.114l-15.144 4.262v.023c0-1.5-1.22-2.192-2.72-2.192h-3.45c-1.5 0-2.72.669-2.72 2.169L8.338 10.472a1.181 1.181 0 01-.793-1.114V7.41c0-.65.53-1.18 1.18-1.18H10.5a1.096 1.096 0 100-2.193H8.726A3.376 3.376 0 005.354 7.41v1.947c0 1.435.91 2.715 2.266 3.186l1.333.463v6.309l-7.521-2.42A1.096 1.096 0 000 17.94v14.506a1.096 1.096 0 102.192 0V19.443l8.227 2.647-6.251 13.837H2.192v-4.244a1.096 1.096 0 10-2.192 0v5.34c0 .606.49 1.097 1.096 1.097h3.779a1.1 1.1 0 001-.645l.325-.72 3.807 2.207c.407.235.738.58.958.996l1.504 2.847-.226.415a3.097 3.097 0 002.511 4.565c.004.28.047.563.128.839a3.074 3.074 0 001.49 1.84 3.077 3.077 0 002.103.312 3.073 3.073 0 001.405 1.596 3.078 3.078 0 002.354.248c.277-.082.537-.2.775-.35.26.348.596.646 1 .866a3.076 3.076 0 002.355.249 3.074 3.074 0 001.84-1.489l.185-.34c1.362.507 2.737.762 4.108.762.518 0 1.035-.037 1.55-.11a3.21 3.21 0 002.745-2.832c.377-.014.753-.048 1.128-.1a3.212 3.212 0 002.753-2.915c.015-.165.017-.33.007-.494a3.214 3.214 0 002.277-2.81c.015-.167.017-.334.006-.5a2.97 2.97 0 001.815-1.863 2.956 2.956 0 00-.354-2.603 6.18 6.18 0 001.183-.826c.244-.217.559-.337.885-.337h3.243l.247.547c.177.392.568.644.999.644h3.779c.605 0 1.096-.49 1.096-1.096V20.9a1.096 1.096 0 10-2.193 0v15.028H51.69L45.438 22.09l8.227-2.646v1.218a1.096 1.096 0 102.192 0V17.94c0-.35-.167-.68-.45-.886zM19.144 3.906c0-.945.77-1.714 1.715-1.714h14.14c.945 0 1.714.769 1.714 1.714v.132H19.145v-.132zm6.531 11.378c0-.291.236-.527.527-.527h3.452c.29 0 .527.236.527.527v3.155a.527.527 0 01-.527.527h-3.452a.528.528 0 01-.527-.527v-3.155zm-14.529-1.516l12.337 3.287v1.385c0 1.5 1.22 2.72 2.72 2.72h3.452c1.5 0 2.72-1.22 2.72-2.72v-1.385l12.337-3.287v6.252l-1.115.358a1.096 1.096 0 00-.662 1.495l.41.909-1.1.494c-.46.206-.98.22-1.428.038-2.453-.996-5.188-1.26-8.36-.81a4.75 4.75 0 00-1.987.77l-1.766 1.199c-3.282-.602-5.82-.519-9.379 1.379a1.9 1.9 0 01-1.66.051l-5.454-2.451.713-1.58a1.097 1.097 0 00-.663-1.494l-1.114-.359v-6.252zm3.024 30.498l1.282-2.358a.902.902 0 011.655.174.894.894 0 01-.073.686l-1.282 2.358a.896.896 0 01-1.22.361.902.902 0 01-.362-1.221zm3.249 4.272a.895.895 0 01-.434-.537.894.894 0 01.073-.685l2.017-3.711a.901.901 0 011.582.86l-2.017 3.712a.892.892 0 01-.536.433.893.893 0 01-.685-.072zm4.73 1.546a.892.892 0 01-.536.433.896.896 0 01-.686-.073.896.896 0 01-.361-1.22l2.018-3.712a.901.901 0 011.582.86l-2.017 3.712zm4.13.764a.896.896 0 01-1.222.362.902.902 0 01-.362-1.22l.777-1.429a.901.901 0 011.582.86l-.776 1.427zm16.228-11.652c.213.212.286.52.19.805a.771.771 0 01-.726.536h-.002c-2.105-.007-4.021-.602-5.858-1.818a1.096 1.096 0 10-1.21 1.828c1.827 1.21 3.798 1.922 5.872 2.123a1.042 1.042 0 01-.875 1.13c-2.005.282-3.97-.102-6.007-1.177a1.096 1.096 0 10-1.023 1.94c1.86.98 3.745 1.488 5.626 1.515a1.042 1.042 0 01-.88 1.026c-2.005.283-3.97-.102-6.007-1.176a1.096 1.096 0 10-1.022 1.94c1.327.7 2.668 1.158 4.01 1.374a1.04 1.04 0 01-.853.796c-1.489.21-2.948.053-4.438-.48a3.1 3.1 0 00-1.564-3.283 3.074 3.074 0 00-1.27-.369 3.101 3.101 0 00-1.617-2.681 3.082 3.082 0 00-2.103-.31 3.064 3.064 0 00-1.406-1.598 3.082 3.082 0 00-2.288-.266 3.071 3.071 0 00-1.335-1.43 3.097 3.097 0 00-3.98.898l-.837-1.586a4.69 4.69 0 00-1.796-1.869l-4-2.319 4.2-9.296 5.46 2.454a4.098 4.098 0 003.589-.117c2.152-1.148 3.79-1.52 5.599-1.447l-.63.429a2.929 2.929 0 00-1.193 1.694l-1.78 6.905c-.14.545.153 1.107.681 1.302l1.037.383a4.521 4.521 0 005.655-2.356l.916-2.009 2.378-.335 1.023 1.835c1.694 3.041 4.894 4.616 7.538 4.616.17 0 .341-.007.51-.021l.416.414zm3.986-4.46c-.865 0-1.697.315-2.342.89-2.451 2.181-6.585.382-8.195-2.506l-1.084-1.944a2.022 2.022 0 00-2.037-1.012l-2.6.366a2 2 0 00-1.548 1.156l-.958 2.1a2.32 2.32 0 01-2.901 1.209l-.107-.04 1.533-5.946a.744.744 0 01.3-.428l5.147-3.495a2.544 2.544 0 011.064-.412c2.779-.395 5.142-.176 7.227.67 1 .406 2.149.38 3.15-.07l1.105-.496 4.498 9.957h-2.252z" fill="#212244"/></svg>