<svg width="50" height="50" fill="none" xmlns="http://www.w3.org/2000/svg"><path d="M44.347 0H5.653A5.66 5.66 0 000 5.653v38.694A5.66 5.66 0 005.653 50h38.694A5.659 5.659 0 0050 44.347V5.653A5.659 5.659 0 0044.347 0zM5.653 1.613h38.694a4.045 4.045 0 014.04 4.04v3.814H1.612V5.652a4.046 4.046 0 014.041-4.04zm38.694 46.773H5.653a4.045 4.045 0 01-4.04-4.04V11.08h46.775v33.266a4.045 4.045 0 01-4.041 4.04zM17.635 5.996c0-.445.36-.806.806-.806h25.466a.807.807 0 010 1.613H18.44a.806.806 0 01-.805-.806zm-13.147 0c0-.445.359-.806.804-.806h.004a.807.807 0 11-.808.807zm3.83 0c0-.445.36-.806.806-.806h.004a.807.807 0 11-.81.807zm3.831 0c0-.445.36-.806.805-.806h.003a.807.807 0 11-.808.807zm4.353 32.214c6.2 0 11.246-5.045 11.246-11.247 0-6.201-5.045-11.246-11.246-11.246-6.202 0-11.246 5.045-11.246 11.246 0 6.201 5.045 11.247 11.246 11.247zm0-20.88c5.312 0 9.633 4.321 9.633 9.633 0 5.312-4.321 9.633-9.633 9.633-5.312 0-9.633-4.321-9.633-9.633 0-5.312 4.321-9.633 9.633-9.633zm27.363-.806a.807.807 0 01-.806.807H30.475a.807.807 0 010-1.613h12.584c.445 0 .806.36.806.806zm0 6.434a.807.807 0 01-.806.807h-9.584a.807.807 0 010-1.614h9.584c.445 0 .806.362.806.807zm0 6.434a.807.807 0 01-.806.807h-9.584a.807.807 0 010-1.614h9.584c.445 0 .806.362.806.807zm0 6.434a.807.807 0 01-.806.806H30.475a.807.807 0 010-1.613h12.584c.445 0 .806.362.806.807zm0 6.434a.807.807 0 01-.806.807H6.062a.807.807 0 010-1.613h36.997c.445 0 .806.36.806.806zm-28.17-10.916v-5.832h-.751a.807.807 0 010-1.613h1.558c.37 0 .678.25.773.59h.033v6.854h.936a.807.807 0 010 1.613H14.76a.807.807 0 010-1.613h.935zm-.202-9.476v-.091a1.008 1.008 0 112.017 0v.09a1.008 1.008 0 11-2.017 0z" fill="#fff"/></svg>