<svg width="55" height="55" fill="none" xmlns="http://www.w3.org/2000/svg"><path d="M27.561 47.818a.881.881 0 01-.883.884H5.417A4.423 4.423 0 011 44.285V5.417A4.423 4.423 0 015.417 1h38.868a4.423 4.423 0 014.417 4.417v21.26a.883.883 0 01-1.767 0V10H2.767v34.285a2.655 2.655 0 002.65 2.65h21.261a.884.884 0 01.883.883zM2.767 5.417v2.816h44.168V5.417a2.655 2.655 0 00-2.65-2.65H5.417a2.655 2.655 0 00-2.65 2.65zM53.01 53.01a3.388 3.388 0 01-4.783 0l-5.88-5.88a12.389 12.389 0 114.783-4.783l5.88 5.88a3.384 3.384 0 010 4.783zm-16.677-6.076a10.6 10.6 0 10-10.6-10.6 10.61 10.61 0 0010.6 10.6zm15.428 2.543l-5.628-5.629a12.476 12.476 0 01-2.284 2.285l5.628 5.628a1.615 1.615 0 002.285-2.284zM45.17 36.334a8.833 8.833 0 11-8.834-8.833 8.842 8.842 0 018.834 8.833zm-1.767 0a7.066 7.066 0 00-12.064-4.996 7.065 7.065 0 109.992 9.991 7.073 7.073 0 002.072-4.995zm-4.158-3.274l-4.676 4.675-2.025-2.025a.884.884 0 00-1.25 1.25l2.65 2.65a.884.884 0 001.25 0l5.3-5.301a.883.883 0 00-1.25-1.25zm-17.16-9.093a.883.883 0 000 1.767h4.534a.883.883 0 000-1.767h-4.533zm6.3-10.6h-6.3a.883.883 0 100 1.767h6.3a.884.884 0 000-1.767zm.884 6.184a.884.884 0 00-.883-.884h-6.3a.883.883 0 000 1.767h6.3a.884.884 0 00.883-.883zm13.25-6.184h-10.6a.883.883 0 000 1.767h10.6a.884.884 0 000-1.767zm0 5.3h-10.6a.884.884 0 000 1.767h10.6a.884.884 0 000-1.767zM12.485 36.334h-5.3a.883.883 0 000 1.767h5.3a.883.883 0 000-1.767zm8.834-5.3h-5.3a.883.883 0 000 1.767h5.3a.883.883 0 000-1.767zm0 5.3h-5.3a.883.883 0 100 1.767h5.3a.883.883 0 000-1.767zm-8.834 5.3h-5.3a.883.883 0 000 1.767h5.3a.884.884 0 000-1.766zm8.834 0h-5.3a.883.883 0 100 1.767h5.3a.884.884 0 000-1.766zm-8.834-10.6h-5.3a.883.883 0 000 1.767h5.3a.883.883 0 000-1.767zm1.767-8.833h-3.533a2.655 2.655 0 00-2.65 2.65v1.767a.883.883 0 01-1.767 0V24.85a4.412 4.412 0 012.906-4.134 4.417 4.417 0 116.554 0 4.416 4.416 0 012.907 4.134v1.767a.884.884 0 01-1.767 0V24.85a2.655 2.655 0 00-2.65-2.65zm-4.417-4.417a2.65 2.65 0 105.3 0 2.65 2.65 0 00-5.3 0z" fill="#212244"/><path d="M19.441 4.887a.807.807 0 000 1.613h23.465a.807.807 0 100-1.613H19.441zm-13.149 0a.805.805 0 00-.804.806.808.808 0 001.614 0 .807.807 0 00-.806-.806h-.004zm3.831 0a.805.805 0 00-.804.806.808.808 0 001.615 0 .807.807 0 00-.806-.806h-.005zm3.831 0a.808.808 0 10.004 0h-.004z" fill="#212244"/><path d="M27.561 47.818a.881.881 0 01-.883.884H5.417A4.423 4.423 0 011 44.285V5.417A4.423 4.423 0 015.417 1h38.868a4.423 4.423 0 014.417 4.417v21.26a.883.883 0 01-1.767 0V10H2.767v34.285a2.655 2.655 0 002.65 2.65h21.261a.884.884 0 01.883.883zM2.767 5.417v2.816h44.168V5.417a2.655 2.655 0 00-2.65-2.65H5.417a2.655 2.655 0 00-2.65 2.65zM53.01 53.01a3.388 3.388 0 01-4.783 0l-5.88-5.88a12.389 12.389 0 114.783-4.783l5.88 5.88a3.384 3.384 0 010 4.783zm-16.677-6.076a10.6 10.6 0 10-10.6-10.6 10.61 10.61 0 0010.6 10.6zm15.428 2.543l-5.628-5.629a12.476 12.476 0 01-2.284 2.285l5.628 5.628a1.615 1.615 0 002.285-2.284zM45.17 36.334a8.833 8.833 0 11-8.834-8.833 8.842 8.842 0 018.834 8.833zm-1.767 0a7.066 7.066 0 00-12.064-4.996 7.065 7.065 0 109.992 9.991 7.073 7.073 0 002.072-4.995zm-4.158-3.274l-4.676 4.675-2.025-2.025a.884.884 0 00-1.25 1.25l2.65 2.65a.884.884 0 001.25 0l5.3-5.301a.883.883 0 00-1.25-1.25zm-17.16-9.093a.883.883 0 000 1.767h4.534a.883.883 0 000-1.767h-4.533zm6.3-10.6h-6.3a.883.883 0 100 1.767h6.3a.884.884 0 000-1.767zm.884 6.184a.884.884 0 00-.883-.884h-6.3a.883.883 0 000 1.767h6.3a.884.884 0 00.883-.883zm13.25-6.184h-10.6a.883.883 0 000 1.767h10.6a.884.884 0 000-1.767zm0 5.3h-10.6a.884.884 0 000 1.767h10.6a.884.884 0 000-1.767zM12.485 36.334h-5.3a.883.883 0 000 1.767h5.3a.883.883 0 000-1.767zm8.834-5.3h-5.3a.883.883 0 000 1.767h5.3a.883.883 0 000-1.767zm0 5.3h-5.3a.883.883 0 100 1.767h5.3a.883.883 0 000-1.767zm-8.834 5.3h-5.3a.883.883 0 000 1.767h5.3a.884.884 0 000-1.766zm8.834 0h-5.3a.883.883 0 100 1.767h5.3a.884.884 0 000-1.766zm-8.834-10.6h-5.3a.883.883 0 000 1.767h5.3a.883.883 0 000-1.767zm1.767-8.833h-3.533a2.655 2.655 0 00-2.65 2.65v1.767a.883.883 0 01-1.767 0V24.85a4.412 4.412 0 012.906-4.134 4.417 4.417 0 116.554 0 4.416 4.416 0 012.907 4.134v1.767a.884.884 0 01-1.767 0V24.85a2.655 2.655 0 00-2.65-2.65zm-4.417-4.417a2.65 2.65 0 105.3 0 2.65 2.65 0 00-5.3 0z" stroke="#212244" stroke-width=".3"/><path d="M19.441 4.887a.807.807 0 000 1.613h23.465a.807.807 0 100-1.613H19.441zm-13.149 0a.805.805 0 00-.804.806.808.808 0 001.614 0 .807.807 0 00-.806-.806h-.004zm3.831 0a.805.805 0 00-.804.806.808.808 0 001.615 0 .807.807 0 00-.806-.806h-.005zm3.831 0a.808.808 0 10.004 0h-.004z" stroke="#212244" stroke-width=".3"/></svg>