<svg width="49" height="45" fill="none" xmlns="http://www.w3.org/2000/svg"><path d="M20.045 4.5a11.08 11.08 0 00-7.874 3.295 11.308 11.308 0 00-3.262 7.955c0 2.983 1.173 5.845 3.262 7.955A11.08 11.08 0 0020.045 27a11.08 11.08 0 007.875-3.295 11.322 11.322 0 00-.004-15.906 11.094 11.094 0 00-7.87-3.3zm8.797 10.125h-2.18a15.726 15.726 0 00-1.594-6.298 8.998 8.998 0 013.774 6.298zm-9.91-7.508v7.508h-3.28c.25-3.797 1.694-6.583 3.28-7.508zm0 9.758v7.508c-1.586-.925-3.03-3.71-3.28-7.508h3.28zm2.227 7.509v-7.509h3.28c-.25 3.798-1.694 6.583-3.28 7.508zm0-9.759V7.117c1.586.925 3.03 3.711 3.28 7.509h-3.28zm-6.137-6.298a15.723 15.723 0 00-1.593 6.298h-2.18a8.997 8.997 0 013.773-6.298zm-3.773 8.548h2.18c.087 2.19.63 4.335 1.593 6.298a8.997 8.997 0 01-3.773-6.298zm13.819 6.298a15.725 15.725 0 001.593-6.298h2.18a8.997 8.997 0 01-3.773 6.298z" fill="#212244"/><path d="M40.09 25.875V5.625a5.659 5.659 0 00-1.632-3.976A5.544 5.544 0 0034.523 0H5.568a5.546 5.546 0 00-3.935 1.65A5.661 5.661 0 000 5.624v20.25a5.662 5.662 0 001.633 3.975 5.546 5.546 0 003.935 1.65h7.796v5.625c0 .426.237.816.615 1.007.377.19.829.149 1.166-.107l8.612-6.525h10.766a5.544 5.544 0 003.935-1.65 5.658 5.658 0 001.633-3.975zM23.387 29.25c-.24 0-.475.079-.667.225l-7.128 5.4v-4.5a1.13 1.13 0 00-.326-.796 1.108 1.108 0 00-.788-.33h-8.91a3.328 3.328 0 01-2.361-.989 3.395 3.395 0 01-.98-2.385V5.625a3.395 3.395 0 01.98-2.386 3.328 3.328 0 012.361-.99h28.955a3.327 3.327 0 012.36.99c.627.633.98 1.49.98 2.386v20.25a3.396 3.396 0 01-.98 2.385 3.328 3.328 0 01-2.36.99H23.386z" fill="#212244"/><path d="M43.432 6.75a1.12 1.12 0 00-1.114 1.125A1.12 1.12 0 0043.432 9a3.328 3.328 0 012.361.99c.626.633.979 1.49.98 2.385v20.25a3.4 3.4 0 01-.98 2.386 3.328 3.328 0 01-2.361.99h-8.91c-.295 0-.578.117-.787.328a1.13 1.13 0 00-.326.796v4.5l-7.128-5.4a1.105 1.105 0 00-1.558.226 1.132 1.132 0 00.223 1.574l8.909 6.75a1.107 1.107 0 001.455-.104 1.13 1.13 0 00.326-.796V38.25h7.796a5.546 5.546 0 003.935-1.65A5.662 5.662 0 0049 32.626v-20.25A5.662 5.662 0 0047.367 8.4a5.545 5.545 0 00-3.935-1.65z" fill="#212244"/></svg>