<svg width="40" height="40" fill="none" xmlns="http://www.w3.org/2000/svg"><path d="M36.833 16.64l-3.287-.62a14 14 0 00-1.155-2.784l1.887-2.763a1.25 1.25 0 00-.148-1.59L31.116 5.87a1.25 1.25 0 00-1.59-.149L26.764 7.61a13.953 13.953 0 00-2.784-1.155l-.619-3.287a1.25 1.25 0 00-1.228-1.019H17.87a1.25 1.25 0 00-1.228 1.02l-.62 3.286a14.04 14.04 0 00-2.784 1.155l-2.763-1.89a1.25 1.25 0 00-1.589.149L5.871 8.884a1.25 1.25 0 00-.148 1.589l1.887 2.763a14.002 14.002 0 00-1.155 2.784l-3.287.62a1.25 1.25 0 00-1.019 1.227v4.264c0 .6.428 1.117 1.019 1.228l3.287.618c.283.967.67 1.899 1.155 2.785l-1.887 2.763a1.25 1.25 0 00.148 1.59l3.014 3.013a1.25 1.25 0 001.59.149l2.763-1.888c.885.485 1.818.872 2.784 1.155l.619 3.287a1.25 1.25 0 001.228 1.019h4.263c.6 0 1.117-.428 1.228-1.019l.619-3.287a13.98 13.98 0 002.784-1.155l2.764 1.888a1.25 1.25 0 001.589-.149l3.014-3.014a1.25 1.25 0 00.148-1.589l-1.887-2.763c.485-.886.872-1.818 1.155-2.785l3.287-.618a1.25 1.25 0 001.019-1.229v-4.263c0-.6-.429-1.116-1.02-1.228zm-1.481 4.454l-3.046.573a1.25 1.25 0 00-.986.949 11.513 11.513 0 01-1.467 3.535 1.25 1.25 0 00.027 1.368l1.75 2.56-1.549 1.55-2.56-1.75a1.248 1.248 0 00-1.369-.027 11.53 11.53 0 01-3.535 1.466 1.25 1.25 0 00-.948.987l-.574 3.045h-2.19l-.573-3.045a1.25 1.25 0 00-.948-.987 11.524 11.524 0 01-3.536-1.466 1.25 1.25 0 00-1.368.027l-2.56 1.75-1.549-1.55 1.75-2.56c.28-.41.29-.947.027-1.368a11.529 11.529 0 01-1.467-3.535 1.25 1.25 0 00-.986-.949l-3.046-.573v-2.19l3.046-.573a1.25 1.25 0 00.986-.949 11.512 11.512 0 011.467-3.535 1.25 1.25 0 00-.028-1.368L8.371 9.918 9.92 8.37l2.56 1.749c.41.28.947.29 1.368.027a11.53 11.53 0 013.536-1.466 1.25 1.25 0 00.948-.987l.573-3.045h2.19l.574 3.045c.092.488.464.876.948.987 1.252.288 2.44.78 3.535 1.466a1.25 1.25 0 001.368-.027l2.561-1.75 1.549 1.549-1.75 2.56c-.28.411-.29.948-.027 1.369a11.529 11.529 0 011.466 3.535c.112.484.499.856.987.948l3.046.574v2.19z" fill="#000"/><path d="M20 11.582c-4.641 0-8.417 3.776-8.417 8.417 0 4.642 3.776 8.417 8.417 8.417s8.417-3.775 8.417-8.417c0-4.641-3.776-8.417-8.417-8.417zm0 14.334A5.924 5.924 0 0114.083 20 5.924 5.924 0 0120 14.082a5.924 5.924 0 015.917 5.917A5.924 5.924 0 0120 25.916z" fill="#000"/></svg>