<svg width="40" height="40" fill="none" xmlns="http://www.w3.org/2000/svg"><path d="M9.116 27.768a205.417 205.417 0 009.432 7.864c.304.24.58.45.883.604a1.248 1.248 0 001.138 0c.302-.155.579-.365.883-.604a205.32 205.32 0 009.433-7.864c2.352-2.084 4.57-4.187 5.872-7.005.978-2.118 1.311-4.515.962-6.932-.348-2.418-1.344-4.623-2.88-6.379-2.055-2.349-4.888-3.741-7.773-3.82-2.101-.056-4.24.65-5.868 1.937-.343.27-.625.626-.898.97-.083.104-.195.244-.3.368-.106-.123-.217-.264-.3-.369-.273-.343-.555-.699-.897-.97-1.629-1.287-3.767-1.993-5.869-1.936-2.885.078-5.718 1.471-7.773 3.82-1.536 1.755-2.532 3.96-2.88 6.378-.349 2.417-.016 4.814.962 6.932 1.302 2.82 3.521 4.922 5.873 7.006zM7.042 9.098c1.574-1.799 3.802-2.908 5.96-2.967l.172-.002c1.468 0 2.946.506 4.078 1.402.114.09.322.351.49.562.428.54.913 1.152 1.619 1.41.163.06.334.1.506.117.088.01.177.01.265 0 .173-.018.343-.057.508-.118.704-.257 1.19-.87 1.618-1.41.167-.21.374-.472.489-.562 1.176-.93 2.726-1.44 4.25-1.399 2.158.059 4.386 1.168 5.96 2.968 2.479 2.832 3.108 7.197 1.529 10.615-1.1 2.38-3.116 4.283-5.26 6.183a202.74 202.74 0 01-9.227 7.697 202.303 202.303 0 01-9.226-7.697c-2.145-1.9-4.161-3.803-5.26-6.183-1.579-3.418-.95-7.783 1.53-10.615z" fill="#000"/></svg>