<svg width="40" height="40" fill="none" xmlns="http://www.w3.org/2000/svg"><path d="M35.776 11.194l-14.897-8.87a1.251 1.251 0 00-1.28 0l-14.897 8.87a1.25 1.25 0 00-.608 1.152C4.412 17.453 5.93 22.231 8.6 26.55c2.544 4.114 6.214 7.925 10.905 11.33a1.25 1.25 0 001.469 0c4.691-3.406 8.36-7.217 10.905-11.33 2.672-4.318 4.188-9.096 4.506-14.203a1.251 1.251 0 00-.61-1.152zM20.239 35.313C11.862 29.01 7.406 21.68 6.645 12.947L20.24 4.853l13.594 8.094c-.761 8.733-5.218 16.063-13.594 22.366z" fill="#000"/><path d="M10.135 13.87a1.25 1.25 0 00-.59 1.3 25.173 25.173 0 003.317 8.614c1.63 2.66 3.836 5.204 6.56 7.56a1.247 1.247 0 001.636 0c2.723-2.356 4.93-4.899 6.559-7.56a25.179 25.179 0 003.317-8.614 1.25 1.25 0 00-.59-1.3L20.88 8.233a1.251 1.251 0 00-1.28 0l-9.464 5.636zm18.167 1.694c-1.088 4.874-3.736 9.196-8.063 13.162-4.328-3.966-6.975-8.288-8.063-13.162l8.063-4.8 8.063 4.8z" fill="#000"/></svg>