<svg width="40" height="40" fill="none" xmlns="http://www.w3.org/2000/svg"><path d="M12.66 19.29c3.77 0 6.588-3.99 6.588-7.555 0-1.776-.704-3.41-1.983-4.606-1.224-1.144-2.86-1.774-4.606-1.774-1.745 0-3.38.63-4.605 1.774-1.279 1.194-1.984 2.83-1.984 4.606 0 3.566 2.818 7.554 6.59 7.554zM9.76 8.954c.76-.709 1.79-1.1 2.9-1.1 1.109 0 2.138.391 2.898 1.1a3.76 3.76 0 011.19 2.78c0 1.167-.476 2.463-1.272 3.47-.468.591-1.457 1.584-2.817 1.584-1.359 0-2.348-.993-2.816-1.584-.797-1.007-1.272-2.304-1.272-3.47 0-1.076.422-2.062 1.19-2.78zm17.58-3.599c-1.745 0-3.38.63-4.605 1.774-1.279 1.194-1.983 2.83-1.983 4.606 0 3.566 2.818 7.554 6.588 7.554s6.589-3.988 6.589-7.554c0-1.776-.705-3.41-1.984-4.606-1.223-1.144-2.858-1.774-4.604-1.774zm2.818 9.85c-.468.591-1.457 1.584-2.817 1.584-1.359 0-2.348-.993-2.816-1.584-.797-1.007-1.272-2.304-1.272-3.47a3.76 3.76 0 011.19-2.78c.76-.709 1.789-1.1 2.898-1.1 1.11 0 2.14.391 2.899 1.1a3.76 3.76 0 011.19 2.78c0 1.166-.476 2.463-1.272 3.47zm3.487 4.778a10.77 10.77 0 00-1.085-.494 1.25 1.25 0 00-1.101.093c-1.276.77-2.7 1.178-4.118 1.178-1.418 0-2.842-.407-4.118-1.178a1.25 1.25 0 00-1.102-.093c-.377.147-.741.314-1.083.493a9.54 9.54 0 00-1.037.632 9.768 9.768 0 00-1.037-.63 10.612 10.612 0 00-1.084-.495 1.25 1.25 0 00-1.103.093c-1.275.77-2.699 1.178-4.118 1.178-1.418 0-2.841-.407-4.117-1.178a1.25 1.25 0 00-1.101-.093c-.374.146-.739.312-1.085.494-1.587.834-2.843 2.046-3.534 3.415-.677 1.338-.895 2.934-.667 4.878.245 2.088.57 3.868.991 5.442a1.25 1.25 0 001.207.926h31.295c.566 0 1.061-.38 1.208-.926.422-1.577.746-3.358.988-5.441.23-1.944.011-3.54-.665-4.878-.692-1.37-1.948-2.584-3.535-3.416zM4.637 27.985c-.17-1.462-.04-2.561.415-3.46.459-.907 1.334-1.735 2.466-2.329.099-.052.2-.102.303-.15a10.42 10.42 0 004.837 1.215c1.663 0 3.322-.418 4.839-1.215.103.048.204.099.302.15a6.742 6.742 0 011.542 1.102c.395.383.705.795.924 1.227.085.17.159.344.222.528.27.795.332 1.743.192 2.93l-.04.34-.01.083-.032.251-.013.099c-.01.083-.022.165-.033.247l-.011.08c-.015.107-.03.214-.047.32l-.002.016-.044.293-.014.091-.035.218-.015.098-.038.225-.012.075-.052.294-.008.044-.045.242-.017.092-.039.195-.018.094-.044.212-.013.065-.059.27-.014.062-.035.153H5.33a39.146 39.146 0 01-.692-4.157zm30.724-.001v.001a38.83 38.83 0 01-.69 4.158H22.547l.013-.062.065-.32.024-.125.06-.32.018-.092a47.225 47.225 0 00.145-.85 143.498 143.498 0 00.079-.508l.01-.06.064-.45.016-.12.047-.355.017-.13.057-.475c.228-1.944.01-3.54-.666-4.878a6.633 6.633 0 00-.2-.364c-.037-.06-.072-.121-.11-.18l-.069-.105c-.035-.053-.07-.107-.107-.16a4.675 4.675 0 00-.08-.11c-.022-.031-.044-.063-.068-.094a7.421 7.421 0 01.64-.34 10.42 10.42 0 004.838 1.215c1.661 0 3.322-.418 4.837-1.214.103.048.204.099.303.15 1.13.593 2.006 1.42 2.466 2.33.455.899.587 1.997.415 3.458z" fill="#000"/></svg>