<svg width="40" height="40" fill="none" xmlns="http://www.w3.org/2000/svg"><path d="M27.931 34.244a3.612 3.612 0 00-3.608-3.608h-8.715A3.612 3.612 0 0012 34.244a3.612 3.612 0 003.608 3.608h8.715a3.612 3.612 0 003.608-3.608zm-12.323 1.108a1.109 1.109 0 010-2.216h8.715a1.109 1.109 0 010 2.216h-8.715zm-3-6.997h14.06a3.612 3.612 0 003.609-3.607 3.612 3.612 0 00-3.608-3.608H12.608A3.612 3.612 0 009 24.748a3.612 3.612 0 003.608 3.607zm0-4.716h14.06a1.109 1.109 0 010 2.216h-14.06a1.109 1.109 0 010-2.216zM6 15.252a3.612 3.612 0 003.608 3.607h19.849a3.612 3.612 0 003.608-3.607 3.612 3.612 0 00-3.608-3.608H9.609A3.612 3.612 0 006 15.252zm23.458-1.109a1.109 1.109 0 010 2.216H9.608a1.109 1.109 0 010-2.216h19.85zM6.608 9.365h26.551a3.612 3.612 0 003.608-3.608A3.612 3.612 0 0033.16 2.15H6.608A3.612 3.612 0 003 5.757a3.612 3.612 0 003.608 3.608zm0-4.716h26.551a1.109 1.109 0 010 2.215H6.608a1.109 1.109 0 010-2.215z" fill="#000"/></svg>