<svg width="40" height="40" fill="none" xmlns="http://www.w3.org/2000/svg"><path d="M33.878 20.133A13.92 13.92 0 0026.901 8.09a1.25 1.25 0 10-1.245 2.168 11.417 11.417 0 015.722 9.875c0 6.007-4.68 10.942-10.584 11.35l2.073-2.073a1.25 1.25 0 10-1.768-1.768l-3.966 3.966a1.25 1.25 0 000 1.767l3.966 3.967a1.247 1.247 0 001.767 0 1.25 1.25 0 000-1.767l-1.62-1.62c7.071-.633 12.632-6.59 12.632-13.822zm-16.745-7.778a1.248 1.248 0 001.767 0l3.966-3.966a1.25 1.25 0 000-1.767l-3.965-3.967a1.25 1.25 0 10-1.768 1.768l1.869 1.869c-7.189.513-12.88 6.525-12.88 13.842 0 4.961 2.676 9.578 6.984 12.048a1.248 1.248 0 101.243-2.169 11.417 11.417 0 01-5.727-9.879c0-5.907 4.525-10.777 10.291-11.326l-1.78 1.78a1.248 1.248 0 000 1.767z" fill="#000"/></svg>