<svg width="40" height="40" fill="none" xmlns="http://www.w3.org/2000/svg"><path d="M20 37.852a17.73 17.73 0 0012.623-5.23A17.734 17.734 0 0037.852 20a17.73 17.73 0 00-5.23-12.623A17.733 17.733 0 0020 2.148a17.733 17.733 0 00-12.623 5.23A17.733 17.733 0 002.148 20a17.73 17.73 0 005.23 12.623A17.733 17.733 0 0020 37.852zm0-33.204c8.465 0 15.352 6.887 15.352 15.352S28.465 35.352 20 35.352 4.648 28.465 4.648 20 11.535 4.648 20 4.648z" fill="#000"/><path d="M13.697 27.873c.69 0 1.25-.56 1.25-1.25v-7.19c0-.69-.56-1.25-1.25-1.25h-4.07c-.69 0-1.25.56-1.25 1.25v7.19c0 .69.56 1.25 1.25 1.25h4.07zm-2.82-7.19h1.57v4.689h-1.57v-4.69zm7.089 7.19h4.068c.691 0 1.25-.56 1.25-1.25V11.016a1.25 1.25 0 00-1.25-1.25h-4.068a1.25 1.25 0 00-1.25 1.25v15.607c0 .69.559 1.25 1.25 1.25zm1.25-15.607h1.568v13.107h-1.568V12.266zm7.087 15.607h4.07c.69 0 1.25-.559 1.25-1.25V15.285c0-.69-.56-1.25-1.25-1.25h-4.07c-.69 0-1.25.56-1.25 1.25v11.338c0 .69.56 1.25 1.25 1.25zm1.25-11.338h1.57v8.838h-1.57v-8.838z" fill="#000"/></svg>