<svg width="115" height="106" fill="none" xmlns="http://www.w3.org/2000/svg"><path fill-rule="evenodd" clip-rule="evenodd" d="M22.476 18.936C28.833 13.394 37.16 10 46.306 10c9.146 0 17.472 3.394 23.829 8.94L57.309 31.613c-3.051-2.343-6.838-3.795-11.004-3.795-4.165 0-7.952 1.452-11.004 3.79L22.476 18.937zm0 53.396l12.825-12.673c3.052 2.343 6.84 3.795 11.004 3.795 4.166 0 7.953-1.452 11.004-3.79l12.826 12.672c-6.357 5.542-14.683 8.936-23.83 8.936-9.146 0-17.472-3.394-23.829-8.94zm38.021-37.57c2.371 3.016 3.84 6.758 3.84 10.874 0 4.116-1.469 7.858-3.84 10.873l12.825 12.673c5.612-6.28 9.048-14.508 9.048-23.546s-3.436-17.266-9.043-23.547l-12.83 12.673zM28.274 45.636c0 4.116 1.47 7.858 3.84 10.873L19.286 69.182c-5.608-6.28-9.043-14.508-9.043-23.546s3.435-17.266 9.043-23.547l12.83 12.673c-2.371 3.016-3.841 6.758-3.841 10.874z" fill="#40BFEE"/><g filter="url(#filter0_bd_497_2903)"><ellipse cx="68.179" cy="60.364" rx="36.064" ry="35.636" fill="#fff" fill-opacity=".7" shape-rendering="crispEdges"/></g><rect x=".258" y="1.023" width="6.534" height="9.895" rx="3.267" transform="matrix(.86135 .508 -.51702 .85597 62.893 45.653)" stroke="#000" stroke-width="1.5"/><rect x=".258" y="1.023" width="6.534" height="9.895" rx="3.267" transform="matrix(.86135 .508 -.51702 .85597 81.34 56.533)" stroke="#000" stroke-width="1.5"/><rect x="-1.06" y=".121" width="3.638" height="7.95" rx="1.819" transform="matrix(-.62667 .77928 -.78651 -.61757 67.672 70.74)" stroke="#000" stroke-width="1.5"/><path d="M67.858 71.209c3.762.879 7.778-.319 10.414-3.186m5.83-9.241l.142-.237c3.04-5.033 1.376-11.549-3.718-14.553-5.094-3.004-11.688-1.36-14.728 3.674l-.118.195" stroke="#000" stroke-width="1.5"/><path d="M55.553 74.69c-1.975-.99-3.434-2.69-4.085-4.76a7.86 7.86 0 01.64-6.201" stroke="#000" stroke-width="1.5" stroke-linecap="round" stroke-linejoin="round"/><path d="M49.511 62.378c-1.465 2.592-1.764 5.564-.867 8.416.897 2.852 2.848 5.138 5.544 6.461" stroke="#000" stroke-width="1.5" stroke-linecap="round" stroke-linejoin="round"/><defs><filter id="filter0_bd_497_2903" x="27.115" y="19.728" width="84.127" height="83.272" filterUnits="userSpaceOnUse" color-interpolation-filters="sRGB"><feFlood flood-opacity="0" result="BackgroundImageFix"/><feGaussianBlur in="BackgroundImageFix" stdDeviation="2.5"/><feComposite in2="SourceAlpha" operator="in" result="effect1_backgroundBlur_497_2903"/><feColorMatrix in="SourceAlpha" values="0 0 0 0 0 0 0 0 0 0 0 0 0 0 0 0 0 0 127 0" result="hardAlpha"/><feOffset dx="2" dy="2"/><feGaussianBlur stdDeviation="2.5"/><feComposite in2="hardAlpha" operator="out"/><feColorMatrix values="0 0 0 0 0 0 0 0 0 0 0 0 0 0 0 0 0 0 0.1 0"/><feBlend in2="effect1_backgroundBlur_497_2903" result="effect2_dropShadow_497_2903"/><feBlend in="SourceGraphic" in2="effect2_dropShadow_497_2903" result="shape"/></filter></defs></svg>