<svg width="110" height="108" fill="none" xmlns="http://www.w3.org/2000/svg"><path fill-rule="evenodd" clip-rule="evenodd" d="M11.73 22.803a7.983 7.983 0 00-5.652 9.79l10.818 40.233c1.434 5.334 6.923 8.503 12.258 7.078l12.944-3.456c.309.397.698.742 1.161 1.009l2.026 1.165a4.015 4.015 0 005.473-1.466l1.162-2.007c.269-.463.434-.958.502-1.458l13.088-3.494a9.979 9.979 0 007.065-12.237L61.756 17.726a8.017 8.017 0 00-9.806-5.662L11.73 22.803z" fill="#40BFEF"/><g filter="url(#filter0_bd_951_654)"><path fill-rule="evenodd" clip-rule="evenodd" d="M41.357 29.198a8 8 0 00-8 8v41.65c0 5.522 4.478 10 10 10H56.76c.196.463.483.898.862 1.276l1.65 1.643a4.017 4.017 0 005.666 0l1.649-1.643a3.98 3.98 0 00.862-1.277H81c5.523 0 10-4.477 10-10v-41.65a8 8 0 00-8-8H41.357z" fill="#fff" fill-opacity=".7" shape-rendering="crispEdges"/></g><path fill-rule="evenodd" clip-rule="evenodd" d="M72.817 46.781a3.108 3.108 0 01-3.628 1.175.093.093 0 00-.049-.006.113.113 0 00-.048.02.105.105 0 00-.032.036.08.08 0 00-.007.042 3.1 3.1 0 01-2.245 3.084.088.088 0 00-.04.022.107.107 0 00-.026.042.1.1 0 00-.005.047c.002.007.004.019.019.037a3.093 3.093 0 010 3.814.078.078 0 00-.019.038.101.101 0 00.005.046c.006.02.016.034.025.043a.089.089 0 00.041.022 3.1 3.1 0 012.245 3.083c-.001.024.003.035.007.042a.114.114 0 00.08.056c.01.002.025.003.049-.006a3.108 3.108 0 013.628 1.175.1.1 0 00.036.035.11.11 0 00.05.01.11.11 0 00.049-.01.094.094 0 00.036-.035 3.107 3.107 0 013.628-1.175.094.094 0 00.049.007.114.114 0 00.047-.021.105.105 0 00.033-.036.079.079 0 00.007-.042 3.1 3.1 0 012.244-3.083.09.09 0 00.042-.022.107.107 0 00.025-.043.101.101 0 00.004-.046.079.079 0 00-.018-.038 3.093 3.093 0 010-3.814.079.079 0 00.018-.038.1.1 0 00-.004-.046.106.106 0 00-.025-.042.088.088 0 00-.042-.022 3.1 3.1 0 01-2.244-3.084.08.08 0 00-.007-.042.105.105 0 00-.032-.036.112.112 0 00-.048-.02.093.093 0 00-.05.006 3.107 3.107 0 01-3.627-1.175.094.094 0 00-.036-.034.11.11 0 00-.05-.011.11.11 0 00-.05.01.094.094 0 00-.035.035zm1.412-.842a1.603 1.603 0 00-2.654 0 1.608 1.608 0 01-1.876.607c-1.062-.385-2.184.424-2.145 1.553a1.6 1.6 0 01-1.159 1.59 1.596 1.596 0 00-.82 2.516 1.593 1.593 0 010 1.964 1.596 1.596 0 00.82 2.516 1.6 1.6 0 011.159 1.59 1.595 1.595 0 001.155 1.587v8.334a.75.75 0 001.24.568l2.954-2.55 2.954 2.55a.75.75 0 001.24-.568v-8.334a1.595 1.595 0 001.154-1.587 1.6 1.6 0 011.159-1.59 1.596 1.596 0 00.82-2.516 1.593 1.593 0 010-1.964 1.596 1.596 0 00-.82-2.515 1.6 1.6 0 01-1.159-1.59c.039-1.13-1.083-1.939-2.146-1.554-.69.25-1.464 0-1.876-.607zm-4.02 13.833l-.001-.039a1.606 1.606 0 011.367.702 1.603 1.603 0 002.654 0c.313-.46.834-.715 1.369-.702a.716.716 0 00-.001.039v6.786l-2.204-1.903a.75.75 0 00-.98 0l-2.204 1.903v-6.786zM42.641 45.877a.75.75 0 000 1.5h16.443a.75.75 0 100-1.5H42.64zm-.75 7.885a.75.75 0 01.75-.75h16.443a.75.75 0 010 1.5H42.64a.75.75 0 01-.75-.75zm.75 6.384a.75.75 0 000 1.5h16.443a.75.75 0 000-1.5H42.64z" fill="#000"/><defs><filter id="filter0_bd_951_654" x="28.357" y="24.198" width="77.643" height="83.739" filterUnits="userSpaceOnUse" color-interpolation-filters="sRGB"><feFlood flood-opacity="0" result="BackgroundImageFix"/><feGaussianBlur in="BackgroundImageFix" stdDeviation="2.5"/><feComposite in2="SourceAlpha" operator="in" result="effect1_backgroundBlur_951_654"/><feColorMatrix in="SourceAlpha" values="0 0 0 0 0 0 0 0 0 0 0 0 0 0 0 0 0 0 127 0" result="hardAlpha"/><feOffset dx="5" dy="5"/><feGaussianBlur stdDeviation="5"/><feComposite in2="hardAlpha" operator="out"/><feColorMatrix values="0 0 0 0 0 0 0 0 0 0 0 0 0 0 0 0 0 0 0.05 0"/><feBlend in2="effect1_backgroundBlur_951_654" result="effect2_dropShadow_951_654"/><feBlend in="SourceGraphic" in2="effect2_dropShadow_951_654" result="shape"/></filter></defs></svg>