<svg width="111" height="106" fill="none" xmlns="http://www.w3.org/2000/svg"><path fill-rule="evenodd" clip-rule="evenodd" d="M17.925 23.181a8 8 0 00-5.657 9.798l11.426 42.642c1.429 5.335 6.912 8.5 12.247 7.071l13.76-3.687a3.97 3.97 0 001.12.96l2.373 1.37a4 4 0 005.465-1.463l1.37-2.374a3.99 3.99 0 00.49-1.392l13.909-3.726c5.334-1.43 8.5-6.913 7.07-12.248L70.074 17.49a8 8 0 00-9.798-5.656L17.925 23.18z" fill="#40BFEF"/><g filter="url(#filter0_bd_497_2830)"><path fill-rule="evenodd" clip-rule="evenodd" d="M48.676 29.764a8 8 0 00-8 8V81.91c0 5.523 4.477 10 10 10H64.92c.195.442.472.856.834 1.217l1.938 1.939a4 4 0 005.657 0l1.939-1.939a3.99 3.99 0 00.833-1.217H90.52c5.523 0 10-4.477 10-10V37.764a8 8 0 00-8-8H48.676z" fill="#fff" fill-opacity=".7" shape-rendering="crispEdges"/></g><path d="M78.152 48.544c1.04.378 2.203 0 2.823-.917a.913.913 0 011.513 0 2.413 2.413 0 002.823.917.913.913 0 011.223.89 2.413 2.413 0 001.745 2.4c.622.18.865.93.468 1.44a2.413 2.413 0 000 2.968.913.913 0 01-.468 1.439 2.413 2.413 0 00-1.745 2.401.913.913 0 01-1.224.89 2.413 2.413 0 00-2.823.917.913.913 0 01-1.512 0 2.413 2.413 0 00-2.823-.917.913.913 0 01-1.224-.89 2.413 2.413 0 00-1.745-2.401.913.913 0 01-.468-1.439c.68-.872.68-2.096 0-2.968a.913.913 0 01.468-1.44 2.413 2.413 0 001.745-2.4.913.913 0 011.224-.89z" stroke="#000" stroke-width="1.5"/><path d="M78.156 61.618v8.777l3.576-3.098 3.575 3.098v-8.777M67.383 47.924h-17.07m17.07 7.432h-17.07m17.07 7.434h-17.07" stroke="#000" stroke-width="1.5" stroke-linecap="round" stroke-linejoin="round"/><defs><filter id="filter0_bd_497_2830" x="35.676" y="24.764" width="71.844" height="78.473" filterUnits="userSpaceOnUse" color-interpolation-filters="sRGB"><feFlood flood-opacity="0" result="BackgroundImageFix"/><feGaussianBlur in="BackgroundImageFix" stdDeviation="2.5"/><feComposite in2="SourceAlpha" operator="in" result="effect1_backgroundBlur_497_2830"/><feColorMatrix in="SourceAlpha" values="0 0 0 0 0 0 0 0 0 0 0 0 0 0 0 0 0 0 127 0" result="hardAlpha"/><feOffset dx="2" dy="2"/><feGaussianBlur stdDeviation="2.5"/><feComposite in2="hardAlpha" operator="out"/><feColorMatrix values="0 0 0 0 0 0 0 0 0 0 0 0 0 0 0 0 0 0 0.1 0"/><feBlend in2="effect1_backgroundBlur_497_2830" result="effect2_dropShadow_497_2830"/><feBlend in="SourceGraphic" in2="effect2_dropShadow_497_2830" result="shape"/></filter></defs></svg>