<svg width="117" height="106" fill="none" xmlns="http://www.w3.org/2000/svg"><path d="M47.825 24.553c-4.89-2.328-10.786-1.303-15.89.607-5.942 2.23-11.545 5.938-14.917 8.685a2.06 2.06 0 00-.662.965 2.046 2.046 0 00-.028 1.166L28.218 79.9c.09.334.264.64.505.89a2.092 2.092 0 001.905.604c.343-.065.664-.214.933-.434 3.126-2.54 8.339-5.982 13.743-8.01 5.53-2.075 10.542-2.424 13.95.053a2.1 2.1 0 001.775.33 2.068 2.068 0 001.371-1.164c1.7-3.832 6.217-6.01 12.05-6.95 5.709-.919 11.965-.52 15.952.135a2.11 2.11 0 001.889-.65 2.06 2.06 0 00.47-1.923l-11.89-43.924a2.064 2.064 0 00-.613-.996 2.098 2.098 0 00-1.06-.508c-4.308-.71-11.033-1.148-17.306-.139-5.386.868-11.01 2.903-14.067 7.34z" fill="#40BFEF"/><g filter="url(#filter0_bd_497_2937)"><path d="M68.184 42.948c-4.114-3.502-10.078-4.023-15.507-3.485-6.323.632-12.704 2.778-16.68 4.568a2.082 2.082 0 00-.891.762 2.052 2.052 0 00-.333 1.119v45.473c0 .346.088.686.256.99.167.303.409.56.702.748a2.102 2.102 0 001.995.143c3.684-1.654 9.618-3.642 15.369-4.217 5.884-.587 10.817.36 13.46 3.626a2.085 2.085 0 001.629.773 2.106 2.106 0 001.629-.773c2.643-3.266 7.575-4.213 13.456-3.626 5.755.575 11.693 2.563 15.373 4.217a2.106 2.106 0 001.994-.144 2.07 2.07 0 00.703-.747c.168-.304.255-.644.255-.99V45.912a2.05 2.05 0 00-.332-1.119 2.08 2.08 0 00-.891-.762c-3.976-1.79-10.358-3.936-16.68-4.568-5.43-.542-11.393-.017-15.507 3.485z" fill="#fff" fill-opacity=".7" shape-rendering="crispEdges"/></g><path d="M63.997 55.857H46.44m17.557 7.567H46.44m17.557 7.567H46.44" stroke="#000" stroke-width="1.5" stroke-linecap="round" stroke-linejoin="round"/><path d="M90.486 57.815l-2.146-2.124a1.73 1.73 0 00-2.427 0l-1.63 1.618L88.82 61.8l1.634-1.614c.703-.632.703-1.709.032-2.37z" stroke="#000" stroke-width="1.5" stroke-linejoin="round"/><path d="M82.43 59.056l-2.044-1.972c-.394-.266-1.502-.484-2.773.774a67.19 67.19 0 01-3.455 3.145" stroke="#000" stroke-width="1.5" stroke-linecap="round" stroke-linejoin="round"/><defs><filter id="filter0_bd_497_2937" x="29.773" y="34.28" width="78.82" height="66.171" filterUnits="userSpaceOnUse" color-interpolation-filters="sRGB"><feFlood flood-opacity="0" result="BackgroundImageFix"/><feGaussianBlur in="BackgroundImageFix" stdDeviation="2.5"/><feComposite in2="SourceAlpha" operator="in" result="effect1_backgroundBlur_497_2937"/><feColorMatrix in="SourceAlpha" values="0 0 0 0 0 0 0 0 0 0 0 0 0 0 0 0 0 0 127 0" result="hardAlpha"/><feOffset dx="2" dy="2"/><feGaussianBlur stdDeviation="2.5"/><feComposite in2="hardAlpha" operator="out"/><feColorMatrix values="0 0 0 0 0 0 0 0 0 0 0 0 0 0 0 0 0 0 0.1 0"/><feBlend in2="effect1_backgroundBlur_497_2937" result="effect2_dropShadow_497_2937"/><feBlend in="SourceGraphic" in2="effect2_dropShadow_497_2937" result="shape"/></filter></defs></svg>