<svg width="30" height="30" fill="none" xmlns="http://www.w3.org/2000/svg"><g clip-path="url(#clip0_567_1448)" fill="#C12025"><path d="M15.286 13.227c-.268-.155-.54-.298-.794-.476-.243-.17-.453-.341-.698-.508-.13-.088-.416-.175-.416-.26v.697c0 .403-.03 2.474-.026 2.734.006.434-.028.869-.012 1.303.015.415.018.81.004 1.243 0 0 1.035-.502 1.173-.59.53-.334 1.05-.697 1.595-1.007.267-.153.544-.288.8-.46.231-.158 1.13-.914 1.162-.895-.416-.254-.818-.52-1.251-.744-.554-.287-.998-.727-1.537-1.037z"/><path d="M15 0C6.716 0 0 6.716 0 15c0 8.284 6.716 15 15 15 8.284 0 15-6.716 15-15 0-8.284-6.716-15-15-15zm8.239 18.254c-.155.73-.35 1.493-.85 2.07-.544.624-1.479.46-2.226.514-1.816.131-3.629.008-5.446.056a29.06 29.06 0 01-2.229-.034c-.742-.037-1.517.042-2.258-.018-.45-.037-.903-.038-1.35-.093-.36-.044-.904-.096-1.176-.368-.132-.132-.175-.337-.29-.491l-.164-.29c-.712-1.518-.698-3.19-.7-4.848-.002-.616.072-1.229.056-1.846-.011-.398.17-.775.194-1.175.026-.402.101-.79.296-1.138.378-.678.57-.996 1.272-1.284.352-.144 1.008-.185 1.385-.177.449.007.898.005 1.347 0 .91-.01 1.82-.038 2.732-.035.792.002 1.594.006 2.384.056.792.048 1.586-.027 2.38-.007.654.016 1.309.015 1.961.063.488.036 1.058.096 1.482.367.255.163.538.38.653.647.334.777.611 1.563.658 2.412.048.87.059 1.742.083 2.613l.013.45c.03.854-.03 1.719-.206 2.555z"/></g><defs><clipPath id="clip0_567_1448"><path fill="#fff" d="M0 0h30v30H0z"/></clipPath></defs></svg>