<svg width="241" height="181" fill="none" xmlns="http://www.w3.org/2000/svg"><path d="M82.968 176.406c12.146-5.531 21.256-16.145 31.124-25.489 11.134-10.1 20.243-20.715 32.136-29.544 18.725-14.634 39.981-22.157 61.744-23.084-4.555.996-8.351 3.264-13.412 6.287-5.06 3.023-1.77 11.405 4.05 9.653 12.905-4.259 24.546-7.763 36.439-7.969 6.58-.481 7.844-9.86 1.012-12.677-14.931-4.878-28.09-12.539-38.719-21.712-7.086-6.115-14.171 5.016-7.844 9.86 3.543 3.057 8.351 5.359 13.159 7.66-15.183.447-30.113 4.191-42.765 11.749-26.064 13.843-45.548 35.829-66.55 55.273-9.869 9.344-25.051 18.413-36.44 7.969-10.628-9.173-13.16-24.906-14.173-38.098-2.785-27.655 5.563-56.786 4.043-85.196C45.76 27.896 43.228 12.162 30.068 4.5 19.693-1.373 7.8-1.168 1.22 7.936c-2.53 1.511.507 6.596 3.543 3.057 11.893-8.828 26.065 3.402 28.343 15.838 3.038 13.707.255 29.166.003 43.113-2.023 25.353-6.576 52.217 1.27 76.849 3.544 11.68 9.618 21.848 18.728 28.479 9.11 6.63 20.245 5.153 29.861 1.134z" fill="#fff"/></svg>