<svg width="171" height="76" fill="none" xmlns="http://www.w3.org/2000/svg"><path d="M141.6 71.542c-.927.535-.387 1.47-1.313 2.006-.387 1.471 1.08 1.872 2.007 1.337 4.248-1.205 7.802-5.753 10.97-8.83 3.554-4.547 7.648-8.159 11.202-12.707 2.241-2.541 1.393-8.291-3.396-8.023-8.65.003-17.3.005-26.491-.928-1.467-.401-2.394.134-2.78 1.605l-.927.535-1.854 1.07-.927.536s-.927.535-.387 1.471l-.386 1.471.54.936.54.936s.541.936 1.468.4l1.467.402 1.467.4 1.468.401c1.467.401 2.934.802 3.475 1.738-7.57 1.874-16.066 4.283-24.176 5.222-13.825 1.742-29.271.676-43.017-3.867-28.42-8.55-54.287-29.806-67.023-56.147-1.081-1.872-2.395.134-1.854 1.07 12.503 30.22 35.59 53.08 67.484 63.37 22.55 6.947 49.968 7.34 71.441-2.561 1.081 1.872.308 4.814 1.002 8.157z" fill="#fff"/></svg>