<svg width="40" height="41" fill="none" xmlns="http://www.w3.org/2000/svg"><path d="M20 2a5.21 5.21 0 014.96 3.577l.536 1.648 1.554-.767a5.234 5.234 0 016.007 1.019 5.234 5.234 0 011.025 5.992l-.754 1.54 1.627.543A5.209 5.209 0 0138.5 20.5a5.208 5.208 0 01-3.616 4.972l-1.725.547.857 1.593c1.02 1.897.772 4.268-.716 5.886l-.148.154c-1.618 1.619-4.082 1.916-6.04.864l-1.593-.857-.547 1.725A5.209 5.209 0 0120 39a5.21 5.21 0 01-4.95-3.544l-.541-1.628-1.54.755a5.235 5.235 0 01-5.992-1.026 5.234 5.234 0 01-1.019-6.007l.767-1.554-1.648-.536A5.21 5.21 0 011.5 20.5l.005-.218a5.207 5.207 0 013.602-4.752l1.736-.553-.876-1.596c-1.09-1.989-.799-4.477.82-6.095 1.617-1.618 4.105-1.91 6.094-.82l1.596.877.553-1.736A5.21 5.21 0 0120 2z" stroke="#fff" stroke-width="3"/></svg>