<svg width="176" height="50" fill="none" xmlns="http://www.w3.org/2000/svg"><path d="M9.058.175C5.456 1.685 1.496 5.951.245 11.306c-1.584 6.785 5.008 9.654 5.548 8.714.637-1.106-1.18-1.48-1.555-5-.483-4.547 1.627-9.627 4.284-11.856.493-.414.47.162.47 1.228 0 1.907-.105 19.023-.105 22.596 0 4.833-.2 6.36-.558 7.868-.362 1.528-.946 2.561-.504 2.959.494.445 2.602-.614 3.823-2.32 1.463-2.045 1.975-4.502 2.067-7.17.111-3.217.107-8.321.111-11.232.005-2.67.045-10.489-.046-15.189C13.757.751 10.565-.458 9.058.174m127.917 22.622c-.117 2.513-.672 4.477-1.361 5.863-1.335 2.682-4.104 3.515-5.28-.34-.641-2.102-.671-5.613-.21-8.545.469-2.988 1.778-5.245 3.947-5.041 2.138.201 3.139 2.96 2.904 8.063zm-36.053 15.591c-.029 4.175-.685 7.836-2.092 8.9-1.996 1.507-4.678.376-4.123-2.67.492-2.697 2.816-5.45 6.221-8.814 0 0 .007.767-.006 2.584zm-.545-15.615c-.122 2.289-.714 4.588-1.36 5.887-1.335 2.682-4.124 3.52-5.28-.34-.79-2.639-.601-6.053-.21-8.205.507-2.791 1.737-5.38 3.946-5.38 2.148 0 3.207 2.359 2.904 8.038zm-20.885-.035c-.13 2.424-.603 4.45-1.36 5.922-1.372 2.664-4.084 3.509-5.28-.34-.862-2.776-.569-6.56-.21-8.605.532-3.034 1.865-5.184 3.946-4.98 2.138.209 3.177 2.96 2.904 8.003zm95.712 2.832c-.523 0-.761.539-.958 1.447-.685 3.157-1.404 3.87-2.332 3.87-1.036 0-1.967-1.563-2.206-4.693-.188-2.46-.158-6.99.082-11.497.05-.926-.205-1.842-2.685-2.744-1.067-.389-2.618-.96-3.391.907-2.182 5.275-3.036 9.462-3.236 11.163-.011.088-.119.106-.138-.1-.128-1.362-.414-3.838-.449-9.04-.007-1.014-.222-1.878-1.34-2.586-.726-.459-2.93-1.27-3.724-.305-.687.79-1.484 2.915-2.311 5.435-.673 2.047-1.141 3.433-1.141 3.433s.009-5.525.017-7.621c.003-.79-.538-1.054-.701-1.102-.735-.213-2.183-.57-2.798-.57-.758 0-.944.424-.944 1.043 0 .08-.12 7.274-.12 12.304 0 .218 0 .456.002.71-.419 2.311-1.779 5.45-3.259 5.45-1.481 0-2.18-1.313-2.18-7.309 0-3.498.105-5.019.157-7.549.03-1.457.087-2.576.084-2.83-.011-.779-1.355-1.171-1.981-1.316-.629-.147-1.175-.203-1.602-.179-.603.034-1.03.43-1.03.976 0 .293.003.85.003.85-.778-1.225-2.028-2.076-2.861-2.323-2.241-.667-4.58-.076-6.344 2.396-1.402 1.964-2.247 4.189-2.58 7.385-.243 2.337-.164 4.707.269 6.71-.523 2.262-1.492 3.188-2.554 3.188-1.541 0-2.659-2.52-2.529-6.876.086-2.866.658-4.878 1.284-7.788.267-1.24.05-1.89-.494-2.512-.498-.57-1.561-.862-3.089-.503-1.089.255-2.645.53-4.069.742 0 0 .086-.344.157-.949.37-3.174-3.074-2.916-4.172-1.902-.656.605-1.103 1.319-1.272 2.602-.269 2.037 1.39 2.997 1.39 2.997-.544 2.495-1.878 5.754-3.256 8.11-.737 1.262-1.301 2.198-2.03 3.192l-.006-1.109c-.017-5.245.053-9.373.084-10.86.03-1.458.088-2.547.085-2.8-.008-.57-.34-.786-1.031-1.058a7.307 7.307 0 00-2.083-.466c-.945-.074-1.515.429-1.5 1.023.003.112.003.8.003.8-.778-1.223-2.028-2.075-2.86-2.322-2.242-.666-4.58-.076-6.345 2.396-1.402 1.964-2.32 4.72-2.58 7.361-.242 2.461-.197 4.552.133 6.314-.356 1.764-1.381 3.609-2.54 3.609-1.48 0-2.324-1.312-2.324-7.309 0-3.498.105-5.019.157-7.548.03-1.458.087-2.577.084-2.83-.01-.78-1.356-1.172-1.981-1.317-.655-.152-1.22-.208-1.654-.176-.573.043-.975.557-.975.94v.882c-.778-1.223-2.029-2.075-2.86-2.322-2.242-.666-4.568-.066-6.345 2.396-1.159 1.606-2.097 3.386-2.58 7.326a24.725 24.725 0 00-.193 3.202c-.462 2.83-2.503 6.092-4.173 6.092-.977 0-1.907-1.897-1.907-5.942 0-5.388.333-13.058.389-13.798 0 0 2.11-.036 2.518-.04 1.052-.012 2.005.013 3.407-.059.703-.036 1.38-2.562.654-2.875-.328-.141-2.652-.265-3.574-.285-.774-.017-2.931-.177-2.931-.177s.194-5.092.239-5.63c.038-.448-.541-.679-.873-.819-.808-.342-1.53-.506-2.387-.682-1.183-.245-1.72-.006-1.825.994-.158 1.518-.24 5.964-.24 5.964-.868 0-3.834-.17-4.702-.17-.807 0-1.678 3.475-.563 3.518 1.284.05 3.521.093 5.004.138 0 0-.066 7.797-.066 10.204 0 .256.002.503.003.742-.817 4.26-3.691 6.561-3.691 6.561.617-2.818-.644-4.934-2.916-6.726a216.75 216.75 0 00-4.337-3.28s1.07-1.056 2.02-3.182c.673-1.506.702-3.23-.95-3.61-2.728-.628-4.977 1.379-5.648 3.521-.52 1.66-.243 2.891.775 4.17.075.094.155.19.239.285a109.802 109.802 0 01-2.179 4.03c-1.989 3.447-3.491 6.173-4.627 6.173-.908 0-.895-2.768-.895-5.359 0-2.233.164-5.592.296-9.068.043-1.15-.53-1.806-1.493-2.399-.585-.36-1.833-1.069-2.556-1.069-1.082 0-4.203.147-7.153 8.691-.371 1.077-1.101 3.04-1.101 3.04l.062-10.275c0-.24-.128-.474-.421-.633-.497-.27-1.825-.823-3.005-.823-.562 0-.843.262-.843.784l-.103 16.074c0 1.222.032 2.646.153 3.27.12.623.314 1.131.555 1.433.241.301.52.532.979.626.427.088 2.766.39 2.888-.506.146-1.073.151-2.234 1.38-6.562 1.912-6.739 4.406-10.027 5.578-11.195.205-.204.439-.216.427.118-.05 1.477-.226 5.17-.344 8.306-.317 8.393 1.207 9.949 3.386 9.949 1.667 0 4.017-1.659 6.536-5.858 1.57-2.616 3.095-5.182 4.19-7.031.764.708 1.62 1.47 2.476 2.283 1.99 1.891 2.643 3.688 2.21 5.393-.332 1.303-1.58 2.646-3.802 1.34-.647-.38-.924-.675-1.575-1.104-.35-.23-.884-.3-1.204-.058-.832.628-1.308 1.427-1.58 2.416-.264.963.699 1.472 1.697 1.917.859.383 2.705.73 3.883.77 4.588.153 8.263-2.22 10.822-8.339.458 5.285 2.407 8.275 5.794 8.275 2.264 0 4.534-2.93 5.527-5.814.284 1.176.706 2.198 1.251 3.062 2.61 4.14 7.672 3.25 10.215-.267.786-1.086.906-1.476.906-1.476.37 3.32 3.04 4.48 4.57 4.48 1.711 0 3.479-.81 4.718-3.604.145.303.303.593.476.867 2.61 4.14 7.672 3.25 10.215-.267.12-.165.224-.314.315-.449l.075 2.181-2.341 2.15c-3.92 3.601-6.9 6.333-7.12 9.515-.28 4.057 3.005 5.564 5.49 5.762 2.64.21 4.9-1.25 6.289-3.294 1.222-1.799 2.022-5.67 1.963-9.493-.023-1.532-.061-3.478-.092-5.565a44.53 44.53 0 004.359-5.997c1.557-2.583 3.226-6.051 4.081-8.75 0 0 1.45.012 2.998-.09.495-.032.637.069.545.432-.11.44-1.955 7.565-.271 12.312 1.152 3.25 3.75 4.295 5.29 4.295 1.803 0 3.527-1.364 4.452-3.389.111.226.227.444.355.646 2.609 4.14 7.654 3.244 10.214-.267.578-.792.906-1.476.906-1.476.55 3.436 3.218 4.497 4.746 4.497 1.592 0 3.103-.654 4.329-3.558.051 1.279.132 2.325.259 2.654.078.202.53.455.859.577 1.457.541 2.942.285 3.491.174.381-.077.678-.383.718-1.173.107-2.073.042-5.558.669-8.147 1.054-4.345 2.037-6.031 2.503-6.866.261-.467.556-.544.566-.05.022 1.002.072 3.942.48 7.892.3 2.906.701 4.623 1.008 5.167.879 1.554 1.964 1.628 2.847 1.628.562 0 1.737-.156 1.632-1.145-.051-.482.038-3.462 1.077-7.743.679-2.796 1.81-5.322 2.218-6.245.15-.341.22-.073.218-.02-.086 1.925-.279 8.223.504 11.667 1.062 4.666 4.133 5.188 5.204 5.188 2.285 0 4.153-1.74 4.783-6.32.151-1.102-.073-1.953-.746-1.953" fill="#fff"/></svg>