<svg width="170" height="170" fill="none" xmlns="http://www.w3.org/2000/svg"><path d="M24.332 24.332c8.986-8.987 22.673-10.481 33.474-4.562C61.46 8.308 72.254 0 85 0c12.685 0 23.436 8.228 27.14 19.605 10.633-5.249 23.932-3.391 32.86 5.537 8.905 8.905 10.775 22.158 5.576 32.778C161.859 61.679 170 72.382 170 85c0 12.764-8.33 23.569-19.817 27.209 5.751 10.697 4.171 24.247-4.778 33.196-8.949 8.95-22.5 10.529-33.197 4.778C108.569 161.67 97.764 170 85 170c-12.618 0-23.321-8.14-27.08-19.423-10.62 5.198-23.873 3.328-32.778-5.577-8.928-8.928-10.785-22.226-5.537-32.86C8.228 108.436 0 97.685 0 85c0-12.746 8.308-23.54 19.77-27.194-5.92-10.801-4.425-24.488 4.562-33.474z" fill="#FF542A"/><path d="M30.792 69.53c-2.451 1.041-5.145 3.98-5.996 7.67-1.078 4.675 3.407 6.652 3.774 6.004.433-.762-.803-1.02-1.058-3.445-.329-3.133 1.107-6.633 2.915-8.17.336-.284.32.113.32.847 0 1.314-.072 13.107-.072 15.568 0 3.33-.136 4.382-.38 5.422-.246 1.053-.643 1.764-.342 2.038.336.307 1.77-.422 2.6-1.597.996-1.41 1.345-3.103 1.407-4.941.076-2.217.073-5.733.076-7.739.003-1.84.03-7.227-.032-10.465-.015-.794-2.187-1.628-3.212-1.192m87.029 15.587c-.079 1.731-.457 3.084-.926 4.04-.908 1.847-2.792 2.42-3.592-.236-.436-1.448-.456-3.866-.143-5.887.319-2.059 1.21-3.613 2.685-3.473 1.455.139 2.136 2.04 1.976 5.556zM93.293 95.859c-.02 2.877-.467 5.399-1.424 6.131-1.358 1.039-3.183.26-2.805-1.839.334-1.858 1.916-3.755 4.232-6.073 0 0 .005.529-.004 1.78zM92.922 85.1c-.083 1.577-.486 3.161-.926 4.056-.908 1.848-2.806 2.426-3.592-.234-.538-1.818-.41-4.17-.143-5.653.345-1.923 1.182-3.708 2.685-3.708 1.461 0 2.182 1.626 1.976 5.54zm-14.21-.024c-.089 1.67-.41 3.066-.926 4.08-.932 1.835-2.778 2.418-3.592-.234-.586-1.913-.387-4.52-.142-5.929.362-2.09 1.269-3.572 2.684-3.432 1.455.144 2.162 2.04 1.976 5.515zm65.119 1.95c-.356 0-.518.372-.652.998-.466 2.175-.955 2.666-1.586 2.666-.705 0-1.339-1.077-1.502-3.233-.128-1.695-.107-4.817.057-7.921.033-.639-.141-1.27-1.828-1.891-.726-.268-1.781-.661-2.306.625-1.485 3.634-2.066 6.52-2.203 7.691-.007.061-.08.073-.093-.068-.087-.939-.282-2.645-.306-6.229-.005-.7-.151-1.294-.912-1.782-.493-.316-1.993-.875-2.533-.21-.468.544-1.009 2.009-1.572 3.744-.458 1.411-.777 2.366-.777 2.366s.006-3.807.012-5.251c.002-.545-.366-.726-.477-.76-.5-.146-1.485-.392-1.904-.392-.516 0-.642.292-.642.718 0 .056-.081 5.012-.081 8.478l.001.489c-.285 1.593-1.211 3.755-2.217 3.755-1.008 0-1.483-.904-1.483-5.035 0-2.41.071-3.459.106-5.202.02-1.004.06-1.775.057-1.95-.007-.536-.922-.807-1.348-.907-.427-.1-.799-.14-1.089-.123-.411.024-.701.297-.701.673l.002.585c-.529-.843-1.38-1.43-1.946-1.6-1.525-.46-3.117-.053-4.317 1.65-.954 1.354-1.529 2.887-1.755 5.09-.165 1.61-.111 3.242.183 4.623-.356 1.558-1.015 2.196-1.738 2.196-1.048 0-1.809-1.736-1.72-4.738.058-1.975.447-3.36.873-5.365.182-.855.034-1.302-.336-1.731-.339-.394-1.062-.594-2.102-.347-.74.176-1.799.365-2.768.51 0 0 .059-.236.107-.653.252-2.186-2.091-2.009-2.839-1.31-.446.416-.75.908-.865 1.793-.183 1.403.946 2.065.946 2.065-.37 1.718-1.278 3.964-2.215 5.587-.502.87-.886 1.514-1.382 2.2l-.004-.764c-.011-3.614.036-6.458.057-7.483.02-1.004.06-1.755.058-1.93-.005-.392-.231-.54-.701-.728a4.916 4.916 0 00-1.417-.321c-.644-.051-1.031.295-1.021.704.002.077.002.552.002.552-.53-.843-1.38-1.43-1.946-1.6-1.525-.46-3.116-.052-4.317 1.65-.953 1.354-1.578 3.253-1.755 5.073-.165 1.695-.134 3.136.09 4.35-.242 1.215-.94 2.486-1.727 2.486-1.008 0-1.582-.904-1.582-5.035 0-2.41.072-3.458.107-5.201.02-1.004.06-1.776.057-1.95-.007-.537-.922-.807-1.348-.907-.445-.105-.83-.143-1.125-.121-.39.03-.663.383-.663.647v.608c-.53-.843-1.38-1.43-1.947-1.6-1.525-.46-3.107-.046-4.316 1.65-.788 1.107-1.427 2.334-1.755 5.048a17.24 17.24 0 00-.132 2.206c-.314 1.95-1.703 4.198-2.839 4.198-.664 0-1.297-1.307-1.297-4.094 0-3.712.226-8.997.264-9.507l1.714-.028c.716-.008 1.364.01 2.317-.04.479-.025.94-1.765.446-1.98-.224-.098-1.805-.184-2.432-.197-.527-.012-1.994-.123-1.994-.123s.131-3.508.162-3.878c.026-.309-.368-.468-.594-.564-.55-.236-1.04-.349-1.624-.47-.805-.17-1.17-.004-1.241.685-.107 1.045-.163 4.108-.163 4.108-.59 0-2.609-.117-3.2-.117-.549 0-1.141 2.395-.382 2.424.873.035 2.395.064 3.404.095 0 0-.045 5.372-.045 7.03l.002.512c-.556 2.935-2.511 4.52-2.511 4.52.42-1.941-.438-3.4-1.984-4.634a147.28 147.28 0 00-2.95-2.26s.727-.727 1.373-2.192c.458-1.038.478-2.225-.645-2.487-1.857-.433-3.387.95-3.844 2.426-.353 1.143-.165 1.992.528 2.873.05.064.105.13.162.197a76.696 76.696 0 01-1.482 2.776c-1.353 2.375-2.376 4.253-3.148 4.253-.618 0-.61-1.907-.61-3.692 0-1.539.113-3.853.202-6.248.03-.793-.36-1.244-1.016-1.653-.398-.248-1.247-.736-1.738-.736-.736 0-2.86.101-4.867 5.988a127.7 127.7 0 01-.75 2.094l.043-7.08c0-.165-.087-.326-.286-.436-.339-.186-1.242-.567-2.045-.567-.382 0-.573.181-.573.54l-.07 11.076c0 .841.021 1.823.103 2.252.082.43.215.78.379.988.163.208.353.366.665.431.29.061 1.882.268 1.965-.348.1-.74.103-1.54.939-4.522 1.301-4.643 2.997-6.908 3.795-7.713.14-.14.299-.149.29.082-.033 1.017-.153 3.561-.233 5.722-.216 5.783.82 6.855 2.303 6.855 1.134 0 2.733-1.143 4.447-4.036a950.874 950.874 0 002.85-4.844c.52.487 1.103 1.012 1.686 1.573 1.353 1.303 1.798 2.54 1.503 3.715-.226.898-1.075 1.823-2.587.924-.44-.262-.628-.465-1.071-.76-.238-.16-.602-.207-.82-.04-.565.432-.89.982-1.074 1.664-.18.663.475 1.014 1.154 1.32.584.264 1.84.503 2.642.53 3.121.106 5.622-1.528 7.363-5.744.311 3.64 1.638 5.701 3.942 5.701 1.54 0 3.084-2.02 3.76-4.006.194.81.48 1.514.851 2.11 1.776 2.853 5.22 2.239 6.95-.184.535-.749.617-1.017.617-1.017.252 2.287 2.068 3.086 3.108 3.086 1.165 0 2.368-.558 3.21-2.483.1.21.207.409.325.598 1.775 2.853 5.22 2.239 6.95-.184.081-.114.152-.217.214-.31l.05 1.503-1.592 1.482c-2.667 2.48-4.694 4.363-4.843 6.555-.192 2.795 2.043 3.834 3.734 3.97 1.796.145 3.334-.861 4.28-2.269.83-1.24 1.375-3.907 1.335-6.541-.016-1.055-.042-2.397-.063-3.834a30.704 30.704 0 002.966-4.132c1.059-1.78 2.195-4.17 2.776-6.03 0 0 .987.01 2.04-.06.336-.023.433.047.371.297-.075.302-1.33 5.212-.185 8.482.784 2.24 2.551 2.96 3.599 2.96 1.227 0 2.4-.94 3.029-2.335.076.156.155.306.242.445 1.775 2.853 5.207 2.235 6.949-.184a7.199 7.199 0 00.617-1.017c.374 2.367 2.189 3.099 3.229 3.099 1.083 0 2.111-.45 2.945-2.452.035.881.089 1.602.176 1.829.053.139.361.313.585.397.99.373 2.001.197 2.375.12.259-.053.461-.264.488-.808.073-1.429.028-3.83.455-5.613.717-2.994 1.386-4.156 1.703-4.73.178-.323.378-.376.385-.035.015.69.049 2.716.327 5.437.204 2.002.476 3.186.686 3.56.597 1.07 1.336 1.121 1.937 1.121.382 0 1.181-.107 1.11-.788-.035-.332.026-2.385.733-5.335.461-1.926 1.231-3.667 1.508-4.303.103-.235.15-.05.149-.014-.059 1.327-.19 5.666.343 8.04.722 3.214 2.812 3.574 3.54 3.574 1.555 0 2.826-1.2 3.254-4.355.104-.76-.049-1.346-.507-1.346" fill="#fff"/></svg>