<svg width="245" height="245" fill="none" xmlns="http://www.w3.org/2000/svg"><g opacity=".1" clip-path="url(#clip0_497_3803)" fill="#fff"><path fill-rule="evenodd" clip-rule="evenodd" d="M54.617 168.177l-.287-1.07-1.387-.284.779 2.904-1.234-.325c-.764.205-.958.093-.928-.406l-.153.041-.865 1.051 3.008.832-1.812 1.796.245.917.56-.969c3.084-3.775.54.183-.478 1.274l2.189-2.224.461 2.333 1.387.284-.778-2.904c-1.387-.283-1.766-2.311-.707-3.25zm1.595 3.504l1.622.548.865-1.05-2.661-.762c.123.459.245.917.174 1.264zm1.444-3.172l-.164-.611c-.112.194-.376.429-1.11.134l-.53.469c.123.459.093.958.216 1.417l1.588-1.409zm107.042 11.288c-.543-2.639 2.214 1.536 0 0zm-5 3.96c-.357-.723 1.13-1.285 1.924-1.989.358.723-.977 1.244-1.924 1.989zm9.083-7.675c-.459.123-1.07.286-1.752.797-2.006 1.684-4.053 3.215-6.294 4.635-1.252.827-2.505 1.654-3.952 2.369.235.265.052.805-.66 1.815-1.569.257-2.11.074-1.927-.466l-4.798 2.268c-.63 1.316-1.943 3.142-2.606 2.5-.816-.6-.592-.988.09-1.498-2.669 1.043-5.573 1.821-8.324 2.558l.696 2.598c3.251-.707 6.419-1.72 9.7-2.926.335-.582.865-1.051 1.782-1.297.041.153.235.265.276.418a88.985 88.985 0 0011.336-5.987c2.771-1.889 5.541-3.778 7.923-5.89-.704-.794-1.021-1.365-1.49-1.894z"/><path fill-rule="evenodd" clip-rule="evenodd" d="M50.588 113.398c-.003-2.457 3.16.791 0 0zm1.227-4.588c.598-3.273 2.244 1.036 0 0zm6.574-17.651c.316.57-.712 1.01-1.089 1.438-.276-.417.6-.816 1.089-1.438zm5.206-9.913c.317.57-.712 1.01-1.088 1.438-.317-.57.559-.969 1.089-1.438zm21.402-19.167c-.502-2.487 2.213 1.536 0 0zm2.647-2.348c-.39-2.68 2.173 1.384 0 0zm30.72-8.231c-.502-2.487 2.214 1.536 0 0zm70.007 98.038c-.205-.764 1.088-1.439 1.558-.909.093.958-.723.357-1.558.909zm-.814 1.856l-.122-.459c-.112.194-.071.347.122.459zm.369 1.375l-.082-.305.082.305zm-5.087 7.916c-.205-.764 1.089-1.439 1.559-.909.052.805-.765.204-1.559.909zm-1.268 4.435c-1.529.409-.746-.947-1.062-1.518 1.681-.45.704.795 1.062 1.518zm-77.807 26.909c-3.038-.333 3.261-.055 0 0zM50.08 115.172c-.897 8.267-.255 16.777 1.763 24.918 1.621.548 3.212 1.596.245.917 1.106 4.126 2.559 8.324 4.47 12.399.264-.235.764-.205.957-.093-.264.234-.57.316-.835.551.399.876.838 1.905 1.39 2.74.223-.387 1.326 1.283.633 1.141.909 1.558 1.777 2.964 2.686 4.522 3.625 5.581 7.891 10.499 12.646 14.795.03-.5 1.17-1.133 2.006-1.685.317.571-.977 1.245-1.771 1.949 1.908 1.619 3.775 3.084 5.642 4.55 0 0 .152-.041.111-.194l.082.305c3.418 2.361 6.947 4.528 10.7 6.307.07-.347.794-.704 1.17-1.133.276.418-.406.928-.976 1.245 14.43 6.781 30.852 8.769 46.534 5.55-.164-.612-.104-1.61-.39-2.68-.612.164-1.07.286-1.722.297-.325 1.234-1.916.186-3.698 1.483-.123-.459-.011-.653.253-.887-1.416.215-2.833.431-4.137.453-.153.041-.265.235-.418.276l-.082-.306c-2.109.074-4.219.148-6.37.069.123.458-.753.857-1.13 1.285-.275-.417.56-.969 1.089-1.438-3.302-.098-6.646-.349-9.918-.946-4.465-.769-8.86-1.885-13.071-3.542-.295.735-.884 2.203-.53.47l.336-.582c-1.08-.365-2.202-.884-3.283-1.249-.153.041-.112.193-.265.234l-.082-.305c-1.274-.478-2.437-1.149-3.753-1.779-.112.193-.417.275-.53.469-.04-.153-.122-.458.184-.54a69.082 69.082 0 01-26.427-24.043c-1.736-2.811-3.279-5.51-4.71-8.403-.264.235-.417.276-.681.51-.235-.264.142-.693.559-.969-.838-1.905-1.676-3.81-2.361-5.755.04.152.04.152-.071.346.614 2.293 2.656 5.022-.442 5.688.232-2.192-3.442-6.121.073-7.063-.644-1.793-1.095-3.475-1.586-5.309.123.459-.213 1.04-1.14.634.201-1.693.783-1.357 1.1-.787-.206-.764-.41-1.528-.462-2.333-1.035-4.473-1.418-8.957-1.606-13.33l-.794.704c-.235-.264.141-.693.559-.968-.622-.489-1.133-1.171-1.766-2.312.682-.51 1.405-.868 1.935-1.338.076-4.607.845-9.072 1.808-13.425-.153.041-.264.235-.376.428-.235-.264.142-.693.559-.968 1.045-4.048 2.284-7.984 4.022-11.89-.194-.111-.276-.417-.47-.529.306-.082.459-.123.806-.052 5.367-11.758 14.018-22.267 25.598-29.792 1.976-1.185 3.951-2.37 5.968-3.401.06-1 .754-.858 1.141-.634a81.936 81.936 0 0111.553-4.57l.306-.081 2.445-.656c.112-.194.183-.54.019-1.151 1.152.018 1.386.283 1.051.865.917-.246 2.028-.38 2.945-.626l.305-.081.041.152c2.986-.472 5.972-.944 9.08-.958.601-.817 2.506-1.655 1.458-.063.306-.082.652-.011.999.06.611-.164 1.334-.522 1.711-.95-1.111.133-2.08-.426.131-1.346.235.265.276.418.357.723.265-.234.112-.193.041.153.041.153.041.153.235.265-.153.04-.305.082-.417.276-.224.387-.489.622-.713 1.01 6.87-.04 13.721 1.074 20.165 3.115-.041-.153-.235-.265-.276-.418.57-.317.988-.592 1.558-.909.235.265.511.682.593.988-.265.235-.683.51-.988.592 6.79 2.112 13.409 5.417 19.275 9.579-.235-.265-.511-.683-.593-.988.571-.317.988-.593 1.559-.91.234.265.51.683.592.989-.418.275-.988.592-1.406.867 1.01.713 2.02 1.425 2.877 2.178-.041-.153.071-.346.183-.54.813-1.856.153-.041-.142.693 5.795 4.508 10.918 10.18 15.095 16.596 7.291 11.314 10.995 23.918 11.286 36.617l.153-.041c-.112.194-.071.347-.183.541.052.805-.008 1.804.044 2.609.275.418.357.723.011.652.021 1.305-.109 2.65-.24 3.996.958-.093.551.835-.202 1.692-1.514 12.692-6.259 24.938-14.299 35.283.623.488 1.133 1.171 1.837 1.965 6.086-7.856 10.58-16.759 13.148-26.129 0 0-.153.041-.112.194-.235-.265.03-.499.295-.734.791-3.161 1.429-6.28 1.721-9.471-.153.041-.153.041-.265.235-.234-.265-.51-.682-.592-.988.418-.276.682-.511 1.1-.786.131-1.346.262-2.691.24-3.996l-.794.704c-.276-.417.447-.775.824-1.203.386-8.95-.878-17.948-4.017-26.608a1.35 1.35 0 00-1.07.287c.06-1 .324-1.234.824-1.204-1.33-3.739-2.965-7.396-5.058-10.93-.571.316-1.029.44-1.417.215-.704-.794.142-.693.906-.898-.633-1.14-1.266-2.281-2.012-3.228-14.816-22.895-40.382-34.555-65.688-33.016-.265.235-.53.47-.641.663-.041-.153-.082-.305.03-.5-4.678.271-9.193 1.153-13.778 2.382-.03.5-.753.857-1.129 1.285-.276-.417.294-.734.671-1.162-3.363.9-6.643 2.107-9.995 3.66.082.306-.294.735-.742 1.51-1.57.257-1.957.033-1.886-.314-2.587 1.349-5.021 2.656-7.527 4.31-8.656 5.596-15.6 12.698-20.992 20.696-.03.5-.019 1.151-.272 2.038-.347-.07-.653.011-1-.06-5.716 9.231-9.302 19.693-10.502 30.498l.794-.704c.377-.428-.152.041-.682.511z"/><path fill-rule="evenodd" clip-rule="evenodd" d="M176.466 167.47c-1.995 2.337-4.031 4.52-6.261 6.592.399.876.756 1.599 1.308 2.434.529-.469 1.17-1.132 1.7-1.602.589-1.468 1.678-2.907 3.419-4.356-.071.347-.294.734-.324 1.234.906-.898 1.618-1.908 2.371-2.765a1.01 1.01 0 00-.917.245c-.51-.682-.827-1.252-1.296-1.782zm-61.548 53.349c.041.153.235.265.276.418-.571.317-.999-.06-1.581-.396-3.343-.251-6.768-.807-10.235-1.516 0 0 .041.153.194.112-1.222.327-1.946.685-2.404.808.153-.041.346.071.499.03 4.506.922 9.277 1.609 13.813 2.032.153-.041.306-.082.5.03l4.954.147c.264-.235.682-.511 1.058-.939.235.264-.141.693-.406.928.805-.052 1.651.049 2.303.038-.581-.336-1.051-.865-1.673-1.354-2.456.003-4.954-.147-7.298-.338zm75.443-25.948c1.719-2.754-.68 2.967 0 0zm15.217-17.182c.316.57-.712 1.01-1.089 1.438-.47-.529.559-.969 1.089-1.438zm11.002-21.295c-.417.276-1.028.44-1.64.603-6.461 17.458-17.645 32.576-32.614 43.958-.753.857-1.577 2.061 0 0-1.629 1.256-3.299 2.359-4.969 3.462.387.223.622.488 1.05.865 17.762-11.967 31.063-28.963 38.173-48.888zm-42.349 51.644c.988-.592 1.823-1.143 2.811-1.736.265-.234.418-.275.683-.51-.276-.418-.511-.682-.786-1.1-.153.041-.418.276-.571.317-.57.316-1.252.827-1.823 1.144.011.652-.019 1.151-.314 1.885zm-48.539 14.481c16.919-.438 33.608-5.402 48.427-14.287-.846-.1-1.386-.283-1.774-.507-1.558.909-3.269 1.859-4.869 2.615.47.529.715 1.446-.488.622l-.082-.305c-2.323 1.113-4.645 2.227-7.009 3.188.164.611.022 1.305-1.059.939-.04-.153.071-.347.03-.499-8.272 3.363-17.065 5.391-25.952 6.462-.03.499-.753.857-1.13 1.286-.275-.418.407-.928.825-1.204-2.569.197-5.137.393-7.746.437.235.265.551.835.827 1.253zm95.422-102.395c.243 7.634-.512 15.208-2.226 22.875-.253.887-.354 1.733-.567 2.773.682-.511 2.214 1.536-.254.887a61.358 61.358 0 01-2.619 8.564c.57-.316 1.182-.48 1.599-.756 1.168-3.589 2.295-7.331 3.075-11.144.112-.194.071-.346.142-.693s.03-.499.142-.693a102.815 102.815 0 001.848-22.446l-1.252.827c.305-.082.152-.041.112-.194zm-3.568-24.926c-.543-2.64 2.214 1.536 0 0zm-13.878-31.009c-.418.276-.682.51-1.1.786.827 1.253 1.807 2.465 2.675 3.87 9.262 14.39 14.714 30.458 15.763 47.213.153-.041.265-.235.418-.276.275.418.592.988.868 1.405-.416-6.441-1.29-12.759-2.816-19.066-.153.04-.305.082-.235-.265l.224-.387-.164-.612-.041-.153a89.403 89.403 0 00-4.275-12.286s-.152.04-.112.193c-.04-.153-.081-.305.03-.5-2.279-5.45-5.17-10.736-8.366-15.94-1.062-1.518-1.889-2.77-2.869-3.982zM35.488 76c-.417.275-.835.55-1.252.827-.041-.153-.276-.418-.317-.57-2.339 4.721-4.484 9.555-6.24 14.612l.122.459-.153.04a155.696 155.696 0 00-2.212 7.638c.346.07.775.447 1.203.824 1.855-8.36 4.944-16.395 8.85-23.83zm4.517-7.6c-.153.042-.265.235-.418.276-.317-.57.712-1.01 1.089-1.438 7.417-10.833 16.854-20.242 28.17-27.533 17.313-11.191 37.141-16.668 57.343-15.856.224-.388.794-.704 1.059-.94.275.418-.142.694-.56.97 2.151.079 4.343.31 6.34.43.071-.346.03-.5-.052-.805 1.223-.327 1.04.213.898.906 3.079.486 6.158.971 9.125 1.65 23.805 5.089 44.562 18.365 58.824 37.968.418-.276.683-.51 1.1-.786a99.124 99.124 0 00-27.489-25.56c-2.18.42-2.038-.273-1.55-.895l-.775-.448c-.306.082-.805.052-1.223.328a.87.87 0 01.254-.887c-.775-.448-1.55-.895-2.478-1.302.123.459-.213 1.04-1.182.48.03-.499.142-.692.254-.886-8.017-4.24-16.745-7.472-25.91-9.275-10.052-2.057-20.042-2.657-29.968-1.799.317.57.522 1.335-.529.47l-.123-.459c-2.069.227-3.985.413-6.013.792-.406.928-2.464 1.807-2.486.503-6.695 1.302-13.073 3.175-19.4 5.853.317.57-.712 1.01-1.088 1.438-.317-.57.56-.969 1.089-1.438-5.603 2.32-11.043 5.252-16.206 8.601C54.239 47.55 43.194 59.52 35.292 73.431l.827 1.253c1.23-2.132 2.461-4.263 3.886-6.283zM64.16 203.788c10.762 7.763 23.254 13.426 36.661 16.386.112-.194.336-.582.824-1.204-1.386-.284-2.62-.608-3.854-.933-.153.041-.153.041-.264.235-.041-.153-.041-.153-.235-.265-10.022-2.556-19.343-6.775-27.84-12.198a13956.25 13956.25 0 01-4.774-3.143c.041.153-.03.499-.518 1.122zm-25.8-27.815c-.39-2.68 2.213 1.536 0 0zm6.103 6.883c-1.725-2.159-3.145-4.4-4.717-6.599a102.004 102.004 0 01-6.65-11.979l-.387-.223c-.082-.306-.123-.459-.01-.653-8.728-19.12-11.159-40.419-6.638-61.452l.212-1.04c-.428-.376-.704-.794-1.02-1.364l-.426 2.08c-1.105 5.046-1.71 10.123-1.97 15.27.225-.387.795-.704 1.06-.939.316.571-.56.969-1.09 1.439-1.105 20.936 4.423 41.569 15.972 59.606a104.105 104.105 0 0016.566 19.641c.578-2.121 1.58.396.622.488 2.337 1.995 4.673 3.99 7.121 5.791.418-.275.989-.592 1.294-.674-7.151-5.291-13.549-11.44-19.194-18.445-1.416.215-1.274-.478-.745-.947z"/><path fill-rule="evenodd" clip-rule="evenodd" d="M218.142 123.705c-.317-.57.712-1.01 1.089-1.438.276.417-.712 1.01-1.089 1.438zm-1.271 11.152c-.543-2.639 2.214 1.537 0 0zm-.725 7.075c-.003-2.457 3.16.791 0 0zm-18.807 41.077c-.39-2.68 2.214 1.536 0 0zm-4.937 5.418c-.316-.57.713-1.01 1.089-1.438.429.376-.559.969-1.089 1.438zm-6.495 6.327c-.123-.458.407-.928.09-1.498.57-.317.988-.593 1.558-.909 1.051.865-.395 1.58-1.648 2.407zm30.655-96.507c-1.14.633-2.172-1.384-3.264-2.402 1.1-.786 2.132 1.23 3.264 2.402zm-63.333-66.41c-.502-2.486 2.214 1.537 0 0zm-13.243-2.348c-.543-2.64 2.173 1.384 0 0zm-15.158-2.163c-.503-2.486 2.213 1.536 0 0zm-6.452-.237c-.317-.57.712-1.01 1.089-1.438.316.57-.56.969-1.089 1.438zm-36.58 8.983c-.317-.57.712-1.01 1.089-1.439.47.53-.56.97-1.09 1.439zm137.653 80.895a101.52 101.52 0 00-4.35-23.57c-.03.5-.753.857-1.13 1.285-.316-.57.712-1.01 1.089-1.438-1.095-3.474-2.301-6.755-3.855-10.106-.417.275-.682.51-1.099.786-.235-.265-.511-.682-.593-.988l1.253-.827c-1.032-2.017-2.105-4.187-3.137-6.203-.264.234-.723.357-1.375.368.295-.734.477-1.275.936-1.397-.95-1.712-1.859-3.27-2.962-4.94-5.636-8.81-12.556-16.293-20.493-22.684-.682.51-1.599.756-.816-.6-11.631-9.17-25.174-15.697-40.079-18.747-5.475-1.482-10.745-2.2-16.045-2.417.011.652.063 1.457.767 2.252-1.223.327-2.438-1.15-2.419-2.301l-1.498-.09c-.019 1.152-1.405.868-2.241 1.42.019-1.152 1.212-.98 2.088-1.379-18.886-.181-37.45 5.12-53.776 15.72-6.416 4.176-12.17 8.994-17.3 14.3.112-.194.265-.235.377-.428.316.57-.713 1.01-1.09 1.438l-.081-.306C39.74 68.635 31.483 84.281 27.743 101.5c0 0 .04.153.193.112l-.152.041c-.112.193-.03.499-.142.693-1.247 5.74-1.842 11.469-2.13 17.115 1.233.325 2.09 1.078 2.642 1.913.092-8.215 1.336-16.411 3.466-24.353-.245-.917-.297-1.722.508-1.774 6.254-20.678 19.451-39.285 39.005-51.895 1.67-1.103 3.382-2.053 5.205-3.197.06-.999.56-.969 1.293-.674 9.85-5.424 20.425-8.75 30.993-10.27.265-.235.641-.664 1.1-.787.041.153-.071.347-.03.5 35.076-4.812 71.604 10.463 92.057 42.168 1.736 2.81 3.472 5.622 4.902 8.515.999.06 1.755 1.659 2.653 2.565-.57.317-1.192-.172-1.855-.813 4.495 9.443 7.463 19.295 8.667 29.292.836-.551 2.211-.92 2.039.273-.57.317-.988.592-1.558.909-.082-.306-.276-.417-.429-.377.64 6.054.82 12.23.308 18.265.305-.082.611-.164 1.11-.134-.253.887-.783 1.357-1.282 1.327-1.328 14.607-6.152 29.004-14.077 41.611.082.306-.142.694-.742 1.51l-.306.082c-3.367 5.161-7.163 9.946-11.429 14.201.153-.041.112-.194.265-.235.316.571-.712 1.01-1.089 1.439l-.082-.306a113.506 113.506 0 01-10.518 9.043c.511.682 1.174 1.324 1.684 2.006 9.705-7.187 18.001-15.962 24.319-26.009-.041-.153-.235-.265-.276-.418.265-.235.682-.51.988-.592 5.676-9.384 9.955-19.704 12.225-30.796 1.702-8.319 2.405-16.698 1.957-25.096-.041-.153-.276-.417-.317-.57.388.224.541.183.541.183zM162.9 209.764c1.056-3.395 3.608.017 0 0zm-32.442 8.53c1.678-2.907-.68 2.966 0 0zm45.334-17.881c-.142.693-.955 2.549-.641.663l.224-.387c-.571.316-.947.745-1.518 1.061-15.49 10.048-32.985 15.063-50.138 15.237-.418.275-.835.551-1.294.674.47.529.98 1.212 1.532 2.047a91.171 91.171 0 0012.994-1.025c.6-.816 1.7-1.602 2.606-2.5.357.723-.243 1.539-1.19 2.285 13.013-2.177 25.636-7.033 37.103-14.365 1.406-.868 2.771-1.889 4.023-2.716a21.575 21.575 0 01-3.089-1.138c-.194-.112-.306.082-.612.164zM27.873 143.564c-.205-.765 1.089-1.439 1.558-.909.246.917-.723.357-1.558.909zm-2.505-23.409c-.098 3.302-.043 6.564.165 9.784.153-.041.458-.123.805-.052-.183.541-.407.928-.671 1.163.97 9.733 3.244 19.443 7.2 28.703.376-.428.946-.745 1.67-1.102-.754.857-.314 1.885-1.067 2.743 2.115 4.838 4.69 9.554 7.57 14.188 1.53 2.047 3.103 4.247 4.675 6.447.723-.358 1.264-.175.745.947 2 2.576 4.114 4.958 6.38 7.3.976-1.245.488-.622 0 0 2.305 2.494 4.877 4.754 7.407 6.861.306-.082.57-.317.988-.593.377-.428.712-1.01.895-1.55-.235-.265-.622-.488-.857-.753-.418.275-.988.592-1.406.868-.786-1.1-1.378-2.088-2.164-3.188.153-.041.264-.235.417-.275-.622-.489-1.132-1.171-1.755-1.66-.153.041-.305.082-.417.276.112-.194.07-.347.224-.388-4.878-4.754-9.267-10.13-13.127-15.976-4.105-6.763-7.488-13.883-9.912-21.096l-.153.041c-.04-.153-.082-.306.03-.5a90.371 90.371 0 01-4.773-28.206c-.775-.448-1.602-1.701-2.869-3.982zm82.279 97.371c-.317-.571.712-1.01 1.089-1.439.469.53-.56.969-1.089 1.439zm7.92.826c-.39-2.68 2.214 1.536 0 0zm-2.058.879c.846.101 1.845.161 2.692.262 1.498.09 2.996.18 4.454.117-.276-.418-.705-.794-.98-1.212.559-.969 1.13-1.285 1.629-1.255.153-.041.112-.194.265-.235-1.152-.019-2.304-.038-3.608-.016-.724.357-1.641.603-1.804-.008-19.326-1.21-38.14-8.455-53.627-21.014-.183.54-.325 1.234-.09 1.498-.418.276-1.029.44-1.447.716.429.376 1.01.712 1.439 1.089.265-.235.265-.235.194.111 6.998 5.333 14.597 9.849 22.867 13.203.6-.816.53-.47.194.112l3.823 1.432c-.052-.805.612-.164.887.254 2.356.843 4.864 1.645 7.484 2.254.153-.041.265-.235.418-.276.04.153.235.265.275.418 1.234.324 2.468.649 3.661.821 3.313.75 6.697 1.154 9.929 1.598-.041-.153-.235-.265-.235-.265.571-.316 1.111-.133 1.58.396z"/><path fill-rule="evenodd" clip-rule="evenodd" d="M215.016 93.091l.04.152c.152-.04.111-.192-.04-.152zM174.548 165.2c-1.731 2.101-3.614 4.244-5.731 6.122.275.417.51.682.633 1.141a61.42 61.42 0 006.107-6.551c.153-.041.112-.194.265-.235-.346-.071-.663-.641-1.274-.477zm11.37-19.92c.276.418.704.795.98 1.212 1.321-3.63 2.448-7.372 3.075-11.144-.265.235-.682.511-.947.745-.123-.458.407-.928.09-1.498l1.253-.827c.141-.693.13-1.346.272-2.039 0 0-.041-.153.112-.194.486-3.078.625-6.228.57-9.489-.388-.224-.47-.53-.052-.806a51.409 51.409 0 01-.115-2.262c-.224.387-.794.704-1.364 1.021.295 8.439-.979 17.134-3.874 25.281zm-10.77 19.104c.612-.164 1.264-.175 1.652.049a23.112 23.112 0 002.248-3.224c-.082-.306.183-.54.448-.775 2.808-4.192 5.187-8.762 6.874-13.472-.347-.071-.776-.448-1.051-.865a59.767 59.767 0 01-10.171 18.287zm-21.819 19.442l1.711-.95c-.123-.458.753-.857 1.13-1.285.275.417-.295.734-.672 1.162 1.406-.868 3.005-1.624 4.37-2.645 2.811-1.736 5.234-3.696 7.617-5.808l-.153.041c-.235-.265-.511-.683-.592-.988.305-.082.417-.276.529-.47-.906.898-2.006 1.684-3.065 2.623-.488.623-1.018 1.092-1.629 1.256l-.041-.153c-1.1.786-2.2 1.572-3.452 2.399l-2.964 1.777.041.153-.459.123c-5.968 3.401-12.224 5.733-18.531 7.259.235.265.51.682.674 1.294 4.779-1.117 9.588-2.733 14.233-4.961.336-.581.906-.898 1.253-.827zm-29.162 7.323l.306-.082c-.153.041-.347-.071-.306.082-.041-.153-.041-.153 0 0zm-1.438-1.089a.34.34 0 00-.388-.224c-2.303-.038-4.607-.076-6.992-.42-.265.235-.683.511-1.059.939-.235-.265.142-.693.559-.969a53.608 53.608 0 01-6.698-1.154c.235.265.429.377.511.683-.723.357-1.346-.131-1.897-.966l-2.661-.762-.794.705c-.235-.265.03-.5.294-.735a42.504 42.504 0 01-3.935-1.238c-.153.041-.5-.03-1.04-.213-.041-.153-.041-.153.07-.347-1.274-.477-2.549-.955-3.864-1.585a2.897 2.897 0 00-1.294.674c-.082-.306.142-.693.56-.969-2.244-1.037-4.528-2.227-6.701-3.61.235.265.47.529.551.835-.57.317-.958.093-1.416.216 2.907 1.678 5.814 3.356 8.903 4.494.265-.235.418-.276.682-.51.082.305-.03.499-.141.693 3.324 1.402 6.719 2.458 10.074 3.361l-.041-.152c.895-1.551.682-.511.387.223.5.03.887.254 1.387.284-.011-.652.417-.276.693.142 4.7 1.034 9.583 1.528 14.495 1.522.071-.347.142-.694-.245-.917.041.153.041.153 0 0zm11.842-1.044c-.571.317-.988.593-1.559.909-.122-.458-.581-.335-1.151-.019-.235-.265-.123-.458-.052-.805-2.375.309-4.749.617-7.053.579.317.571.44 1.029.216 1.417 3.873-.219 7.705-.59 11.567-1.461l-.827-1.253c-.459.123-.917.246-1.417.216.388.223.388.223.276.417zm-69.578-29.189c2.839 4.481 6.166 8.34 9.758 11.964l.794-.704c.235.265-.142.693-.406.928 3.316 3.207 6.856 6.026 10.773 8.416-.04-.153-.235-.264-.235-.264.53-.47.988-.593 1.335-.522-3.917-2.39-7.65-5.321-10.967-8.528-2.028.38-1.774-.507-1.092-1.018-1.561-1.547-3.01-3.288-4.46-5.03-.581-.335-.969-.559-1.122-.518l-.194-.112c.071-.347.142-.693.254-.887-1.02-1.364-2.082-2.882-3.144-4.399-.041-.153-.276-.418-.317-.571-.734-.294-1.662-.701-2.325-1.342.245.917.797 1.752 1.348 2.587zm-9.506-31.198c-.153.041-.264.235-.264.235l.387.223-.123-.458z"/><path fill-rule="evenodd" clip-rule="evenodd" d="M69.83 164.428l-.305.082c.194.112.347.071.54.183-.04-.153-.234-.265-.234-.265zm-14.434-27.584c.764-.204 1.376-.368 0 0 .328 1.223.503 2.487.83 3.71.306-.082 1.256 1.629.328 1.222 1.136 3.627 2.465 7.366 4.212 10.83.734.294 1.55.895 2.214 1.536-.634-1.141-1.267-2.282-1.747-3.463l-.153.041c-.041-.153-.082-.306.03-.5-2.75-5.979-4.47-12.399-5.343-18.717-.581-.335-1.01-.712-1.48-1.241.268 2.221.689 4.402 1.11 6.582zm30.512-70.751c.682-.51 1.405-.868 2.24-1.42-.387-.223-.092-.957 1.935-1.337.041.153-.111.194-.111.194 4.868-2.615 9.901-4.619 14.904-6.123-.153.041-.194-.112-.276-.417 1.498.09 1.487-.563 1.935-1.338-4.015.912-7.907 2.282-11.87 4-.335.58-.67 1.162-.548 1.62-1.987.533-1.04-.212-.48-1.181a47.534 47.534 0 00-8.403 4.709c-11.427 7.484-19.966 17.8-25.18 29.516.275.418.703.794.979 1.212 4.909-11.635 13.254-22.062 24.875-29.435zM59.493 95.285c-3.365 7.618-5.108 15.784-5.506 24.081.317.571.827 1.253 1.338 1.935.122-8.714 1.936-17.227 5.33-25.344-.458.122-.733-.295-1.162-.672zM54.1 128.346c.153-.041.194.111.347.07.224-.387.641-.663.865-1.05-.082-.306-.011-.653-.093-.958-.51-.683-.98-1.212-1.408-1.589.174 1.264.308 2.375.29 3.527zm67.204-73.211c.895-1.55.642-.663.347.07 22.372-.26 44.278 10.579 57.358 30.662a66.344 66.344 0 0110.524 30.106c.806-.052 2.151.079.347.071-.153.041-.194-.112-.347-.071.134 1.111.227 2.069.208 3.221.418-.276.835-.552 1.212-.98-.615-11.466-4.186-22.959-10.885-33.286-13.989-21.642-38.434-32.783-62.547-31.073-.212 1.04-2.434 1.308-2.874.279-2.374.309-4.748.617-7.041 1.231-.183.54-.671 1.163-1.048 1.592 4.82-.964 9.874-1.663 14.746-1.822zM93.963 86.377l2.309-4.223 4.943-.505-3.399-3.512 1.187-4.741-4.533 2.034-4.07-2.35.618 4.749-3.747 3.133 4.853.993 1.84 4.422zm59.357 80.907c-.543-2.639 2.173 1.384 0 0zm-2.915.126l.306-.082-.306.082zm-1.111.134l.764-.205c-.111.194-.458.123-.764.205zm-1.761-6.572l.618 4.749-3.747 3.133 4.699 1.034.961 2.364.041.152.838 1.905 1.007-1.744c.071-.346.071-.346.112-.194l1.343-2.325 4.79-.464-3.246-3.554 1.034-4.7-4.38 1.993-4.07-2.349z"/><path fill-rule="evenodd" clip-rule="evenodd" d="M91.723 96.97c.317.57-.712 1.01-1.089 1.438-.275-.418.56-.97 1.09-1.439zm25.4-16.471c.317.57-.712 1.01-1.089 1.438-.428-.377.56-.969 1.089-1.438zm16.102-10.212c.598-3.273 2.244 1.037 0 0zm-66.146 44.752l.306-.082 6.152-3.941c-.153.041-.347-.071-.582-.336-.297-1.722.835-.551.846.101l13.515-8.863c-.164-.612 1.13-1.286 1.924-1.99.123.459-.295.734-.824 1.204l9.074-5.872c.183-.54.519-1.122.396-1.58 1.029-.44 1.304-.022 1.163.671l11.844-7.76c-.429-.377-.287-1.07 1.67-1.103l33.751-21.984-1.225-2.13-42.714 27.663c.235.265.276.418.51.682-.57.317-.988.593-1.558.91-.235-.265-.276-.418-.51-.683l-37.398 24.272c.194.112.47.529.369 1.376.936-1.398.276.417-.06.998-.112.194-.07.347-.142.694a5.344 5.344 0 01-1.345-.131c-.03.499-.754.857-1.13 1.285-.276-.417.56-.969 1.089-1.438-.582-.336-.593-.988-.257-1.569l-1.406.868c-.223.387-.794.704-1.058.939l-.082-.306-1.935 1.338 1.42 2.24 8.197-5.473zm103.777 22.32c.224-.388.488-.623.6-.817-.264.235-.488.623-.6.817zm7.863-4.892c.182-.54 1.211-.98 1.894-1.49l.081.305 7.14-4.534-1.185-1.975c-.265.234-.682.51-.947.745-.276-.418.142-.694.56-.969l-2.088 1.378c.123.459-.06.999-.988.593l-6.416 4.176-26.765 17.491c-.101.847-.66 1.815-1.913 2.643-.276-.418-.358-.724-.328-1.223l-1.099.786c-.254.887.338 1.875 1.266 2.282l4.064-2.564c-.011-.652.183-.54.417-.275l8.352-5.514-.194-.112c-.257-1.569.447-.775.764-.205l9.227-5.912 8.158-5.626zm-46.423 28.492c1.678-2.907-.721 2.814 0 0zm7.363-4.921c3.228-2.012-6.588 5.369 0 0zm-16.375 12.25c.895-1.55.641-.663.347.071l23.424-15.286c-.123-.458-.511-.682-1.398-.936-.682.511-.212 1.04-.09 1.499-2.516 1.001-2.467-.65-1.072-2.17l-21.642 13.989c-.112.194-.265.235-.377.429l-.459.123-4.022 2.716c.428.376 1.143 1.823-.254.887-.082-.306-.123-.459-.011-.653l-8.81 5.637s.041.153.194.112l-.611.164-2.658 1.695c-.183.54-.56.969-1.141.633l-6.263 4.136 1.419 2.24 4.746-3.073c-.846-.101-1.133-1.171 1.476-1.215.041.153-.071.347-.071.347l5.429-3.584c-.235-.265-.317-.571-.511-.683.571-.316.988-.592 1.559-.909.234.265.316.571.51.683l10.174-6.658.112-.194z"/><path d="M73.966 127.282l9.813 15.226-3.229 2.012-7.373-11.621c-.07.347-.183.54-.406.928-.071.347-.336.581-.56.969-.264.235-.488.622-.753.857l-.794.704-1.736-2.811c.753-.857 1.353-1.673 1.8-2.448.601-.816.855-1.703 1.262-2.631l1.976-1.185zm20.791 8.516c-3.494 2.247-6.97.885-10.085-4.013-1.695-2.659-2.462-4.91-2.343-6.908.12-1.998 1.015-3.548 2.838-4.692 3.494-2.246 6.818-.844 10.015 4.361 1.654 2.505 2.42 4.757 2.3 6.754-.007 1.804-1.055 3.396-2.725 4.498zm-8.2-12.873c-1.406.868-.944 3.202 1.302 6.695 2.206 3.34 3.879 4.694 5.244 3.673 1.405-.868.985-3.049-1.262-6.542-2.094-3.534-3.879-4.694-5.284-3.826zm21.645 4.357c-3.493 2.246-6.97.885-10.085-4.014-1.695-2.658-2.462-4.91-2.342-6.908.12-1.997 1.015-3.548 2.838-4.691 3.493-2.247 6.817-.844 10.014 4.36 1.654 2.505 2.421 4.757 2.301 6.755-.008 1.804-1.056 3.395-2.726 4.498zm-8.088-13.067c-1.405.868-.944 3.201 1.303 6.695 2.205 3.34 3.878 4.694 5.243 3.673 1.405-.868.985-3.049-1.262-6.542-2.205-3.341-4.031-4.653-5.284-3.826zm21.49 4.398c-3.493 2.246-6.97.884-10.085-4.014-1.695-2.659-2.462-4.91-2.342-6.908.12-1.998 1.015-3.548 2.838-4.692 3.493-2.246 6.818-.844 10.014 4.361 1.654 2.505 2.421 4.757 2.302 6.754.032 1.957-.904 3.355-2.727 4.499zm-8.047-12.915c-1.405.868-.944 3.202 1.303 6.695 2.205 3.341 3.879 4.694 5.243 3.673 1.406-.868.985-3.048-1.261-6.542-2.206-3.34-4.032-4.653-5.285-3.826zm21.491 4.398c-3.494 2.247-6.971.885-10.085-4.014-1.695-2.658-2.463-4.91-2.343-6.907.12-1.998 1.015-3.549 2.838-4.692 3.494-2.247 6.818-.844 10.015 4.36 1.654 2.506 2.421 4.757 2.301 6.755-.008 1.804-.903 3.354-2.726 4.498zm-8.088-13.067c-1.406.868-.944 3.201 1.302 6.695 2.206 3.34 3.879 4.694 5.244 3.673 1.405-.868.985-3.049-1.262-6.542-2.206-3.34-4.032-4.653-5.284-3.826zm21.531 4.551c-3.493 2.246-6.97.884-10.085-4.014-1.695-2.659-2.462-4.91-2.342-6.908.12-1.998 1.015-3.548 2.838-4.692 3.493-2.246 6.818-.844 10.014 4.36 1.654 2.506 2.421 4.758 2.301 6.756-.008 1.804-.903 3.354-2.726 4.498zm-8.088-13.067c-1.405.867-.944 3.201 1.303 6.694 2.205 3.34 3.878 4.694 5.243 3.674 1.405-.869.985-3.05-1.262-6.543-2.205-3.34-4.031-4.653-5.284-3.825zm21.49 4.397c-3.493 2.247-6.97.885-10.085-4.014-1.695-2.658-2.462-4.91-2.342-6.907.12-1.998 1.015-3.548 2.838-4.692 3.493-2.247 6.818-.844 10.014 4.36 1.654 2.506 2.422 4.757 2.302 6.755-.008 1.804-.903 3.355-2.727 4.498zm-8.088-13.067c-1.405.868-.944 3.202 1.303 6.695 2.205 3.34 3.879 4.694 5.243 3.673 1.406-.868.985-3.049-1.261-6.542-2.206-3.34-3.879-4.694-5.285-3.826zm-23.863 48.493l-1.823 1.144-1.695-2.658-2.811 1.736-1.144-1.823 2.811-1.736-1.736-2.811 1.823-1.144 1.736 2.811 2.811-1.736 1.144 1.823-2.811 1.736 1.695 2.658zM99.587 160.55l1.253-.827 2.011 3.228c.418-.275.683-.51.754-.857.112-.193.101-.846-.145-1.763-.205-.764-.175-1.263-.104-1.61.071-.347.183-.54.295-.734.112-.194.529-.47.947-.745l.264-.235.634 1.141-.418.275c-.265.235-.529.47-.488.623.041.153.011.652.174 1.263.164.612.134 1.111.216 1.417-.071.346-.142.693-.406.928.611-.164 1.457-.063 2.579.455l2.866 1.526-1.406.868-2.866-1.526c-.581-.335-1.08-.365-1.274-.477a1.007 1.007 0 00-.917.246l2.246 3.493-1.252.827-4.963-7.516zm9.162-.653c-.868-1.406-1.195-2.628-.871-3.862.254-.887.855-1.703 1.843-2.295.987-.593 2.057-.879 3.291-.555 1.04.213 2.05.925 2.724 2.219.592.988.991 1.864 1.002 2.516.052.805-.09 1.499-.426 2.08-.335.581-.824 1.204-1.547 1.561-1.141.634-2.058.879-3.251.707-1.192-.171-1.937-1.118-2.765-2.371zm1.406-.868c.592.988 1.256 1.629 1.949 1.771.734.295 1.345.131 2.069-.227.723-.357 1.058-.939 1.159-1.785.142-.693-.103-1.61-.696-2.598-.592-.988-1.214-1.476-1.949-1.771-.693-.142-1.345-.131-2.068.227-.724.357-1.059.939-1.16 1.785-.101.846.104 1.61.696 2.598zm5.645-8.885l1.935-1.337 5.876 4.814-1.66-7.418 1.823-1.144 4.81 7.557-1.253.827-3.941-6.151 1.701 7.571-1.1.786-6.264-5.038 4.023 6.457-1.253.827-4.697-7.751zm10.898-7.015l5.999-3.9 4.81 7.557-1.253.827-4.176-6.416-3.494 2.246 4.218 6.569-1.253.827-4.851-7.71zm17.967-2.029a3.746 3.746 0 01-.854 1.703c-.377.429-.754.857-1.324 1.174-.835.551-1.599.756-2.293.614-.693-.142-1.274-.478-1.632-1.201-.276-.417-.357-.723-.327-1.222.03-.5.1-.847.171-1.193.224-.388.295-.734.713-1.01l1.059-.939a14.696 14.696 0 001.964-1.837c-.04-.153-.234-.265-.234-.265-.317-.57-.705-.794-1.051-.865-.5-.03-1.111.134-1.681.451a3.056 3.056 0 00-1.171 1.132c-.224.388-.101.847.063 1.458l-1.447.715c-.163-.611-.327-1.223-.297-1.722.03-.5.212-1.04.589-1.469.377-.428.906-.898 1.588-1.408.724-.358 1.294-.674 1.753-.797.458-.123.958-.093 1.304-.022.347.071.582.336.969.559.194.112.47.53.786 1.1l1.103 1.67c.827 1.253 1.338 1.935 1.572 2.2.235.265.623.489.857.753l-1.405.868c-.306.082-.541-.182-.775-.447zm-2.083-2.882a21.803 21.803 0 01-1.812 1.796c-.53.469-.794.704-.906.898-.112.194-.183.54-.295.734l.205.764c.235.265.469.53.969.56.346.071.805-.052 1.375-.369.571-.316.795-.704 1.171-1.133.224-.387.407-.928.284-1.386-.082-.306-.246-.917-.563-1.487l-.428-.377zm1.735-6.362l1.253-.827 2.012 3.228 3.493-2.246-2.012-3.229 1.253-.827 4.81 7.557-1.253.827-2.205-3.34-3.494 2.246 2.206 3.341-1.253.827-4.81-7.557zm8.963-5.678l1.253-.827 3.666 5.734-.173-7.98 1.406-.868 4.809 7.557-1.252.827-3.666-5.734.173 7.98-1.406.868-4.81-7.557zm8.81-5.637l1.252-.827 3.666 5.734-.172-7.98 1.405-.868 4.81 7.557-1.1.786-3.666-5.734.173 7.98-1.406.868-4.962-7.516zm2.704-5.802l.835-.552c.317.571.328 1.223.145 1.763-.183.541-.56.969-1.089 1.439-.57.317-1.182.48-1.681.45-.5-.03-1.081-.365-1.551-.895l.836-.551c.234.265.622.488.775.447.153-.041.652-.011.917-.245.417-.276.682-.511.753-.857.265-.235.183-.541.06-.999z"/><path fill-rule="evenodd" clip-rule="evenodd" d="M190.08 70.942l-.287-1.07-1.386-.283.778 2.904-1.234-.325c-.764.205-.958.093-.928-.406l-.346-.071-.865 1.05 3.007.833-1.812 1.796.246.917.559-.97c3.084-3.774.541.184-.477 1.275l2.189-2.224.461 2.333 1.387.284-.779-2.904c-1.151-.019-1.572-2.2-.513-3.139zm1.593 3.505l1.622.548.865-1.05-2.661-.762c.122.459.245.917.174 1.264zm1.486-3.019l-.163-.611c-.112.194-.377.428-1.111.134l-.377.428c.123.459.093.958.216 1.417l1.435-1.368z"/><path d="M71.982 198.743c-.418.276-.682.511-.988.592-.306.082-.611.164-.805.052-.347-.071-.5-.03-.693-.141-.194-.112-.54-.183-.735-.295l-.775-.448.824-1.203.623.488c.193.112.54.183.693.142.306-.082.611-.164 1.029-.44l1.364-1.02 2.475-10.328 1.591 1.048-1.187 4.741-.985 3.048 2.577-2.001 3.788-2.98 1.397.936-10.193 7.809zm11.348 3.839l1.89-3.946-1.315-.631c-.388-.224-.734-.294-1.193-.172-.305.082-.723.358-1.252.827l-1.883 2.143-1.51-.742 2.26-2.571c.377-.429.641-.664 1.059-.939.417-.276.723-.358 1.263-.175-.234-.265-.47-.529-.592-.988-.123-.459-.052-.805-.022-1.305l.486-3.078 1.509.742-.486 3.079c-.07.346.011.652-.1.846l.163.611c.041.153.235.265.429.377l.581.335 1.163.672 1.891-3.947 1.51.742-1.892 3.947 1.163.671c.194.112.388.224.54.183.194.112.347.071.5.03l.611-.164c.153-.041.418-.276.683-.51l2.035-2.184 1.734.355-2.19 2.224c-.376.429-.64.664-1.058.939-.265.235-.764.205-1.11.134.387.224.662.641.632 1.141.123.458.052.805-.13 1.345l-.557 3.426-1.51-.742.527-2.926c.142-.694.02-1.152-.216-1.417-.234-.264-.469-.529-.856-.753l-1.316-.63-1.891 3.946-1.55-.895zm12.13.027c-.183.54-.254.887-.325 1.233-.07.347.011.652.134 1.111.082.306.316.57.551.835.235.265.623.489.97.56.346.07.692.141 1.192.171.5.03.958-.092 1.375-.368l.716 1.446a3.856 3.856 0 01-1.834.492c-.653.011-1.193-.172-1.886-.314-.54-.183-.928-.407-1.316-.63a3.065 3.065 0 01-1.133-1.171c-.316-.571-.44-1.029-.491-1.834-.011-.652.09-1.499.455-2.579a6.746 6.746 0 011.19-2.285c.489-.622.906-.898 1.477-1.215.57-.316 1.029-.439 1.528-.409.5.03.999.06 1.54.243.54.183.927.406 1.356.783.428.376.704.794.98 1.212a2.7 2.7 0 01.409 1.528c.011.652-.019 1.152-.313 1.886l-.325 1.234-6.25-1.929zm3.553-3.246c-.693-.142-1.193-.172-1.763.145-.57.317-.906.898-1.354 1.673l4.476 1.422c.254-.887.243-1.54-.073-2.11-.123-.459-.593-.988-1.286-1.13zm15.96 8.828c-.03.499-.1.846-.365 1.081-.224.387-.489.622-.753.857-.265.235-.724.358-1.029.439-.459.123-.805.052-1.305.022l-4.73-.534 1.099-9.959 4.384.463c.499.03 1.039.213 1.427.437.388.223.775.447 1.01.712.235.265.469.529.592.988.082.306.205.764.134 1.111-.071.346-.142.693-.518 1.122-.224.387-.642.663-1.1.786.581.335.969.559 1.092 1.018-.03.499.092.958.062 1.457zm-6.179-2.276l-.374 2.885 2.692.262c.693.142 1.151.019 1.569-.257.417-.275.488-.622.559-.969a1.355 1.355 0 00-.286-1.07c-.276-.417-.816-.6-1.469-.589l-2.691-.262zm.546-4.077l-.374 2.885 2.538.302c.693.142 1.152.019 1.57-.256.264-.235.488-.623.559-.969a1.35 1.35 0 00-.287-1.07c-.234-.265-.775-.448-1.468-.59l-2.538-.302zm17.165 9.652l.1-10.02 1.651.049-.1 10.02-1.651-.049zm-2.97-3.136c.071-.347-.205-.764-.44-1.029-.234-.265-.775-.447-1.427-.437l-2.803-.067.014 3.108 2.803.068c.652-.011 1.111-.134 1.375-.368.377-.429.448-.776.478-1.275zm-4.468-3.226l2.803.068c.499.03.999.06 1.539.243l1.163.671c.235.265.51.683.592.988.123.459.205.765.175 1.264-.06.999-.355 1.733-.884 2.203-.682.51-1.406.868-2.557.849l-4.455-.117.101-10.02 1.651.049-.128 3.802zm15.265-2.943c-.458.123-.917.246-1.182.48-.264.235-.529.47-.753.857-.071.347-.295.735-.172 1.193-.03.5.052.805.022 1.305.123.458.052.805.134 1.111.082.305.164.611.399.876.275.417.51.682.898.906.387.223.887.253 1.345.131.612-.164 1.07-.287 1.294-.675.417-.275.6-.816.742-1.509.112-.194.03-.5-.052-.805-.082-.306-.011-.652-.093-.958-.123-.459-.093-.958-.327-1.223-.082-.306-.164-.611-.358-.723-.276-.418-.51-.682-.898-.906.153-.041-.388-.224-.999-.06zm.049-1.651c.652-.011 1.305-.022 1.845.161.541.182 1.122.518 1.398.936.275.417.551.835.868 1.405l.532 1.987c.011.652.175 1.264.145 1.763-.03.5-.06.999-.284 1.387-.295.734-.671 1.162-1.354 1.673-.57.316-1.293.674-1.945.685-.806.052-1.458.063-1.998-.12a4.814 4.814 0 01-1.551-.895c-.193-.112-.275-.418-.51-.682-.082-.306-.317-.571-.399-.876l-.327-1.223c-.123-.459-.134-1.111-.339-1.875-.093-.958-.104-1.61-.226-2.069.029-.499-.052-.805.059-.999.019-1.151.273-2.038.874-2.855.447-.775 1.241-1.479 2.229-2.071.418-.276.876-.399 1.294-.675.57-.316 1.141-.633 1.864-.99l.633 1.14c-.723.358-1.141.634-1.558.909a2.785 2.785 0 01-.876.399c-.571.317-.988.592-1.406.868-.417.276-.641.663-.906.898-.224.387-.447.775-.518 1.122-.071.346-.101.846-.09 1.498.376-.428.6-.816 1.171-1.133l1.375-.368zm6.959-1.538l.287 1.07c.182-.54.559-.969.976-1.244.418-.276.836-.552 1.294-.675.764-.204 1.264-.174 1.763-.144a3.68 3.68 0 011.357.783c.428.376.704.794 1.021 1.364.316.571.48 1.182.644 1.793.164.612.327 1.223.338 1.875.011.653.022 1.305-.16 1.845-.183.541-.366 1.081-.743 1.51-.376.428-.947.745-1.711.95-.458.123-.917.245-1.416.215-.5-.029-.887-.253-1.275-.477l1.422 4.697-1.681.45-3.95-13.52 1.834-.492zm1.504 5.003c.082.306.205.764.481 1.182.122.458.357.723.592.988s.622.488.816.6a2.98 2.98 0 001.305-.022 2.974 2.974 0 001.14-.633c.265-.235.336-.581.407-.928.071-.347.101-.846.019-1.152l-.328-1.222c-.082-.306-.204-.765-.48-1.182-.123-.459-.358-.723-.592-.988-.235-.265-.47-.53-.817-.601-.346-.07-.846-.1-1.304.022-.459.123-.876.399-1.141.634-.224.387-.336.581-.366 1.081-.07.346-.1.846-.019 1.151l.287 1.07zm9.754-8.838c.458-.123 1.029-.44 1.528-.41.459-.122.958-.092 1.458-.062.499.029.887.253 1.162.671.388.224.705.794.868 1.405l2.719 6.479-1.487.563-.358-.723a1.617 1.617 0 01-.712 1.009c-.377.429-.947.746-1.558.909-1.029.44-1.987.533-2.721.238-.735-.295-1.357-.783-1.755-1.659l-.287-1.07c.071-.347.101-.846.213-1.04.071-.347.294-.734.712-1.01.265-.235.682-.51 1.253-.827l2.934-1.277-.44-1.029c-.123-.459-.551-.835-.898-.906-.499-.03-.999-.06-1.722.297-.571.317-1.029.44-1.253.827a1.908 1.908 0 00-.559.969l-1.469-.589c.183-.541.56-.969.936-1.398.295-.734.865-1.05 1.436-1.367zm.59 7.705c.123.458.51.682.898.906.347.071.999.06 1.722-.298.306-.082.571-.317.876-.399.265-.234.571-.316.642-.663.111-.194.223-.387.294-.734.071-.347-.011-.652-.093-.958l-.439-1.029-2.516 1.002c-.571.317-.988.592-1.212.98-.265.235-.295.734-.172 1.193zm8.274-10.08l1.584 2.852c.398.876.797 1.752.961 2.363.163.612.174 1.264.144 1.763-.03.5-.253.887-.477 1.275-.224.387-.642.663-1.018 1.092l-1.092-1.018c.265-.235.489-.623.6-.816a.87.87 0 00.254-.887c.071-.347-.052-.806-.175-1.264-.122-.459-.48-1.182-.838-1.905l-2.216-3.993 6.162-3.289 4.832 8.861-1.599.757-4.005-7.609-3.117 1.818zm11.395-.269l-.003-2.456-.109-6.523 1.099-.786 5.932 8.075-1.365 1.021-4.165-5.764-.112.194.115 2.263.221 6.329-1.364 1.021-5.972-8.229 1.405-.868 4.359 5.876-.041-.153zm12.519-6.467l-10.407-9.497 5.843-6.316 1.285 1.13-4.56 4.99 3.276 3.054 2.259-2.572c.53-.469 1.059-.939 1.477-1.214.57-.317 1.028-.44 1.487-.563.499.03.999.06 1.539.243.541.183.928.407 1.357.783.469.53.939 1.059 1.062 1.518.163.611.286 1.07.256 1.569-.03.499-.212 1.04-.395 1.58-.183.541-.56.969-.936 1.398l-3.543 3.897zm2.426-8.676a1.237 1.237 0 00-.775-.448c-.347-.071-.541-.182-.846-.101l-.917.246c-.306.082-.683.511-.947.745l-2.26 2.572 3.469 3.165 2.26-2.571c.488-.622.824-1.204.966-1.897-.123-.458-.328-1.223-.95-1.711zm4.734-3.726l-.808-2.404-2.29-6.103.671-1.163 8.426 5.769-.936 1.398-6.019-4.121.041.153.92 2.211 2.209 5.796-.936 1.398-8.232-5.657.936-1.398 6.018 4.121zm1.951-14.119l7.629 4.017-.895 1.55-7.517-4.21-1.526 2.866-1.315-.631 3.834-7.088 1.315.63-1.525 2.866zm1.318-6.086l1.081.365c-.317-.57-.44-1.028-.41-1.528.03-.499.06-.999.284-1.386.294-.735.671-1.163 1.089-1.439.417-.276.988-.592 1.487-.562.499.03 1.152.019 1.692.202.541.182 1.234.324 1.774.507.582.336 1.122.519 1.703.854.582.336 1.01.712 1.327 1.283.276.417.592.988.603 1.64.164.611.022 1.305-.313 1.886-.224.388-.448.775-.825 1.204-.264.235-.682.51-1.14.633l4.446 1.921-.742 1.509-12.951-5.539.895-1.55zm4.64 2.033c.346.071.734.294 1.08.365.347.071.847.101 1.193.172.347.071.805-.052 1.07-.286.265-.235.529-.47.712-1.01.183-.541.254-.887.131-1.346-.082-.306-.205-.764-.439-1.029-.235-.265-.47-.529-.857-.753-.388-.224-.776-.448-1.122-.518-.388-.224-.734-.295-1.081-.366-.347-.071-.693-.142-1.193-.172a1.352 1.352 0 00-1.07.287 3.652 3.652 0 00-.865 1.051c-.182.54-.253.887-.131 1.345.082.306.205.764.44 1.029.235.265.622.488.857.753.693.142 1.04.213 1.275.478zm6.023-9.313l-1.643-1.853-4.113-4.959.283-1.386 9.717 2.638-.396 1.58-6.902-1.918.041.153 1.449 1.741 4.113 4.959-.436 1.427-9.676-2.485.355-1.733 7.096 2.03.112-.194zm4.882-8.68l-9.929-1.598.202-1.692 4.271.657.355-1.733c-.041-.153.071-.347.03-.5l-.164-.611c-.041-.153-.276-.417-.317-.57-.194-.112-.428-.377-.775-.448l-2.672-1.413.202-1.693 2.672 1.414 1.163.671c.234.265.51.683.439 1.029.224-.387.448-.775.906-.898l1.376-.368 3.332-.402-.202 1.692-2.874.279c-.611.164-1.069.287-1.334.521a1.622 1.622 0 00-.519 1.122l-.313 1.886 4.271.657-.12 1.998zm.273-17.928c.429.376.745.947 1.062 1.517.317.57.327 1.223.338 1.875.011.652-.171 1.193-.354 1.733-.183.541-.56.969-.936 1.398-.377.428-.947.745-1.559.909-.611.163-1.375.368-2.374.308-.999-.06-1.692-.202-2.385-.343-.735-.295-1.163-.672-1.592-1.048a3.06 3.06 0 01-.868-1.406c-.164-.611-.286-1.07-.297-1.722-.011-.652.131-1.346.507-1.774.336-.581.56-.969 1.089-1.438l1.286 1.129c-.265.235-.489.623-.713 1.01-.223.388-.294.734-.324 1.234-.06.999.297 1.722.92 2.211.622.488 1.509.742 2.661.761 1.151.019 2.068-.227 2.751-.737.529-.47.977-1.245.884-2.203.03-.499-.052-.805-.328-1.223a7.687 7.687 0 00-.745-.947l.977-1.244zm1.053-5.852l-1.57.257-7.598-4.517c-.775-.447-1.469-.589-2.121-.578-.458.123-1.07.287-1.294.674-.376.429-.559.969-.354 1.733.164.612.286 1.07.868 1.406.428.376.969.559 1.621.548l-.008 1.804c-.499-.03-.999-.06-1.539-.242-.541-.183-.928-.407-1.204-.825-.388-.223-.663-.641-.786-1.099a2.195 2.195 0 01-.369-1.376c-.123-.458-.134-1.111.09-1.498.03-.5.254-.887.478-1.275.223-.388.641-.663 1.059-.939.417-.276.876-.398 1.487-.562.459-.123.805-.052 1.346.131.54.182 1.039.212 1.468.589l6.824 4.069-.752-5.86 1.57-.257.784 7.817zm-5.361-17.565l1.987-.533.45 1.682-2.181.42 1.445 6.002-1.529.409-11.285-2.381-.298-1.723 11.245 2.229-1.106-4.126-4.015.912-.409-1.529 4.126-1.106-.286-1.07 1.528-.409.328 1.223zM45.93 105.8l-8.542-1.315-.728 4.618 8.542 1.315-.201 1.692-9.93-1.599 1.326-7.89 9.93 1.598-.396 1.581zm-7.261-11.815a3.105 3.105 0 011.007-1.744c.53-.47.947-.745 1.558-.909.459-.123.958-.093 1.457-.063.5.03 1.04.213 1.734.355.887.254 1.468.59 2.008.772.582.336.97.56 1.245.977.47.53.786 1.1.838 1.905.164.611.063 1.457-.232 2.192a3.105 3.105 0 01-1.007 1.744c-.376.428-.947.745-1.558.909-.459.123-.958.093-1.61.104-.653.011-1.193-.172-2.08-.426-.54-.183-1.08-.366-1.469-.59-.387-.223-.775-.447-1.203-.823-.623-.489-.98-1.212-1.185-1.976.101-.847.202-1.693.497-2.427zm1.427.437c-.183.54-.254.887-.13 1.345.122.459.398.876.785 1.1.235.265.623.489.817.6.346.072.734.295 1.121.519.388.224.887.254 1.234.325.347.07.693.142.999.06.458-.123.917-.246 1.182-.48.417-.276.64-.664.67-1.163.184-.54.214-1.04.09-1.499-.122-.458-.398-.876-1.02-1.364l-.775-.448c-.347-.07-.734-.295-1.275-.478l-1.04-.212c-.111.194-.305.082-.611.163-.5-.03-.917.246-1.335.522-.264.235-.488.622-.712 1.01zm13.629-15.774c.388.224.623.489.858.753.234.265.357.724.439 1.03.082.305.052.804-.019 1.151s-.101.846-.325 1.234l-2.308 4.222-8.833-4.841 2.085-3.835c.183-.54.56-.969.824-1.203.265-.235.683-.51.988-.593.306-.082.764-.205 1.111-.134.347.071.693.142 1.08.366.388.224.623.489.858.753.276.418.399.876.216 1.417.376-.429.947-.746 1.446-.716a3.059 3.059 0 011.58.396zm-8.089 2.823l2.478 1.301 1.231-2.131c.336-.582.519-1.122.396-1.58-.123-.459-.358-.724-.705-.795-.387-.223-.693-.142-1.151-.019-.459.123-.683.51-1.018 1.092l-1.231 2.132zm3.641 1.973l2.672 1.413 1.302-2.478c.336-.581.366-1.08.243-1.54-.123-.458-.358-.722-.746-.946-.387-.224-.734-.295-1.151-.02-.459.124-.836.552-1.018 1.093l-1.302 2.478zM61.23 73.033c-.183.54-.366 1.081-.854 1.704-.377.428-.753.857-1.324 1.173-.417.276-.988.593-1.64.603-.611.164-1.305.022-1.845-.16-.693-.142-1.468-.59-2.09-1.078-.817-.6-1.286-1.13-1.603-1.7-.317-.57-.633-1.141-.644-1.794-.011-.652.019-1.151.202-1.692.182-.54.365-1.08.742-1.51.336-.58.906-.897 1.476-1.214.57-.316 1.03-.44 1.64-.603l.257 1.57-1.222.327c-.418.276-.683.51-.948.745-.6.816-.742 1.51-.69 2.315.205.764.715 1.446 1.725 2.158 1.01.713 1.744 1.007 2.55.955.805-.052 1.487-.562 1.975-1.184.224-.388.448-.775.519-1.122.03-.5.1-.846.019-1.152l1.61-.104c.164.612.134 1.111.145 1.763zm.42-6.993c.428.377.663.642 1.05.866.388.224.735.295 1.081.366.347.07.653-.011.958-.093.306-.082.724-.358.988-.593.265-.234.489-.622.56-.969.223-.387.253-.887.283-1.386l1.652.049c.01.652-.172 1.193-.508 1.774-.335.581-.712 1.01-1.089 1.438-.376.429-.794.705-1.212.98a2.696 2.696 0 01-1.528.41 7.389 7.389 0 01-1.733-.355c-.581-.335-1.357-.783-2.06-1.577-.664-.642-1.174-1.324-1.532-2.047a3.855 3.855 0 01-.491-1.834c.03-.5.212-1.04.395-1.58.183-.54.56-.97.824-1.204a2.673 2.673 0 011.406-.868c.458-.123 1.07-.287 1.57-.257.499.03 1.039.213 1.58.396.54.183.968.56 1.59 1.048l.899.906-4.683 4.53zm-1.229-4.584c-.53.47-.712 1.01-.701 1.662.01.652.327 1.223.99 1.864l3.36-3.357c-.663-.642-1.397-.936-1.897-.966-.805.052-1.263.174-1.752.797zm17.823-3.793l-3.849-5.193.205.764.205.764.647 4.25-1.1.786-4.181-2.156-1.163-.671 3.849 5.193-1.365 1.021-5.931-8.075 1.212-.98 4.763 2.491c.387.224.734.295 1.121.519.388.223.734.294 1.122.518l-.328-1.223-.327-1.222-.934-5.32 1.212-.98 5.931 8.076-1.089 1.438zm8.059-2.323c.123.458.052.805-.02 1.152-.07.346-.182.54-.253.887-.112.194-.377.428-.489.622-.264.235-.417.276-.682.51l-.764.205-.674-1.293.723-.358c.306-.082.417-.276.488-.622.112-.194.183-.54.06-1l-.297-1.721-7.949-7.044 1.559-.909 3.51 3.319 2.418 2.3-.554-3.291-.465-4.79 1.406-.868 1.983 12.9zm16.052-8.56l-1.832-6.226c-.071.347-.03.5-.142.693-.112.194-.03.5-.142.694l-.85 4.16-1.376.368-2.97-3.136-.898-.906 1.832 6.225-1.681.45-2.927-9.699 1.528-.41 3.674 3.93c.235.265.51.683.746.947.234.265.47.53.745.948.07-.347.142-.694.172-1.193.03-.5.1-.846.171-1.193l.87-5.311 1.529-.41 2.927 9.7-1.376.368zm6.305-3.983l1.037-2.244 3.051-5.731 1.416-.216 1.358 9.956-1.722.298-.926-7.123-.153.04-1.078 2.091-2.898 5.691-1.569.257-1.358-9.957 1.57-.256 1.272 7.194zm11.987-8.454l-.019 1.152c.376-.428.794-.704 1.364-1.02.459-.124.917-.247 1.417-.217.652-.01 1.345.131 1.774.508.429.377.857.753 1.133 1.17.275.418.439 1.03.603 1.64.164.612.175 1.265.145 1.764.011.652-.131 1.346-.161 1.845-.142.693-.325 1.234-.701 1.662-.377.429-.754.857-1.171 1.133-.57.317-1.182.48-2.028.38-.499-.03-.999-.06-1.386-.284-.388-.224-.776-.448-1.01-.712l.006 4.912-1.652-.049.147-14.127 1.539.243zm-.147 4.954c-.071.347.052.805-.019 1.152l.287 1.07c.081.305.316.57.704.794.235.264.734.294 1.233.324.5.03.958-.093 1.223-.327.265-.235.53-.47.753-.857.224-.388.295-.735.366-1.081.071-.347.101-.846.172-1.193.071-.346-.052-.805-.022-1.304-.123-.459-.052-.806-.287-1.07-.082-.306-.316-.57-.704-.794-.235-.265-.734-.295-1.234-.325-.499-.03-.958.093-1.222.328-.265.234-.53.469-.754.857-.223.387-.294.734-.365 1.08-.071.347-.06 1-.131 1.346zm12.496 8.119c-.224.387-.489.622-.753.857-.265.234-.377.428-.683.51l-.764.205c-.306.082-.499-.03-.846-.101l-.846-.101.284-1.386.846.1c.346.071.499.03.764-.204.306-.082.377-.429.6-.816l.895-1.55-2.132-10.405 1.886.314.811 4.86.554 3.292 1.526-2.865 2.308-4.223 1.733.355-6.183 11.158z"/></g><defs><clipPath id="clip0_497_3803"><path fill="#fff" transform="rotate(-15 196.593 25.882)" d="M0 0h200v200H0z"/></clipPath></defs></svg>