<svg width="167" height="110" fill="none" xmlns="http://www.w3.org/2000/svg"><path d="M162.22 110H4.78C2.124 110 0 107.522 0 104.53V5.47C0 2.43 2.124 0 4.78 0h157.44c2.615 0 4.78 2.43 4.78 5.47v99.06c0 2.992-2.124 5.47-4.78 5.47z" fill="#ECC500"/><path d="M167 75v29.481c0 3.019-2.124 5.519-4.78 5.519H4.78C2.124 110 0 107.5 0 104.481V75h167z" fill="#D9B400"/><path d="M60.341 23.284c.246.287.368.614.368 1.023 0 .41-.163.777-.45 1.064-.286.286-.695.532-1.186.695a5.016 5.016 0 01-1.596.246 6.42 6.42 0 01-1.514-.205 5.246 5.246 0 01-1.39-.572l.45-.942c.327.205.695.369 1.104.45.41.123.818.164 1.186.164.573 0 1.023-.082 1.432-.286.369-.205.573-.491.573-.819a.76.76 0 00-.409-.695c-.286-.164-.654-.205-1.145-.205h-1.76v-.982h1.637c.409 0 .736-.081.982-.245.245-.164.368-.368.368-.655 0-.327-.164-.572-.491-.736-.327-.164-.736-.246-1.227-.246-.328 0-.696.041-1.064.123a4.35 4.35 0 00-1.023.368l-.45-1.023a4.85 4.85 0 011.227-.409 7.17 7.17 0 011.31-.122 4.78 4.78 0 011.554.245c.491.164.86.368 1.146.655.286.286.409.613.409 1.023 0 .327-.082.654-.286.9-.205.245-.491.45-.819.573.45.122.819.327 1.064.613zm3.396 2.578a3.702 3.702 0 01-1.473-1.269c-.368-.531-.532-1.145-.532-1.8 0-.654.164-1.268.532-1.8s.819-.982 1.473-1.268a4.883 4.883 0 012.087-.45 4.87 4.87 0 012.086.45 3.703 3.703 0 011.473 1.268c.368.532.532 1.146.532 1.8 0 .655-.164 1.269-.532 1.8a3.744 3.744 0 01-1.473 1.269 4.885 4.885 0 01-2.086.45c-.778 0-1.473-.123-2.087-.45zm3.437-.982c.41-.205.736-.491.941-.86.246-.368.327-.777.327-1.227a2.5 2.5 0 00-.327-1.227c-.245-.368-.532-.655-.941-.86a2.991 2.991 0 00-1.35-.327c-.491 0-.941.123-1.35.328-.41.204-.737.49-.941.859-.246.368-.328.777-.328 1.227 0 .45.123.86.328 1.228.245.368.531.654.94.859.41.204.86.327 1.35.327.492 0 .942-.082 1.351-.327zm10.515-5.524v6.874h-1.391v-5.81H73.31l-.082 1.718c-.04.982-.123 1.76-.245 2.333-.123.613-.369 1.063-.655 1.35-.286.286-.737.45-1.268.45-.205 0-.45-.041-.778-.082l.082-1.105c.082.041.205.041.327.041.45 0 .737-.245.941-.695.205-.45.287-1.228.328-2.25l.122-2.865h5.606v.041zm3.519 6.506a3.702 3.702 0 01-1.473-1.269c-.368-.531-.532-1.145-.532-1.8 0-.654.164-1.268.532-1.8s.818-.982 1.473-1.268a5.021 5.021 0 012.087-.45c.777 0 1.472.163 2.086.45a3.703 3.703 0 011.473 1.268c.368.532.532 1.146.532 1.8 0 .655-.164 1.269-.532 1.8a3.744 3.744 0 01-1.473 1.269c-.654.327-1.31.45-2.087.45-.777 0-1.472-.123-2.086-.45zm3.437-.982c.409-.205.736-.491.94-.86.246-.368.328-.777.328-1.227a2.5 2.5 0 00-.327-1.227c-.205-.368-.532-.655-.941-.86a2.991 2.991 0 00-1.35-.327 2.99 2.99 0 00-1.35.328c-.41.204-.737.49-.942.859a2.5 2.5 0 00-.327 1.227c0 .45.123.86.327 1.228.246.368.532.654.941.859.41.204.86.327 1.35.327.492 0 .982-.082 1.35-.327zm9.655-4.46h-2.495v5.81h-1.391v-5.81h-2.496v-1.064H94.3v1.064zm2.496 5.442a3.702 3.702 0 01-1.473-1.269c-.368-.531-.532-1.145-.532-1.8 0-.654.164-1.268.532-1.8s.818-.982 1.473-1.268a4.883 4.883 0 012.086-.45c.778 0 1.473.163 2.087.45a3.7 3.7 0 011.473 1.268c.368.532.532 1.146.532 1.8 0 .655-.164 1.269-.532 1.8a3.74 3.74 0 01-1.473 1.269c-.614.286-1.31.45-2.087.45-.777 0-1.473-.123-2.086-.45zm3.437-.982c.409-.205.736-.491.941-.86.245-.368.327-.777.327-1.227 0-.45-.123-.859-.327-1.227-.246-.368-.532-.655-.941-.86a2.994 2.994 0 00-1.35-.327c-.492 0-.942.123-1.35.328-.41.204-.737.49-.942.859-.245.368-.327.777-.327 1.227 0 .45.123.86.327 1.228.246.368.532.654.941.859.41.204.86.327 1.35.327.532 0 .982-.082 1.351-.327zm4.296-5.523h1.391v4.868l4.051-4.869h1.309v6.874h-1.391v-4.869l-4.05 4.869h-1.31v-6.873zm1.882-.819c-.327-.245-.491-.614-.491-1.064h.982c0 .246.082.41.246.573.163.123.409.205.736.205.328 0 .532-.082.737-.205a.717.717 0 00.286-.573h.982c0 .45-.164.819-.532 1.064-.327.246-.818.369-1.473.369-.654 0-1.145-.123-1.473-.369zM12.964 41a3.333 3.333 0 01-1.432-1.268c-.368-.532-.532-1.146-.532-1.8 0-.655.164-1.269.532-1.8a3.919 3.919 0 011.432-1.27 4.883 4.883 0 012.086-.45c.614 0 1.187.083 1.678.287.49.205.94.491 1.31.86l-.9.777a2.78 2.78 0 00-2.006-.819 3.02 3.02 0 00-1.39.328 2.49 2.49 0 00-.983.859c-.245.368-.327.777-.327 1.227 0 .45.123.9.327 1.228.246.368.532.654.941.859.41.205.86.327 1.391.327.819 0 1.473-.286 2.005-.818l.9.777a3.65 3.65 0 01-1.309.86c-.532.204-1.064.286-1.718.286-.696 0-1.391-.123-2.005-.45zm12.028-.696v1.064h-5.646v-6.873h5.523v1.063h-4.091v1.8h3.641v1.064h-3.641v1.882h4.214zm6.383-5.523c.49.205.859.491 1.104.86.246.367.369.818.369 1.309 0 .49-.123.94-.369 1.309-.245.368-.613.654-1.104.859-.491.204-1.064.286-1.719.286h-1.718v1.964h-1.391v-6.873h3.11c.695 0 1.268.082 1.718.286zm-.369 3.15c.328-.245.491-.572.491-1.023 0-.45-.163-.777-.49-1.022-.328-.246-.778-.369-1.392-.369H27.98v2.742h1.636c.614.04 1.064-.082 1.392-.328zm8.47-2.373h-2.495v5.81h-1.392v-5.81h-2.495v-1.063h6.382v1.063zm1.227-1.063h1.391v4.868l4.05-4.868h1.31v6.873h-1.391V36.5l-4.05 4.87h-1.31v-6.874zm16.448 5.564c-.695.532-1.677.818-2.945.859v.736h-1.31v-.736c-1.268-.04-2.25-.327-2.945-.86-.696-.531-1.023-1.227-1.023-2.127 0-.9.327-1.595 1.023-2.127.695-.532 1.677-.819 2.945-.86v-.695h1.31v.696c1.268.04 2.25.368 2.945.859.696.532 1.023 1.227 1.023 2.127 0 .9-.327 1.596-1.023 2.128zm-6.178-.737c.45.328 1.105.532 1.964.614v-3.969c-1.759.123-2.618.778-2.618 2.005 0 .532.204 1.023.654 1.35zm5.197 0c.45-.327.654-.818.654-1.39 0-.614-.204-1.065-.654-1.392-.45-.327-1.105-.532-1.964-.573v3.969c.859-.082 1.513-.286 1.963-.614zm3.518-4.827h1.39v4.868l4.051-4.868h1.31v6.873h-1.392V36.5l-4.05 4.87h-1.31v-6.874zm16.57 5.809v2.578h-1.31v-1.514h-6.423v-6.873h1.391v5.81h3.805v-5.81h1.391v5.81h1.146zm1.308-5.809h1.391v4.868l4.05-4.868h1.31v6.873h-1.39V36.5l-4.051 4.87h-1.31v-6.874zm13.666.286c.491.205.86.491 1.105.86.245.367.368.818.368 1.309 0 .49-.123.94-.368 1.309-.246.368-.614.654-1.105.859-.49.204-1.064.286-1.718.286h-1.719v1.964h-1.39v-6.873h3.109c.654 0 1.227.082 1.718.286zm-.368 3.15c.327-.245.49-.572.49-1.023 0-.45-.163-.777-.49-1.022-.327-.246-.778-.369-1.391-.369h-1.637v2.742h1.637c.614.04 1.064-.082 1.39-.328zM95.57 41a3.703 3.703 0 01-1.474-1.268c-.368-.532-.532-1.146-.532-1.8 0-.655.164-1.269.532-1.8.369-.533.819-.983 1.473-1.27a4.883 4.883 0 012.087-.45 4.9 4.9 0 012.086.45 3.7 3.7 0 011.473 1.27c.369.531.532 1.145.532 1.8 0 .654-.163 1.268-.532 1.8A3.742 3.742 0 0199.742 41a4.885 4.885 0 01-2.086.45c-.778 0-1.432-.123-2.087-.45zm3.477-.982c.409-.205.736-.49.94-.86.246-.367.328-.776.328-1.227 0-.45-.123-.859-.327-1.227-.246-.368-.532-.655-.941-.86a2.99 2.99 0 00-1.35-.327c-.491 0-.941.123-1.35.328-.41.204-.737.49-.941.859-.246.368-.328.777-.328 1.227 0 .45.123.86.328 1.228.245.368.531.654.94.859.41.205.86.327 1.35.327.492 0 .942-.081 1.35-.327zm10.309-1.637c.245.287.368.655.368 1.064 0 .614-.245 1.064-.736 1.391-.491.328-1.187.491-2.128.491h-3.6v-6.832h3.396c.859 0 1.513.163 2.004.45.491.286.696.736.696 1.309 0 .368-.082.654-.286.94a2.163 2.163 0 01-.819.615c.491.122.859.286 1.105.572zm-4.664-.94h1.882c.45 0 .818-.082 1.023-.246.245-.164.368-.41.368-.736 0-.328-.123-.573-.368-.737-.246-.164-.573-.245-1.023-.245h-1.882v1.963zm3.641 1.922c0-.654-.491-.982-1.473-.982h-2.168v2.005h2.168c.982 0 1.473-.327 1.473-1.023zm8.019.41h-3.764l-.736 1.595h-1.432l3.396-6.873h1.391l3.396 6.873h-1.514l-.737-1.596zm-.491-.982l-1.432-2.987-1.432 2.987h2.864zm10.556-4.296v6.873h-1.391v-2.946h-3.887v2.946h-1.391v-6.873h1.391v2.823h3.887v-2.823h1.391zm8.838 0v6.873h-1.391v-2.946h-3.887v2.946h-1.432v-6.873h1.391v2.823h3.887v-2.823h1.432zm7.692 2.864c.491.368.737.9.737 1.636 0 .778-.287 1.35-.819 1.76-.532.409-1.268.613-2.25.613h-3.232v-6.873h1.391v2.332h2.086c.901 0 1.596.163 2.087.532zm-1.105 2.7c.287-.246.45-.573.45-.982 0-.818-.572-1.227-1.718-1.227h-1.8v2.536h1.8c.532 0 .941-.123 1.268-.327zm2.905-5.564h1.391v6.873h-1.391v-6.873zm3.519 0h1.391v4.868l4.05-4.868h1.309v6.873h-1.391v-4.869l-4.05 4.869h-1.309v-6.873zm1.923-.819c-.328-.245-.491-.614-.491-1.064h.982c0 .246.081.41.245.573.164.123.409.205.736.205.328 0 .532-.082.737-.205a.714.714 0 00.286-.573h.982c0 .45-.163.819-.532 1.064-.327.246-.818.368-1.473.368-.654 0-1.145-.122-1.472-.368zM63.493 49.633v6.873h-1.391v-5.81h-3.928v5.81h-1.39v-6.873h6.71zm7.119 5.277h-3.764l-.736 1.596H64.68l3.395-6.873h1.392l3.395 6.873H71.39l-.778-1.596zm-.45-.981l-1.432-2.987-1.432 2.986h2.864zm8.633-4.01c.49.205.859.49 1.104.86.246.367.368.817.368 1.308 0 .491-.122.941-.368 1.31-.245.368-.613.654-1.104.859-.491.204-1.064.286-1.719.286h-1.718v1.964h-1.391v-6.873h3.11c.654 0 1.227.081 1.718.286zm-.369 3.15c.328-.245.491-.573.491-1.023 0-.45-.163-.777-.49-1.022-.328-.246-.778-.369-1.392-.369H75.4v2.742h1.636c.614.04 1.064-.082 1.391-.328zm8.468-2.373h-2.496v5.81h-1.39v-5.81h-2.496v-1.063h6.382v1.063zm7.939-1.063v6.873h-1.391V53.56h-3.887v2.946h-1.39v-6.873h1.39v2.823h3.887v-2.823h1.391zm7.772 5.809v1.064h-5.646v-6.873h5.523v1.063h-4.091v1.8h3.641v1.064h-3.641v1.882h4.214zm6.383-5.523c.491.205.859.49 1.105.86.245.367.368.817.368 1.308 0 .491-.123.941-.368 1.31-.246.368-.614.654-1.105.859-.491.204-1.064.286-1.718.286h-1.719v1.964h-1.391v-6.873h3.11c.654 0 1.227.081 1.718.286zm-.409 3.15c.327-.245.491-.573.491-1.023 0-.45-.164-.777-.491-1.022-.327-.246-.778-.369-1.391-.369h-1.637v2.742h1.637c.613.04 1.104-.082 1.391-.328zM62.697 88.07h6.874v1.432h-4.91v1.595h2.373c1.023 0 1.8.205 2.332.573.532.41.819.941.819 1.678 0 .777-.287 1.39-.9 1.8-.614.409-1.433.654-2.537.654h-4.05V88.07zm3.928 6.382c.49 0 .9-.081 1.146-.286.286-.164.409-.45.409-.777 0-.696-.532-1.023-1.555-1.023h-1.964v2.086h1.964zm4.869-4.622h1.882v3.518l3.191-3.519h1.719v5.933h-1.882v-3.519l-3.15 3.519h-1.76v-5.933zm14.116 1.431H83.4v4.541h-1.882v-4.54h-2.21v-1.433h6.301v1.432zm6.503-1.145c.491.245.9.613 1.187 1.063.286.45.409.982.409 1.596 0 .614-.123 1.146-.41 1.596-.286.45-.654.818-1.186 1.063a3.69 3.69 0 01-1.636.369c-.819 0-1.473-.246-1.964-.737v2.782H86.63v-8.1h1.8v.695c.45-.532 1.146-.778 2.046-.778.614.082 1.145.205 1.636.45zm-.777 3.886c.327-.286.45-.695.45-1.186s-.164-.9-.45-1.187a1.707 1.707 0 00-1.187-.45c-.49 0-.9.164-1.186.45-.327.287-.45.696-.45 1.187 0 .49.163.9.45 1.186.327.287.696.45 1.186.45.491 0 .86-.163 1.187-.45zm3.724-4.172h1.883v3.518l3.191-3.519h1.718v5.933H99.97v-3.519l-3.15 3.519h-1.76v-5.933zm11.497 3.681h-.982v2.25h-1.882V89.83h1.882v2.291h1.023l1.76-2.29h2.004l-2.291 2.863 2.455 3.11h-2.25l-1.719-2.292zm5.933 1.964a2.889 2.889 0 01-1.309-1.104c-.328-.45-.451-.982-.451-1.596 0-.573.164-1.105.451-1.596.327-.45.736-.818 1.309-1.104.573-.246 1.186-.41 1.882-.41.695 0 1.268.123 1.8.41.532.245.9.654 1.105 1.104l-1.473.737c-.328-.532-.819-.819-1.473-.819-.491 0-.9.164-1.228.45-.327.287-.49.696-.49 1.187 0 .491.163.9.49 1.187.328.286.737.45 1.228.45.654 0 1.145-.287 1.473-.819l1.473.737c-.246.49-.614.859-1.105 1.105a4.168 4.168 0 01-1.8.409c-.696.081-1.35-.082-1.882-.328zm11.823-1.145v1.473h-6.423v-1.187l3.273-2.823c.368-.286.573-.573.695-.777.123-.205.164-.45.164-.655a.82.82 0 00-.327-.696c-.246-.163-.573-.245-1.023-.245a2.85 2.85 0 00-1.023.205 2 2 0 00-.737.572l-1.432-.859a3.1 3.1 0 011.392-1.063 5.294 5.294 0 012.004-.369c.614 0 1.187.082 1.637.287.45.204.859.45 1.105.777.245.327.409.737.409 1.227 0 .41-.082.819-.287 1.187-.204.368-.573.777-1.145 1.268l-1.964 1.678h3.682zm8.47-.164h-1.391v1.636h-1.923v-1.636h-4.582V92.98l4.009-4.91h2.046l-3.723 4.664h2.291v-1.432h1.841v1.432h1.391v1.432h.041zm-78.187-2.741c1.145-6.996-7.651-8.756-10.106-3.478-3.11-1.718-6.546.532-6.71 3.396-4.95-.082-5.073 7.365-.163 7.365h16.079c4.418.163 5.114-6.015.9-7.283z" fill="#fff"/></svg>