<svg width="159" height="45" fill="none" xmlns="http://www.w3.org/2000/svg"><path d="M154.449 45H4.551C2.06 45 0 42.997 0 40.492V4.508C0 2.003 2.022 0 4.55 0h149.9c2.489 0 4.55 2.003 4.55 4.508v35.984c0 2.505-2.023 4.508-4.551 4.508z" fill="#097DCD"/><path d="M20.65 11.79c-.809 0-1.657.076-2.389.269v10.865a2.442 2.442 0 002.428 2.427 2.442 2.442 0 002.427-2.427c0-1.272-1.002-2.35-2.235-2.428V18.57c2.312.077 4.161 2.003 4.161 4.354a4.35 4.35 0 01-4.353 4.353c-2.39 0-4.354-1.965-4.354-4.354V12.676c-.27.154-.54.231-.81.385v9.902c0 2.851 2.312 5.201 5.125 5.201s5.163-2.35 5.163-5.201a5.19 5.19 0 00-5.009-5.201v-1.927c3.814.078 6.935 3.275 6.935 7.128 0 3.891-3.16 7.128-7.089 7.128-3.93 0-7.089-3.198-7.089-7.128V14.37c-2.466 2.08-4.045 5.124-4.045 8.592 0 6.164 4.97 11.173 11.095 11.173 6.126 0 11.096-5.009 11.096-11.173S26.814 11.789 20.65 11.789zm28.01 6.626h-1.31v2.736h-1.309v-6.473h1.31v2.697h1.348l2.042-2.697h1.387l-2.427 3.12 2.504 3.353h-1.502l-2.042-2.736zm5.78 2.389a3.486 3.486 0 01-1.386-1.195c-.347-.5-.501-1.078-.501-1.695 0-.616.154-1.194.5-1.695.347-.5.771-.925 1.388-1.194a4.598 4.598 0 011.965-.424 4.59 4.59 0 011.964.424c.578.27 1.04.693 1.387 1.194.347.5.501 1.079.501 1.695 0 .617-.154 1.195-.5 1.695a3.525 3.525 0 01-1.388 1.195 4.598 4.598 0 01-1.964.424c-.694 0-1.349-.116-1.965-.424zm3.275-.925c.386-.192.694-.462.886-.809.232-.347.309-.732.309-1.156 0-.424-.116-.809-.308-1.155-.232-.347-.501-.617-.887-.81a2.816 2.816 0 00-1.271-.308c-.462 0-.886.116-1.271.308-.386.193-.694.463-.887.81-.23.346-.308.731-.308 1.155 0 .424.116.81.308 1.156.232.347.501.616.887.81.385.192.809.307 1.271.307a2.81 2.81 0 001.271-.308zm8.515-4.931c.462.192.809.462 1.04.809.231.347.347.77.347 1.233 0 .462-.116.886-.347 1.233-.231.346-.578.616-1.04.809-.463.192-1.002.27-1.618.27h-1.618v1.849h-1.31v-6.473h2.928c.655 0 1.194.077 1.618.27zm-.347 2.966c.308-.23.462-.54.462-.963 0-.424-.154-.732-.462-.963-.308-.231-.732-.347-1.31-.347h-1.54v2.582h1.54c.578.038 1.002-.078 1.31-.309zm4.47 2.89a3.486 3.486 0 01-1.387-1.195c-.347-.5-.501-1.078-.501-1.695 0-.616.154-1.194.5-1.695.347-.5.771-.925 1.388-1.194a4.598 4.598 0 011.965-.424c.732 0 1.387.154 1.965.424.577.27 1.04.693 1.386 1.194.347.5.501 1.079.501 1.695 0 .617-.154 1.195-.5 1.695a3.525 3.525 0 01-1.388 1.195 4.598 4.598 0 01-1.964.424c-.732 0-1.387-.116-1.965-.424zm3.236-.925c.385-.192.694-.462.886-.809.231-.347.308-.732.308-1.156 0-.424-.115-.809-.308-1.155-.231-.347-.5-.617-.886-.81a2.816 2.816 0 00-1.271-.308c-.463 0-.886.116-1.272.308-.385.193-.693.463-.886.81-.231.346-.308.731-.308 1.155 0 .424.115.81.308 1.156.231.347.5.616.886.81.385.192.81.307 1.272.307a2.81 2.81 0 001.271-.308zm4.007-5.201h5.548v1.002h-4.238v1.58h2.119c.847 0 1.502.153 1.965.5.462.308.654.81.654 1.387 0 .655-.23 1.117-.732 1.503-.5.346-1.194.54-2.08.54h-3.198v-6.512h-.038zm3.159 5.548c.5 0 .886-.077 1.156-.27.27-.192.385-.424.385-.77 0-.655-.5-1.002-1.541-1.002h-1.81v2.042h1.81zm5.662.578a3.486 3.486 0 01-1.387-1.195c-.347-.5-.5-1.078-.5-1.695 0-.616.153-1.194.5-1.695.347-.5.77-.925 1.387-1.194a4.599 4.599 0 011.965-.424c.732 0 1.387.154 1.965.424.578.27 1.04.693 1.387 1.194.347.5.5 1.079.5 1.695 0 .617-.153 1.195-.5 1.695-.347.501-.77.887-1.387 1.195a4.598 4.598 0 01-1.965.424c-.732 0-1.387-.116-1.965-.424zm3.236-.925c.386-.192.694-.462.887-.809.23-.347.308-.732.308-1.156 0-.424-.116-.809-.308-1.155-.232-.347-.501-.617-.887-.81a2.816 2.816 0 00-1.271-.308c-.462 0-.886.116-1.271.308-.386.193-.694.463-.886.81-.232.346-.309.731-.309 1.155 0 .424.116.81.309 1.156.23.347.5.616.886.81.385.192.809.307 1.271.307a2.81 2.81 0 001.271-.308zm9.402-5.201v6.472h-1.31v-2.427a5.824 5.824 0 01-1.927.347c-.924 0-1.618-.193-2.08-.578-.501-.385-.732-.963-.732-1.734v-2.08h1.31v1.926c0 .463.154.81.424 1.04.308.232.693.347 1.233.347.616 0 1.194-.115 1.733-.347V14.64h1.349v.039zm8.321 0v6.473h-1.31v-2.774h-3.66v2.774h-1.31v-6.473h1.31v2.658h3.66V14.68h1.31zm6.705 4.97h-3.545l-.693 1.503h-1.349l3.198-6.473h1.31l3.198 6.473h-1.387l-.732-1.503zm-.463-.963l-1.348-2.813-1.349 2.813h2.697zm8.708-4.007v6.473h-1.31V19.34h-1.927l-1.309 1.81h-1.387l1.541-2.003c-.501-.154-.886-.424-1.156-.809-.27-.347-.385-.809-.385-1.31 0-.5.115-.924.346-1.271.231-.347.578-.617 1.041-.81.462-.192.963-.269 1.579-.269h2.967zm-4.161 1.348c-.27.232-.424.578-.424 1.002 0 .424.154.77.424 1.002.27.231.693.347 1.194.347h1.657v-2.659h-1.618c-.54-.038-.925.077-1.233.308zm-66.383 13.87c.23.27.346.617.346 1.002 0 .578-.23 1.002-.693 1.31-.463.308-1.117.462-2.004.462h-3.39v-6.434h3.198c.809 0 1.425.154 1.888.424.462.308.655.694.655 1.233 0 .347-.077.616-.27.886a2.028 2.028 0 01-.77.578c.423.077.77.27 1.04.54zm-4.431-.886h1.772c.424 0 .77-.077.963-.231.232-.154.347-.385.347-.694 0-.308-.115-.539-.347-.693-.23-.154-.539-.231-.963-.231h-1.772v1.85zm3.429 1.81c0-.616-.462-.924-1.387-.924H47.35v1.888h2.042c.925 0 1.387-.308 1.387-.963zm8.168.887v1.002H53.63v-6.473h5.201v1.002H54.98v1.695h3.43v1.002h-3.43v1.772h3.969zm6.01-5.201c.463.192.81.462 1.04.809.232.347.347.77.347 1.233 0 .462-.115.886-.346 1.233-.232.346-.578.616-1.04.809-.463.192-1.002.27-1.619.27h-1.618v1.849h-1.31v-6.473h2.928c.617 0 1.156.077 1.618.27zm-.346 2.966c.308-.23.462-.539.462-.963 0-.424-.154-.732-.462-.963-.309-.231-.732-.347-1.31-.347H61.76v2.582h1.54c.579.038 1.002-.078 1.31-.309zm4.468 2.89a3.139 3.139 0 01-1.349-1.194c-.346-.501-.5-1.079-.5-1.695 0-.617.154-1.195.5-1.696.347-.5.77-.886 1.349-1.194a4.598 4.598 0 011.965-.424c.578 0 1.117.077 1.58.27.462.192.885.462 1.232.809l-.847.732a2.622 2.622 0 00-1.888-.77c-.501 0-.925.115-1.31.308-.385.192-.694.462-.886.809-.231.346-.308.732-.308 1.155 0 .424.115.848.308 1.156.23.347.5.617.886.81.385.192.809.308 1.31.308.77 0 1.387-.27 1.888-.77l.847.731a3.437 3.437 0 01-1.233.81c-.5.192-1.001.269-1.618.269-.732 0-1.348-.116-1.926-.424zm6.011-6.126h1.31v4.585l3.814-4.585h1.233v6.473h-1.31v-4.585l-3.852 4.585h-1.233v-6.473h.038zm13.754 0v6.473h-1.31v-1.811H85.61l-1.31 1.81h-1.387l1.541-2.003c-.5-.154-.886-.424-1.156-.809-.27-.347-.385-.809-.385-1.31 0-.5.116-.924.347-1.271.231-.347.578-.617 1.04-.81.462-.192.963-.269 1.58-.269h2.966zm-4.16 1.349c-.27.23-.424.577-.424 1.001 0 .424.154.77.423 1.002.27.231.694.347 1.195.347h1.656v-2.659h-1.618c-.54-.038-.924.077-1.233.308z" fill="#fff"/></svg>