<svg width="159" height="45" fill="none" xmlns="http://www.w3.org/2000/svg"><path d="M154.449 45H4.551C2.06 45 0 42.997 0 40.492V4.508C0 2.003 2.022 0 4.55 0h149.9c2.489 0 4.55 2.003 4.55 4.508v35.984c0 2.505-2.023 4.508-4.551 4.508z" fill="#540FB7"/><path d="M34.828 21.999c1.464-8.9-9.786-11.173-12.868-4.43-3.968-2.197-8.322.693-8.514 4.314-6.319-.077-6.434 9.401-.193 9.401H33.75c5.548.154 6.395-7.667 1.078-9.285zm-11.75 7.32h-6.55c.385-4.7 4.623-4.854 4.623-6.82 0-.885-.693-1.194-1.425-1.194-.963 0-1.734.309-2.39.655l-.461-1.348a7.03 7.03 0 013.12-.732c2.042 0 3.005 1.002 3.005 2.427 0 2.659-3.621 3.198-4.199 5.548h4.277v1.464zm7.397-2.311h-1.387v2.311H27.43v-2.311h-4.12v-1.156l4.623-5.972h1.194v5.74h1.387v1.387h-.038z" fill="#fff"/><path d="M26.275 25.62h1.117v-1.348c0-.732.077-1.58.077-1.85l-2.35 3.199c.231.038.848 0 1.156 0zm22.155-5.624h4.854v.848h-3.698v1.386h1.849c.732 0 1.31.154 1.695.424s.578.694.578 1.233c0 .578-.231 1.002-.655 1.31-.424.308-1.04.462-1.81.462H48.43v-5.663zm2.735 4.854c.462 0 .77-.077 1.002-.23.231-.155.347-.386.347-.694 0-.578-.463-.886-1.349-.886h-1.618v1.772h1.618v.038zm3.776-4.854h1.156v4.007l3.352-4.007h1.079v5.663h-1.156v-4.006l-3.352 4.006h-1.079v-5.663zm11.442 3.236c.193.231.309.54.309.848 0 .346-.116.616-.347.886-.231.27-.578.462-.963.578a4.744 4.744 0 01-1.349.192c-.424 0-.847-.038-1.233-.154a5.177 5.177 0 01-1.155-.462l.385-.77c.27.153.578.307.925.385.346.077.654.115 1.001.115.462 0 .848-.077 1.156-.27.308-.154.462-.385.462-.693 0-.231-.115-.424-.346-.578-.232-.154-.54-.193-.925-.193h-1.464v-.77h1.348c.347 0 .617-.077.81-.193a.615.615 0 00.308-.54c0-.269-.116-.462-.386-.616-.27-.154-.616-.23-1.001-.23-.27 0-.578.038-.848.115a5.474 5.474 0 00-.848.308l-.346-.848c.308-.154.655-.27 1.001-.346a5.14 5.14 0 011.08-.116c.461 0 .885.077 1.27.193.386.115.694.308.925.54.231.23.347.538.347.847 0 .27-.077.54-.231.732a1.619 1.619 0 01-.694.5c.308.116.617.309.81.54zm7.167-3.236v5.663h-1.156v-2.427h-3.236v2.427h-1.156v-5.663h1.156v2.35h3.236v-2.35h1.156zm6.395 4.777v.886h-4.662v-5.663h4.546v.886h-3.39v1.464h3.005v.848H76.44v1.58h3.506zm2.427.617c-.5-.27-.886-.617-1.194-1.04a2.749 2.749 0 01-.424-1.503c0-.54.154-1.04.424-1.503.308-.424.693-.77 1.194-1.04.5-.27 1.079-.385 1.695-.385.501 0 .963.077 1.387.23.424.155.77.386 1.079.694l-.732.655a2.362 2.362 0 00-1.657-.655c-.424 0-.809.077-1.156.27a2.41 2.41 0 00-.809.694c-.192.308-.27.655-.27 1.04s.078.732.27 1.04c.193.308.463.54.81.694.346.154.731.27 1.155.27.655 0 1.195-.232 1.657-.656l.732.655a2.89 2.89 0 01-1.079.694 4.03 4.03 0 01-1.387.23c-.616-.038-1.194-.153-1.695-.384zm4.739-3.006h2.427v.848h-2.427v-.848zm9.402-2.388v5.663h-1.156v-4.777h-3.236v4.777h-1.156v-5.663h5.548zm5.74.269a2.1 2.1 0 01.925.694c.231.308.308.655.308 1.079 0 .424-.115.77-.308 1.079-.193.308-.501.539-.925.693-.385.154-.886.231-1.425.231h-1.387v1.618h-1.156v-5.663h2.543c.539 0 1.002.077 1.425.27zm-.308 2.582c.27-.193.386-.463.386-.848 0-.346-.116-.655-.386-.847-.269-.193-.655-.309-1.156-.309h-1.348v2.235h1.348c.501.077.887-.038 1.156-.231zm3.89 2.543c-.501-.27-.925-.617-1.194-1.04a2.746 2.746 0 01-.424-1.503c0-.54.154-1.04.424-1.503a2.833 2.833 0 011.194-1.04 4.1 4.1 0 011.734-.385c.616 0 1.194.115 1.733.385.54.27.925.616 1.195 1.04.269.424.424.925.424 1.503 0 .54-.155 1.04-.424 1.502-.308.424-.694.77-1.195 1.04-.5.27-1.078.386-1.733.386-.655-.039-1.233-.154-1.734-.385zm2.851-.81c.347-.154.578-.423.771-.693.192-.27.269-.655.269-1.04 0-.386-.077-.732-.269-1.04a1.908 1.908 0 00-.771-.694 2.517 2.517 0 00-1.117-.27c-.424 0-.771.077-1.118.27a2.26 2.26 0 00-.77.694c-.193.27-.27.655-.27 1.04s.077.732.27 1.04a1.9 1.9 0 00.77.694c.309.154.694.27 1.118.27.385-.04.77-.116 1.117-.27zm9.864.193v2.12h-1.078v-1.234h-5.279v-5.663h1.156v4.777h3.121v-4.777h1.156v4.777h.924zm5.702 0v.886h-4.662v-5.663h4.546v.886h-3.39v1.464h3.005v.848h-3.005v1.58h3.506zm2.427.617a3.497 3.497 0 01-1.195-1.04 2.754 2.754 0 01-.423-1.503c0-.54.154-1.04.423-1.503.309-.424.694-.77 1.195-1.04.501-.27 1.078-.385 1.695-.385.501 0 .963.077 1.387.23.424.155.77.386 1.079.694l-.732.655c-.463-.424-1.002-.655-1.657-.655-.424 0-.809.077-1.156.27-.347.154-.616.424-.809.693-.193.309-.27.655-.27 1.04 0 .386.077.733.27 1.04.193.31.462.54.809.694.347.155.732.27 1.156.27.655 0 1.194-.231 1.657-.655l.732.655c-.309.308-.655.54-1.079.694a4.03 4.03 0 01-1.387.23c-.617-.038-1.194-.153-1.695-.384zm6.279 0a3.484 3.484 0 01-1.194-1.04 2.746 2.746 0 01-.424-1.503c0-.54.154-1.04.424-1.503.308-.424.693-.77 1.194-1.04s1.079-.385 1.695-.385c.501 0 .963.077 1.387.23.424.155.771.386 1.079.694l-.732.655a2.362 2.362 0 00-1.657-.655c-.424 0-.809.077-1.156.27-.346.154-.616.424-.809.694-.192.308-.269.655-.269 1.04s.077.732.269 1.04c.193.308.463.54.809.694.347.154.732.27 1.156.27.655 0 1.195-.232 1.657-.656l.732.655a2.89 2.89 0 01-1.079.694 4.03 4.03 0 01-1.387.23c-.616-.038-1.194-.153-1.695-.384zm9.864-3.006c.385.309.616.771.616 1.349 0 .616-.231 1.117-.655 1.425-.424.347-1.04.501-1.849.501h-2.659v-5.663h1.156v1.926h1.734c.655 0 1.233.154 1.657.462zm-.925 2.197c.231-.193.347-.463.347-.81 0-.693-.463-1.04-1.387-1.04h-1.503v2.12h1.503c.424 0 .77-.078 1.04-.27zm2.389-4.585h1.155v5.663h-1.155v-5.663z" fill="#fff"/></svg>