<svg width="159" height="45" fill="none" xmlns="http://www.w3.org/2000/svg"><path d="M154.449 45H4.551C2.06 45 0 42.997 0 40.492V4.508C0 2.003 2.022 0 4.55 0h149.9c2.489 0 4.55 2.003 4.55 4.508v35.984c0 2.505-2.023 4.508-4.551 4.508z" fill="#86E005"/><path d="M34.828 21.999c1.464-8.9-9.786-11.173-12.868-4.43-3.968-2.197-8.322.693-8.514 4.314-6.319-.077-6.434 9.401-.193 9.401H33.75c5.548.154 6.395-7.667 1.078-9.285zm-11.75 7.32h-6.55c.385-4.7 4.623-4.854 4.623-6.82 0-.885-.693-1.194-1.425-1.194-.963 0-1.734.309-2.39.655l-.461-1.348a7.03 7.03 0 013.12-.732c2.042 0 3.005 1.002 3.005 2.427 0 2.659-3.621 3.198-4.199 5.548h4.277v1.464zm7.397-2.311h-1.387v2.311H27.43v-2.311h-4.12v-1.156l4.623-5.972h1.194v5.74h1.387v1.387h-.038z" fill="#fff"/><path d="M26.275 25.62h1.117v-1.348c0-.732.077-1.58.077-1.85l-2.35 3.199c.231.038.848 0 1.156 0zm23.733 1.58a5.419 5.419 0 01-2.157-1.887c-.54-.81-.77-1.696-.77-2.697 0-1.002.269-1.927.77-2.697a5.419 5.419 0 012.157-1.888c.925-.462 1.926-.694 3.082-.694a7.65 7.65 0 012.543.424c.77.308 1.387.732 1.926 1.272l-1.348 1.155c-.809-.809-1.81-1.194-3.005-1.194-.77 0-1.464.154-2.08.462a3.52 3.52 0 00-1.426 1.272c-.347.54-.5 1.156-.5 1.85 0 .693.153 1.31.5 1.848.347.54.809.964 1.425 1.272.617.308 1.31.462 2.08.462 1.195 0 2.197-.424 3.006-1.233l1.349 1.156a5.61 5.61 0 01-1.927 1.272c-.77.308-1.618.423-2.543.423a6.222 6.222 0 01-3.082-.578zm16.952.501l-2.311-3.005h-2.967v3.005h-2.08V17.453h4.623c.963 0 1.81.154 2.543.424.732.308 1.271.732 1.656 1.271.386.54.578 1.195.578 1.965s-.192 1.426-.616 2.004c-.424.578-1.002.963-1.772 1.232l2.58 3.352H66.96zm-.77-8.09c-.463-.347-1.156-.54-2.08-.54h-2.466v4.084h2.465c.925 0 1.618-.193 2.08-.54.463-.346.694-.847.694-1.502s-.23-1.156-.693-1.502zm15.487 8.09v-6.78l-3.699 5.625h-.924l-3.699-5.548V27.7h-2.003V17.453h1.733l4.47 6.82 4.392-6.781h1.733V27.74h-2.003v-.04z" fill="#fff"/></svg>