<svg width="220" height="40" fill="none" xmlns="http://www.w3.org/2000/svg"><g clip-path="url(#clip0_1552_181)" fill="#fff"><path d="M135.582 39.507h23.739v-5H143.58c2.158-8.291 15.36-10.12 15.36-19.388 0-5-3.554-8.658-10.917-8.658-4.697 0-8.633 1.342-11.425 2.683l1.65 4.634c2.539-1.098 5.332-2.195 8.759-2.195 2.793 0 5.332 1.097 5.332 4.146.127 6.828-15.361 7.316-16.757 23.778zm71.218-6.951c-7.236 0-13.202-5.73-13.202-12.681 0-6.95 5.966-12.682 13.202-12.682s13.203 5.731 13.203 12.682c0 6.95-5.967 12.681-13.203 12.681zm0-23.046c-5.966 0-10.79 4.634-10.79 10.365 0 5.73 4.824 10.365 10.79 10.365 5.967 0 10.791-4.634 10.791-10.365S212.767 9.51 206.8 9.51z"/><path d="M214.287 19.877h-6.602v-6.34h-1.777v8.047h8.379v-1.707zM-.002 1.952h11.425c8.379 0 12.187 4.633 12.187 9.51 0 3.293-1.65 6.22-4.697 7.805v.122c4.57 1.097 7.363 4.634 7.363 9.023 0 5.854-4.57 11.097-13.71 11.097H-.002V1.952zm10.537 15.73c3.935 0 6.093-2.073 6.093-5 0-2.804-1.904-5-6.093-5h-3.3v10h3.3zM11.677 33.9c4.697 0 7.363-1.707 7.363-5.488 0-3.17-2.539-5.121-6.474-5.121H7.234V33.9h4.443zM31.61 4.146C31.61 1.83 33.513 0 35.925 0s4.443 1.707 4.443 4.146c0 2.195-1.904 4.024-4.443 4.024-2.54 0-4.317-1.707-4.317-4.024zm.761 8.414h7.11v26.948h-7.11V12.56zm16.627 20.365V17.927H43.92v-5.365h5.078v-6.22l7.109-1.95v8.17h8.505l-1.777 5.365h-6.728v13.291c0 2.56.889 3.415 2.793 3.415 1.65 0 3.173-.61 4.316-1.342l2.158 4.634c-2.031 1.341-5.459 2.073-8.251 2.073-5.078.122-8.125-2.56-8.125-7.073zm20.19-20.365h5.966l.762 3.048c2.539-2.439 4.824-3.658 7.743-3.658 1.27 0 2.793.366 3.936 1.097l-2.539 5.732a6.227 6.227 0 00-3.174-.854c-1.904 0-3.427.732-5.712 2.683V39.63h-7.11V12.56h.127zm21.199-8.415C90.387 1.828 92.29 0 94.703 0s4.316 1.83 4.316 4.146c0 2.195-1.904 4.024-4.443 4.024-2.539 0-4.19-1.707-4.19-4.024zm.761 8.414h7.11v26.949h-7.11V12.559zm21.451 13.416L102.443 12.56h7.363l6.602 8.78 6.728-8.78h7.363l-10.283 13.414 10.41 13.535h-7.363l-6.728-9.024-6.856 9.024h-7.363l10.283-13.535zm68.808.729V6.463h-4.443L160.08 27.558v4.024h15.234v8.048h6.093v-8.048h5.078v-4.878h-5.078zm-6.093-4.755v4.634h-4.063c-1.269 0-3.554.122-4.316.122l8.633-11.219c0 .976-.254 3.902-.254 6.463z"/></g><defs><clipPath id="clip0_1552_181"><path fill="#fff" d="M0 0h220v40H0z"/></clipPath></defs></svg>