<svg width="195" height="40" fill="none" xmlns="http://www.w3.org/2000/svg"><path d="M27.725.167h6.708L20.593 40h-6.809L0 .167h6.652l8.24 24.77c.433 1.181.894 2.697 1.374 4.556.49 1.87.803 3.255.95 4.157.231-1.377.59-2.976 1.08-4.798.489-1.813.886-3.152 1.19-4.026L27.726.167zM39.645 40V.167h6.46V40h-6.46zm30.55 0h-6.459V5.746H52.111V.167H81.82v5.58H70.195V40zm38.326 0l-3.949-11.046H89.469L85.603 40h-6.81L93.575 0h7.031l14.781 40h-6.865zm-5.647-16.68l-3.7-10.842c-.276-.725-.645-1.87-1.125-3.431a74.203 74.203 0 01-.987-3.44c-.49 2.24-1.2 4.676-2.131 7.336L91.36 23.319h11.514z" fill="#EF7F1A"/><path d="M140.905.168h6.708l-13.84 39.833h-6.809L113.18.168h6.652l8.239 24.77c.434 1.18.895 2.696 1.375 4.556.489 1.869.803 3.254.95 4.156.231-1.376.591-2.975 1.08-4.798.489-1.813.885-3.152 1.19-4.026L140.905.168zm11.921 39.833V.168h6.458v39.833h-6.458zm30.548 0h-6.458V5.747H165.29V.168h29.709v5.579h-11.625V40z" fill="#FECC00"/></svg>