<svg width="145" height="170" fill="none" xmlns="http://www.w3.org/2000/svg"><path d="M78.597 18.326v34.531h-7.993V27.338l-7.873 2.3v-6.07l15.13-5.242h.736z" fill="#fff"/><path d="M101.084 9.874h.18c.112 0 .292 0 .516.022a9.08 9.08 0 011.752.292c.697.18 1.483.449 2.269.808.786.36 1.572.83 2.313 1.347a13.615 13.615 0 011.999 1.729 10.867 10.867 0 011.416 1.818c.179.292.336.561.471.808.135.247.225.472.292.674.068.202.135.36.157.471.045.113.045.18.045.18s-.067 0-.179-.045a4.17 4.17 0 01-.472-.135c-.202-.067-.427-.134-.696-.224a11.06 11.06 0 01-.854-.337c-.606-.27-1.28-.606-1.976-.988a23.292 23.292 0 01-2.089-1.347 23.18 23.18 0 01-1.977-1.571 19.093 19.093 0 01-1.662-1.594 18.666 18.666 0 01-1.123-1.325 4.85 4.85 0 01-.292-.426 1.623 1.623 0 00-.09-.157zm2.605 10.619s.023-.045.09-.113c.068-.067.158-.157.27-.247a5.486 5.486 0 011.033-.673 6.034 6.034 0 011.595-.517 7.298 7.298 0 011.999-.067 8.875 8.875 0 012.111.45 9.294 9.294 0 011.909.875c.292.18.54.337.787.516.224.18.426.337.606.472.157.134.292.269.382.359l.135.134s-.045.045-.113.09c-.067.045-.179.135-.314.202l-.494.247a4.47 4.47 0 01-.652.225 8.692 8.692 0 01-1.662.27c-.606.044-1.28 0-1.954-.09a14.994 14.994 0 01-1.999-.405 13.29 13.29 0 01-1.819-.65 15.025 15.025 0 01-1.37-.697c-.18-.09-.315-.202-.405-.247a.609.609 0 00-.135-.134zm9.142-11.922s-.023.045-.068.113a1.598 1.598 0 00-.157.336 4.548 4.548 0 00-.292 1.235c-.067.516-.045 1.123.023 1.796.089.674.247 1.392.471 2.11a15.8 15.8 0 00.831 2.156c.315.696.674 1.37 1.034 1.975.179.292.359.562.516.809.157.247.315.471.472.65.135.18.269.337.337.427.09.09.135.157.135.157s.044-.044.089-.112c.045-.067.135-.157.225-.292.09-.134.18-.292.292-.471.09-.18.18-.404.27-.651a6.48 6.48 0 00.292-1.729 7.33 7.33 0 00-.27-2.133c-.18-.74-.472-1.526-.854-2.267a14.636 14.636 0 00-1.302-2.066 13.332 13.332 0 00-1.348-1.481 6.117 6.117 0 00-.472-.427c-.157-.09-.224-.135-.224-.135zm-3.009 17.534s.045-.045.113-.09c.067-.045.179-.134.314-.202a4.76 4.76 0 011.146-.471 6.023 6.023 0 011.639-.225c.607 0 1.258.09 1.932.27a8.97 8.97 0 011.932.785c.629.337 1.19.741 1.662 1.168.247.202.449.427.651.628.202.203.36.382.494.562.135.157.247.314.315.404.067.09.112.157.112.157l-.135.067c-.09.023-.202.09-.337.135-.157.045-.337.112-.539.157s-.426.09-.674.113a8.313 8.313 0 01-1.662-.023c-.606-.067-1.235-.224-1.864-.404a13.144 13.144 0 01-1.842-.74 12.275 12.275 0 01-1.617-.944 12.737 12.737 0 01-1.168-.898c-.135-.112-.247-.247-.337-.314l-.135-.135zm11.231-9.99s-.045.045-.089.112c-.045.067-.135.157-.225.292-.18.27-.382.65-.539 1.145a7.36 7.36 0 00-.337 1.75c-.067.652-.045 1.37.022 2.111.068.741.18 1.505.36 2.223a18.825 18.825 0 00.943 2.941c.112.27.225.516.315.718.089.202.179.36.247.472.067.112.09.18.09.18s.044-.023.112-.09c.067-.068.18-.135.292-.247.112-.113.247-.247.359-.427.135-.157.27-.36.382-.584a5.82 5.82 0 00.607-1.639 8.924 8.924 0 00.179-2.11 12.281 12.281 0 00-.359-2.335c-.202-.785-.517-1.526-.854-2.2-.337-.673-.696-1.257-1.01-1.661-.135-.202-.292-.382-.36-.494a2.137 2.137 0 00-.135-.157zm-6.424 16.455s.045-.022.112-.067c.09-.022.202-.09.337-.134a4.692 4.692 0 011.191-.27 5.866 5.866 0 011.639.068c.584.09 1.213.291 1.82.583a9.445 9.445 0 011.752 1.078 9.41 9.41 0 011.415 1.414c.202.247.359.494.516.719.158.224.27.449.382.628.112.18.18.36.225.45.045.112.067.179.067.179s-.045.022-.135.045c-.089.022-.202.067-.359.067a3.734 3.734 0 01-.539.045h-.696a6.417 6.417 0 01-1.618-.314 11.53 11.53 0 01-3.414-1.751 12.443 12.443 0 01-2.358-2.268c-.112-.134-.202-.27-.27-.359-.045-.067-.067-.112-.067-.112zm12.848-7.812s-.045.023-.112.09c-.068.067-.18.135-.27.247a4.255 4.255 0 00-.741 1.033 8.031 8.031 0 00-.674 1.638 11.48 11.48 0 00-.382 2.043c-.067.719-.112 1.482-.067 2.223.022.74.112 1.46.202 2.11.045.337.112.629.18.92.067.27.135.54.18.742.044.202.112.381.157.516.045.112.067.18.067.18l.135-.068c.067-.045.202-.112.314-.202.135-.09.27-.202.427-.337.157-.134.315-.314.494-.493.337-.382.652-.898.899-1.482.269-.584.449-1.28.561-2.02.113-.742.135-1.527.09-2.336a12.485 12.485 0 00-.404-2.29 13.714 13.714 0 00-.652-1.773c-.089-.225-.202-.404-.269-.539l-.135-.202zm-9.413 14.885s.045-.023.135-.045c.09-.023.202-.067.36-.09.314-.045.741-.09 1.213-.067a5.484 5.484 0 011.594.336 7.1 7.1 0 011.685.876 9.647 9.647 0 011.527 1.37 8.52 8.52 0 011.123 1.638c.158.27.27.54.382.786.112.247.202.472.247.674.068.202.113.381.135.471.022.112.045.18.045.18s-.045 0-.135.022c-.09 0-.224.023-.382.023-.157 0-.337-.023-.539-.045a4.477 4.477 0 01-.674-.135 7.426 7.426 0 01-1.549-.584 9.41 9.41 0 01-1.595-1.01 13.183 13.183 0 01-1.46-1.28 10.48 10.48 0 01-1.146-1.392c-.314-.449-.584-.875-.741-1.212-.09-.157-.157-.314-.202-.404a.443.443 0 00-.023-.112zm14.04-5.388l-.135.067c-.068.045-.202.112-.315.202-.269.18-.584.471-.921.876-.336.381-.651.898-.943 1.481a13.878 13.878 0 00-.764 1.931c-.202.696-.381 1.437-.471 2.155a17.63 17.63 0 00-.18 2.11v.921c0 .292.022.539.045.763.022.225.045.404.067.517.023.112.023.202.023.202s.045 0 .135-.045c.089-.023.202-.067.359-.135a5.84 5.84 0 00.494-.27 6.9 6.9 0 00.562-.403 6.508 6.508 0 001.145-1.28c.36-.539.674-1.167.921-1.886.247-.696.404-1.481.494-2.267.09-.786.09-1.572.023-2.29a13.413 13.413 0 00-.315-1.841c-.067-.225-.135-.427-.157-.561a4.296 4.296 0 00-.067-.247zm-11.928 12.886s.045 0 .135-.022c.089 0 .224-.023.381-.023.315 0 .742.045 1.213.157.472.113.989.315 1.505.606a7.164 7.164 0 011.505 1.168 8.69 8.69 0 011.258 1.594c.359.584.629 1.212.831 1.796.09.292.18.584.247.853.067.27.112.516.135.718.022.203.045.382.045.494v.18h-.135c-.09-.023-.225-.023-.359-.045a3.127 3.127 0 01-.539-.135 4.46 4.46 0 01-.629-.247 7.365 7.365 0 01-1.415-.853 11.83 11.83 0 01-1.393-1.257 11.297 11.297 0 01-1.213-1.527 11.236 11.236 0 01-.898-1.571 8.717 8.717 0 01-.517-1.325c-.067-.18-.09-.314-.112-.426l-.045-.135zm14.758-2.829s-.045 0-.135.045c-.09.023-.202.068-.359.135-.292.135-.674.36-1.056.696a7.369 7.369 0 00-1.191 1.28 12.27 12.27 0 00-1.078 1.75 20.263 20.263 0 00-.853 2.021 19.44 19.44 0 00-.539 2.043c-.068.315-.113.629-.158.898-.044.292-.067.54-.089.764-.023.224-.023.404-.023.516v.202s.045 0 .135-.023c.09-.022.225-.022.359-.067.158-.045.337-.09.517-.157.202-.067.404-.18.629-.292a5.655 5.655 0 001.347-1.055c.45-.471.854-1.033 1.236-1.684.359-.65.674-1.37.876-2.133.224-.74.359-1.526.427-2.245.067-.718.045-1.37.022-1.863a8.813 8.813 0 00-.067-.584v-.247zm-13.995 10.552h.135c.09.023.225.023.36.045.314.045.718.157 1.168.36.449.201.921.493 1.392.875.472.381.899.853 1.28 1.392.382.538.719 1.145.966 1.796.247.628.427 1.302.517 1.908.045.314.067.606.09.875.022.27.022.517 0 .719 0 .202-.023.381-.023.494 0 .112-.022.18-.022.18s-.045 0-.135-.023c-.09-.023-.202-.067-.359-.112-.158-.045-.315-.135-.494-.225a5.834 5.834 0 01-.584-.359c-.405-.27-.831-.651-1.258-1.078a9.569 9.569 0 01-1.146-1.481 10.475 10.475 0 01-.921-1.707c-.247-.583-.471-1.167-.606-1.706a9.181 9.181 0 01-.292-1.392c-.023-.18-.045-.336-.045-.426 0-.068-.023-.135-.023-.135zm15.027-.202s-.045 0-.135.022c-.09.023-.224.023-.359.068a5.75 5.75 0 00-1.168.494c-.449.247-.921.606-1.393 1.032-.471.427-.943.966-1.37 1.55a19.672 19.672 0 00-1.19 1.84 14.03 14.03 0 00-.876 1.909c-.113.314-.225.606-.315.875-.09.27-.157.517-.202.719-.067.202-.09.381-.112.516-.023.112-.045.202-.045.202s.045 0 .135.022h.381c.158 0 .337-.022.539-.067.203-.045.427-.112.674-.18a5.628 5.628 0 001.528-.808 9.024 9.024 0 001.505-1.437 10.13 10.13 0 001.235-1.93 12.03 12.03 0 001.123-3.974c.023-.247.023-.449.045-.584v-.269zm-15.587 7.948s.045 0 .135.022c.09.022.202.045.359.112.292.112.674.292 1.078.561.405.27.831.651 1.213 1.1a6.83 6.83 0 011.011 1.617c.292.606.494 1.257.629 1.953a8.78 8.78 0 01.157 1.998c0 .314-.022.606-.067.876a5.46 5.46 0 01-.113.718c-.045.202-.09.382-.112.494-.022.112-.045.18-.045.18s-.045-.023-.135-.045c-.067-.045-.202-.09-.337-.18-.134-.09-.292-.18-.449-.314a63.406 63.406 0 01-.516-.45 6.284 6.284 0 01-1.034-1.301 9.142 9.142 0 01-.876-1.684c-.247-.606-.471-1.235-.606-1.841a14.574 14.574 0 01-.315-1.796c-.044-.561-.067-1.055-.044-1.414 0-.18.022-.337.022-.427.045-.112.045-.18.045-.18zm14.825 2.446h-.516c-.315.023-.742.113-1.236.27-.494.18-1.01.427-1.55.786-.539.336-1.078.785-1.617 1.28a14.583 14.583 0 00-1.482 1.616 18.472 18.472 0 00-1.191 1.729c-.179.291-.314.56-.449.808-.135.247-.247.494-.337.673-.09.202-.157.382-.202.472-.045.112-.067.18-.067.18s.045.022.134.044c.09.023.225.045.36.067.157.023.337.023.561.023.202 0 .45-.023.697-.067a6.063 6.063 0 001.639-.54 8.102 8.102 0 001.73-1.167 9.462 9.462 0 001.55-1.706c.471-.629.853-1.324 1.145-1.975.292-.652.517-1.28.652-1.752a4.77 4.77 0 00.134-.56c.023-.113.045-.18.045-.18zm-16.734 5.119s.045.023.135.045c.067.045.202.09.336.18.27.157.629.404.966.74.36.337.697.786 1.011 1.303.292.516.539 1.122.719 1.773.18.651.269 1.347.269 2.043 0 .696-.067 1.392-.202 1.998a6.744 6.744 0 01-.224.853c-.09.27-.158.494-.247.696-.068.202-.158.36-.203.472-.045.112-.089.18-.089.18s-.045-.023-.113-.068c-.067-.045-.179-.135-.292-.224l-.382-.382c-.134-.157-.292-.337-.426-.539a6.868 6.868 0 01-.787-1.46 10.84 10.84 0 01-.561-1.818 14.743 14.743 0 01-.27-1.93 12.232 12.232 0 01.023-1.819c.045-.561.135-1.055.202-1.414.045-.18.09-.337.112-.427 0-.157.023-.202.023-.202zm14.173 5.007s-.045-.023-.135-.023a1.564 1.564 0 00-.359-.045 5.115 5.115 0 00-1.258.068 7.628 7.628 0 00-1.662.493 11.25 11.25 0 00-1.82.988c-.606.404-1.213.853-1.752 1.347a19.216 19.216 0 00-1.505 1.505 7.694 7.694 0 00-.584.718 4.786 4.786 0 00-.449.629c-.135.18-.224.336-.292.449-.067.112-.112.18-.112.18l.135.067c.089.022.202.09.359.134.157.045.337.09.539.113.202.022.449.044.696.044.517 0 1.101-.067 1.707-.247a7.932 7.932 0 001.91-.853c.651-.381 1.28-.875 1.841-1.414a12.115 12.115 0 001.505-1.751 10.07 10.07 0 00.944-1.617c.112-.224.179-.404.247-.538.022-.18.045-.247.045-.247zm-17.408 2.132s.045.023.113.068c.067.045.179.134.292.224.247.202.539.517.808.92.292.405.539.899.741 1.482.203.562.337 1.213.382 1.886.045.674 0 1.392-.112 2.066a8.602 8.602 0 01-.584 1.953c-.135.292-.247.584-.382.83-.135.247-.269.472-.382.651-.112.18-.224.337-.292.427-.067.09-.112.157-.112.157s-.045-.022-.09-.09c-.045-.067-.157-.157-.247-.291-.09-.135-.202-.27-.314-.45-.113-.179-.203-.381-.315-.606a7.384 7.384 0 01-.494-1.593 13.044 13.044 0 01-.202-1.909c-.023-.65.022-1.324.112-1.975s.202-1.258.359-1.819c.158-.539.315-1.033.472-1.37.068-.179.135-.314.18-.403.022-.09.067-.158.067-.158zm13.05 7.454l-.134-.067c-.09-.023-.203-.09-.36-.113a4.651 4.651 0 00-1.258-.157c-.516 0-1.1.068-1.752.202-.629.135-1.302.382-1.976.674-.674.292-1.348.628-1.999 1.032-.652.382-1.236.831-1.775 1.258-.269.202-.516.426-.741.606-.225.202-.404.382-.584.539l-.382.381c-.09.09-.135.157-.135.157s.045.023.113.09c.067.045.179.112.314.18.135.067.315.135.517.224.202.068.427.135.674.18.494.09 1.1.112 1.752.045.651-.067 1.347-.247 2.066-.516a9.784 9.784 0 002.089-1.1 13.37 13.37 0 001.819-1.482c.517-.517.944-1.033 1.236-1.437.157-.202.269-.382.337-.494a.726.726 0 00.179-.202zm-17.654-.898s.045.022.09.09c.045.067.157.157.247.27.202.246.427.605.629 1.054a6.1 6.1 0 01.449 1.594 7.09 7.09 0 010 1.953 8.356 8.356 0 01-.539 2.043 9.87 9.87 0 01-.988 1.864c-.18.27-.382.539-.562.763-.18.225-.359.427-.517.584l-.381.381c-.09.09-.158.135-.158.135s-.022-.045-.067-.112a2.14 2.14 0 01-.18-.337 4.316 4.316 0 01-.202-.516 4.934 4.934 0 01-.18-.674c-.112-.494-.157-1.055-.157-1.684 0-.606.068-1.28.202-1.93a13.83 13.83 0 01.517-1.953c.225-.629.472-1.235.741-1.752.27-.516.539-.965.741-1.28.113-.156.203-.291.27-.38a1.19 1.19 0 00.045-.113zm11.5 9.698s-.045-.022-.112-.09a2.146 2.146 0 00-.337-.179 4.837 4.837 0 00-1.213-.382 7.443 7.443 0 00-1.774-.09 15.51 15.51 0 00-2.112.315c-.741.18-1.482.404-2.201.696-.719.27-1.415.606-2.044.943a9.541 9.541 0 00-.854.494c-.269.157-.494.314-.696.449-.202.134-.359.247-.472.314-.112.067-.179.135-.179.135s.022.045.09.09c.067.044.157.157.292.246.134.09.292.203.471.292.18.112.405.202.652.292a6.35 6.35 0 001.752.36c.673.044 1.415-.023 2.178-.158.764-.157 1.55-.404 2.314-.718a13.483 13.483 0 002.111-1.168 12.422 12.422 0 001.528-1.234l.426-.427a.999.999 0 00.18-.18zm-17.408-3.928s.022.044.067.112a4.347 4.347 0 01.584 1.482c.112.493.157 1.055.112 1.66-.045.607-.202 1.28-.426 1.954a9.356 9.356 0 01-.989 1.953c-.426.629-.898 1.213-1.415 1.684a6.416 6.416 0 01-.741.651c-.247.202-.472.36-.674.494a12.28 12.28 0 01-.494.314c-.112.068-.18.113-.18.113s-.022-.045-.045-.135c-.022-.09-.067-.202-.112-.36a3.415 3.415 0 01-.09-.538 6.515 6.515 0 01-.045-.696c0-.516.068-1.1.225-1.706a11.84 11.84 0 01.629-1.909c.269-.65.606-1.28.966-1.863.359-.584.741-1.145 1.123-1.616.382-.472.741-.876 1.033-1.145.135-.135.27-.247.337-.337.067-.067.135-.112.135-.112zm9.456 11.651s-.022-.044-.09-.089c-.067-.045-.157-.158-.292-.247a5.333 5.333 0 00-1.145-.584c-.495-.18-1.101-.314-1.775-.404-.674-.09-1.415-.09-2.201-.045s-1.572.157-2.381.314a20.79 20.79 0 00-2.269.584c-.359.112-.673.224-.988.337-.292.112-.584.224-.808.314-.225.09-.427.202-.54.247-.134.067-.202.09-.202.09s.023.045.068.112c.045.067.134.18.247.292.112.112.247.247.404.382.157.134.359.269.584.404.449.269 1.033.494 1.707.651a8.93 8.93 0 002.246.202 12.556 12.556 0 002.516-.337 14.855 14.855 0 002.381-.808 12.81 12.81 0 001.797-.966c.224-.134.404-.269.516-.359a.867.867 0 00.225-.09zM44.145 9.874h-.18c-.112 0-.292 0-.517.022a9.092 9.092 0 00-1.752.292c-.696.18-1.482.449-2.268.808-.786.36-1.572.83-2.314 1.347a13.657 13.657 0 00-1.999 1.729A10.827 10.827 0 0033.7 15.89c-.18.292-.337.561-.472.808a4.082 4.082 0 00-.291.674c-.068.202-.135.36-.158.471-.045.113-.045.18-.045.18s.068 0 .18-.045c.112-.022.27-.067.472-.135.202-.067.426-.134.696-.224.27-.09.54-.202.854-.337.606-.27 1.28-.606 1.976-.988a23.506 23.506 0 002.09-1.347 23.363 23.363 0 001.976-1.571 19.052 19.052 0 001.662-1.594c.471-.517.853-.966 1.123-1.325.135-.18.224-.314.292-.426.067-.09.09-.157.09-.157zM41.54 20.493s-.023-.045-.09-.113c-.068-.067-.158-.157-.27-.247a5.486 5.486 0 00-1.033-.673 6.042 6.042 0 00-1.595-.517 7.299 7.299 0 00-2-.067 8.877 8.877 0 00-2.11.45 9.325 9.325 0 00-1.91.875c-.292.18-.539.337-.786.516-.224.18-.427.337-.606.472-.158.134-.292.269-.382.359l-.135.134s.045.045.112.09c.068.045.18.135.315.202l.494.247c.202.09.404.157.651.225a8.565 8.565 0 001.663.27c.606.044 1.28 0 1.954-.09.674-.09 1.347-.225 1.999-.405.651-.18 1.258-.404 1.82-.65a15.149 15.149 0 001.37-.697c.179-.09.314-.202.404-.247l.134-.134zM32.42 8.571s.023.045.068.113c.045.067.112.202.157.336.112.292.247.719.292 1.235.067.516.045 1.123-.022 1.796-.09.674-.248 1.392-.472 2.11a15.8 15.8 0 01-.831 2.156c-.315.696-.674 1.37-1.033 1.975-.18.292-.36.562-.517.809a5.443 5.443 0 01-.472.65c-.134.18-.27.337-.337.427-.09.09-.134.157-.134.157s-.045-.044-.09-.112c-.045-.067-.135-.157-.225-.292-.09-.134-.18-.292-.292-.471-.09-.18-.18-.404-.27-.651a6.453 6.453 0 01-.291-1.729 7.31 7.31 0 01.27-2.133c.179-.74.47-1.526.853-2.267a14.65 14.65 0 011.302-2.066c.472-.606.966-1.122 1.348-1.481.18-.18.36-.337.472-.427.157-.09.224-.135.224-.135zm2.987 17.534s-.044-.045-.112-.09c-.067-.045-.18-.134-.314-.202a4.764 4.764 0 00-1.146-.471 6.029 6.029 0 00-1.64-.225c-.606 0-1.257.09-1.931.27a8.95 8.95 0 00-1.932.785 8.41 8.41 0 00-1.662 1.168c-.247.202-.45.427-.651.628-.203.203-.36.382-.495.562-.134.157-.247.314-.314.404-.067.09-.112.157-.112.157l.134.067c.09.023.203.09.337.135.158.045.337.112.54.157.202.045.426.09.673.113a8.314 8.314 0 001.662-.023c.607-.067 1.236-.224 1.865-.404a13.146 13.146 0 001.841-.74 12.251 12.251 0 001.618-.944c.471-.314.876-.65 1.168-.898.135-.112.247-.247.337-.314a.525.525 0 00.134-.135zm-11.208-9.99s.045.045.09.112c.044.067.134.157.224.292.18.27.382.65.54 1.145a7.41 7.41 0 01.336 1.75c.067.652.045 1.37-.022 2.111a14.82 14.82 0 01-.36 2.223 20.67 20.67 0 01-.606 2.065c-.113.315-.225.607-.337.876-.112.27-.225.516-.315.718-.09.202-.18.36-.247.472-.067.112-.09.18-.09.18s-.044-.023-.112-.09c-.067-.068-.18-.135-.292-.247-.112-.113-.247-.247-.36-.427a2.914 2.914 0 01-.381-.584 5.81 5.81 0 01-.607-1.639 8.912 8.912 0 01-.18-2.11c.046-.763.158-1.549.36-2.335.202-.785.517-1.526.854-2.2.337-.673.696-1.257 1.01-1.661.135-.202.293-.382.36-.494.09-.112.135-.157.135-.157zm6.423 16.455s-.045-.022-.112-.067c-.09-.022-.202-.09-.337-.134a4.69 4.69 0 00-1.19-.27 5.87 5.87 0 00-1.64.068 6.586 6.586 0 00-1.82.583 9.435 9.435 0 00-1.752 1.078c-.538.427-1.01.92-1.415 1.414-.202.247-.359.494-.516.719-.157.224-.27.449-.382.628-.112.18-.18.36-.225.45-.044.112-.067.179-.067.179s.045.022.135.045c.09.022.202.067.36.067.156.023.336.045.538.045h.696a6.415 6.415 0 001.618-.314 11.524 11.524 0 003.414-1.751 12.425 12.425 0 002.358-2.268c.113-.134.203-.27.27-.359.045-.067.067-.112.067-.112zm-12.847-7.812s.045.023.112.09.18.135.27.247c.224.224.494.561.74 1.033.248.448.495 1.01.675 1.638.18.629.314 1.325.381 2.043.068.719.113 1.482.068 2.223a19.8 19.8 0 01-.202 2.11c-.045.337-.113.629-.18.92-.067.27-.112.54-.18.742-.045.202-.112.381-.157.516-.045.112-.067.18-.067.18l-.135-.068c-.068-.045-.202-.112-.315-.202a4.61 4.61 0 01-.426-.337c-.158-.134-.315-.314-.495-.493-.336-.382-.65-.898-.898-1.482-.27-.584-.45-1.28-.562-2.02a11.417 11.417 0 01-.09-2.336c.068-.785.203-1.571.405-2.29.202-.695.45-1.324.651-1.773.09-.225.203-.404.27-.539l.135-.202zm9.411 14.885s-.045-.023-.135-.045c-.09-.023-.202-.067-.36-.09a6.43 6.43 0 00-1.212-.067 5.49 5.49 0 00-1.595.336 7.108 7.108 0 00-1.685.876 9.676 9.676 0 00-1.527 1.37 8.511 8.511 0 00-1.123 1.638c-.157.27-.27.54-.382.786a3.58 3.58 0 00-.247.674 6.237 6.237 0 00-.135.471c-.022.112-.045.18-.045.18s.045 0 .135.022c.09 0 .225.023.382.023s.337-.023.539-.045c.202-.023.427-.068.674-.135a7.42 7.42 0 001.55-.584 9.471 9.471 0 001.594-1.01c.517-.382 1.011-.83 1.46-1.28.45-.449.831-.943 1.146-1.392.314-.449.584-.875.741-1.212.09-.157.157-.314.202-.404 0-.045.023-.112.023-.112zm-14.038-5.388l.134.067c.068.045.203.112.315.202.27.18.584.471.92.876.338.381.652.898.944 1.481.292.584.54 1.235.764 1.931.202.696.382 1.437.472 2.155.112.719.157 1.46.18 2.11v.921c-.023.292-.023.539-.046.763a6.028 6.028 0 01-.067.517c-.023.112-.023.202-.023.202s-.044 0-.134-.045a2.602 2.602 0 01-.36-.135 5.84 5.84 0 01-.494-.27 6.812 6.812 0 01-.561-.403 6.513 6.513 0 01-1.146-1.28 8.19 8.19 0 01-.92-1.886c-.248-.696-.405-1.481-.495-2.267a11.19 11.19 0 01-.022-2.29c.067-.719.202-1.37.314-1.841.067-.225.135-.427.157-.561.045-.18.068-.247.068-.247zm11.927 12.886s-.045 0-.134-.022c-.09 0-.225-.023-.382-.023-.315 0-.742.045-1.213.157a5.87 5.87 0 00-1.505.606 7.166 7.166 0 00-1.505 1.168 8.746 8.746 0 00-1.258 1.594 9.17 9.17 0 00-.83 1.796c-.09.292-.18.584-.248.853-.067.27-.112.516-.135.718-.022.203-.045.382-.045.494v.18h.135c.09-.023.225-.023.36-.045.157-.022.336-.067.538-.135.203-.067.405-.134.63-.247a7.41 7.41 0 001.415-.853c.471-.359.943-.785 1.392-1.257.45-.471.854-.988 1.213-1.527.36-.516.651-1.055.898-1.571.248-.494.405-.965.517-1.325.067-.18.09-.314.112-.426l.045-.135zm-14.757-2.829s.045 0 .135.045c.09.023.202.068.36.135.291.135.673.36 1.055.696.405.337.809.763 1.19 1.28.383.516.764 1.122 1.079 1.75.314.652.606 1.325.853 2.021.225.696.405 1.392.54 2.043.067.315.112.629.157.898.045.292.067.54.09.764.022.224.022.404.022.516v.202s-.045 0-.135-.023c-.09-.022-.224-.022-.36-.067-.156-.045-.336-.09-.516-.157-.202-.067-.404-.18-.629-.292a5.666 5.666 0 01-1.347-1.055c-.45-.471-.854-1.033-1.236-1.684a9.455 9.455 0 01-.876-2.133c-.224-.74-.36-1.526-.427-2.245a13.198 13.198 0 01-.022-1.863c.022-.247.045-.449.067-.584-.022-.157 0-.247 0-.247zM24.29 54.864h-.135c-.09.023-.225.023-.36.045a4.471 4.471 0 00-1.168.36 6.4 6.4 0 00-1.392.875 6.937 6.937 0 00-1.28 1.392 8.097 8.097 0 00-.966 1.796 8.96 8.96 0 00-.517 1.908c-.045.314-.068.606-.09.875-.022.27-.022.517 0 .719 0 .202.022.381.022.494 0 .112.023.18.023.18s.045 0 .135-.023c.09-.023.202-.067.36-.112.156-.045.314-.135.493-.225.18-.09.382-.224.584-.359.405-.27.831-.651 1.258-1.078a9.61 9.61 0 001.146-1.481c.36-.54.674-1.123.92-1.707.248-.583.472-1.167.607-1.706a9.132 9.132 0 00.292-1.392c.022-.18.045-.336.045-.426.022-.068.022-.135.022-.135zm-15.005-.202s.045 0 .135.022c.09.023.225.023.36.068.314.09.718.247 1.167.494.45.247.921.606 1.393 1.032.472.427.943.966 1.37 1.55.427.583.831 1.212 1.19 1.84.337.651.652 1.303.877 1.909.112.314.224.606.314.875.09.27.157.517.202.719.067.202.09.381.112.516.023.112.045.202.045.202s-.045 0-.134.022h-.382c-.157 0-.337-.022-.54-.067-.201-.045-.426-.112-.673-.18a5.624 5.624 0 01-1.528-.808 8.99 8.99 0 01-1.505-1.437 10.098 10.098 0 01-1.235-1.93 12.057 12.057 0 01-1.123-3.974c-.022-.247-.022-.449-.045-.584v-.269zm15.588 7.948s-.045 0-.135.022c-.09.022-.202.045-.36.112a5.575 5.575 0 00-1.078.561c-.404.27-.83.651-1.212 1.1a6.814 6.814 0 00-1.011 1.617 7.955 7.955 0 00-.63 1.953 8.76 8.76 0 00-.156 1.998c0 .314.022.606.067.876.023.27.067.516.112.718.045.202.09.382.113.494.022.112.045.18.045.18s.044-.023.134-.045c.068-.045.203-.09.337-.18.135-.09.292-.18.45-.314.157-.135.336-.292.516-.45a6.23 6.23 0 001.033-1.301 9.142 9.142 0 00.876-1.684c.247-.606.472-1.235.607-1.841.157-.629.247-1.235.314-1.796.045-.561.068-1.055.045-1.414 0-.18-.022-.337-.022-.427-.045-.112-.045-.18-.045-.18zm-14.824 2.446h.516c.315.023.742.113 1.236.27.494.18 1.01.427 1.55.786.539.336 1.078.785 1.617 1.28a14.548 14.548 0 011.482 1.616c.45.584.854 1.167 1.19 1.729.158.291.315.56.45.808.135.247.247.494.337.673.09.202.157.382.202.472.045.112.067.18.067.18s-.045.022-.134.044c-.09.023-.225.045-.36.067-.157.023-.337.023-.561.023-.202 0-.45-.023-.696-.067a6.065 6.065 0 01-1.64-.54 8.087 8.087 0 01-1.73-1.167 9.414 9.414 0 01-1.55-1.706 10.451 10.451 0 01-1.145-1.975 13.646 13.646 0 01-.652-1.752 4.797 4.797 0 01-.134-.56 1.65 1.65 0 00-.045-.18zm16.711 5.119s-.044.023-.134.045c-.067.045-.202.09-.337.18a4.84 4.84 0 00-.966.74c-.36.337-.696.786-1.01 1.303a7.908 7.908 0 00-.72 1.773 7.726 7.726 0 00-.269 2.043c0 .696.068 1.392.202 1.998.068.315.135.606.225.853.09.27.157.494.247.696.067.202.157.36.202.472.045.112.09.18.09.18s.045-.023.112-.068c.068-.045.18-.135.292-.224l.382-.382c.135-.157.292-.337.427-.539a6.85 6.85 0 00.786-1.46c.225-.56.427-1.167.562-1.818.134-.65.224-1.302.27-1.93a12.24 12.24 0 00-.023-1.819 13.246 13.246 0 00-.202-1.414c-.045-.18-.09-.337-.113-.427 0-.157-.022-.202-.022-.202zm-14.15 5.007s.044-.023.134-.023c.09-.022.225-.045.36-.045a5.115 5.115 0 011.257.068c.517.09 1.079.247 1.662.493a10.36 10.36 0 011.82.988 14.53 14.53 0 011.752 1.347c.561.494 1.056 1.01 1.505 1.505.224.246.426.493.584.718.18.224.337.426.449.629.135.18.225.336.292.449.067.112.112.18.112.18l-.134.067c-.09.022-.203.09-.36.134a3.25 3.25 0 01-.539.113c-.202.022-.45.044-.696.044-.517 0-1.1-.067-1.707-.247a7.927 7.927 0 01-1.91-.853 10.05 10.05 0 01-1.841-1.414 12.183 12.183 0 01-1.505-1.751 10.085 10.085 0 01-.944-1.617c-.112-.224-.18-.404-.247-.538-.022-.18-.045-.247-.045-.247zm17.407 2.132s-.045.023-.112.068c-.067.045-.18.134-.292.224-.247.202-.54.517-.809.92a5.697 5.697 0 00-.74 1.482 7.024 7.024 0 00-.383 1.886c-.045.674 0 1.392.113 2.066a8.59 8.59 0 00.584 1.953c.134.292.247.584.381.83.135.247.27.472.382.651.113.18.225.337.292.427.068.09.113.157.113.157s.044-.022.09-.09c.044-.067.157-.157.247-.291.09-.135.202-.27.314-.45.112-.179.225-.381.314-.606a7.39 7.39 0 00.495-1.593c.112-.607.18-1.258.202-1.909a11.653 11.653 0 00-.113-1.975 13.697 13.697 0 00-.359-1.819 15.5 15.5 0 00-.472-1.37 3.953 3.953 0 00-.18-.403c-.044-.09-.067-.158-.067-.158zm-13.05 7.454l.135-.067c.09-.023.202-.09.359-.113.314-.09.741-.157 1.258-.157.516 0 1.1.068 1.752.202.629.135 1.302.382 1.976.674a15.42 15.42 0 012 1.032c.65.382 1.235.831 1.774 1.258.27.202.517.426.741.606.225.202.404.382.584.539l.382.381c.09.09.135.157.135.157s-.045.023-.113.09c-.067.045-.18.112-.314.18-.135.067-.314.135-.517.224a4.861 4.861 0 01-.674.18c-.494.09-1.1.112-1.752.045-.65-.067-1.347-.247-2.066-.516-.719-.27-1.415-.652-2.089-1.1a13.386 13.386 0 01-1.82-1.482 12.243 12.243 0 01-1.235-1.437 4.945 4.945 0 01-.337-.494.744.744 0 01-.18-.202zM34.6 83.87s-.045.022-.09.09c-.045.067-.157.157-.247.27a4.83 4.83 0 00-.63 1.054c-.201.45-.359.988-.448 1.594a7.098 7.098 0 000 1.953c.09.674.27 1.392.539 2.043.27.674.606 1.303.988 1.864.18.27.382.539.561.763.18.225.36.427.517.584l.382.381c.09.09.157.135.157.135s.023-.045.068-.112c.044-.068.112-.18.18-.337a4.15 4.15 0 00.201-.516c.068-.202.135-.427.18-.674.112-.494.157-1.055.157-1.684 0-.606-.067-1.28-.202-1.93a13.856 13.856 0 00-.516-1.953 14.167 14.167 0 00-.742-1.752 17.64 17.64 0 00-.74-1.28c-.113-.156-.203-.291-.27-.38a.273.273 0 00-.045-.113zm-11.479 9.698s.045-.022.112-.09c.068-.044.18-.112.337-.179a4.841 4.841 0 011.213-.382 7.445 7.445 0 011.775-.09c.651.046 1.37.158 2.111.315.741.18 1.482.404 2.201.696.719.27 1.415.606 2.044.943.315.157.607.337.854.494.27.157.494.314.696.449.202.134.36.247.472.314.112.067.18.135.18.135s-.023.045-.09.09c-.068.044-.158.157-.292.246-.135.09-.292.203-.472.292-.18.112-.404.202-.651.292a6.352 6.352 0 01-1.752.36c-.674.044-1.416-.023-2.18-.158a13.063 13.063 0 01-2.313-.718 13.512 13.512 0 01-2.111-1.168 12.401 12.401 0 01-1.527-1.234l-.427-.427c-.135-.112-.18-.18-.18-.18zm17.408-3.928s-.023.044-.067.112a4.346 4.346 0 00-.584 1.482 5.637 5.637 0 00-.113 1.66c.045.607.202 1.28.427 1.954.247.674.584 1.347.988 1.953.427.629.899 1.213 1.415 1.684.248.247.495.472.742.651.247.202.471.36.673.494.203.135.382.247.495.314.112.068.18.113.18.113s.022-.045.044-.135c.023-.09.068-.202.113-.36a3.36 3.36 0 00.09-.538c.022-.202.044-.45.044-.696 0-.516-.067-1.1-.224-1.706a11.827 11.827 0 00-.63-1.909 13.29 13.29 0 00-.965-1.863 15.67 15.67 0 00-1.123-1.616c-.382-.472-.741-.876-1.033-1.145-.135-.135-.27-.247-.337-.337a1.378 1.378 0 01-.135-.112zm-9.457 11.651s.023-.044.09-.089c.068-.045.157-.158.292-.247.27-.18.651-.404 1.146-.584.494-.18 1.1-.314 1.774-.404.674-.09 1.415-.09 2.201-.045s1.573.157 2.381.314a20.73 20.73 0 012.269.584c.36.112.674.224.988.337.292.112.584.224.809.314.224.09.427.202.539.247.135.067.202.09.202.09s-.023.045-.067.112a2.14 2.14 0 01-.247.292c-.113.112-.248.247-.405.382-.157.134-.36.269-.584.404-.449.269-1.033.494-1.707.651a8.928 8.928 0 01-2.246.202 12.552 12.552 0 01-2.516-.337 14.844 14.844 0 01-2.38-.808 12.83 12.83 0 01-1.797-.966 4.632 4.632 0 01-.517-.359c-.157-.045-.225-.09-.225-.09zm41.622-15.378l3.077 6.398 7.03 1.078-5.144 4.916 1.146 7.005-6.267-3.368-6.334 3.256 1.28-7.005-5.03-5.006 7.03-.943 3.212-6.331zm16.846 9.249l1.908 3.884 4.313.629-3.122 3.031.741 4.288-3.84-2.021-3.864 2.021.741-4.288-3.122-3.031 4.313-.629 1.931-3.884zm-33.827 0l1.932 3.884 4.29.629-3.1 3.031.719 4.288-3.841-2.021-3.863 2.021.74-4.288-3.121-3.031 4.312-.629 1.932-3.884z" fill="#F7D428"/><path d="M54.158 70.792l2.09-6.328h2.227l-3.353 9.643h-1.92l-3.343-9.643h2.235l2.064 6.328zm-2.713-6.328v9.643H48.57v-9.643h2.875zm5.537 9.643v-9.643h2.875v9.643h-2.875zm9.274.179c-.75 0-1.422-.122-2.014-.366a4.37 4.37 0 01-1.501-1.025 4.577 4.577 0 01-.93-1.497 5.087 5.087 0 01-.316-1.791v-.34c0-.706.094-1.36.282-1.96a4.644 4.644 0 01.836-1.586c.37-.452.833-.803 1.39-1.052.558-.256 1.206-.383 1.946-.383.654 0 1.24.11 1.757.33.518.22.956.534 1.314.944.364.41.64.906.828 1.489.193.582.29 1.235.29 1.96v1.221h-7.542v-1.88h4.735v-.232c.005-.32-.049-.594-.162-.82a1.145 1.145 0 00-.478-.517 1.54 1.54 0 00-.768-.178c-.313 0-.572.071-.776.214-.2.142-.356.339-.47.588a3.192 3.192 0 00-.23.847c-.045.32-.068.66-.068 1.016v.338c0 .357.045.68.136.972.097.291.234.54.41.749.182.202.398.36.648.472.256.113.546.17.87.17.393 0 .78-.078 1.16-.232a2.33 2.33 0 00.982-.767l1.305 1.622a3.44 3.44 0 01-.802.811 4.33 4.33 0 01-1.228.642 5.02 5.02 0 01-1.604.24zm8.949-2.318c.268 0 .495-.05.683-.151a1.04 1.04 0 00.435-.446c.102-.196.15-.43.145-.704h2.704c.006.725-.165 1.36-.512 1.907-.34.541-.807.963-1.399 1.266-.585.297-1.248.446-1.987.446-.723 0-1.354-.122-1.895-.366a3.805 3.805 0 01-1.356-1.034 4.62 4.62 0 01-.81-1.56 6.769 6.769 0 01-.265-1.933v-.205c0-.696.088-1.34.265-1.934.182-.6.452-1.12.81-1.56.364-.446.813-.79 1.348-1.034.54-.25 1.169-.374 1.885-.374.768 0 1.445.151 2.03.454a3.34 3.34 0 011.391 1.32c.336.576.501 1.274.495 2.094h-2.704a2.021 2.021 0 00-.128-.785 1.194 1.194 0 00-.427-.552c-.187-.143-.43-.214-.725-.214-.296 0-.535.068-.716.205a1.286 1.286 0 00-.418.57 3.31 3.31 0 00-.188.82c-.029.31-.043.639-.043.99v.205c0 .356.014.692.043 1.007.034.309.1.582.196.82a1.3 1.3 0 00.418.552c.182.131.424.196.725.196zm10.365-7.504v9.643h-2.883v-9.643h2.884zm2.919 0v2.3H79.82v-2.3h8.668zm.461 4.92v-.188c0-.707.096-1.357.29-1.951.193-.6.477-1.12.853-1.56.375-.44.838-.781 1.39-1.025.552-.25 1.189-.374 1.911-.374.728 0 1.368.124 1.92.374a3.822 3.822 0 011.399 1.025c.375.44.66.96.853 1.56a6.28 6.28 0 01.29 1.951v.188c0 .7-.097 1.351-.29 1.952a4.605 4.605 0 01-.853 1.56c-.376.439-.84.78-1.39 1.024-.552.244-1.19.366-1.912.366s-1.362-.122-1.92-.366a3.822 3.822 0 01-1.398-1.025 4.605 4.605 0 01-.854-1.56c-.193-.6-.29-1.25-.29-1.951zm2.874-.188v.188c0 .362.026.7.077 1.016.051.315.137.59.256.829.12.231.282.413.486.543.205.131.461.196.768.196.302 0 .552-.065.75-.196.206-.13.368-.312.487-.543a2.86 2.86 0 00.256-.83c.051-.314.077-.653.077-1.015v-.188c0-.35-.026-.68-.077-.989a2.86 2.86 0 00-.256-.829 1.418 1.418 0 00-.486-.57c-.205-.137-.46-.205-.768-.205-.301 0-.554.068-.76.205a1.446 1.446 0 00-.477.57 2.86 2.86 0 00-.256.83 6.054 6.054 0 00-.077.989zM6.472 145.24v1.046H2.82v-1.046h3.652zm1.004 0v7.617H6.163v-7.617h1.313zm-4.917 0H3.86l-.183 3.782a12.43 12.43 0 01-.141 1.465c-.07.422-.164.783-.283 1.083-.118.3-.268.546-.45.738a1.66 1.66 0 01-.653.418 2.703 2.703 0 01-.885.131H.932v-1.041l.204-.016a1.16 1.16 0 00.476-.13.995.995 0 00.345-.335 2.1 2.1 0 00.235-.581c.063-.237.112-.527.147-.868.038-.342.066-.742.084-1.198l.136-3.448zm7.669 5.776l2.224-3.82h1.26v5.661h-1.26v-3.824l-2.224 3.824h-1.26v-5.661h1.26v3.82zm5.844-3.82h1.26l-.062 1.994c-.018.579-.084 1.076-.199 1.491a3.802 3.802 0 01-.45 1.051 2.817 2.817 0 01-.628.696c-.23.181-.472.324-.727.429h-.371v-.994l.178-.01c.15-.161.279-.321.387-.482a2.71 2.71 0 00.282-.539 3.4 3.4 0 00.178-.695c.046-.265.075-.581.09-.947l.062-1.994zm.335 0h3.588v5.661H18.74v-4.593h-2.333v-1.068zm-1.8 4.657h6.163v2.689h-1.261v-1.685h-3.626v1.685h-1.281l.005-2.689zm9.558 1.109a3.02 3.02 0 01-1.135-.204 2.507 2.507 0 01-.858-.581 2.578 2.578 0 01-.539-.874 3.062 3.062 0 01-.188-1.083v-.209c0-.443.064-.844.193-1.203.13-.359.309-.666.54-.921a2.31 2.31 0 01.815-.591 2.538 2.538 0 011.02-.204c.405 0 .759.068 1.062.204a2 2 0 01.754.575c.202.245.352.536.45.874.1.338.151.712.151 1.12v.538h-4.373v-.905h3.128v-.099a1.767 1.767 0 00-.136-.638 1.09 1.09 0 00-.371-.482c-.168-.122-.39-.183-.67-.183-.21 0-.396.046-.56.136-.16.088-.294.215-.402.382a2.02 2.02 0 00-.252.607 3.412 3.412 0 00-.083.79v.209c0 .248.033.478.1.691.069.209.17.392.303.549.132.157.293.281.48.372.19.087.404.13.644.13.304 0 .574-.061.811-.183.237-.122.443-.294.618-.518l.664.644c-.122.178-.28.349-.476.513a2.39 2.39 0 01-.717.392 2.854 2.854 0 01-.973.152zm4.515-4.677v6.748h-1.26v-7.837h1.16l.1 1.089zm3.688 1.689v.11c0 .412-.049.794-.146 1.146a2.805 2.805 0 01-.424.916 1.952 1.952 0 01-.685.601 1.995 1.995 0 01-.942.215c-.352 0-.661-.065-.926-.194a1.888 1.888 0 01-.664-.56 3.031 3.031 0 01-.44-.847 5.447 5.447 0 01-.23-1.078v-.424a5.77 5.77 0 01.23-1.13c.112-.338.258-.629.44-.873.18-.244.402-.433.664-.565.262-.133.567-.199.915-.199.356 0 .672.07.947.209a1.9 1.9 0 01.696.586c.189.251.33.555.424.91.094.353.141.745.141 1.177zm-1.26.11v-.11a3.39 3.39 0 00-.074-.727 1.904 1.904 0 00-.23-.596 1.102 1.102 0 00-.983-.544 1.32 1.32 0 00-.576.115 1.1 1.1 0 00-.403.309 1.448 1.448 0 00-.251.465 2.8 2.8 0 00-.126.57v1.015c.042.251.114.482.215.691.101.209.244.377.429.502.188.122.429.183.722.183.227 0 .42-.049.58-.146.161-.098.292-.232.393-.403a1.96 1.96 0 00.23-.602c.049-.226.073-.467.073-.722zm8.799-2.888v1.005h-2.794v-1.005h2.794zm-2.495 0v5.661H36.15v-5.661h1.26zm3.484 0v5.661H39.63v-5.661h1.266zm2.6 1.089v6.748h-1.261v-7.837h1.161l.1 1.089zm3.688 1.689v.11c0 .412-.049.794-.146 1.146a2.803 2.803 0 01-.424.916 1.95 1.95 0 01-.685.601 1.994 1.994 0 01-.942.215c-.352 0-.661-.065-.926-.194a1.889 1.889 0 01-.665-.56 3.034 3.034 0 01-.439-.847 5.432 5.432 0 01-.23-1.078v-.424a5.77 5.77 0 01.23-1.13c.112-.338.258-.629.44-.873.18-.244.402-.433.664-.565.261-.133.567-.199.915-.199.356 0 .672.07.947.209.276.136.508.331.696.586.188.251.33.555.424.91.094.353.141.745.141 1.177zm-1.26.11v-.11a3.39 3.39 0 00-.074-.727 1.902 1.902 0 00-.23-.596 1.102 1.102 0 00-.983-.544 1.32 1.32 0 00-.576.115 1.1 1.1 0 00-.403.309 1.448 1.448 0 00-.251.465 2.8 2.8 0 00-.126.57v1.015c.042.251.114.482.215.691.101.209.244.377.429.502.188.122.429.183.722.183.227 0 .42-.049.58-.146a1.15 1.15 0 00.393-.403c.105-.174.181-.375.23-.602.049-.226.073-.467.073-.722zm2.092.006v-.121c0-.408.06-.786.178-1.135a2.72 2.72 0 01.512-.916c.227-.261.503-.463.827-.606.328-.147.698-.22 1.11-.22.414 0 .784.073 1.108.22.328.143.605.345.832.606.227.259.4.564.518.916.119.349.178.727.178 1.135v.121c0 .408-.06.786-.178 1.135a2.706 2.706 0 01-.518.915 2.396 2.396 0 01-.826.607 2.71 2.71 0 01-1.104.215c-.415 0-.787-.072-1.115-.215a2.395 2.395 0 01-.826-.607 2.706 2.706 0 01-.518-.915 3.505 3.505 0 01-.178-1.135zm1.26-.121v.121c0 .254.027.495.08.722.051.226.133.425.245.596.112.171.255.305.43.403.174.097.381.146.622.146.233 0 .436-.049.607-.146.174-.098.317-.232.428-.403.112-.171.194-.37.246-.596.056-.227.084-.468.084-.722v-.121a2.92 2.92 0 00-.084-.711 1.825 1.825 0 00-.25-.602 1.207 1.207 0 00-.43-.408 1.182 1.182 0 00-.612-.152 1.21 1.21 0 00-.617.152 1.22 1.22 0 00-.424.408 1.893 1.893 0 00-.246.602c-.052.223-.078.46-.078.711zm5.708-2.773h1.261l-.063 1.994c-.017.579-.083 1.076-.198 1.491a3.802 3.802 0 01-.45 1.051 2.817 2.817 0 01-.628.696c-.23.181-.473.324-.727.429h-.372v-.994l.178-.01a3.8 3.8 0 00.387-.482c.112-.164.206-.343.283-.539a3.46 3.46 0 00.178-.695c.045-.265.075-.581.089-.947l.062-1.994zm.335 0h3.59v5.661h-1.256v-4.593h-2.334v-1.068zm-1.8 4.657h6.163v2.689h-1.26v-1.685h-3.626v1.685h-1.282l.005-2.689zm10.254-.131v-2.7a1.16 1.16 0 00-.11-.523.771.771 0 00-.334-.34 1.148 1.148 0 00-.555-.12c-.206 0-.383.035-.533.104a.862.862 0 00-.35.283.683.683 0 00-.127.403H60.51c0-.223.054-.44.162-.649.108-.209.265-.396.471-.56a2.35 2.35 0 01.738-.387c.286-.094.606-.141.962-.141.426 0 .802.071 1.13.214.332.143.591.36.78.649.192.286.288.645.288 1.078v2.516c0 .258.017.49.052.696.038.202.092.378.162.528v.084h-1.292a2.238 2.238 0 01-.142-.518 4.224 4.224 0 01-.047-.617zm.183-2.307l.011.779h-.905c-.234 0-.44.023-.617.068a1.266 1.266 0 00-.445.189.808.808 0 00-.356.706c0 .15.035.288.105.413.07.122.17.218.303.288.136.07.3.104.492.104.258 0 .483-.052.675-.156.195-.109.349-.239.46-.393a.853.853 0 00.178-.445l.408.56a1.916 1.916 0 01-.214.461 2.2 2.2 0 01-.398.47 1.96 1.96 0 01-1.355.503c-.37 0-.7-.074-.989-.22a1.76 1.76 0 01-.68-.602 1.557 1.557 0 01-.246-.863c0-.3.056-.565.168-.795.115-.234.282-.429.502-.586.223-.157.495-.276.816-.356a4.4 4.4 0 011.099-.125h.988zm4.28 1.156l-2.26-3.375h1.549l1.318 2.229h1.104l-.163 1.146h-1.548zm.638-.183l-1.449 2.469h-1.549l2.051-3.186.947.717zm1.831-3.192v5.661H69.45v-5.661h1.255zm3.49 0l-2.26 3.375H70.38l-.168-1.146h1.11l1.318-2.229h1.554zm-1.455 5.661l-1.454-2.469.978-.717 2.04 3.186H72.74zm8.402-7.643v7.643h-1.26v-6.147l-1.868.633v-1.041l2.977-1.088h.151zm7.345 5.163h1.308a3.014 3.014 0 01-.418 1.334c-.237.387-.57.693-1 .916-.428.223-.95.335-1.564.335-.47 0-.894-.084-1.27-.251a2.794 2.794 0 01-.969-.722 3.271 3.271 0 01-.617-1.136 4.931 4.931 0 01-.21-1.485v-.633c0-.548.072-1.043.215-1.486.147-.443.356-.822.628-1.135.272-.318.598-.56.978-.728a3.206 3.206 0 011.292-.251c.607 0 1.12.112 1.538.335.419.223.743.532.974.926a3.3 3.3 0 01.429 1.355h-1.308a2.412 2.412 0 00-.23-.842 1.185 1.185 0 00-.513-.534c-.227-.125-.523-.188-.89-.188-.3 0-.561.056-.784.167a1.49 1.49 0 00-.56.492 2.37 2.37 0 00-.34.8c-.073.314-.11.674-.11 1.078v.644c0 .383.033.732.1 1.046.07.31.174.577.313.8.143.224.325.396.544.518.22.122.483.183.79.183.373 0 .675-.059.905-.177.234-.119.41-.292.529-.518.122-.231.202-.511.24-.843zm4.913-1.276v1.004h-2.768v-1.004H93.4zm6.058-3.861v1.046h-3.542v6.571h-1.308v-7.617h4.85zm-3.94 2.924h1.915c.58 0 1.075.098 1.486.293.412.192.726.462.942.811.216.349.324.755.324 1.219 0 .349-.061.668-.183.958-.122.289-.301.54-.539.753a2.502 2.502 0 01-.868.486 3.575 3.575 0 01-1.162.173h-2.825v-7.617h1.319v6.576h1.506c.332 0 .604-.061.817-.183.212-.126.37-.29.47-.492a1.42 1.42 0 00.157-.664 1.31 1.31 0 00-.157-.639 1.115 1.115 0 00-.47-.46c-.213-.115-.485-.173-.817-.173H95.52v-1.041zm6.943 2.852l2.223-3.82h1.261v5.661h-1.261v-3.824l-2.223 3.824H101.2v-5.661h1.261v3.82zm7.445-3.82v5.661h-1.266v-5.661h1.266zm1.857 0v.994h-4.949v-.994h4.949zm2.108 1.089v6.748h-1.261v-7.837h1.162l.099 1.089zm3.688 1.689v.11c0 .412-.048.794-.146 1.146a2.808 2.808 0 01-.424.916 1.951 1.951 0 01-.685.601 1.995 1.995 0 01-.942.215c-.352 0-.661-.065-.926-.194a1.89 1.89 0 01-.664-.56 3.027 3.027 0 01-.44-.847 5.425 5.425 0 01-.23-1.078v-.424a5.77 5.77 0 01.23-1.13c.112-.338.258-.629.44-.873.181-.244.403-.433.664-.565.262-.133.567-.199.916-.199.355 0 .671.07.947.209a1.9 1.9 0 01.695.586c.189.251.33.555.424.91.094.353.141.745.141 1.177zm-1.26.11v-.11a3.39 3.39 0 00-.074-.727 1.9 1.9 0 00-.23-.596 1.1 1.1 0 00-.983-.544c-.224 0-.415.038-.576.115a1.1 1.1 0 00-.403.309 1.444 1.444 0 00-.251.465 2.8 2.8 0 00-.125.57v1.015c.041.251.113.482.214.691.101.209.244.377.429.502.188.122.429.183.722.183.227 0 .42-.049.581-.146.16-.098.291-.232.392-.403.105-.174.181-.375.23-.602.049-.226.074-.467.074-.722zm3.636.932l2.223-3.82h1.261v5.661h-1.261v-3.824l-2.223 3.824h-1.261v-5.661h1.261v3.82zm6.178-3.82v5.661h-1.261v-5.661h1.261zm3.694 0l-2.548 3.406h-1.439l-.167-1.14h1.051l1.528-2.266h1.575zm-1.476 5.661l-1.705-2.469.994-.717 2.37 3.186h-1.659zm4.573-.9c.205 0 .39-.04.554-.12.168-.084.302-.199.403-.345a.947.947 0 00.173-.508h1.187a1.77 1.77 0 01-.324.999c-.209.3-.487.539-.832.717a2.496 2.496 0 01-1.146.262c-.432 0-.809-.074-1.13-.22a2.24 2.24 0 01-.8-.617 2.721 2.721 0 01-.481-.905 3.724 3.724 0 01-.157-1.099v-.183c0-.391.052-.757.157-1.099.108-.345.268-.649.481-.91.213-.262.479-.466.8-.612.321-.15.696-.225 1.125-.225.453 0 .851.091 1.193.272.342.178.61.427.806.748.198.317.301.687.308 1.109h-1.187a1.277 1.277 0 00-.157-.565 1.04 1.04 0 00-.387-.408 1.107 1.107 0 00-.592-.152c-.254 0-.465.053-.633.157a1.056 1.056 0 00-.392.419 2.04 2.04 0 00-.204.591 3.89 3.89 0 00-.058.675v.183c0 .234.02.46.058.68.038.22.105.417.199.591.097.171.23.309.397.414.168.101.381.151.639.151zm8.705-1.522h-1.81l-.011-.89h1.486c.244 0 .445-.024.602-.073a.702.702 0 00.356-.219.597.597 0 00.115-.367.663.663 0 00-.068-.308.528.528 0 00-.21-.22.92.92 0 00-.345-.126 2.385 2.385 0 00-.476-.042h-1.031v4.667h-1.26v-5.661h2.291c.363 0 .689.032.978.095.293.062.543.158.748.287.206.129.363.293.471.492.112.195.168.426.168.691 0 .174-.039.338-.115.492a1.2 1.2 0 01-.33.408 1.866 1.866 0 01-.539.293 2.83 2.83 0 01-.732.136l-.288.345zm0 2.422h-2.176l.502-.994h1.674c.223 0 .408-.028.555-.084a.654.654 0 00.324-.24.668.668 0 00.11-.382.696.696 0 00-.105-.387.646.646 0 00-.324-.246 1.469 1.469 0 00-.56-.089h-1.439l.011-.89h1.71l.361.346c.36.024.658.101.895.23s.415.291.534.486c.118.196.178.409.178.639 0 .265-.051.498-.152.701a1.303 1.303 0 01-.44.507 2.137 2.137 0 01-.706.304 4.15 4.15 0 01-.952.099zm-121.692 6.669v7.617H18.61v-7.617h1.308zm4.583 0l-3.097 4.342h-1.857l-.178-1.141h1.308l2.218-3.201H24.5zm-1.34 7.617l-2.463-3.474.847-1.01 3.191 4.484h-1.574zm5.394-1.135v-2.7c0-.202-.036-.377-.11-.523a.765.765 0 00-.334-.34 1.147 1.147 0 00-.555-.121c-.206 0-.383.035-.533.105a.862.862 0 00-.351.283.678.678 0 00-.125.402H25.29c0-.223.054-.439.162-.648.108-.21.265-.396.47-.56.207-.164.453-.293.739-.387.286-.094.606-.141.962-.141.426 0 .802.071 1.13.214.331.143.591.359.78.649.191.286.287.645.287 1.077v2.517c0 .258.018.49.053.696.038.202.092.378.162.528v.084h-1.292a2.243 2.243 0 01-.141-.518 4.235 4.235 0 01-.048-.617zm.184-2.308l.01.78h-.905c-.234 0-.44.023-.617.068a1.284 1.284 0 00-.445.188.818.818 0 00-.356.707c0 .149.035.287.105.413.07.122.17.218.303.288.136.069.3.104.492.104a1.384 1.384 0 001.135-.549.854.854 0 00.178-.445l.408.56a1.918 1.918 0 01-.214.46 2.232 2.232 0 01-.398.471 1.962 1.962 0 01-1.355.502c-.37 0-.7-.073-.989-.219a1.761 1.761 0 01-.68-.602 1.56 1.56 0 01-.246-.863c0-.3.056-.565.168-.795.115-.234.282-.429.502-.586.223-.157.495-.276.816-.356a4.352 4.352 0 011.099-.126h.989zm4.745.738h-1.089v-.638h.88c.222 0 .4-.03.533-.089a.563.563 0 00.288-.246.773.773 0 00.089-.377.745.745 0 00-.09-.355.64.64 0 00-.287-.283c-.136-.073-.321-.11-.555-.11-.192 0-.364.032-.518.094a.862.862 0 00-.355.262.612.612 0 00-.131.387h-1.26c0-.352.099-.656.297-.91.203-.255.473-.45.811-.586a2.96 2.96 0 011.115-.204c.345 0 .655.036.93.11.276.069.51.174.702.314.195.136.343.306.444.512.105.203.157.438.157.707 0 .191-.045.373-.136.544a1.41 1.41 0 01-.392.455 1.95 1.95 0 01-.622.303 2.79 2.79 0 01-.811.11zm-1.089-.366h1.089c.334 0 .63.033.889.099.258.063.474.157.649.283.174.125.305.281.392.465.09.182.136.391.136.628 0 .265-.057.504-.173.717a1.53 1.53 0 01-.48.534 2.271 2.271 0 01-.739.334 3.639 3.639 0 01-.946.115c-.377 0-.743-.062-1.1-.188a2.053 2.053 0 01-.873-.581c-.226-.265-.34-.601-.34-1.009h1.261c0 .143.044.277.13.403a.96.96 0 00.377.308c.164.077.361.115.592.115.237 0 .43-.036.58-.11a.798.798 0 00.335-.298.774.774 0 00.11-.397.84.84 0 00-.11-.456.627.627 0 00-.335-.251 1.657 1.657 0 00-.565-.083h-.879v-.628zm7.419 1.936v-2.7a1.16 1.16 0 00-.11-.523.765.765 0 00-.335-.34 1.147 1.147 0 00-.555-.121c-.205 0-.383.035-.533.105a.863.863 0 00-.35.283.678.678 0 00-.126.402h-1.256c0-.223.054-.439.162-.648a1.73 1.73 0 01.471-.56 2.35 2.35 0 01.738-.387c.286-.094.607-.141.963-.141.425 0 .802.071 1.13.214.33.143.59.359.78.649.19.286.287.645.287 1.077v2.517c0 .258.017.49.052.696.038.202.093.378.162.528v.084h-1.292a2.233 2.233 0 01-.141-.518 4.235 4.235 0 01-.047-.617zm.183-2.308l.01.78h-.905c-.233 0-.44.023-.617.068a1.284 1.284 0 00-.445.188.818.818 0 00-.355.707.84.84 0 00.104.413c.07.122.171.218.304.288.136.069.3.104.491.104a1.384 1.384 0 001.136-.549.854.854 0 00.178-.445l.408.56a1.918 1.918 0 01-.215.46 2.232 2.232 0 01-.398.471 1.961 1.961 0 01-1.355.502 2.16 2.16 0 01-.988-.219 1.76 1.76 0 01-.68-.602 1.56 1.56 0 01-.246-.863c0-.3.055-.565.167-.795.115-.234.283-.429.502-.586a2.44 2.44 0 01.816-.356 4.36 4.36 0 011.1-.126h.988zm3.364-2.218l1.078 1.878 1.098-1.878h1.386l-1.715 2.778 1.783 2.883h-1.386l-1.15-1.957-1.152 1.957h-1.391l1.778-2.883-1.71-2.778h1.38zm6.633 4.761c.206 0 .391-.04.555-.12a1.05 1.05 0 00.403-.346.939.939 0 00.172-.507h1.188a1.768 1.768 0 01-.324.999c-.21.3-.487.539-.832.717a2.51 2.51 0 01-1.146.261c-.432 0-.809-.073-1.13-.219a2.23 2.23 0 01-.8-.618 2.708 2.708 0 01-.482-.905 3.727 3.727 0 01-.157-1.098v-.183c0-.391.053-.757.157-1.099a2.7 2.7 0 01.482-.91c.212-.262.48-.466.8-.612.321-.15.696-.225 1.125-.225.453 0 .85.09 1.193.272.341.177.61.427.805.748.2.317.302.687.309 1.109h-1.188a1.264 1.264 0 00-.156-.565 1.035 1.035 0 00-.388-.408 1.105 1.105 0 00-.59-.152c-.255 0-.466.052-.634.157a1.055 1.055 0 00-.392.419 2.032 2.032 0 00-.204.591 3.851 3.851 0 00-.058.675v.183c0 .233.02.46.058.68.038.22.104.417.199.591.097.171.23.309.397.413.168.101.38.152.638.152zm5.912-4.761v5.661H54.64v-5.661h1.266zm1.857 0v.994h-4.949v-.994h4.95zm3.95 4.526v-2.7c0-.202-.036-.377-.11-.523a.765.765 0 00-.334-.34 1.147 1.147 0 00-.555-.121c-.206 0-.384.035-.534.105a.863.863 0 00-.35.283.678.678 0 00-.126.402h-1.255c0-.223.054-.439.162-.648.108-.21.265-.396.47-.56a2.35 2.35 0 01.738-.387c.286-.094.607-.141.963-.141.425 0 .802.071 1.13.214.331.143.591.359.78.649.191.286.287.645.287 1.077v2.517c0 .258.018.49.053.696.038.202.092.378.162.528v.084H61.9a2.238 2.238 0 01-.142-.518 4.235 4.235 0 01-.047-.617zm.183-2.308l.01.78h-.904c-.234 0-.44.023-.618.068a1.284 1.284 0 00-.444.188.818.818 0 00-.356.707.84.84 0 00.105.413c.07.122.17.218.303.288.136.069.3.104.492.104a1.384 1.384 0 001.135-.549.854.854 0 00.178-.445l.408.56a1.918 1.918 0 01-.215.46 2.232 2.232 0 01-.397.471 1.962 1.962 0 01-1.355.502c-.37 0-.7-.073-.989-.219a1.76 1.76 0 01-.68-.602 1.56 1.56 0 01-.246-.863c0-.3.056-.565.167-.795.116-.234.283-.429.503-.586.223-.157.495-.276.816-.356.32-.084.687-.126 1.099-.126h.988zm6.268.147v.994h-2.93v-.994h2.93zm-2.564-2.365v5.661h-1.26v-5.661h1.26zm3.474 0v5.661h-1.26v-5.661h1.26zm3.84 5.765a3.02 3.02 0 01-1.135-.204 2.506 2.506 0 01-.858-.58 2.578 2.578 0 01-.54-.874 3.062 3.062 0 01-.187-1.083v-.209c0-.443.064-.844.193-1.203.13-.36.309-.667.539-.921.23-.258.502-.455.816-.591a2.538 2.538 0 011.02-.204c.405 0 .759.068 1.062.204.304.136.555.327.754.575.202.244.352.535.45.874.1.338.151.711.151 1.119v.539h-4.373v-.905h3.128v-.099a1.775 1.775 0 00-.136-.639 1.089 1.089 0 00-.371-.481c-.168-.122-.39-.183-.67-.183-.21 0-.396.045-.56.136a1.11 1.11 0 00-.403.382c-.108.167-.191.37-.25.607a3.412 3.412 0 00-.084.79v.209c0 .248.033.478.099.691.07.209.17.392.303.549.133.157.293.281.482.371.188.088.403.131.643.131.304 0 .574-.061.811-.183a1.87 1.87 0 00.618-.518l.664.644a2.369 2.369 0 01-1.193.905 2.855 2.855 0 01-.973.151zm5.943-3.112v-.089c0-.747.08-1.423.24-2.03a6.718 6.718 0 01.639-1.601c.262-.46.54-.841.837-1.141.3-.303.588-.521.863-.653l.251.721a3.17 3.17 0 00-.607.623 4.813 4.813 0 00-.549.978 6.764 6.764 0 00-.397 1.35 9.376 9.376 0 00-.147 1.742v.11c0 .649.049 1.231.147 1.747.1.513.233.963.397 1.35.168.387.35.715.55.984.202.272.404.488.606.648l-.25.691c-.276-.136-.564-.356-.864-.659-.296-.3-.575-.68-.837-1.141a6.737 6.737 0 01-.638-1.595 8.01 8.01 0 01-.24-2.035zm5.049-2.653v5.661h-1.261v-5.661h1.26zm3.693 0l-2.548 3.406h-1.438l-.168-1.141h1.052l1.527-2.265h1.575zm-1.475 5.661l-1.706-2.47.994-.716 2.37 3.186h-1.658zm1.914-2.768v-.12c0-.408.06-.787.178-1.135.119-.353.29-.658.513-.916a2.32 2.32 0 01.827-.607 2.698 2.698 0 011.109-.219c.415 0 .784.073 1.109.219.328.143.605.346.832.607.226.258.4.563.518.916a3.5 3.5 0 01.177 1.135v.12c0 .408-.059.787-.177 1.136a2.724 2.724 0 01-.518.915c-.227.258-.502.46-.827.607a2.71 2.71 0 01-1.104.214 2.76 2.76 0 01-1.114-.214 2.408 2.408 0 01-.827-.607 2.726 2.726 0 01-.518-.915 3.51 3.51 0 01-.178-1.136zm1.261-.12v.12c0 .255.026.496.079.722.052.227.134.426.246.597.111.171.254.305.429.402.174.098.382.147.622.147a1.2 1.2 0 00.607-.147c.174-.097.317-.231.43-.402.11-.171.193-.37.245-.597.056-.226.084-.467.084-.722v-.12c0-.251-.028-.488-.084-.712a1.827 1.827 0 00-.251-.601 1.19 1.19 0 00-1.041-.56 1.21 1.21 0 00-.618.152c-.17.097-.312.233-.423.408a1.897 1.897 0 00-.246.601 3.122 3.122 0 00-.079.712zm6.325-1.685v6.749h-1.26v-7.837h1.16l.1 1.088zm3.689 1.69v.11a4.3 4.3 0 01-.147 1.146 2.79 2.79 0 01-.424.915 1.954 1.954 0 01-.685.602 1.994 1.994 0 01-.942.214c-.352 0-.66-.064-.926-.193a1.9 1.9 0 01-.664-.56 3.048 3.048 0 01-.44-.847 5.455 5.455 0 01-.23-1.078v-.424c.046-.415.122-.792.23-1.13a3.08 3.08 0 01.44-.874c.181-.244.403-.432.664-.565a2.01 2.01 0 01.916-.198c.356 0 .671.069.947.209.275.136.507.331.696.586.188.251.33.554.423.91.094.352.142.745.142 1.177zm-1.261.11v-.11c0-.261-.025-.504-.073-.727a1.885 1.885 0 00-.23-.596 1.127 1.127 0 00-.404-.398 1.093 1.093 0 00-.58-.146 1.32 1.32 0 00-.576.115c-.16.073-.294.176-.403.308a1.464 1.464 0 00-.25.466c-.06.174-.102.364-.126.57v1.015c.042.251.113.481.214.691.102.209.245.376.43.502.188.122.428.183.721.183.227 0 .42-.049.581-.147.16-.097.291-.231.392-.402a1.97 1.97 0 00.23-.602c.05-.227.074-.467.074-.722zm2.092.005v-.12c0-.408.06-.787.178-1.135.119-.353.29-.658.513-.916a2.32 2.32 0 01.827-.607 2.694 2.694 0 011.109-.219c.415 0 .784.073 1.109.219.328.143.605.346.832.607.226.258.399.563.518.916.118.348.177.727.177 1.135v.12c0 .408-.059.787-.177 1.136a2.745 2.745 0 01-.518.915c-.227.258-.503.46-.827.607a2.708 2.708 0 01-1.104.214 2.76 2.76 0 01-1.114-.214 2.406 2.406 0 01-.827-.607 2.745 2.745 0 01-.518-.915 3.527 3.527 0 01-.178-1.136zm1.261-.12v.12c0 .255.026.496.079.722.052.227.134.426.246.597.111.171.254.305.429.402.174.098.381.147.622.147a1.2 1.2 0 001.036-.549c.112-.171.194-.37.246-.597.056-.226.084-.467.084-.722v-.12c0-.251-.028-.488-.084-.712a1.822 1.822 0 00-.251-.601 1.196 1.196 0 00-1.041-.56c-.237 0-.443.051-.618.152a1.195 1.195 0 00-.423.408 1.881 1.881 0 00-.246.601 3.083 3.083 0 00-.079.712zm8.611-5.253h1.021c0 .311-.044.567-.131.769a1.193 1.193 0 01-.377.492 1.968 1.968 0 01-.612.304c-.241.076-.52.146-.837.209a2.745 2.745 0 00-.795.298 1.733 1.733 0 00-.591.56c-.157.237-.271.542-.34.915-.07.374-.091.829-.063 1.366v.356l-.999.089v-.356c0-.666.061-1.247.183-1.742.122-.496.294-.912.518-1.251.226-.341.495-.613.805-.816a2.99 2.99 0 011.047-.418c.261-.056.479-.112.653-.168a.918.918 0 00.388-.225.54.54 0 00.13-.382zm-.884 2.799c.377 0 .712.067 1.005.199.293.129.54.311.743.544a2.4 2.4 0 01.46.827c.108.317.162.662.162 1.036v.115c0 .39-.057.751-.172 1.083a2.526 2.526 0 01-.508.868 2.368 2.368 0 01-.821.576 2.808 2.808 0 01-1.104.204c-.412 0-.78-.072-1.104-.215a2.328 2.328 0 01-.821-.596 2.634 2.634 0 01-.508-.905 3.56 3.56 0 01-.172-1.13v-.115a.37.37 0 01.057-.215c.045-.07.099-.145.162-.225.063-.08.119-.173.168-.277.174-.352.38-.661.617-.926s.507-.473.811-.623c.307-.15.649-.225 1.025-.225zm-.246 1c-.313 0-.57.075-.769.225-.195.146-.34.341-.434.585-.091.245-.136.51-.136.796v.115c0 .233.026.455.079.664.052.209.13.394.235.555.108.157.248.28.419.371.174.091.38.136.617.136.241 0 .445-.045.612-.136.171-.091.309-.214.413-.371.108-.161.187-.346.236-.555.052-.209.078-.431.078-.664v-.115c0-.217-.026-.421-.078-.612a1.456 1.456 0 00-.236-.508 1.158 1.158 0 00-.418-.356 1.35 1.35 0 00-.618-.13zm4.871-1.319v5.661h-1.261v-5.661h1.261zm3.694 0l-2.548 3.406h-1.439l-.167-1.141h1.051l1.528-2.265h1.575zm-1.476 5.661l-1.705-2.47.994-.716 2.37 3.186h-1.659zm5.535-1.135v-2.7c0-.202-.036-.377-.11-.523a.762.762 0 00-.334-.34 1.151 1.151 0 00-.555-.121c-.206 0-.384.035-.534.105a.862.862 0 00-.35.283.676.676 0 00-.126.402h-1.255c0-.223.054-.439.162-.648.108-.21.265-.396.471-.56.205-.164.451-.293.737-.387.286-.094.607-.141.963-.141.425 0 .802.071 1.13.214.331.143.591.359.78.649.191.286.287.645.287 1.077v2.517c0 .258.018.49.053.696.038.202.092.378.162.528v.084h-1.292a2.206 2.206 0 01-.142-.518 4.29 4.29 0 01-.047-.617zm.183-2.308l.011.78h-.905c-.234 0-.44.023-.618.068a1.282 1.282 0 00-.444.188.813.813 0 00-.356.707c0 .149.035.287.105.413.069.122.17.218.303.288.136.069.3.104.492.104.258 0 .483-.052.675-.157.195-.108.348-.239.46-.392a.851.851 0 00.178-.445l.408.56a1.89 1.89 0 01-.215.46 2.22 2.22 0 01-.397.471 1.966 1.966 0 01-1.355.502c-.37 0-.699-.073-.989-.219a1.764 1.764 0 01-.68-.602 1.56 1.56 0 01-.246-.863c0-.3.056-.565.168-.795.115-.234.282-.429.502-.586.223-.157.495-.276.816-.356a4.352 4.352 0 011.099-.126h.988zm4.834.346v.089a7.54 7.54 0 01-.251 2.014 6.714 6.714 0 01-.643 1.601c-.262.46-.546.844-.853 1.151-.303.307-.595.528-.874.664l-.256-.691c.202-.153.403-.364.602-.633.202-.265.385-.594.549-.988.167-.391.3-.844.397-1.361a9.056 9.056 0 00.152-1.747v-.11c0-.648-.052-1.231-.157-1.747a6.383 6.383 0 00-.408-1.36 5.116 5.116 0 00-.554-.989 3.345 3.345 0 00-.581-.628l.256-.69c.279.132.571.352.874.659.307.307.591.692.853 1.156.265.46.479.994.643 1.601.168.607.251 1.276.251 2.009zm-62.759-31.192v1.814H56.68v-1.535l3.264-3.432c.289-.33.521-.625.698-.886a3.53 3.53 0 00.384-.718 1.61 1.61 0 00.125-.579 1.79 1.79 0 00-.132-.733.934.934 0 00-.377-.453 1.122 1.122 0 00-.607-.154c-.242 0-.453.07-.635.21-.181.139-.323.33-.425.572a2.163 2.163 0 00-.147.816h-2.357c0-.623.15-1.193.453-1.709a3.396 3.396 0 011.277-1.235c.544-.311 1.174-.467 1.89-.467.749 0 1.376.116 1.883.349.507.232.889.569 1.144 1.011.26.437.39.965.39 1.584 0 .353-.055.692-.166 1.018a4.39 4.39 0 01-.482.97c-.21.316-.465.641-.767.976-.298.335-.637.691-1.019 1.067l-1.31 1.514h4.003zm8.252-4.192v1.855c0 .73-.086 1.365-.258 1.905-.167.539-.41.985-.726 1.339a2.9 2.9 0 01-1.116.788 3.834 3.834 0 01-1.43.258 4.13 4.13 0 01-1.172-.16 3.119 3.119 0 01-.983-.503 3.213 3.213 0 01-.746-.851 4.117 4.117 0 01-.482-1.199 6.78 6.78 0 01-.167-1.577v-1.855c0-.735.084-1.37.251-1.905.172-.539.416-.985.732-1.339a2.96 2.96 0 011.124-.788 3.834 3.834 0 011.43-.258c.418 0 .806.056 1.164.167a2.99 2.99 0 011.73 1.347c.21.339.37.741.482 1.206.111.461.167.984.167 1.57zm-2.35 2.141v-2.441c0-.326-.02-.609-.057-.851a2.456 2.456 0 00-.153-.614 1.23 1.23 0 00-.244-.405.854.854 0 00-.335-.23 1.031 1.031 0 00-.405-.077c-.186 0-.353.04-.502.119a.944.944 0 00-.37.363 2.1 2.1 0 00-.237.669 5.801 5.801 0 00-.076 1.026v2.441c0 .33.016.619.048.865.038.242.089.449.154.621.07.167.153.305.251.412a.9.9 0 00.335.223c.125.046.263.069.411.069.182 0 .344-.037.489-.111a.951.951 0 00.37-.363c.106-.172.185-.397.237-.676.055-.284.083-.631.083-1.04zm10.671 2.051v1.814h-7.086v-1.535l3.264-3.432c.288-.33.521-.625.698-.886.176-.265.304-.504.383-.718a1.61 1.61 0 00.126-.579c0-.293-.044-.537-.133-.733a.935.935 0 00-.376-.453 1.123 1.123 0 00-.607-.154c-.242 0-.454.07-.635.21-.181.139-.323.33-.425.572a2.165 2.165 0 00-.147.816h-2.358c0-.623.151-1.193.454-1.709a3.396 3.396 0 011.276-1.235c.544-.311 1.174-.467 1.89-.467.75 0 1.377.116 1.884.349.507.232.888.569 1.144 1.011.26.437.39.965.39 1.584 0 .353-.055.692-.167 1.018a4.395 4.395 0 01-.481.97c-.21.316-.465.641-.767.976-.298.335-.638.691-1.019 1.067l-1.311 1.514h4.004zm6.404-8.343v10.157h-2.35v-7.506l-2.316.677v-1.786l4.45-1.542h.216z" fill="#fff"/></svg>