<svg width="159" height="45" fill="none" xmlns="http://www.w3.org/2000/svg"><path d="M154.449 45H4.551C2.06 45 0 42.997 0 40.492V4.508C0 2.003 2.022 0 4.55 0h149.9c2.489 0 4.55 2.003 4.55 4.508v35.984c0 2.505-2.023 4.508-4.551 4.508z" fill="#34CEB0"/><path d="M20.304 11.443c-.81 0-1.657.077-2.389.27v10.864a2.442 2.442 0 002.427 2.427c1.31 0 2.428-1.117 2.428-2.427 0-1.271-1.002-2.35-2.235-2.427v-1.927c2.312.078 4.16 2.004 4.16 4.354a4.349 4.349 0 01-4.353 4.354c-2.388 0-4.353-1.965-4.353-4.354V12.329c-.27.154-.54.23-.81.385v9.902c0 2.85 2.312 5.2 5.125 5.2 2.812 0 5.124-2.388 5.124-5.239a5.19 5.19 0 00-5.009-5.201v-1.927c3.815.078 6.935 3.275 6.935 7.128 0 3.891-3.159 7.128-7.089 7.128-3.93 0-7.089-3.198-7.089-7.128v-8.553c-2.466 2.08-4.045 5.124-4.045 8.592 0 6.164 4.97 11.172 11.096 11.172s11.096-5.008 11.096-11.172c0-6.165-4.855-11.173-11.02-11.173zm25.968 6.511h6.703v1.194h-5.124v1.927h2.543c1.04 0 1.81.192 2.35.577.54.386.81.964.81 1.696 0 .77-.31 1.387-.887 1.81-.578.424-1.425.617-2.504.617H46.31v-7.821h-.038zm3.775 6.703c.617 0 1.079-.115 1.387-.308.308-.23.463-.54.463-.924 0-.81-.617-1.195-1.888-1.195h-2.196v2.427h2.234zm5.24-6.703h1.58v5.548l4.623-5.548h1.503v7.82h-1.58v-5.547l-4.623 5.548h-1.503v-7.821zm16.296 1.233h-2.851v6.588h-1.58v-6.588H64.34v-1.233h7.281v1.233h-.038zm6.859-.887c.539.232.963.54 1.271.964.308.424.424.924.424 1.502s-.154 1.079-.424 1.464c-.308.424-.732.732-1.271.963-.54.232-1.195.347-1.965.347H74.55v2.273h-1.58v-7.86h3.545c.732 0 1.387.116 1.927.348zm-.424 3.584c.347-.27.54-.655.54-1.156 0-.501-.194-.886-.54-1.156-.347-.27-.886-.385-1.58-.385h-1.85v3.12h1.85c.694-.038 1.233-.154 1.58-.423zm3.66-3.93h1.58v5.548l4.623-5.548h1.502v7.82h-1.58v-5.547l-4.623 5.548h-1.502v-7.821zm13.252 4.507h-1.579v3.314h-1.58v-7.821h1.58v3.275h1.657l2.466-3.275h1.695l-2.928 3.775 3.043 4.046h-1.81L94.93 22.46zm7.014 2.89a4.256 4.256 0 01-1.657-1.425 3.843 3.843 0 01-.578-2.08c0-.771.193-1.465.616-2.081.386-.617.964-1.08 1.657-1.426.694-.347 1.503-.5 2.35-.5.694 0 1.349.115 1.927.346.578.231 1.078.54 1.464.963l-1.041.886c-.616-.616-1.387-.924-2.311-.924-.578 0-1.117.115-1.58.346-.462.232-.847.578-1.079.964-.269.423-.385.886-.385 1.425 0 .54.116 1.002.385 1.426.27.423.617.732 1.079.963a3.526 3.526 0 001.58.347c.924 0 1.656-.309 2.311-.925l1.041.886c-.386.424-.886.732-1.464.963a5.193 5.193 0 01-1.927.347 4.746 4.746 0 01-2.388-.5zm12.752-.809v1.233h-6.318v-.963l3.429-2.967c.385-.347.655-.616.77-.886.155-.231.193-.501.193-.732 0-.347-.154-.655-.424-.848-.269-.193-.655-.308-1.194-.308-.886 0-1.541.27-2.003.809l-1.118-.77c.347-.424.771-.732 1.349-.964.578-.23 1.194-.346 1.926-.346.925 0 1.695.192 2.235.616.539.385.847.963.847 1.657 0 .424-.115.809-.308 1.194-.193.385-.578.81-1.117 1.271l-2.312 2.004h4.045zm8.399-.539h-1.541v1.772h-1.541v-1.772h-4.701V23l4.239-5.047h1.695l-4.007 4.816h2.812v-1.58h1.503v1.58h1.541v1.233z" fill="#fff"/></svg>