<svg width="137" height="109" fill="none" xmlns="http://www.w3.org/2000/svg"><path d="M107.017 38.35c0-.35.058-.7.058-1.05 0-18.958-15.142-34.3-33.82-34.3-13.476 0-25.052 7.992-30.49 19.542-2.367-1.196-5.027-1.896-7.833-1.896-8.624 0-15.815 6.387-17.189 14.729C7.397 38.933 0 48.821 0 60.458 0 75.1 11.722 86.971 26.162 87h80.884c13.213-.058 23.882-10.938 23.882-24.325.029-13.417-10.699-24.296-23.911-24.325z" fill="url(#paint0_linear_1341_156)"/><g clip-path="url(#clip0_1341_156)"><path d="M91.772 109c-1.193 0-2.278-.109-3.037-.327-4.013-1.09-5.965-3.052-7.7-4.906-1.953-2.071-3.688-3.815-8.352-3.815h-1.627c-3.254-.109-6.833-.109-9.327-2.507-1.953-1.853-2.712-4.906-1.953-7.85.217-.871.651-3.924-2.06-4.905a4.611 4.611 0 00-2.17-.218c-3.145.327-6.507.654-9.76 0-4.556-.872-7.593-2.834-8.46-5.668-.651-2.072-.11-4.252 1.626-6.105 3.037-3.38 10.304-6.105 21.258-3.597.434.109.76.545.651 1.09-.108.436-.65.763-1.084.654-10.196-2.398-16.92.109-19.523 3.052-1.302 1.417-1.736 2.944-1.193 4.36.65 2.072 3.254 3.707 7.158 4.47 3.037.545 6.182.327 9.22 0 1.084-.109 2.06 0 2.928.327 3.362 1.2 3.904 4.47 3.253 6.977-.542 2.29 0 4.796 1.519 6.214 1.952 1.962 5.097 1.962 8.026 2.07h1.627c5.423 0 7.483 2.181 9.544 4.361 1.627 1.744 3.362 3.489 6.833 4.361 2.603.654 8.677.327 10.52-3.598.326-.545.435-1.199.651-1.853.326-.981.651-1.962 1.194-2.943a6.328 6.328 0 011.41-1.526c.542-.545 1.084-1.09 1.41-1.744 1.193-2.617-1.844-6.977-4.122-9.375-.325-.328-.325-.873 0-1.309.325-.327.868-.327 1.302 0 2.386 2.508 6.073 7.631 4.446 11.338-.433.98-1.084 1.635-1.843 2.289-.434.436-.868.872-1.193 1.308-.434.654-.76 1.526-.977 2.398a17.271 17.271 0 01-.759 2.18C99.473 107.91 95.134 109 91.772 109z" fill="#447695"/><path d="M51.208 61.578v12.318L94.81 99.187s.109 0 0 0l-43.6-37.609z" fill="#447695"/><path d="M136.566 71.499c-.217-.545-.542-.981-.868-1.417l-.542-.545-42.082-34.884c-.109-.109-.326-.218-.434-.327-.542-.327-1.193-.436-1.519-.109L50.015 58.09c.434-.218 45.553 41.098 45.445 41.098l41.106-23.983c.109-.109.217-.218.217-.327l.217-1.09c.108-.654 0-1.526-.434-2.289z" fill="#F3F7FC"/><path d="M51.534 58.308c.108.11.325.218.433.327L94.05 93.52c1.301 1.09 2.06 2.943 1.735 4.251l-.217 1.09c-.108.437-.434.546-.867.328-.109 0-.109-.11-.217-.11L49.69 61.689c-.326-.327-.542-.873-.542-1.2l.325-1.417c.217-1.09 1.084-1.417 2.06-.763z" fill="#CFDEEB"/><path d="M135.698 70.082L94.592 94.065c.325.436.65.872.868 1.417l41.106-23.983c-.217-.545-.434-.98-.868-1.417zm-26.355-17.004c.217.109.217.327 0 .436l-1.844 1.199c-.217.109-.542.109-.651-.11l-.651-.544c-.217-.11-.217-.327 0-.436l1.844-1.09c.217-.11.542-.11.651.109l.651.436zm-3.146 3.27c.217.218.217.436 0 .654l-2.277 1.308c-.217.109-.651.109-.868-.109l-1.735-1.417c-.217-.218-.217-.436 0-.654l2.277-1.308c.217-.11.651-.11.868.109l1.735 1.417zm-4.555 2.617c.217.218.217.436 0 .654l-2.278 1.308c-.217.11-.65.11-.867-.109l-1.736-1.417c-.217-.218-.217-.436 0-.654l2.278-1.308c.217-.11.65-.11.868.109l1.735 1.417zm-4.555 2.723c.216.218.216.436 0 .654l-2.278 1.308c-.217.109-.65.109-.868-.11l-1.735-1.416c-.217-.218-.217-.436 0-.654l2.278-1.309c.217-.109.65-.109.867.11l1.736 1.417zm15.293-6.103c.216.109.216.327 0 .436l-1.844 1.09c-.217.109-.543.109-.651-.11l-.651-.544c-.217-.11-.217-.327 0-.545l1.844-1.09c.217-.11.542-.11.651.109l.651.654zm-2.495 3.813c.217.219.217.437 0 .655l-2.278 1.308c-.217.109-.65.109-.867-.11l-1.736-1.416c-.217-.218-.217-.437 0-.654l2.278-1.309c.217-.109.651-.109.868.11l1.735 1.416zm-4.555 2.618c.217.218.217.436 0 .654l-2.278 1.308c-.217.109-.651.109-.868-.11l-1.735-1.416c-.217-.218-.217-.436 0-.654l2.278-1.308c.217-.11.65-.11.867.109l1.736 1.417zm-4.556 2.617c.217.218.217.436 0 .654l-2.277 1.308c-.217.11-.651.11-.868-.109l-1.735-1.417c-.217-.218-.217-.436 0-.654l2.277-1.308c.217-.11.651-.11.868.109l1.735 1.417zm12.69-2.289c.217.218.217.436 0 .654l-2.278 1.308c-.217.11-.65.11-.867-.109l-1.736-1.417c-.217-.218-.217-.436 0-.654l2.278-1.308c.217-.11.651-.11.868.109l1.735 1.417zm-4.555 2.726c.217.218.217.437 0 .655l-2.278 1.308c-.217.109-.651.109-.867-.11l-1.736-1.416c-.217-.219-.217-.437 0-.655l2.278-1.308c.217-.109.651-.109.868.11l1.735 1.416zm-4.556 2.614c.217.218.217.436 0 .654l-2.277 1.308c-.217.109-.651.109-.868-.11l-1.735-1.416c-.217-.218-.217-.436 0-.654l2.277-1.308c.217-.11.651-.11.868.109l1.735 1.417zm12.799-2.289c.217.218.217.436 0 .654l-2.278 1.308c-.217.109-.651.109-.868-.11l-1.735-1.416c-.217-.218-.217-.436 0-.654l2.278-1.309c.217-.108.651-.108.867.11l1.736 1.417zm-4.556 2.617c.217.218.217.436 0 .654l-2.386 1.308c-.217.11-.65.11-.867-.109l-1.736-1.417c-.217-.218-.217-.436 0-.654l2.278-1.308c.217-.11.651-.11.868.109l1.843 1.417zm-4.555 2.726c.217.218.217.436 0 .654l-2.277 1.309c-.217.109-.651.109-.868-.11l-1.736-1.417c-.216-.218-.216-.436 0-.654l2.278-1.308c.217-.109.651-.109.868.11l1.735 1.416zm7.267-12.645c.217.109.217.327 0 .436l-1.844 1.09c-.217.109-.542.109-.651-.109l-.65-.545c-.217-.11-.217-.327 0-.436l1.844-1.09c.216-.11.542-.11.65.109l.651.545zm2.928 2.399c.217.109.217.436 0 .545l-1.844 1.09c-.216.109-.542.109-.65-.11l-.651-.544c-.217-.11-.217-.327 0-.436l1.844-1.09c.217-.11.542-.11.65.109l.651.436z" fill="#CFDEEB"/><path d="M106.74 55.041c.217.11.542.218.65.11l1.844-1.09c.109 0 .109-.11.109-.219l.108-.436c0 .11-.108.11-.108.218l-1.844 1.09c-.217.11-.542.11-.651-.109l-.651-.545c-.108-.109-.108-.218-.108-.327l-.109.436c0 .11 0 .218.109.327l.651.545zm-3.797 3.49c.217.218.651.218.868.11l2.278-1.309.217-.218.108-.436c0 .11-.108.218-.217.218l-2.277 1.308c-.217.11-.651.11-.868-.109l-1.735-1.417c-.109-.109-.217-.218-.217-.436l-.109.436c0 .11 0 .218.217.436l1.735 1.417zm-4.555 2.724c.217.217.651.217.868.108l2.278-1.308.217-.218.108-.436c0 .11-.108.218-.217.218l-2.278 1.308c-.217.11-.65.11-.867-.109l-1.736-1.417c-.108-.109-.108-.218-.108-.327l-.109.436c0 .11 0 .218.217.436l1.627 1.309zm-1.193 1.199l.109-.436c0 .11-.109.218-.217.218l-2.278 1.308c-.217.11-.65.11-.868-.109l-1.735-1.417c-.109-.109-.217-.218-.217-.436l-.108.436c0 .11 0 .218.216.436l1.736 1.417c.217.218.65.218.868.11l2.277-1.309c.109-.109.217-.109.217-.218zm11.822-6.213l-.108.436c0 .11 0 .218.108.327l.651.545c.217.11.542.218.651.11l1.844-1.09c.108 0 .108-.11.108-.219l.109-.436c0 .11-.109.11-.109.218l-1.844 1.09c-.217.11-.542.11-.65-.109l-.651-.545c-.109-.109-.217-.327-.109-.327zm-1.518 5.451l2.278-1.309.216-.218.109-.436c0 .11-.109.218-.217.218l-2.278 1.308c-.217.11-.65.11-.867-.108l-1.736-1.418c-.108-.109-.217-.218-.217-.327l-.108.436c0 .11 0 .218.217.327l1.735 1.418c.217.218.651.218.868.109zm-5.315 2.181l-1.735-1.417c-.109-.11-.217-.218-.217-.327l-.108.436c0 .109 0 .218.216.327l1.736 1.417c.217.218.651.218.867.11l2.278-1.309.217-.218.109-.436c0 .109-.109.218-.217.218l-2.278 1.308c-.325.11-.651.11-.868-.109zm-1.41 1.632l.109-.436c0 .11-.109.218-.217.218l-2.278 1.308c-.217.11-.65.11-.868-.109l-1.735-1.417c-.108-.109-.217-.218-.217-.327l-.108.436c0 .11 0 .218.217.327l1.735 1.417c.217.218.65.218.868.11l2.277-1.309c.217-.109.217-.218.217-.218zm10.304-.763l2.278-1.308c.108-.11.108-.11.217-.218l.108-.436c0 .109-.108.218-.217.218l-2.278 1.308c-.216.109-.65.109-.867-.11l-1.736-1.416c-.108-.11-.216-.218-.216-.436l-.109.436c0 .109 0 .218.217.436l1.735 1.417c.326.218.651.218.868.109zm-5.423 2.508c.217.218.651.218.868.11l2.277-1.309.217-.218.109-.436c0 .109-.109.218-.217.218l-2.278 1.308c-.217.11-.651.11-.868-.109l-1.735-1.417c-.108-.109-.217-.218-.217-.436l-.108.436c0 .109 0 .218.217.436l1.735 1.417zm-1.193 1.2l.108-.436c0 .11-.108.219-.216.219l-2.278 1.417c-.217.109-.651.109-.868-.11l-1.735-1.416c-.109-.11-.217-.218-.217-.436l-.109.436c0 .109 0 .218.217.436l1.736 1.417c.217.218.651.218.867.109l2.278-1.308c.109-.11.217-.218.217-.327zm10.304-1.089c-.217.109-.651.109-.868-.109l-1.735-1.417c-.109-.11-.217-.218-.217-.327l-.109.436c0 .109 0 .218.217.327l1.735 1.417c.217.218.651.218.868.11l2.278-1.31.217-.217.108-.436c0 .109-.108.218-.217.218l-2.277 1.308zm-4.556 2.613c-.217.11-.65.11-.867-.109l-1.736-1.417c-.108-.109-.217-.218-.217-.327l.109.327c0 .11 0 .218.217.327l1.735 1.417c.217.218.651.218.868.11l2.277-1.309.217-.218.109-.436c0 .11-.109.218-.217.218l-2.495 1.417zm-4.555 2.726c-.217.11-.651.11-.868-.108l-1.627-1.417c-.108-.11-.217-.218-.217-.327l-.108.436c0 .109 0 .218.217.327l1.735 1.417c.217.218.651.218.868.109l2.278-1.308.216-.218.109-.436c0 .109-.109.218-.217.218l-2.386 1.308zm6.291-14.06l-.109.436c0 .109 0 .218.109.327l.65.545c.217.109.543.218.651.109l1.844-1.09c.108 0 .108-.11.108-.218l.109-.437c0 .11-.109.11-.109.219l-1.843 1.09c-.217.109-.543.109-.651-.11l-.651-.544c-.108-.11-.108-.218-.108-.328zm2.928 2.507l-.108.436c0 .11 0 .218.108.327l.651.546c.217.108.542.217.651.108l1.843-1.09c.109 0 .109-.109.109-.218l.108-.436c0 .11-.108.11-.108.218l-1.844 1.09c-.217.11-.542.11-.651-.109l-.542-.545c-.108-.109-.217-.218-.217-.327zm6.399 2.29l-1.844 1.09c-.217.109-.542.109-.65-.11l-.651-.544c-.109-.11-.109-.218-.109-.327l-.108.436c0 .109 0 .218.108.327l.651.545c.217.109.542.218.651.109l1.844-1.09c.108 0 .108-.11.108-.218l.109-.436c0 .109-.109.218-.109.218z" fill="#447695"/><path d="M121.273 63c.217.108.217.326 0 .435l-1.843 1.09c-.217.11-.543.11-.651-.109l-.651-.545c-.217-.109-.217-.327 0-.436l1.844-1.09c.217-.109.542-.109.651.11l.65.544z" fill="#CFDEEB"/><path d="M97.087 42.61l-17.245 9.92 7.7 6.431 17.245-10.029-7.7-6.323z" fill="#447695"/><path opacity=".4" d="M97.087 43.372l7.158 5.887.542-.327-7.7-6.432L79.95 52.53c.217.108.325.326.542.435l16.595-9.593z" fill="#305D79"/><path d="M80.059 63.868L64.766 51.223l-10.52 5.995 39.804 33.14 5.314-3.162L80.06 63.868z" fill="#447695"/><path d="M65.525 64.633a.6.6 0 00-.326.545l-.108.327 11.93-6.977.11-.327c.108-.218.216-.436.325-.545l-11.931 6.977zm29.718 22.238l-.76 3.162 12.04-6.977.65-3.162-11.93 6.977z" fill="#CFDEEB"/><path d="M106.957 78.913c-.326-.654-.977-1.635-1.953-2.725-6.724-7.631-27.115-24.092-34.707-28.453-1.518-.872-2.494-1.308-2.82-1.09l-11.93 6.977c.325-.218 1.301.218 2.82 1.09 7.592 4.36 27.982 20.822 34.707 28.452.976 1.09 1.627 1.962 1.952 2.726.217.436.217.654.217.872l11.931-6.977c0-.11 0-.436-.217-.872z" fill="#F3F7FC"/><path d="M58.258 54.82c-1.735-.98-2.82-1.417-2.928-.872l-.651 3.162 10.304 8.612.108-.327c.109-.654.65-.873 1.302-.436.108 0 .216.109.216.218 6.834 5.45 14.209 11.555 17.896 16.896l9.979 8.285.65-3.161c.76-3.816-27.548-27.035-36.876-32.377z" fill="#CFDEEB"/><path d="M105.004 76.297l-11.93 6.977c.976 1.09 1.627 1.962 1.952 2.725l11.931-6.977c-.326-.763-.977-1.635-1.953-2.725z" fill="#CFDEEB"/><path d="M105.33 96.464c-.109 0-.217 0-.326-.109-.434-.218-.65-.763-.434-1.199 1.194-2.616-1.626-6.868-3.904-9.048-.325-.327-.325-.872 0-1.308.325-.327.976-.327 1.301 0 .651.654 6.291 6.54 4.23 11.12-.217.326-.542.544-.867.544z" fill="#447695"/></g><path fill-rule="evenodd" clip-rule="evenodd" d="M59.21 24.371l-4.316 4.168a6 6 0 01.148-8.484l4.168 4.316zM46.706 11.423l4.168 4.316c-4.767 4.604-4.9 12.2-.296 16.968l-4.316 4.168c-6.906-7.151-6.707-18.546.444-25.452zM38.37 2.791l4.168 4.316c-9.534 9.208-9.8 24.401-.592 33.936l-4.316 4.168c-11.51-11.919-11.178-30.91.74-42.42z" fill="#FFDE38"/><defs><linearGradient id="paint0_linear_1341_156" x1="18.29" y1="72.645" x2="137.686" y2="5.438" gradientUnits="userSpaceOnUse"><stop stop-color="#3FC0F0"/><stop offset="1" stop-color="#D1FC4F"/></linearGradient><clipPath id="clip0_1341_156"><path fill="#fff" transform="translate(37 34)" d="M0 0h100v75H0z"/></clipPath></defs></svg>