<svg width="196" height="40" fill="none" xmlns="http://www.w3.org/2000/svg"><path d="M27.867.167h6.742L20.7 40h-6.844L0 .167h6.686l8.282 24.77c.436 1.181.9 2.697 1.381 4.556.492 1.87.807 3.255.956 4.157.232-1.377.593-2.976 1.085-4.798.491-1.813.89-3.152 1.196-4.026L27.868.167zM39.85 40V.167h6.492V40H39.85zm30.706 0h-6.492V5.746H52.378V.167h29.861v5.58H70.555V40zm38.522 0l-3.969-11.046h-15.18L86.041 40h-6.844L94.054 0h7.067l14.856 40h-6.9zm-5.675-16.68l-3.719-10.842c-.278-.725-.649-1.87-1.131-3.431a74.068 74.068 0 01-.993-3.44c-.491 2.24-1.205 4.676-2.142 7.336l-3.589 10.376h11.574z" fill="#4B4B4D"/><path d="M141.629.168h6.742l-13.91 39.833h-6.844L113.762.168h6.686l8.281 24.77c.436 1.18.9 2.696 1.382 4.556.492 1.869.807 3.254.955 4.156.232-1.376.594-2.975 1.085-4.798.492-1.813.891-3.152 1.197-4.026L141.629.168zm11.982 39.833V.168h6.492v39.833h-6.492zm30.705 0h-6.491V5.747H166.14V.168h29.861v5.579h-11.685V40z" fill="#858588"/></svg>