<svg width="147" height="31" fill="none" xmlns="http://www.w3.org/2000/svg"><path d="M20.9.625h5.057L15.524 30.5h-5.133L0 .625h5.015l6.21 18.578c.328.886.675 2.022 1.037 3.417.369 1.402.605 2.44.716 3.117.175-1.032.446-2.231.814-3.598.369-1.36.668-2.364.898-3.02L20.9.625zM29.888 30.5V.625h4.869V30.5h-4.87zm23.029 0h-4.869V4.81h-8.764V.625H61.68V4.81h-8.763V30.5zm28.892 0l-2.977-8.285H67.445L64.531 30.5h-5.133L70.54.5h5.3l11.143 30h-5.175zm-4.257-12.51l-2.789-8.132c-.208-.544-.487-1.401-.848-2.573a55.604 55.604 0 01-.744-2.58c-.369 1.68-.904 3.508-1.607 5.502l-2.692 7.782h8.68zM106.221.625h5.056L100.845 30.5h-5.133L85.32.625h5.015l6.211 18.578c.327.885.675 2.022 1.036 3.416.37 1.402.606 2.441.717 3.118.174-1.032.445-2.232.814-3.599.368-1.36.667-2.364.897-3.02L106.221.626zm8.986 29.875V.625h4.869V30.5h-4.869zm23.029 0h-4.869V4.81h-8.763V.624H147v4.184h-8.764V30.5z" fill="#fff"/></svg>