<svg width="110" height="106" fill="none" xmlns="http://www.w3.org/2000/svg"><g clip-path="url(#clip0_951_710)"><path d="M60.084 35.724c-.053-.197-.073-.404-.126-.601-2.868-10.7-13.719-17.073-24.241-14.255-7.592 2.033-12.904 8.29-14.22 15.629a10.104 10.104 0 00-4.7.112C11.94 37.91 8.855 42.6 9.343 47.515 4.052 51.085 1.38 57.781 3.142 64.35c2.215 8.263 10.614 13.194 18.753 11.031l45.566-12.204c7.434-2.026 11.799-9.776 9.773-17.332-2.013-7.576-9.702-12.097-17.15-10.12z" fill="#40BFEE"/><g filter="url(#filter0_bd_951_710)"><path d="M83.737 62.724c0-.204.034-.409.034-.613 0-11.077-8.83-20.04-19.725-20.04-7.859 0-14.61 4.669-17.781 11.417a10.103 10.103 0 00-4.57-1.108c-5.028 0-9.222 3.732-10.023 8.606-6.035 2.08-10.349 7.856-10.349 14.656 0 8.554 6.837 15.49 15.258 15.507h47.173c7.706-.034 13.928-6.39 13.928-14.212.018-7.84-6.24-14.196-13.945-14.213z" fill="#fff" fill-opacity=".7" shape-rendering="crispEdges"/></g><path fill-rule="evenodd" clip-rule="evenodd" d="M68.01 61.438c-2.118-2.19-4.938-3.382-7.986-3.35a.75.75 0 10.016 1.5c2.63-.028 5.056.995 6.891 2.892 1.835 1.897 2.777 4.355 2.66 6.982a.75.75 0 001.498.067c.136-3.044-.962-5.902-3.08-8.091zm-8.027-.591a8.303 8.303 0 016.022 2.528 8.297 8.297 0 012.325 6.1.75.75 0 01-1.5-.053 6.798 6.798 0 00-1.904-5.005 6.803 6.803 0 00-4.94-2.07.75.75 0 11-.003-1.5zm4.02 4.464a5.442 5.442 0 00-4.135-1.667.75.75 0 10.063 1.498 3.94 3.94 0 012.993 1.212 4.093 4.093 0 011.149 3.013.75.75 0 001.498.07 5.592 5.592 0 00-1.569-4.126zm-3.142 9.186l.025.01 5.217 2.224a.318.318 0 01.183.313 4.764 4.764 0 01-4.714 4.126c-8.025 0-14.556-6.53-14.557-14.551a4.763 4.763 0 014.129-4.71.319.319 0 01.314.183l2.236 5.216a.272.272 0 01-.024.259l-.009.013-1.851 2.832a1.5 1.5 0 00-.09 1.484c.986 2 2.61 3.614 4.616 4.588a1.5 1.5 0 001.486-.1l2.8-1.862.007-.005a.24.24 0 01.232-.02zm4.84 6.613a6.265 6.265 0 002.075-3.891 1.816 1.816 0 00-1.07-1.862l-5.232-2.23a1.74 1.74 0 00-1.683.146l-2.8 1.861a8.529 8.529 0 01-3.925-3.901l1.85-2.832a1.773 1.773 0 00.157-1.683l-2.242-5.229a1.818 1.818 0 00-1.862-1.07 6.27 6.27 0 00-5.454 6.198c0 8.852 7.205 16.053 16.06 16.053a6.27 6.27 0 004.125-1.56z" fill="#000"/></g><defs><clipPath id="clip0_951_710"><path fill="#fff" d="M0 0h110v106H0z"/></clipPath><filter id="filter0_bd_951_710" x="16.323" y="37.07" width="96.359" height="69.079" filterUnits="userSpaceOnUse" color-interpolation-filters="sRGB"><feFlood flood-opacity="0" result="BackgroundImageFix"/><feGaussianBlur in="BackgroundImageFix" stdDeviation="2.5"/><feComposite in2="SourceAlpha" operator="in" result="effect1_backgroundBlur_951_710"/><feColorMatrix in="SourceAlpha" values="0 0 0 0 0 0 0 0 0 0 0 0 0 0 0 0 0 0 127 0" result="hardAlpha"/><feOffset dx="5" dy="5"/><feGaussianBlur stdDeviation="5"/><feComposite in2="hardAlpha" operator="out"/><feColorMatrix values="0 0 0 0 0 0 0 0 0 0 0 0 0 0 0 0 0 0 0.05 0"/><feBlend in2="effect1_backgroundBlur_951_710" result="effect2_dropShadow_951_710"/><feBlend in="SourceGraphic" in2="effect2_dropShadow_951_710" result="shape"/></filter></defs></svg>