<svg width="110" height="106" fill="none" xmlns="http://www.w3.org/2000/svg"><g clip-path="url(#clip0_951_700)"><path d="M34.58 24.187c-4.776-2.27-10.537-1.271-15.524.592-5.805 2.175-11.28 5.791-14.574 8.47a2.015 2.015 0 00-.647.942c-.12.368-.129.763-.028 1.137l11.617 42.839a2.035 2.035 0 001.348 1.398 2.063 2.063 0 001.919-.364c3.054-2.478 8.146-5.834 13.427-7.812 5.403-2.024 10.3-2.364 13.629.052a2.053 2.053 0 001.734.322 2.05 2.05 0 00.8-.418c.233-.196.417-.442.54-.718 1.66-3.737 6.073-5.862 11.772-6.778 5.578-.896 11.69-.507 15.585.131a2.065 2.065 0 001.846-.633 2.008 2.008 0 00.46-1.877L66.868 18.632a2.012 2.012 0 00-.6-.97 2.05 2.05 0 00-1.036-.496c-4.209-.693-10.78-1.12-16.908-.136-5.262.847-10.756 2.831-13.744 7.158z" fill="#40BFEF"/><g filter="url(#filter0_bd_951_700)"><path d="M54.47 42.127c-4.018-3.415-9.845-3.923-15.15-3.399-6.177.617-12.412 2.71-16.296 4.456a2.03 2.03 0 00-.871.743 1.999 1.999 0 00-.325 1.091v44.35c0 .338.086.67.25.966.163.296.4.547.686.73a2.057 2.057 0 001.949.14c3.599-1.614 9.397-3.553 15.015-4.113 5.75-.573 10.568.35 13.151 3.536a2.061 2.061 0 003.183 0c2.583-3.186 7.402-4.109 13.147-3.536 5.622.56 11.424 2.5 15.02 4.112a2.063 2.063 0 001.948-.14 2.02 2.02 0 00.687-.73c.163-.295.249-.627.249-.964v-44.35a2 2 0 00-.325-1.092 2.033 2.033 0 00-.87-.743c-3.885-1.746-10.12-3.839-16.297-4.456-5.305-.528-11.131-.016-15.15 3.4z" fill="#fff" fill-opacity=".7" shape-rendering="crispEdges"/></g><path fill-rule="evenodd" clip-rule="evenodd" d="M71.265 54.023a2.442 2.442 0 013.425 0l2.096 2.07c.944.93.966 2.472-.042 3.392l-1.585 1.563a.75.75 0 01-1.054 0l-4.432-4.38a.75.75 0 01-.001-1.066l1.593-1.58zm1.054 1.067l-1.053 1.044 3.367 3.327 1.07-1.055a.635.635 0 01.025-.024c.35-.314.367-.863.005-1.22l-2.097-2.072a.943.943 0 00-1.317 0zm-3.484 2.137c.027.02.052.042.076.066l4.515 4.46a.75.75 0 010 1.068l-6.86 6.778a12.197 12.197 0 01-7.256 3.446h-.003a1.59 1.59 0 01-1.748-1.746v-.004a11.987 11.987 0 013.489-7.172l4.027-4.073 2.232-2.212-1.367-1.318c-.154-.064-.805-.232-1.73.683a66.247 66.247 0 01-3.42 3.108.75.75 0 11-.966-1.148 64.91 64.91 0 003.33-3.027c1.45-1.433 2.924-1.337 3.657-.844.036.025.07.052.101.082l1.923 1.853zm-.45 1.655l-2.251 2.23-4.029 4.075a10.487 10.487 0 00-3.055 6.274v-.001l-.745-.08.745.084v-.003a.079.079 0 00.026.066.09.09 0 00.074.027 10.697 10.697 0 006.362-3.022l6.32-6.245-3.447-3.405zm-35.908-4.164a.75.75 0 01.75-.75H50.38a.75.75 0 010 1.5H33.227a.75.75 0 01-.75-.75zm0 7.38a.75.75 0 01.75-.75H50.38a.75.75 0 010 1.5H33.227a.75.75 0 01-.75-.75zm.75 6.63a.75.75 0 100 1.5H50.38a.75.75 0 000-1.5H33.227z" fill="#000"/></g><defs><clipPath id="clip0_951_700"><path fill="#fff" d="M0 0h110v106H0z"/></clipPath><filter id="filter0_bd_951_700" x="16.828" y="33.55" width="85.285" height="72.834" filterUnits="userSpaceOnUse" color-interpolation-filters="sRGB"><feFlood flood-opacity="0" result="BackgroundImageFix"/><feGaussianBlur in="BackgroundImageFix" stdDeviation="2.5"/><feComposite in2="SourceAlpha" operator="in" result="effect1_backgroundBlur_951_700"/><feColorMatrix in="SourceAlpha" values="0 0 0 0 0 0 0 0 0 0 0 0 0 0 0 0 0 0 127 0" result="hardAlpha"/><feOffset dx="5" dy="5"/><feGaussianBlur stdDeviation="5"/><feComposite in2="hardAlpha" operator="out"/><feColorMatrix values="0 0 0 0 0 0 0 0 0 0 0 0 0 0 0 0 0 0 0.05 0"/><feBlend in2="effect1_backgroundBlur_951_700" result="effect2_dropShadow_951_700"/><feBlend in="SourceGraphic" in2="effect2_dropShadow_951_700" result="shape"/></filter></defs></svg>