<svg width="110" height="107" fill="none" xmlns="http://www.w3.org/2000/svg"><rect width="58.895" height="58.925" rx="10" transform="rotate(-15.008 98.847 -10.149) skewX(-.017)" fill="#40BFEF"/><g filter="url(#filter0_bd_951_692)"><rect x="31.107" y="33.073" width="58.892" height="58.927" rx="10" fill="#fff" fill-opacity=".7" shape-rendering="crispEdges"/></g><path fill-rule="evenodd" clip-rule="evenodd" d="M73.502 67.123l1.333-.267a2.748 2.748 0 002.21-2.697v-3.245a2.752 2.752 0 00-2.208-2.697l-1.335-.267c-.16-.454-.343-.9-.55-1.335l.754-1.129a2.762 2.762 0 00-.344-3.47l-2.295-2.296a2.756 2.756 0 00-3.467-.344l-1.129.754a13.7 13.7 0 00-1.334-.55l-.267-1.334a2.75 2.75 0 00-2.695-2.211h-3.243a2.748 2.748 0 00-2.695 2.21l-.267 1.335c-.454.16-.9.343-1.334.55l-1.129-.754a2.757 2.757 0 00-3.468.344l-2.294 2.297a2.76 2.76 0 00-.344 3.47l.753 1.128c-.206.435-.39.88-.55 1.335l-1.333.267a2.748 2.748 0 00-2.21 2.697v3.245a2.751 2.751 0 002.21 2.697l1.334.267c.16.454.343.9.55 1.335l-.754 1.129a2.762 2.762 0 00.344 3.47l2.295 2.296a2.76 2.76 0 003.467.344l1.129-.754c.434.207.88.39 1.334.55l.267 1.334a2.75 2.75 0 002.695 2.211h3.243a2.747 2.747 0 002.695-2.21l.267-1.335c.454-.16.9-.343 1.334-.55l1.129.754a2.757 2.757 0 003.468-.344l2.294-2.297a2.76 2.76 0 00.344-3.47l-.753-1.128c.206-.435.39-.881.55-1.335zm-1.046 3.293l-.001-.001-1.222-1.832.364-.768c.184-.388.348-.785.49-1.19l.283-.806 2.171-.434a1.249 1.249 0 001.004-1.226v-3.245a1.251 1.251 0 00-1.003-1.226l-2.171-.434-.284-.806a12.272 12.272 0 00-.49-1.19l-.364-.768 1.222-1.832v-.001a1.262 1.262 0 00-.156-1.583l-.001-.002-2.29-2.289a1.257 1.257 0 00-1.578-.158l-.001.002-1.833 1.223-.769-.365a12.223 12.223 0 00-1.188-.49l-.806-.284-.434-2.171a1.251 1.251 0 00-1.224-1.005h-3.243a1.248 1.248 0 00-1.224 1.004l-.434 2.172-.806.284c-.405.142-.801.306-1.189.49l-.769.365-1.832-1.224h-.001a1.257 1.257 0 00-1.58.156v.001l-2.288 2.29-.001.002a1.26 1.26 0 00-.157 1.581l.001.002 1.222 1.832-.365.768c-.184.388-.347.785-.49 1.19l-.283.806-2.17.434a1.249 1.249 0 00-1.005 1.226v3.245a1.25 1.25 0 001.004 1.226l2.171.434.284.806c.142.405.305.802.49 1.19l.364.768-1.222 1.832-.001.001A1.263 1.263 0 0048.808 72l.001.002 2.288 2.287.001.002a1.26 1.26 0 001.58.157l.002-.002 1.83-1.222.77.365c.387.184.783.348 1.188.49l.806.284.434 2.17a1.251 1.251 0 001.224 1.006h3.243a1.248 1.248 0 001.224-1.004l.434-2.172.806-.284c.404-.142.801-.306 1.189-.49l.768-.365 1.832 1.223.002.002a1.258 1.258 0 001.579-.157l.001-.001L72.298 72l.001-.001a1.261 1.261 0 00.157-1.582zM61.304 54.285a.75.75 0 01-.75.75 7.502 7.502 0 00-5.298 2.2 7.512 7.512 0 00-2.198 5.302.75.75 0 11-1.5-.001 9.012 9.012 0 012.637-6.361 9.002 9.002 0 016.358-2.64.75.75 0 01.75.75zm8.245 8.252a.75.75 0 00-1.5-.002 7.512 7.512 0 01-2.198 5.303 7.502 7.502 0 01-5.299 2.2.75.75 0 10.002 1.5 9.002 9.002 0 006.358-2.64 9.012 9.012 0 002.637-6.361z" fill="#000"/><defs><filter id="filter0_bd_951_692" x="26.107" y="28.073" width="78.893" height="78.927" filterUnits="userSpaceOnUse" color-interpolation-filters="sRGB"><feFlood flood-opacity="0" result="BackgroundImageFix"/><feGaussianBlur in="BackgroundImageFix" stdDeviation="2.5"/><feComposite in2="SourceAlpha" operator="in" result="effect1_backgroundBlur_951_692"/><feColorMatrix in="SourceAlpha" values="0 0 0 0 0 0 0 0 0 0 0 0 0 0 0 0 0 0 127 0" result="hardAlpha"/><feOffset dx="5" dy="5"/><feGaussianBlur stdDeviation="5"/><feComposite in2="hardAlpha" operator="out"/><feColorMatrix values="0 0 0 0 0 0 0 0 0 0 0 0 0 0 0 0 0 0 0.05 0"/><feBlend in2="effect1_backgroundBlur_951_692" result="effect2_dropShadow_951_692"/><feBlend in="SourceGraphic" in2="effect2_dropShadow_951_692" result="shape"/></filter></defs></svg>