<svg width="335" height="335" fill="none" xmlns="http://www.w3.org/2000/svg"><path d="M161.598 230.091l-.027-.027-.029-.025a44.05 44.05 0 01-2.874-2.808c5.033 1.341 10.208 1.952 15.519 1.952 33.461 0 60.88-27.42 60.88-60.881 0-13.716-4.663-26.323-12.053-36.452-10.975-15.362-29.077-25.23-49.362-25.23-5.325 0-10.64.763-15.608 2.059 16.032-17.774 39.317-29.017 65.359-29.017 48.388 0 87.838 39.45 87.838 87.838l.001.008c.262 48.377-39.179 87.83-87.839 87.83-23.148 0-45.237-8.942-61.805-25.247zM167.5 1.5c-91.504 0-166 74.496-166 166s74.496 166 166 166 166-74.496 166-166-74.496-166-166-166zm-31.935 167.316v-.781c0-21.359 17.504-38.622 38.889-38.622 12.599 0 23.936 6.168 31.165 15.448 4.62 6.426 7.19 14.136 7.19 22.639 0 21.372-17.517 38.889-38.889 38.889-11.83 0-22.643-5.395-29.861-13.887-5.151-6.707-8.232-14.68-8.494-23.686zM167.5 311.509c-79.415 0-144.009-64.594-144.009-144.009 0-79.415 64.594-144.009 144.009-144.009 41.394 0 78.655 17.427 104.746 45.452-14.742-7.415-31.304-11.54-48.843-11.54-56.382 0-103.28 42.807-109.278 97.564-.807 4.051-1.353 8.145-1.353 12.266 0 4.12.546 8.214 1.353 12.265 2.724 24.923 13.84 48.221 31.993 66.104 20.608 20.337 48.27 31.727 77.285 31.727 17.572 0 34.163-4.14 48.926-11.581-26.124 28.294-63.636 45.761-104.829 45.761z" fill="#F3F3F3" stroke="#F3F3F3" stroke-width="3"/></svg>