<svg width="20" height="20" fill="none" xmlns="http://www.w3.org/2000/svg"><path d="M6.616 12.06h0l-.013.005-4.315 1.84a.752.752 0 00-.44.762 4.428 4.428 0 004.379 3.845c6.9 0 12.517-5.616 12.517-12.517a4.428 4.428 0 00-3.845-4.38.752.752 0 00-.762.44l-1.85 4.317a.715.715 0 00.063.68h0l.005.006 1.53 2.34a.75.75 0 01.044.742 7.799 7.799 0 01-3.588 3.568.75.75 0 01-.743-.05l-2.313-1.539h0l-.004-.003a.687.687 0 00-.325-.114l.064-.748-.064.748a.686.686 0 00-.34.057z" stroke="#000" stroke-width="1.5" stroke-linejoin="round"/></svg>