<svg width="41" height="41" fill="none" xmlns="http://www.w3.org/2000/svg"><g clip-path="url(#clip0_497_3261)"><path d="M20.5.456C9.434.456.454 9.435.454 20.5c0 4.431 1.434 8.513 3.86 11.836L1.76 39.892l7.964-2.484A19.998 19.998 0 0020.5 40.545c11.065 0 20.044-8.979 20.044-20.045C40.544 9.435 31.565.456 20.5.456zm9.176 30.795c-3.638 1.458-7.975.047-12.721-3.556S9.084 19.02 8.874 15.253c-.21-3.766 2.857-5.667 4.524-5.655 1.668.012 3.498 5.34 3.522 6.157.023.828-2.04 2.297-2.123 2.996-.081.7 2.81 4.152 4.035 5.084 1.213.921 3.72 2.694 5.014 2.53 1.283-.174 2.134-2.751 2.95-2.914.817-.164 5.27 2.052 5.714 2.623.443.583.396 3.895-2.834 5.177z" fill="#fff"/></g><defs><clipPath id="clip0_497_3261"><path fill="#fff" d="M0 0h41v41H0z"/></clipPath></defs></svg>