<svg width="24" height="24" fill="none" xmlns="http://www.w3.org/2000/svg"><path fill-rule="evenodd" clip-rule="evenodd" d="M17.092 12.85l2.121-2.122c2.334-2.334 2.334-6.152 0-8.485-2.333-2.334-6.152-2.334-8.485 0L8.607 4.364c-.425.424-.425.99 0 1.414.424.424.99.424 1.414 0l2.121-2.121a4.012 4.012 0 015.657 0 4.012 4.012 0 010 5.657l-2.121 2.121c-.425.424-.425.99 0 1.414.424.425.99.425 1.414 0zm-6.364 6.363l2.121-2.121c.425-.424.425-.99 0-1.414-.424-.425-.99-.425-1.414 0l-2.121 2.121a4.012 4.012 0 01-5.657 0 4.012 4.012 0 010-5.657l2.121-2.121c.424-.424.424-.99 0-1.414-.424-.425-.99-.425-1.414 0l-2.121 2.12c-2.334 2.334-2.334 6.153 0 8.486 2.333 2.334 6.151 2.334 8.485 0zm-2.121-4.95l5.656-5.656c.425-.425.425-.99 0-1.415-.424-.424-.99-.424-1.414 0L7.192 12.85c-.424.425-.424.99 0 1.415.425.424.99.424 1.415 0z" fill="#DA2E1A"/><path d="M14.263 8.607l-.282-.283.282.283zm-5.656 5.657l.282.282-.282-.282zm4.242-7.072l-.283-.282.283.282zM7.192 12.85l.283.283-.283-.283zm11.738-2.404l-2.121 2.121.566.566 2.121-2.121-.566-.566zm0-7.92c2.178 2.178 2.178 5.743 0 7.92l.566.566c2.49-2.49 2.49-6.562 0-9.051l-.566.566zm-7.92 0c2.178-2.177 5.743-2.177 7.92 0l.566-.565c-2.49-2.49-6.561-2.49-9.05 0l.565.566zM8.89 4.647l2.12-2.122-.565-.565-2.121 2.12.565.566zm0 .848c-.148-.148-.202-.297-.202-.424s.054-.276.201-.424l-.565-.566c-.277.277-.436.622-.436.99s.16.714.436.99l.565-.566zm.848 0c-.148.148-.297.201-.424.201s-.277-.053-.425-.2l-.565.565c.276.276.622.435.99.435s.713-.159.99-.435l-.566-.566zm2.121-2.121L9.738 5.495l.566.566 2.121-2.121-.566-.566zm6.223 0a4.412 4.412 0 00-6.223 0l.566.566a3.61 3.61 0 015.091 0l.566-.566zm0 6.223a4.412 4.412 0 000-6.223l-.566.566a3.61 3.61 0 010 5.09l.566.567zm-2.122 2.12l2.122-2.12-.566-.566-2.121 2.121.566.566zm0 .85c-.147-.148-.2-.298-.2-.425s.053-.276.2-.424l-.565-.566c-.277.277-.435.622-.435.99s.158.714.435.99l.566-.566zm.849 0c-.148.147-.297.2-.424.2s-.277-.053-.425-.2l-.565.565c.276.277.622.436.99.436s.713-.16.99-.436l-.566-.566zm-4.243 4.242l-2.12 2.121.565.566 2.121-2.121-.566-.566zm0-.849c.148.148.201.298.201.425s-.053.276-.2.424l.565.566c.277-.277.435-.622.435-.99s-.159-.714-.435-.99l-.566.566zm-.848 0c.148-.147.297-.2.424-.2s.277.053.424.2l.566-.565c-.276-.277-.622-.435-.99-.435s-.713.158-.99.435l.566.566zm-2.121 2.122l2.12-2.122-.565-.565-2.121 2.121.566.566zm-6.223 0a4.412 4.412 0 006.223 0l-.566-.566a3.612 3.612 0 01-5.091 0l-.566.566zm0-6.223a4.412 4.412 0 000 6.223l.566-.566a3.612 3.612 0 010-5.091l-.566-.566zm2.121-2.121l-2.121 2.121.566.566 2.121-2.121-.566-.566zm0-.849c.148.148.201.298.201.425s-.053.276-.2.424l.565.566c.276-.277.435-.622.435-.99s-.159-.714-.435-.99l-.566.565zm-.848 0c.148-.147.297-.2.424-.2s.276.053.424.2l.566-.565c-.276-.277-.622-.436-.99-.436s-.713.16-.99.436l.566.565zm-2.122 2.122l2.122-2.122-.566-.565-2.121 2.121.565.566zm0 7.92c-2.177-2.178-2.177-5.743 0-7.92l-.565-.566c-2.49 2.49-2.49 6.561 0 9.051l.565-.566zm7.92 0c-2.177 2.177-5.742 2.177-7.92 0l-.565.565c2.49 2.49 6.561 2.49 9.05 0l-.565-.566zm3.536-10.607L8.324 13.98l.565.565 5.657-5.657-.565-.565zm0-.849c.148.148.2.297.2.425 0 .127-.052.276-.2.424l.565.565c.277-.276.436-.622.436-.99 0-.367-.16-.713-.436-.99l-.565.566zm-.849 0c.148-.148.297-.2.424-.2.128 0 .277.052.425.2l.565-.565c-.276-.277-.622-.436-.99-.436-.367 0-.713.16-.99.436l.566.565zm-5.657 5.657l5.657-5.657-.566-.565-5.656 5.656.565.566zm0 .849c-.148-.148-.2-.297-.2-.425 0-.127.052-.276.2-.424l-.565-.566c-.277.277-.436.622-.436.99s.16.714.436.99l.565-.565zm.849 0c-.148.148-.297.2-.425.2-.127 0-.276-.052-.424-.2l-.565.565c.276.277.622.436.99.436.367 0 .713-.16.99-.436l-.566-.565z" fill="#DB241E" mask="url(#a)"/></svg>