<svg width="110" height="106" fill="none" xmlns="http://www.w3.org/2000/svg"><g clip-path="url(#clip0_951_737)"><path d="M4.833 38.15c-1.701-6.38 2.078-12.936 8.44-14.644l45.509-12.218c6.363-1.709 12.9 2.078 14.6 8.458l8.161 30.61c1.701 6.38-2.078 12.937-8.441 14.645L27.594 77.22c-6.363 1.709-12.9-2.078-14.6-8.458l-8.161-30.61z" fill="#3FC0F0"/><g filter="url(#filter0_bd_951_737)"><path d="M22.78 46.554c.002-6.604 5.344-11.959 11.932-11.961l47.113-.018c6.587-.003 11.925 5.348 11.923 11.952l-.012 31.684c-.003 6.603-5.345 11.959-11.932 11.961l-47.114.018c-6.587.002-11.925-5.349-11.922-11.952l.012-31.684z" fill="#fff" fill-opacity=".7" shape-rendering="crispEdges"/></g><path fill-rule="evenodd" clip-rule="evenodd" d="M47.173 55.377c0 3.501-2.831 6.335-6.319 6.335-3.487 0-6.319-2.834-6.319-6.335s2.832-6.335 6.32-6.335c3.487 0 6.319 2.834 6.319 6.335zm1.5 0c0 4.327-3.5 7.835-7.819 7.835-4.318 0-7.819-3.508-7.819-7.835s3.5-7.835 7.82-7.835c4.318 0 7.819 3.508 7.819 7.835zM61 49.972a.75.75 0 000 1.5h18.882a.75.75 0 000-1.5H61zm-16.23 4.067a.75.75 0 10-1.04-1.08l-3.621 3.485-2.129-2.048a.75.75 0 00-1.04 1.08l2.235 2.152a1.345 1.345 0 001.867 0l3.728-3.589zm15.48 4.432a.75.75 0 01.75-.75h18.882a.75.75 0 010 1.5H61a.75.75 0 01-.75-.75zm.75 7a.75.75 0 000 1.5h18.882a.75.75 0 100-1.5H61zm-.75 8.5a.75.75 0 01.75-.75h18.882a.75.75 0 010 1.5H61a.75.75 0 01-.75-.75z" fill="#000"/></g><defs><clipPath id="clip0_951_737"><path fill="#fff" d="M0 0h110v106H0z"/></clipPath><filter id="filter0_bd_951_737" x="7.768" y="19.575" width="110.98" height="95.615" filterUnits="userSpaceOnUse" color-interpolation-filters="sRGB"><feFlood flood-opacity="0" result="BackgroundImageFix"/><feGaussianBlur in="BackgroundImageFix" stdDeviation="2.5"/><feComposite in2="SourceAlpha" operator="in" result="effect1_backgroundBlur_951_737"/><feColorMatrix in="SourceAlpha" values="0 0 0 0 0 0 0 0 0 0 0 0 0 0 0 0 0 0 127 0" result="hardAlpha"/><feOffset dx="5" dy="5"/><feGaussianBlur stdDeviation="10"/><feComposite in2="hardAlpha" operator="out"/><feColorMatrix values="0 0 0 0 0 0 0 0 0 0 0 0 0 0 0 0 0 0 0.05 0"/><feBlend in2="effect1_backgroundBlur_951_737" result="effect2_dropShadow_951_737"/><feBlend in="SourceGraphic" in2="effect2_dropShadow_951_737" result="shape"/></filter></defs></svg>