<svg width="110" height="106" fill="none" xmlns="http://www.w3.org/2000/svg"><g clip-path="url(#clip0_951_720)"><path fill-rule="evenodd" clip-rule="evenodd" d="M16.583 17.416A34.325 34.325 0 0139.145 9c8.66 0 16.543 3.197 22.562 8.42L49.564 29.357c-2.89-2.207-6.475-3.575-10.419-3.575-3.944 0-7.53 1.368-10.419 3.57L16.583 17.416zm0 50.292l12.143-11.936c2.89 2.206 6.475 3.574 10.419 3.574 3.944 0 7.53-1.368 10.419-3.57l12.143 11.936a34.325 34.325 0 01-22.562 8.416 34.307 34.307 0 01-22.562-8.42zm35.999-35.385c2.245 2.84 3.636 6.364 3.636 10.24 0 3.878-1.391 7.402-3.636 10.242l12.143 11.937c5.314-5.916 8.566-13.665 8.566-22.178 0-8.513-3.252-16.262-8.562-22.178L52.582 32.323zm-30.51 10.24c0 3.878 1.392 7.402 3.637 10.242L13.562 64.742C8.252 58.826 5 51.077 5 42.564c0-8.513 3.252-16.262 8.562-22.178l12.147 11.937c-2.245 2.84-3.636 6.364-3.636 10.24z" fill="#40BFEE"/><g filter="url(#filter0_bd_951_720)"><ellipse cx="59.855" cy="56.436" rx="34.145" ry="33.564" fill="#fff" fill-opacity=".7" shape-rendering="crispEdges"/></g><path fill-rule="evenodd" clip-rule="evenodd" d="M40.646 66.475a10.856 10.856 0 005.636 6.543.75.75 0 001.005-.337.75.75 0 00-.35-1.002 9.336 9.336 0 01-4.855-5.639c-.789-2.492-.53-5.077.748-7.335a.75.75 0 00-.29-1.02.75.75 0 00-1.024.277c-1.483 2.62-1.782 5.63-.87 8.513zm6.924 4.124c-2.048-1.026-3.57-2.79-4.25-4.938a8.117 8.117 0 01.655-6.422.75.75 0 011.021-.286.75.75 0 01.299 1.018 6.636 6.636 0 00-.539 5.256c.555 1.751 1.794 3.194 3.48 4.039a.75.75 0 01.342 1.004.75.75 0 01-1.008.329zm6.3-6.499l3.389 2.274a.943.943 0 001.295-.244.906.906 0 00-.24-1.274l-3.388-2.274a.943.943 0 00-1.296.244.906.906 0 00.24 1.274zm6.323 1.92a2.376 2.376 0 00-1.022-2.395l-3.389-2.274a2.474 2.474 0 00-3.397.64 2.376 2.376 0 00.628 3.34l3.39 2.275c.952.639 2.205.52 3.025-.218 3.805.864 7.86-.344 10.532-3.23a3.871 3.871 0 004.77-1.562l1.635-2.693a3.729 3.729 0 00-.696-4.726l.045-.074c3.097-5.1 1.397-11.692-3.778-14.729-5.176-3.036-11.885-1.377-14.981 3.723l-.045.074a3.872 3.872 0 00-4.566 1.64l-1.635 2.693a3.73 3.73 0 001.305 5.17 3.868 3.868 0 005.248-1.325l1.635-2.693a3.729 3.729 0 00-.694-4.725l.045-.075c2.661-4.382 8.439-5.822 12.91-3.2 4.47 2.624 5.923 8.306 3.262 12.688l-.045.074a3.872 3.872 0 00-4.563 1.64l-1.635 2.694a3.729 3.729 0 00.524 4.562c-2.197 2.264-5.419 3.264-8.508 2.706zm-2.59-17.123l-1.635 2.693a2.34 2.34 0 01-3.175.801 2.257 2.257 0 01-.79-3.128l1.635-2.693a2.34 2.34 0 013.176-.801 2.257 2.257 0 01.79 3.128zm17.468 10.247l-1.635 2.693a2.34 2.34 0 01-3.176.802 2.257 2.257 0 01-.79-3.128l1.636-2.693a2.34 2.34 0 013.175-.802 2.257 2.257 0 01.79 3.128z" fill="#000"/></g><defs><clipPath id="clip0_951_720"><path fill="#fff" d="M0 0h110v106H0z"/></clipPath><filter id="filter0_bd_951_720" x="10.71" y="7.872" width="108.291" height="107.128" filterUnits="userSpaceOnUse" color-interpolation-filters="sRGB"><feFlood flood-opacity="0" result="BackgroundImageFix"/><feGaussianBlur in="BackgroundImageFix" stdDeviation="2.5"/><feComposite in2="SourceAlpha" operator="in" result="effect1_backgroundBlur_951_720"/><feColorMatrix in="SourceAlpha" values="0 0 0 0 0 0 0 0 0 0 0 0 0 0 0 0 0 0 127 0" result="hardAlpha"/><feOffset dx="5" dy="5"/><feGaussianBlur stdDeviation="10"/><feComposite in2="hardAlpha" operator="out"/><feColorMatrix values="0 0 0 0 0 0 0 0 0 0 0 0 0 0 0 0 0 0 0.05 0"/><feBlend in2="effect1_backgroundBlur_951_720" result="effect2_dropShadow_951_720"/><feBlend in="SourceGraphic" in2="effect2_dropShadow_951_720" result="shape"/></filter></defs></svg>